<svg width="251" height="283" viewBox="0 0 251 283" fill="none" xmlns="http://www.w3.org/2000/svg">
<path d="M199.472 101.232C224.77 126.97 251.546 156.936 250.992 189.476C250.622 221.832 222.554 256.578 187.1 272.389C151.645 288.015 108.435 284.706 77.2283 266.322C45.8364 247.754 26.4473 213.927 13.1519 173.482C-0.328133 133.22 -7.71446 86.3407 12.4133 61.7059C32.541 37.2549 79.9981 35.0488 115.637 44.6086C151.092 54.1684 174.358 75.6779 199.472 101.232Z" fill="#11CABE" fill-opacity="0.3"/>
<path fill-rule="evenodd" clip-rule="evenodd" d="M30.3757 136.731C30.3757 115.485 47.5992 98.2611 68.8455 98.2611H163.225C184.471 98.2611 201.695 115.485 201.695 136.731V160.668C201.695 195.134 173.754 223.074 139.288 223.074H92.7823C58.3161 223.074 30.3757 195.134 30.3757 160.668V136.731ZM68.8455 113.649C56.0978 113.649 45.7637 123.983 45.7637 136.731V160.668C45.7637 186.635 66.8146 207.686 92.7823 207.686H139.288C165.256 207.686 186.307 186.635 186.307 160.668V136.731C186.307 123.983 175.973 113.649 163.225 113.649H68.8455Z" fill="#11CABE"/>
<path fill-rule="evenodd" clip-rule="evenodd" d="M116.031 183.58C110.932 183.58 106.798 179.446 106.798 174.347L106.798 146.991C106.798 141.892 110.932 137.758 116.031 137.758C121.13 137.758 125.264 141.892 125.264 146.991L125.264 174.347C125.264 179.446 121.13 183.58 116.031 183.58Z" fill="#11CABE"/>
<path fill-rule="evenodd" clip-rule="evenodd" d="M95.2216 26.5791C90.0159 31.0163 86.283 37.7719 86.283 47.5889V99.1154C86.283 104.215 82.1494 108.348 77.0503 108.348C71.9512 108.348 67.8175 104.215 67.8175 99.1154V47.5889C67.8175 32.4844 73.8303 20.5492 83.2431 12.5259C92.4581 4.67132 104.422 0.97447 116.033 0.974609C127.644 0.974749 139.608 4.67189 148.823 12.5266C158.236 20.5498 164.249 32.485 164.249 47.5892V99.1154C164.249 104.215 160.115 108.348 155.016 108.348C149.917 108.348 145.783 104.215 145.783 99.1154V47.5892C145.783 37.7726 142.05 31.017 136.844 26.5796C131.441 21.9736 123.913 19.4402 116.033 19.4401C108.153 19.44 100.625 21.9732 95.2216 26.5791Z" fill="#11CABE"/>
</svg>
