<svg width="104" height="167" viewBox="0 0 104 167" fill="none" xmlns="http://www.w3.org/2000/svg">
<path d="M76.9197 0.36663L16.6854 25.2912C16.204 25.4904 16.3464 26.2071 16.8674 26.2071H83.0244C83.2873 26.2071 83.5005 25.994 83.5005 25.731V4.7655C83.5005 1.37345 80.054 -0.930328 76.9197 0.36663Z" fill="#10BCB1"/>
<path d="M4.57045 39.4889C4.57045 31.6013 10.9646 25.2071 18.8522 25.2071H85.5006C93.3882 25.2071 99.7823 31.6013 99.7823 39.4889V77.5736C99.7823 85.4612 93.3882 91.8554 85.5006 91.8554H18.8522C10.9646 91.8554 4.57045 85.4612 4.57045 77.5736V39.4889Z" fill="#11CABE" fill-opacity="0.3"/>
<path fill-rule="evenodd" clip-rule="evenodd" d="M10.5212 49.0101C10.5212 47.0382 12.1197 45.4396 14.0916 45.4396L90.2612 45.4396C92.2331 45.4396 93.8316 47.0382 93.8316 49.0101C93.8316 50.982 92.2331 52.5805 90.2612 52.5805L14.0916 52.5805C12.1197 52.5805 10.5212 50.982 10.5212 49.0101Z" fill="#11CABE"/>
<path fill-rule="evenodd" clip-rule="evenodd" d="M15.2818 72.8131C15.2818 70.8412 16.8803 69.2426 18.8522 69.2426L47.4158 69.2426C49.3877 69.2426 50.9862 70.8412 50.9862 72.8131C50.9862 74.785 49.3877 76.3835 47.4158 76.3835L18.8522 76.3835C16.8803 76.3835 15.2818 74.785 15.2818 72.8131Z" fill="#11CABE"/>
<path d="M19.71 119.5H25.515V151H19.71V148.345C18 150.535 15.57 151.63 12.42 151.63C9.39002 151.63 6.79502 150.49 4.63502 148.21C2.50502 145.9 1.44002 143.08 1.44002 139.75C1.44002 136.42 2.50502 133.615 4.63502 131.335C6.79502 129.025 9.39002 127.87 12.42 127.87C15.57 127.87 18 128.965 19.71 131.155V119.5ZM9.00002 144.34C10.2 145.51 11.7 146.095 13.5 146.095C15.3 146.095 16.785 145.51 17.955 144.34C19.125 143.14 19.71 141.61 19.71 139.75C19.71 137.89 19.125 136.375 17.955 135.205C16.785 134.005 15.3 133.405 13.5 133.405C11.7 133.405 10.2 134.005 9.00002 135.205C7.83002 136.375 7.24502 137.89 7.24502 139.75C7.24502 141.61 7.83002 143.14 9.00002 144.34ZM45.359 127.87C47.819 127.87 49.844 128.695 51.434 130.345C53.054 131.995 53.864 134.275 53.864 137.185V151H48.059V137.905C48.059 136.405 47.654 135.265 46.844 134.485C46.034 133.675 44.954 133.27 43.604 133.27C42.104 133.27 40.904 133.735 40.004 134.665C39.104 135.595 38.654 136.99 38.654 138.85V151H32.849V128.5H38.654V131.02C40.064 128.92 42.299 127.87 45.359 127.87ZM65.7506 142.135C66.5306 144.955 68.6456 146.365 72.0956 146.365C74.3156 146.365 75.9956 145.615 77.1356 144.115L81.8156 146.815C79.5956 150.025 76.3256 151.63 72.0056 151.63C68.2856 151.63 65.3006 150.505 63.0506 148.255C60.8006 146.005 59.6756 143.17 59.6756 139.75C59.6756 136.36 60.7856 133.54 63.0056 131.29C65.2256 129.01 68.0756 127.87 71.5556 127.87C74.8556 127.87 77.5706 129.01 79.7006 131.29C81.8606 133.57 82.9406 136.39 82.9406 139.75C82.9406 140.5 82.8656 141.295 82.7156 142.135H65.7506ZM65.6606 137.635H77.1356C76.8056 136.105 76.1156 134.965 75.0656 134.215C74.0456 133.465 72.8756 133.09 71.5556 133.09C69.9956 133.09 68.7056 133.495 67.6856 134.305C66.6656 135.085 65.9906 136.195 65.6606 137.635ZM101.229 134.08H96.1439V143.44C96.1439 144.22 96.3389 144.79 96.7289 145.15C97.1189 145.51 97.6889 145.72 98.4389 145.78C99.1889 145.81 100.119 145.795 101.229 145.735V151C97.2389 151.45 94.4189 151.075 92.7689 149.875C91.1489 148.675 90.3389 146.53 90.3389 143.44V134.08H86.4239V128.5H90.3389V123.955L96.1439 122.2V128.5H101.229V134.08Z" fill="#10BCB1"/>
</svg>
