<svg width="528" height="600" viewBox="0 0 528 600" fill="none" xmlns="http://www.w3.org/2000/svg">
<g filter="url(#filter0_d_752_17347)">
<path d="M238.141 20.5948C201.382 26.3384 135.618 42.7076 100.295 55.0564C70.1413 65.3948 20.7464 85.7846 17.5874 89.2307C14.1412 92.6769 16.7259 167.056 21.3207 197.497C39.7002 319.549 97.9977 434.133 183.29 516.554C208.275 540.677 253.075 576 258.818 576C265.998 576 325.58 528.615 329.026 520C329.026 520 316.103 511.385 303.18 501.333C209.559 438.441 141.649 315.528 122.408 205.538C113.793 157.005 113.793 154.42 122.695 149.826C134.182 143.795 198.223 122.544 207.7 121.682C215.741 120.821 216.028 121.108 220.91 145.231C237.567 227.077 283.803 317.826 346.695 392.205C371.105 421.21 395.228 445.908 397.239 443.61C397.813 443.036 405.28 431.549 414.182 418.051C467.598 335.056 496.029 241.723 501.485 129.723L503.208 90.6667L479.085 79.4666C465.875 73.1487 443.762 64.2461 429.977 59.3641L404.705 49.0256V86.0718C404.705 146.667 395.516 215.303 382.305 254.359L376.849 269.867L365.936 250.051C350.141 222.195 334.634 184.862 326.018 154.995C318.552 129.436 308.5 71.1384 305.341 35.241L303.618 16L284.664 16.2872C274.039 16.5743 253.075 18.2974 238.141 20.5948Z" fill="url(#paint0_linear_752_17347)"/>
</g>
<defs>
<filter id="filter0_d_752_17347" x="0" y="0" width="527.208" height="600" filterUnits="userSpaceOnUse" color-interpolation-filters="sRGB">
<feFlood flood-opacity="0" result="BackgroundImageFix"/>
<feColorMatrix in="SourceAlpha" type="matrix" values="0 0 0 0 0 0 0 0 0 0 0 0 0 0 0 0 0 0 127 0" result="hardAlpha"/>
<feOffset dx="4" dy="4"/>
<feGaussianBlur stdDeviation="10"/>
<feComposite in2="hardAlpha" operator="out"/>
<feColorMatrix type="matrix" values="0 0 0 0 0 0 0 0 0 0 0 0 0 0 0 0 0 0 0.2 0"/>
<feBlend mode="normal" in2="BackgroundImageFix" result="effect1_dropShadow_752_17347"/>
<feBlend mode="normal" in="SourceGraphic" in2="effect1_dropShadow_752_17347" result="shape"/>
</filter>
<linearGradient id="paint0_linear_752_17347" x1="-298.462" y1="-41.4359" x2="749.744" y2="255.795" gradientUnits="userSpaceOnUse">
<stop offset="0.0083687" stop-color="#020024"/>
<stop offset="0.267209" stop-color="#00D4FF"/>
<stop offset="0.610175" stop-color="#2A5ADA"/>
<stop offset="1" stop-color="#2A5ADA"/>
</linearGradient>
</defs>
</svg>
