<svg width="404" height="104" viewBox="0 0 404 104" fill="none" xmlns="http://www.w3.org/2000/svg">
<g clip-path="url(#clip0_2330_32097)">
<path d="M10.3476 65.9798C12.8323 71.0235 15.7257 75.8258 19.0112 80.3661C21.2957 78.4551 23.5039 76.4326 25.6316 74.3049C27.4869 72.4496 29.2597 70.5344 30.9499 68.5594C37.69 60.7028 43.1342 51.9092 47.1812 42.3396C50.5967 34.2642 52.9142 25.8648 54.1174 17.2405C59.4315 17.9421 64.5888 19.1432 69.5438 20.7963C69.548 21.0295 69.548 21.2648 69.548 21.498C69.548 45.6086 59.3448 67.3831 43.0289 82.7229C38.9675 86.5449 34.5263 89.9645 29.7715 92.9239C33.899 97.0184 38.3257 100.717 43.0289 104C47.7322 100.717 52.1589 97.0184 56.2864 92.9239C56.3916 92.8228 56.4969 92.7175 56.6021 92.6123C65.8353 83.3791 73.0852 72.6229 78.1517 60.6471C82.5247 50.3098 85.1003 39.438 85.835 28.2464C85.9836 26.0093 86.0579 23.7598 86.0579 21.498C86.0579 17.3932 85.8143 13.3256 85.3294 9.30539C84.2892 8.82248 83.2388 8.35607 82.178 7.90824C77.3922 5.88372 72.4908 4.24511 67.4945 2.99655C63.4083 1.97087 59.2602 1.20729 55.0585 0.709928C51.0919 0.237333 47.078 3.40773e-06 43.0289 3.76171e-06C41.5203 3.89359e-06 40.0179 0.0330238 38.5197 0.0990636C38.5589 1.12474 38.5774 2.15455 38.5774 3.19054C38.5774 7.78442 38.206 12.2958 37.4919 16.6915C35.3436 29.9552 30.079 42.1869 22.4782 52.6109C18.9204 57.4916 14.8486 61.974 10.3476 65.9798Z" fill="white"/>
<path d="M-2.12707e-05 21.498C-2.1073e-05 23.7598 0.0742704 26.0093 0.222861 28.2464C0.957551 39.4381 3.5331 50.3098 7.90616 60.6471C8.66974 62.4529 9.48492 64.2318 10.3476 65.9798C14.8486 61.9741 18.9203 57.4916 22.4782 52.6109C18.6273 42.9836 16.5099 32.4833 16.5099 21.498C16.5099 21.2648 16.5099 21.0295 16.514 20.7963C16.5635 14.6877 17.2673 8.73171 18.5633 2.99658C13.567 4.24514 8.66561 5.88375 3.8798 7.90828C2.81904 8.35611 1.7686 8.82251 0.728476 9.30543C0.243499 13.3256 -2.16296e-05 17.3932 -2.12707e-05 21.498Z" fill="white"/>
</g>
<g filter="url(#filter0_d_2330_32097)">
<path d="M164.157 78.3024H153.488L129.331 41.8003V78.3024H118.663V25.0353H129.331L153.488 61.6135V25.0353H164.157V78.3024ZM171.957 57.0413C171.957 52.7738 172.795 48.989 174.471 45.6868C176.199 42.3846 178.51 39.8444 181.406 38.0663C184.353 36.2882 187.629 35.3991 191.236 35.3991C194.386 35.3991 197.13 36.0342 199.467 37.3043C201.854 38.5743 203.759 40.1746 205.182 42.1052V36.085H215.927V78.3024H205.182V72.1298C203.81 74.1111 201.905 75.7622 199.467 77.0831C197.079 78.3532 194.31 78.9882 191.16 78.9882C187.604 78.9882 184.353 78.0738 181.406 76.2448C178.51 74.4159 176.199 71.8504 174.471 68.5482C172.795 65.1952 171.957 61.3595 171.957 57.0413ZM205.182 57.1937C205.182 54.6027 204.674 52.3928 203.658 50.5639C202.642 48.6842 201.27 47.2617 199.543 46.2964C197.815 45.2804 195.961 44.7723 193.98 44.7723C191.998 44.7723 190.17 45.2549 188.493 46.2202C186.817 47.1855 185.445 48.608 184.378 50.4877C183.362 52.3166 182.854 54.5011 182.854 57.0413C182.854 59.5814 183.362 61.8168 184.378 63.7473C185.445 65.627 186.817 67.0749 188.493 68.0909C190.22 69.107 192.049 69.615 193.98 69.615C195.961 69.615 197.815 69.1324 199.543 68.1671C201.27 67.1511 202.642 65.7286 203.658 63.8997C204.674 62.02 205.182 59.7846 205.182 57.1937ZM243.95 68.472L254.618 36.085H265.973L250.351 78.3024H237.396L221.85 36.085H233.281L243.95 68.472ZM269.222 57.0413C269.222 52.7738 270.06 48.989 271.737 45.6868C273.464 42.3846 275.775 39.8444 278.671 38.0663C281.618 36.2882 284.895 35.3991 288.502 35.3991C291.651 35.3991 294.395 36.0342 296.732 37.3043C299.119 38.5743 301.024 40.1746 302.447 42.1052V36.085H313.192V78.3024H302.447V72.1298C301.075 74.1111 299.17 75.7622 296.732 77.0831C294.344 78.3532 291.575 78.9882 288.425 78.9882C284.869 78.9882 281.618 78.0738 278.671 76.2448C275.775 74.4159 273.464 71.8504 271.737 68.5482C270.06 65.1952 269.222 61.3595 269.222 57.0413ZM302.447 57.1937C302.447 54.6027 301.939 52.3928 300.923 50.5639C299.907 48.6842 298.535 47.2617 296.808 46.2964C295.081 45.2804 293.226 44.7723 291.245 44.7723C289.264 44.7723 287.435 45.2549 285.758 46.2202C284.082 47.1855 282.71 48.608 281.643 50.4877C280.627 52.3166 280.119 54.5011 280.119 57.0413C280.119 59.5814 280.627 61.8168 281.643 63.7473C282.71 65.627 284.082 67.0749 285.758 68.0909C287.485 69.107 289.314 69.615 291.245 69.615C293.226 69.615 295.081 69.1324 296.808 68.1671C298.535 67.1511 299.907 65.7286 300.923 63.8997C301.939 62.02 302.447 59.7846 302.447 57.1937ZM334.28 42.6386C335.652 40.4033 337.43 38.6505 339.615 37.3805C341.85 36.1104 344.39 35.4754 347.235 35.4754V46.6774H344.416C341.063 46.6774 338.522 47.4649 336.795 49.0398C335.119 50.6147 334.28 53.358 334.28 57.2699V78.3024H323.612V36.085H334.28V42.6386ZM351.678 57.0413C351.678 52.7738 352.516 48.989 354.192 45.6868C355.92 42.3846 358.231 39.8444 361.127 38.0663C364.074 36.2882 367.35 35.3991 370.957 35.3991C374.107 35.3991 376.851 36.0342 379.187 37.3043C381.575 38.5743 383.48 40.1746 384.903 42.1052V36.085H395.648V78.3024H384.903V72.1298C383.531 74.1111 381.626 75.7622 379.187 77.0831C376.8 78.3532 374.031 78.9882 370.881 78.9882C367.325 78.9882 364.074 78.0738 361.127 76.2448C358.231 74.4159 355.92 71.8504 354.192 68.5482C352.516 65.1952 351.678 61.3595 351.678 57.0413ZM384.903 57.1937C384.903 54.6027 384.395 52.3928 383.379 50.5639C382.363 48.6842 380.991 47.2617 379.264 46.2964C377.536 45.2804 375.682 44.7723 373.701 44.7723C371.719 44.7723 369.89 45.2549 368.214 46.2202C366.537 47.1855 365.166 48.608 364.099 50.4877C363.083 52.3166 362.575 54.5011 362.575 57.0413C362.575 59.5814 363.083 61.8168 364.099 63.7473C365.166 65.627 366.537 67.0749 368.214 68.0909C369.941 69.107 371.77 69.615 373.701 69.615C375.682 69.615 377.536 69.1324 379.264 68.1671C380.991 67.1511 382.363 65.7286 383.379 63.8997C384.395 62.02 384.903 59.7846 384.903 57.1937Z" fill="white"/>
</g>
<defs>
<filter id="filter0_d_2330_32097" x="115.091" y="21.4632" width="288.892" height="65.8599" filterUnits="userSpaceOnUse" color-interpolation-filters="sRGB">
<feFlood flood-opacity="0" result="BackgroundImageFix"/>
<feColorMatrix in="SourceAlpha" type="matrix" values="0 0 0 0 0 0 0 0 0 0 0 0 0 0 0 0 0 0 127 0" result="hardAlpha"/>
<feOffset dx="2.3814" dy="2.3814"/>
<feGaussianBlur stdDeviation="2.97674"/>
<feComposite in2="hardAlpha" operator="out"/>
<feColorMatrix type="matrix" values="0 0 0 0 0 0 0 0 0 0 0 0 0 0 0 0 0 0 0.1 0"/>
<feBlend mode="normal" in2="BackgroundImageFix" result="effect1_dropShadow_2330_32097"/>
<feBlend mode="normal" in="SourceGraphic" in2="effect1_dropShadow_2330_32097" result="shape"/>
</filter>
<clipPath id="clip0_2330_32097">
<rect width="86.0579" height="104" fill="white" transform="matrix(-1 8.74228e-08 8.74228e-08 1 86.0579 0)"/>
</clipPath>
</defs>
</svg>
