<svg width="467" height="560" viewBox="0 0 467 560" fill="none" xmlns="http://www.w3.org/2000/svg">
<g clip-path="url(#clip0_2330_32064)">
<path d="M56.0471 355.276C69.5056 382.434 85.1773 408.293 102.973 432.74C115.347 422.45 127.308 411.56 138.832 400.103C148.881 390.113 158.483 379.801 167.638 369.166C204.146 326.861 233.634 279.511 255.554 227.983C274.054 184.5 286.607 139.272 293.124 92.8333C321.907 96.6115 349.841 103.079 376.68 111.98C376.702 113.236 376.702 114.503 376.702 115.758C376.702 245.585 321.438 362.832 233.064 445.431C211.065 466.011 187.01 484.424 161.255 500.36C183.612 522.407 207.589 542.32 233.064 560C258.539 542.32 282.516 522.407 304.872 500.36C305.442 499.815 306.012 499.248 306.582 498.682C356.593 448.965 395.862 391.047 423.304 326.561C446.99 270.899 460.941 212.359 464.92 152.096C465.725 140.05 466.127 127.937 466.127 115.758C466.127 93.6556 464.808 71.753 462.181 50.106C456.548 47.5057 450.858 44.9942 445.112 42.5828C419.19 31.6816 392.642 22.8583 365.58 16.1353C343.447 10.6124 320.979 6.50079 298.221 3.82269C276.736 1.27795 254.995 1.84578e-05 233.064 2.03751e-05C224.892 2.10894e-05 216.755 0.177821 208.639 0.533419C208.852 6.0563 208.952 11.6014 208.952 17.1798C208.952 41.9161 206.94 66.2079 203.073 89.8774C191.436 161.297 162.921 227.16 121.752 283.289C102.481 309.57 80.4266 333.706 56.0471 355.276V355.276Z" fill="url(#paint0_linear_2330_32064)"/>
<path d="M3.75973e-05 115.758C3.8662e-05 127.937 0.402437 140.05 1.20726 152.096C5.18667 212.359 19.137 270.899 42.8234 326.561C46.9593 336.284 51.3747 345.863 56.0471 355.276C80.4266 333.706 102.481 309.57 121.752 283.289C100.894 231.45 89.4249 174.91 89.4249 115.758C89.4249 114.503 89.4249 113.236 89.4473 111.98C89.7155 79.0872 93.5273 47.0167 100.547 16.1353C73.4849 22.8583 46.9369 31.6816 21.0149 42.5829C15.2693 44.9943 9.57967 47.5057 3.9459 50.106C1.31905 71.753 3.5665e-05 93.6556 3.75973e-05 115.758V115.758Z" fill="#0630A2"/>
</g>
<defs>
<linearGradient id="paint0_linear_2330_32064" x1="-37.3502" y1="457.701" x2="486.806" y2="103.487" gradientUnits="userSpaceOnUse">
<stop stop-color="#0630A1"/>
<stop offset="1" stop-color="#1790EA"/>
</linearGradient>
<clipPath id="clip0_2330_32064">
<rect width="466.127" height="560" fill="white" transform="matrix(-1 8.74228e-08 8.74228e-08 1 466.127 0)"/>
</clipPath>
</defs>
</svg>
