<svg width="251" height="261" viewBox="0 0 251 261" fill="none" xmlns="http://www.w3.org/2000/svg">
    <path
        d="M199.472 79.2319C224.77 104.97 251.546 134.936 250.992 167.476C250.622 199.832 222.554 234.578 187.1 250.389C151.645 266.015 108.435 262.706 77.2283 244.322C45.8364 225.754 26.4473 191.927 13.1519 151.482C-0.328133 111.22 -7.71446 64.3407 12.4133 39.7059C32.541 15.2549 79.9981 13.0488 115.637 22.6086C151.092 32.1684 174.358 53.6779 199.472 79.2319Z"
        fill="#3B82F6" fill-opacity="0.3" />
    <path fill-rule="evenodd" clip-rule="evenodd"
        d="M147.943 14.7156C147.265 14.3763 146.466 14.3763 145.788 14.7156L72.7934 51.2126C71.9769 51.6209 71.4611 52.4555 71.4611 53.3684V151.632C71.4611 152.545 71.9769 153.379 72.7934 153.787L145.788 190.284C146.466 190.624 147.265 190.624 147.943 190.284L220.938 153.787C221.754 153.379 222.27 152.545 222.27 151.632V53.3684C222.27 52.4555 221.754 51.6209 220.938 51.2126L147.943 14.7156ZM139.32 1.78115C144.07 -0.59372 149.661 -0.593713 154.411 1.78115L227.405 38.2782C233.121 41.1361 236.731 46.978 236.731 53.3684V151.632C236.731 158.022 233.121 163.864 227.405 166.722L154.411 203.219C149.661 205.594 144.07 205.594 139.32 203.219L66.3262 166.722C60.6105 163.864 57 158.022 57 151.632V53.3684C57 46.978 60.6105 41.1361 66.3262 38.2782L139.32 1.78115Z"
        fill="#3B82F6" />
    <path fill-rule="evenodd" clip-rule="evenodd"
        d="M146.869 82.183C135.65 82.183 126.555 91.2781 126.555 102.497C126.555 113.717 135.65 122.812 146.869 122.812C158.089 122.812 167.184 113.717 167.184 102.497C167.184 91.2781 158.089 82.183 146.869 82.183ZM112.094 102.497C112.094 83.2915 127.664 67.722 146.869 67.722C166.075 67.722 181.645 83.2915 181.645 102.497C181.645 121.703 166.075 137.273 146.869 137.273C127.664 137.273 112.094 121.703 112.094 102.497Z"
        fill="#3B82F6" />
</svg>