<svg width="360" height="320" viewBox="0 0 360 320" fill="none" xmlns="http://www.w3.org/2000/svg">
<path d="M277.272 95.2085C262.389 119.281 240.518 147.98 214.117 177.033C188.639 205.065 163.087 228.868 141.069 245.877" stroke="#64748B" stroke-width="2" stroke-miterlimit="10"/>
<path d="M236.246 242.488C212.183 227.592 183.496 205.706 154.457 179.288C126.44 153.794 102.651 128.229 85.655 106.201" stroke="#64748B" stroke-width="2" stroke-miterlimit="10"/>
<g filter="url(#filter0_b_2146_34411)">
<path fill-rule="evenodd" clip-rule="evenodd" d="M263.682 122.157C274.524 158.538 249.051 201.543 203.904 220.802C158.756 240.062 110.086 228.686 91.3279 195.682C92.0622 198.635 93.0344 201.549 94.2533 204.406C110.134 241.634 161.893 255.225 209.859 234.763C257.826 214.301 283.837 167.534 267.956 130.307C266.737 127.449 265.306 124.731 263.682 122.157Z" fill="#0D398A" fill-opacity="0.83"/>
<path d="M263.682 122.157L264.105 121.89L262.164 118.813L263.203 122.3L263.682 122.157ZM91.3279 195.682L91.7626 195.435L89.9647 192.272L90.8426 195.803L91.3279 195.682ZM204.1 221.262C249.392 201.941 275.1 158.721 264.162 122.014L263.203 122.3C273.947 158.354 248.711 201.145 203.708 220.342L204.1 221.262ZM90.8932 195.929C109.819 229.229 158.808 240.583 204.1 221.262L203.708 220.342C158.705 239.54 110.352 228.143 91.7626 195.435L90.8932 195.929ZM90.8426 195.803C91.5834 198.782 92.5639 201.72 93.7934 204.602L94.7132 204.21C93.5048 201.377 92.5411 198.489 91.8131 195.561L90.8426 195.803ZM93.7934 204.602C109.826 242.186 161.95 255.744 210.056 235.223L209.663 234.303C161.835 254.706 110.442 241.082 94.7132 204.21L93.7934 204.602ZM210.056 235.223C258.161 214.702 284.448 167.694 268.415 130.11L267.496 130.503C283.225 167.375 257.491 213.901 209.663 234.303L210.056 235.223ZM268.415 130.11C267.186 127.228 265.743 124.487 264.105 121.89L263.26 122.423C264.869 124.975 266.287 127.67 267.496 130.503L268.415 130.11Z" fill="#165CDD" fill-opacity="0.65"/>
<path d="M204.643 221.636C252.43 201.251 278.174 154.261 262.144 116.683C246.113 79.1041 194.378 65.1665 146.591 85.5522C98.803 105.938 73.0589 152.927 89.0896 190.506C105.12 228.084 156.855 242.022 204.643 221.636Z" fill="#2873FF" fill-opacity="0.75" stroke="#165CDD" stroke-opacity="0.65" stroke-miterlimit="10"/>
<path fill-rule="evenodd" clip-rule="evenodd" d="M101.035 191.4C89.4792 159.779 112.94 120.584 154.636 102.797C196.334 85.009 240.863 95.2015 255.689 125.428C255.372 124.572 255.033 123.72 254.672 122.873C239.875 88.1866 193.232 74.8483 150.492 93.0809C107.751 111.314 85.0987 154.213 99.8955 188.899C100.257 189.745 100.637 190.579 101.035 191.4Z" fill="#032769" fill-opacity="0.54"/>
<path d="M101.035 191.4L100.585 191.618L101.505 191.228L101.035 191.4ZM255.689 125.428L255.24 125.649L256.158 125.255L255.689 125.428ZM154.44 102.337C133.504 111.268 117.13 125.58 107.438 141.653C97.7466 157.725 94.7239 175.587 100.566 191.572L101.505 191.228C95.7905 175.592 98.7201 158.047 108.294 142.169C117.868 126.292 134.072 112.113 154.832 103.257L154.44 102.337ZM256.138 125.208C248.643 109.928 233.658 99.7473 215.349 95.6193C197.04 91.4911 175.377 93.4055 154.44 102.337L154.832 103.257C175.593 94.4001 197.043 92.5169 215.13 96.5948C233.217 100.673 247.909 110.702 255.24 125.649L256.138 125.208ZM256.158 125.255C255.838 124.391 255.496 123.531 255.132 122.677L254.212 123.069C254.57 123.909 254.906 124.753 255.22 125.602L256.158 125.255ZM255.132 122.677C240.19 87.6514 193.196 74.3203 150.296 92.621L150.688 93.5408C193.269 75.3763 239.56 88.7219 254.212 123.069L255.132 122.677ZM150.296 92.621C107.396 110.922 84.4942 154.07 99.4356 189.095L100.355 188.703C85.7032 154.356 108.107 111.705 150.688 93.5408L150.296 92.621ZM99.4356 189.095C99.7999 189.949 100.183 190.79 100.585 191.618L101.485 191.182C101.09 190.368 100.713 189.542 100.355 188.703L99.4356 189.095Z" fill="#165CDD" fill-opacity="0.65"/>
</g>
<g filter="url(#filter1_d_2146_34411)">
<path d="M185.553 209.282C186.583 209.631 190.357 210.425 190.602 210.361C191.931 210.014 203.2 195.791 203.43 194.061C203.43 194.061 199.787 192.68 196.919 191.48C176.612 184.584 158.223 165.552 149.456 146.517C145.564 138.124 145.441 137.655 146.872 136.391C148.045 135.34 152.877 132.136 156.671 129.792C156.495 129.835 156.298 129.907 156.065 129.995C154.351 130.609 143.503 137.558 141.662 139.207C140.231 140.47 140.354 140.94 144.246 149.333C153.014 168.368 171.402 187.399 191.709 194.296C194.577 195.496 197.377 196.436 197.377 196.436C197.223 197.59 188.568 205.651 185.553 209.282Z" fill="#5B5DAF"/>
</g>
<g filter="url(#filter2_d_2146_34411)">
<path d="M206.126 179.266C209.436 181.283 210.684 180.766 210.684 180.766C220.55 163.502 220.144 134.184 216.966 118.871L215.406 111.529L210.217 110.66C209.82 110.589 209.388 110.517 208.929 110.446L210.447 117.588C214.821 138.667 213.867 157.432 207.6 175.532C207.29 176.396 206.995 177.221 206.731 177.96C206.528 178.528 206.285 178.821 206.126 179.266Z" fill="#5B5CAD"/>
</g>
<g filter="url(#filter3_d_2146_34411)">
<path d="M157.569 110.058C151.172 112.839 140.016 118.92 134.192 122.831C129.21 126.133 121.214 132.169 120.803 132.944C120.341 133.732 124.329 147.104 126.603 152.409C135.712 173.682 151.709 191.712 171.082 202.63C176.756 205.824 186.555 210.113 187.597 209.841C188.9 209.502 197.467 198.086 197.685 196.36C197.685 196.36 194.933 195.409 192.113 194.197C172.152 187.216 154.017 168.13 145.323 149.086C141.464 140.688 141.341 140.219 142.739 138.965C144.538 137.327 155.151 130.442 156.829 129.837C158.247 129.3 158.313 129.339 160.34 133.484C167.234 147.545 179.915 161.821 194.844 172.34C200.645 176.447 206.19 179.786 206.446 179.274C206.523 179.143 207.334 176.706 208.311 173.836C214.075 156.252 214.817 137.974 210.508 117.397L208.973 110.23L204.067 109.339C201.371 108.818 196.938 108.249 194.207 108.015L189.133 107.335L190.885 114.056C193.752 125.049 195.332 137.936 194.783 145.647L194.527 148.718L191.61 145.64C187.426 141.333 182.847 135.294 179.871 130.283C177.307 125.999 172.725 115.898 170.454 109.535L169.231 106.126L165.806 107.075C163.892 107.63 160.17 108.934 157.569 110.058Z" fill="url(#paint0_linear_2146_34411)"/>
</g>
<g filter="url(#filter4_d_2146_34411)">
<path d="M194.939 143.74C194.895 145.398 194.731 147.049 194.593 148.701C189.167 142.975 183.932 137.111 179.883 130.292C177.319 126.009 172.714 115.814 170.443 109.451L169.212 106.131C170.808 105.603 172.443 105.199 174.042 104.663L176.686 110.823C178.957 117.186 183.539 127.287 186.102 131.57C188.399 135.437 191.651 139.917 194.939 143.74Z" fill="#5B5CAD"/>
</g>
<path d="M85.655 106.208C63.0497 76.9157 52.4728 53.9017 59.9422 45.6855C73.0346 31.2964 136.573 67.7904 201.866 127.186C267.16 186.588 309.474 246.399 296.382 260.788C289.117 268.779 266.293 261.077 236.253 242.488" stroke="#64748B" stroke-width="2" stroke-miterlimit="10"/>
<path d="M141.076 245.877C111.796 268.498 88.7881 279.088 80.5676 271.623C66.1713 258.539 102.63 194.98 161.988 129.653C221.354 64.3268 281.141 21.9787 295.537 35.0631C303.532 42.3236 295.843 65.1516 277.271 95.2014" stroke="#64748B" stroke-width="2" stroke-miterlimit="10"/>
<circle cx="78.2653" cy="78.8842" r="25.9238" fill="#BB8DFF"/>
<path d="M70.7476 81.9149C70.7043 81.4257 70.3915 80.9754 69.9133 80.7143L66.3157 79.0601L63.9442 77.8891L60.3814 76.2849C59.938 76.0738 59.6251 75.6236 59.5471 75.0843L59.353 72.0294C59.3097 71.5402 59.5361 71.012 59.9863 70.6991L62.4876 68.961C62.8878 68.6829 63.427 68.6049 63.9553 68.8313L66.7007 70.1133C67.1441 70.3244 67.457 70.7746 67.535 71.3139L67.7291 74.3688C67.7724 74.858 67.546 75.3862 67.0958 75.6991L65.445 76.8463L67.8665 77.9824L69.5673 76.8005C69.9675 76.5224 70.2287 76.0442 70.2007 75.4702L69.7708 69.8343C69.7276 69.3451 69.4147 68.8949 68.9365 68.6337L63.6848 66.2003C63.2066 65.9392 62.6673 66.0172 62.2671 66.2953L57.5648 69.563C57.1646 69.8411 56.9035 70.3193 56.9314 70.8933L57.3961 76.5791C57.4393 77.0684 57.7522 77.5186 58.2304 77.7797L61.7431 79.4187L64.1646 80.5549L67.6774 82.1938C68.1208 82.4049 68.4337 82.8552 68.5117 83.3944L68.7559 86.4146C68.7991 86.9038 68.5727 87.432 68.1225 87.7449L65.6213 89.483C65.2211 89.7611 64.6818 89.8391 64.1536 89.6127L61.4429 88.3808C60.9995 88.1696 60.6866 87.7194 60.6086 87.1802L60.3645 84.16C60.3212 83.6708 60.5476 83.1426 60.9978 82.8297L62.5986 81.7173L60.1771 80.5811L58.5263 81.7283C58.1261 82.0064 57.8649 82.4846 57.8929 83.0586L58.3575 88.7445C58.4008 89.2337 58.7136 89.6839 59.1918 89.9451L64.3588 92.3632C64.8022 92.5744 65.3762 92.5464 65.8264 92.2335L70.5788 88.9311C70.979 88.653 71.2402 88.1748 71.2122 87.6007L70.7476 81.9149Z" fill="white"/>
<path fill-rule="evenodd" clip-rule="evenodd" d="M93.9155 92.9937C100.785 80.5753 96.2866 64.9394 83.8682 58.07C79.3182 55.5531 74.3364 54.5623 69.5121 54.9278C76.2361 52.5028 83.9318 52.8798 90.678 56.6115C103.096 63.481 107.595 79.1168 100.725 91.5352C96.3727 99.4037 88.5007 104.093 80.1577 104.725C85.8112 102.686 90.7778 98.6659 93.9155 92.9937Z" fill="#794EB8"/>
<circle cx="295.099" cy="235.813" r="28.4371" fill="white"/>
<path fill-rule="evenodd" clip-rule="evenodd" d="M295.099 264.25C310.805 264.25 323.536 251.518 323.536 235.813C323.536 220.107 310.805 207.375 295.099 207.375C279.394 207.375 266.662 220.107 266.662 235.813C266.662 251.518 279.394 264.25 295.099 264.25ZM290.371 228.165L291.561 218.523C291.645 217.541 292.221 216.698 293.096 216.254C294.459 215.562 296.128 216.108 296.821 217.473L306.078 235.712C306.771 237.077 306.227 238.746 304.863 239.438L304.348 239.7C303.628 240.065 302.776 240.109 302.025 239.777L278.855 229.831C278.687 229.755 278.494 229.949 278.586 230.13L285.149 243.062C285.241 243.242 285.46 243.228 285.537 243.06L288.205 236.522C288.459 235.874 289.403 236.14 289.317 236.8L288.127 246.442C288.043 247.424 287.468 248.267 286.619 248.698C285.255 249.39 283.586 248.844 282.893 247.479L273.636 229.24C272.943 227.875 273.488 226.206 274.826 225.527L275.34 225.265C276.087 224.887 276.912 224.856 277.663 225.188L300.833 235.134C301.002 235.21 301.194 235.015 301.103 234.835L294.526 221.877C294.434 221.697 294.215 221.711 294.139 221.88L291.483 228.443C291.229 229.091 290.285 228.825 290.371 228.165Z" fill="#363A49"/>
<path fill-rule="evenodd" clip-rule="evenodd" d="M304.065 257.636C316.876 249.217 320.436 232.007 312.017 219.196C308.306 213.549 302.886 209.699 296.889 207.881C305.222 208.473 313.195 212.806 318.137 220.327C326.556 233.137 322.996 250.348 310.185 258.767C303.021 263.474 294.482 264.436 286.874 262.13C292.735 262.546 298.775 261.112 304.065 257.636Z" fill="#010204"/>
<circle cx="276.881" cy="33.5" r="27.5" fill="white"/>
<path fill-rule="evenodd" clip-rule="evenodd" d="M276.881 61C292.069 61 304.381 48.6878 304.381 33.5C304.381 18.3122 292.069 6 276.881 6C261.693 6 249.381 18.3122 249.381 33.5C249.381 48.6878 261.693 61 276.881 61ZM265.469 36C265.257 36 265.058 36.1078 264.913 36.2926L261.13 41.1198C260.883 41.4354 261.058 41.9744 261.408 41.9744H280.56C280.771 41.9744 280.97 41.8666 281.115 41.6818L284.898 36.8546C285.146 36.5389 284.971 36 284.621 36H265.469ZM264.913 17.9272C265.064 17.7425 265.263 17.6347 265.469 17.6347H284.621C284.971 17.6347 285.146 18.1736 284.898 18.4893L281.115 23.3165C280.97 23.5013 280.771 23.6091 280.56 23.6091H261.408C261.058 23.6091 260.883 23.0701 261.13 22.7545L264.913 17.9272ZM280.56 27C280.771 27 280.97 27.1078 281.115 27.2926L284.898 32.1198C285.146 32.4354 284.971 32.9744 284.621 32.9744H265.469C265.257 32.9744 265.058 32.8666 264.913 32.6818L261.13 27.8546C260.883 27.5389 261.058 27 261.408 27H280.56Z" fill="url(#paint1_linear_2146_34411)"/>
<path fill-rule="evenodd" clip-rule="evenodd" d="M272.503 56.8251C287.404 56.8251 299.484 44.7453 299.484 29.844C299.484 22.5119 296.559 15.863 291.813 11C299.528 15.7483 304.672 24.2709 304.672 33.995C304.672 48.8962 292.593 60.9761 277.691 60.9761C270.122 60.9761 263.281 57.8592 258.381 52.839C262.489 55.367 267.325 56.8251 272.503 56.8251Z" fill="url(#paint2_linear_2146_34411)"/>
<circle cx="105.265" cy="265.884" r="25.9238" fill="#E3E3E3"/>
<path d="M99.8158 251L99.6096 251.7V272.025L99.8158 272.231L109.25 266.654L99.8158 251Z" fill="#060A1D"/>
<path d="M99.8159 251L90.3812 266.654L99.8159 272.231V262.366V251Z" fill="#8E9BAE"/>
<path d="M99.8157 274.017L99.6995 274.159V281.399L99.8157 281.738L109.256 268.443L99.8157 274.017Z" fill="#10192D"/>
<path d="M99.8157 281.738V274.017L90.381 268.443L99.8157 281.738Z" fill="#8E9BAE"/>
<path d="M99.8159 272.231L109.25 266.654L99.8159 262.366V272.231Z" fill="#060A1D"/>
<path d="M90.381 266.654L99.8157 272.231V262.366L90.381 266.654Z" fill="#060A1D"/>
<path fill-rule="evenodd" clip-rule="evenodd" d="M121.204 279.743C128.073 267.325 123.575 251.689 111.156 244.819C106.607 242.302 101.625 241.312 96.8009 241.677C103.525 239.252 111.22 239.629 117.966 243.361C130.385 250.23 134.883 265.866 128.013 278.285C123.661 286.153 115.788 290.842 107.445 291.474C113.099 289.435 118.066 285.415 121.204 279.743Z" fill="#9BA5B4"/>
<defs>
<filter id="filter0_b_2146_34411" x="79.8222" y="71.6735" width="197.299" height="177.112" filterUnits="userSpaceOnUse" color-interpolation-filters="sRGB">
<feFlood flood-opacity="0" result="BackgroundImageFix"/>
<feGaussianBlur in="BackgroundImage" stdDeviation="2"/>
<feComposite in2="SourceAlpha" operator="in" result="effect1_backgroundBlur_2146_34411"/>
<feBlend mode="normal" in="SourceGraphic" in2="effect1_backgroundBlur_2146_34411" result="shape"/>
</filter>
<filter id="filter1_d_2146_34411" x="124.824" y="113.792" width="102.606" height="120.573" filterUnits="userSpaceOnUse" color-interpolation-filters="sRGB">
<feFlood flood-opacity="0" result="BackgroundImageFix"/>
<feColorMatrix in="SourceAlpha" type="matrix" values="0 0 0 0 0 0 0 0 0 0 0 0 0 0 0 0 0 0 127 0" result="hardAlpha"/>
<feOffset dx="4" dy="4"/>
<feGaussianBlur stdDeviation="10"/>
<feComposite in2="hardAlpha" operator="out"/>
<feColorMatrix type="matrix" values="0 0 0 0 0 0 0 0 0 0 0 0 0 0 0 0 0 0 0.2 0"/>
<feBlend mode="normal" in2="BackgroundImageFix" result="effect1_dropShadow_2146_34411"/>
<feBlend mode="normal" in="SourceGraphic" in2="effect1_dropShadow_2146_34411" result="shape"/>
</filter>
<filter id="filter2_d_2146_34411" x="190.126" y="94.446" width="52.8506" height="110.379" filterUnits="userSpaceOnUse" color-interpolation-filters="sRGB">
<feFlood flood-opacity="0" result="BackgroundImageFix"/>
<feColorMatrix in="SourceAlpha" type="matrix" values="0 0 0 0 0 0 0 0 0 0 0 0 0 0 0 0 0 0 127 0" result="hardAlpha"/>
<feOffset dx="4" dy="4"/>
<feGaussianBlur stdDeviation="10"/>
<feComposite in2="hardAlpha" operator="out"/>
<feColorMatrix type="matrix" values="0 0 0 0 0 0 0 0 0 0 0 0 0 0 0 0 0 0 0.2 0"/>
<feBlend mode="normal" in2="BackgroundImageFix" result="effect1_dropShadow_2146_34411"/>
<feBlend mode="normal" in="SourceGraphic" in2="effect1_dropShadow_2146_34411" result="shape"/>
</filter>
<filter id="filter3_d_2146_34411" x="104.767" y="90.1262" width="132.501" height="143.727" filterUnits="userSpaceOnUse" color-interpolation-filters="sRGB">
<feFlood flood-opacity="0" result="BackgroundImageFix"/>
<feColorMatrix in="SourceAlpha" type="matrix" values="0 0 0 0 0 0 0 0 0 0 0 0 0 0 0 0 0 0 127 0" result="hardAlpha"/>
<feOffset dx="4" dy="4"/>
<feGaussianBlur stdDeviation="10"/>
<feComposite in2="hardAlpha" operator="out"/>
<feColorMatrix type="matrix" values="0 0 0 0 0 0 0 0 0 0 0 0 0 0 0 0 0 0 0.2 0"/>
<feBlend mode="normal" in2="BackgroundImageFix" result="effect1_dropShadow_2146_34411"/>
<feBlend mode="normal" in="SourceGraphic" in2="effect1_dropShadow_2146_34411" result="shape"/>
</filter>
<filter id="filter4_d_2146_34411" x="153.212" y="88.6626" width="65.7264" height="84.038" filterUnits="userSpaceOnUse" color-interpolation-filters="sRGB">
<feFlood flood-opacity="0" result="BackgroundImageFix"/>
<feColorMatrix in="SourceAlpha" type="matrix" values="0 0 0 0 0 0 0 0 0 0 0 0 0 0 0 0 0 0 127 0" result="hardAlpha"/>
<feOffset dx="4" dy="4"/>
<feGaussianBlur stdDeviation="10"/>
<feComposite in2="hardAlpha" operator="out"/>
<feColorMatrix type="matrix" values="0 0 0 0 0 0 0 0 0 0 0 0 0 0 0 0 0 0 0.2 0"/>
<feBlend mode="normal" in2="BackgroundImageFix" result="effect1_dropShadow_2146_34411"/>
<feBlend mode="normal" in="SourceGraphic" in2="effect1_dropShadow_2146_34411" result="shape"/>
</filter>
<linearGradient id="paint0_linear_2146_34411" x1="57.2837" y1="124.191" x2="261.512" y2="128.524" gradientUnits="userSpaceOnUse">
<stop offset="0.0083687" stop-color="#020024"/>
<stop offset="0.267209" stop-color="#DAE6E9"/>
<stop offset="0.610175" stop-color="#D3D8E8"/>
<stop offset="1" stop-color="#A8B4D6"/>
</linearGradient>
<linearGradient id="paint1_linear_2146_34411" x1="290.102" y1="10.2308" x2="262.073" y2="55.7115" gradientUnits="userSpaceOnUse">
<stop stop-color="#1EE1B0"/>
<stop offset="0.4875" stop-color="#6E8FD1"/>
<stop offset="1" stop-color="#CE2DFA"/>
</linearGradient>
<linearGradient id="paint2_linear_2146_34411" x1="290.663" y1="11.1647" x2="263.163" y2="55.7875" gradientUnits="userSpaceOnUse">
<stop stop-color="#16A682"/>
<stop offset="0.4875" stop-color="#516999"/>
<stop offset="1" stop-color="#891EA6"/>
</linearGradient>
</defs>
</svg>
