<svg width="360" height="320" viewBox="0 0 360 320" fill="none" xmlns="http://www.w3.org/2000/svg">
<g opacity="0.2">
<path opacity="0.05" d="M95.492 173.082C97.6888 171.818 100.684 171.031 103.472 170.953C105.981 170.883 108.291 171.411 110.132 172.415C110.21 172.415 114.473 174.83 114.534 174.865L194.453 220.614L199.897 223.73L278.748 268.874C281.075 270.215 282.638 272.491 282.69 274.845C282.751 277.502 281.197 280.03 278.253 281.726L271.889 285.015C271.819 285.058 266.383 287.802 266.297 287.802C264.004 289.074 261.156 289.749 258.3 289.714C255.868 289.714 253.42 289.039 251.683 288.044L172.893 242.234L168.169 239.49L94.1027 196.424C91.7757 195.082 90.178 192.815 90.178 190.461C90.178 187.882 91.4718 185.302 94.2677 183.693L94.4066 181.979C94.2764 181.901 95.3444 173.168 95.492 173.082Z" fill="#ABB2E2"/>
<path opacity="0.1" d="M95.5442 173.8C97.6282 172.597 100.737 171.758 103.385 171.602C105.86 171.455 108.169 171.957 110.019 172.917C110.184 172.917 114.308 175.228 114.421 175.297L194.019 220.882L199.446 223.99L277.975 268.96C280.181 270.232 281.918 272.578 282.022 274.811C282.152 277.416 280.728 279.952 277.767 281.657L271.463 284.954C271.324 285.032 266.062 287.663 265.889 287.681C263.605 288.892 260.809 289.524 258.022 289.446C255.712 289.446 253.125 288.659 251.475 287.706L173.162 242.199L168.465 239.473L94.8669 196.675C92.6614 195.403 90.8467 193.083 90.8467 190.85C90.8467 188.401 91.741 185.761 94.4067 184.229L94.4762 182.567C94.2157 182.42 95.249 173.982 95.5442 173.809V173.8Z" fill="#A7ADDF"/>
<path opacity="0.14" d="M95.5963 174.518C97.576 173.385 100.789 172.467 103.289 172.251C105.79 172.035 108.03 172.511 109.897 173.411C110.14 173.411 114.135 175.618 114.308 175.721L193.585 221.133L198.994 224.232L277.203 269.029C279.295 270.232 281.197 272.638 281.362 274.75C281.553 277.312 280.259 279.848 277.289 281.553L271.046 284.868C270.829 284.989 265.758 287.507 265.498 287.525C263.232 288.684 260.47 289.256 257.753 289.143C255.564 289.143 252.838 288.234 251.275 287.334L173.449 242.121L168.777 239.412L95.6397 196.926C93.5471 195.723 91.5326 193.343 91.5326 191.231C91.5326 188.911 92.0362 186.211 94.5543 184.757V183.139C94.1549 182.914 95.1534 174.778 95.605 174.518H95.5963Z" fill="#A3A9DC"/>
<path opacity="0.19" d="M95.6569 175.237C97.5238 174.164 100.858 173.177 103.211 172.9C105.564 172.623 107.909 173.064 109.793 173.913C110.114 173.913 113.978 176.016 114.213 176.154L193.168 221.393L198.551 224.483L276.439 269.116C278.41 270.25 280.493 272.725 280.702 274.716C280.962 277.243 279.79 279.77 276.812 281.484L270.63 284.807C270.343 284.972 265.446 287.378 265.098 287.395C262.841 288.494 260.132 289.022 257.483 288.866C255.417 288.866 252.551 287.845 251.075 286.988L173.735 242.078L169.09 239.386L96.4037 197.177C94.4326 196.043 92.2097 193.611 92.2097 191.612C92.2097 189.422 92.3226 186.661 94.7018 185.285L94.6236 183.71C94.1026 183.407 95.0665 175.574 95.6656 175.228L95.6569 175.237Z" fill="#9FA4D8"/>
<path opacity="0.24" d="M95.7091 175.955C97.4631 174.943 100.91 173.878 103.124 173.54C105.469 173.177 107.787 173.601 109.68 174.406C110.08 174.406 113.813 176.414 114.1 176.578L192.734 221.653L198.1 224.725L275.666 269.185C277.524 270.258 279.79 272.794 280.033 274.664C280.363 277.165 279.313 279.675 276.334 281.388L270.213 284.721C269.857 284.928 265.142 287.222 264.708 287.248C262.467 288.286 259.793 288.771 257.223 288.572C255.278 288.572 252.274 287.429 250.884 286.633L174.03 242.018L169.42 239.343L97.1939 197.419C95.3357 196.346 92.9045 193.871 92.9045 191.993C92.9045 189.933 92.6266 187.103 94.8582 185.822L94.7019 184.298C94.0506 183.926 94.971 176.388 95.7265 175.955H95.7091Z" fill="#9BA0D5"/>
<path opacity="0.29" d="M95.7612 176.674C97.411 175.722 100.971 174.579 103.029 174.19C105.33 173.757 107.648 174.155 109.559 174.908C110.045 174.908 113.64 176.812 113.987 177.011L192.291 221.912L197.631 224.976L274.876 269.272C276.621 270.276 279.069 272.881 279.347 274.62C279.738 277.096 278.826 279.588 275.831 281.311L269.77 284.66C269.344 284.902 264.803 287.083 264.282 287.118C262.059 288.105 259.428 288.529 256.919 288.295C255.096 288.295 251.952 287.04 250.65 286.287L174.274 241.974L169.689 239.317L97.9233 197.679C96.178 196.675 93.547 194.148 93.547 192.382C93.547 190.452 92.8698 187.561 94.9711 186.358L94.7453 184.878C93.9638 184.428 94.8495 177.193 95.7525 176.674H95.7612Z" fill="#979BD2"/>
<path opacity="0.33" d="M95.8219 177.392C97.3588 176.509 101.04 175.263 102.951 174.839C105.2 174.337 107.527 174.7 109.454 175.41C110.019 175.41 113.483 177.21 113.883 177.444L191.865 222.172L197.188 225.227L274.111 269.35C275.735 270.284 278.696 272.933 278.696 274.577C279.608 276.905 278.366 279.502 275.362 281.233L269.362 284.591C268.867 284.876 264.508 286.945 263.891 286.988C261.677 287.914 259.09 288.295 256.658 288.018C254.957 288.018 251.674 286.642 250.459 285.941L174.569 241.922L170.01 239.283L98.7046 197.921C97.0809 196.986 94.2415 194.407 94.2415 192.763C94.2415 190.954 93.1735 188.011 95.1359 186.886L94.832 185.458C93.9203 184.939 94.7712 177.998 95.8219 177.392Z" fill="#9397CF"/>
<path opacity="0.38" d="M95.8741 178.11C97.2981 177.288 101.101 175.947 102.855 175.488C105.061 174.917 107.388 175.254 109.333 175.912C109.975 175.912 113.31 177.608 113.77 177.877L191.431 222.44L196.737 225.478L273.339 269.427C274.849 270.293 278.027 273.002 278.027 274.534C279.069 276.81 277.889 279.415 274.876 281.146L268.945 284.521C268.381 284.85 264.195 286.806 263.501 286.85C261.304 287.724 258.751 288.044 256.398 287.732C254.818 287.732 251.397 286.244 250.268 285.595L174.864 241.879L170.331 239.257L99.4862 198.181C97.9754 197.315 94.9276 194.684 94.9276 193.152C94.9276 191.473 93.4689 188.47 95.2836 187.423L94.9103 186.038C93.8683 185.441 94.6845 178.803 95.8828 178.119L95.8741 178.11Z" fill="#8F92CC"/>
<path opacity="0.43" d="M95.9263 178.829C97.2461 178.067 101.162 176.613 102.769 176.137C104.922 175.496 107.266 175.808 109.22 176.414C109.941 176.414 113.145 178.006 113.657 178.309L190.997 222.7L196.276 225.729L272.557 269.514C273.955 270.319 277.35 273.08 277.35 274.491C278.514 276.706 277.411 279.32 274.381 281.068L268.511 284.452C267.868 284.824 263.865 286.668 263.084 286.711C260.896 287.525 258.395 287.802 256.103 287.447C254.644 287.447 251.084 285.837 250.042 285.24L175.116 241.819L170.618 239.213L100.233 198.423C98.8351 197.618 95.5876 194.935 95.5876 193.525C95.5876 191.975 93.7381 188.911 95.4139 187.951L94.9624 186.618C93.7989 185.943 94.5717 179.608 95.9176 178.837L95.9263 178.829Z" fill="#8B8EC9"/>
<path opacity="0.48" d="M95.987 179.547C97.1939 178.855 101.232 177.271 102.682 176.786C104.783 176.076 107.136 176.353 109.107 176.916C109.915 176.916 112.98 178.405 113.553 178.733L190.572 222.951L195.834 225.972L271.793 269.583C273.069 270.319 276.69 273.149 276.69 274.439C277.984 276.602 276.942 279.225 273.903 280.973L268.094 284.374C267.382 284.781 263.561 286.512 262.693 286.573C260.522 287.326 258.056 287.551 255.842 287.161C254.505 287.161 250.815 285.439 249.851 284.885L175.411 241.767L170.939 239.179L101.014 198.674C99.738 197.938 96.2822 195.204 96.2822 193.914C96.2822 192.495 94.0333 189.37 95.5702 188.487L95.0492 187.198C93.7554 186.454 94.4935 180.412 95.987 179.556V179.547Z" fill="#8789C6"/>
<path opacity="0.52" d="M96.0391 180.265C97.1418 179.633 101.292 177.928 102.595 177.426C104.644 176.648 107.006 176.899 108.994 177.409C109.88 177.409 112.815 178.794 113.44 179.157L190.137 223.211L195.373 226.222L271.02 269.67C272.184 270.336 276.022 273.227 276.022 274.404C277.446 276.516 276.465 279.147 273.417 280.904L267.669 284.314C266.887 284.764 263.24 286.382 262.285 286.443C260.123 287.144 257.709 287.317 255.556 286.884C254.34 286.884 250.511 285.041 249.634 284.547L175.68 241.723L171.234 239.153L101.77 198.925C100.606 198.259 96.9421 195.472 96.9421 194.295C96.9421 193.005 94.3025 189.82 95.7004 189.015L95.1013 187.769C93.6773 186.947 94.3806 181.209 96.0304 180.265H96.0391Z" fill="#8385C2"/>
<path opacity="0.57" d="M96.0912 180.984C97.081 180.412 101.344 178.569 102.508 178.076C104.505 177.227 106.884 177.444 108.881 177.911C109.845 177.92 112.65 179.201 113.336 179.59L189.712 223.47L194.931 226.465L270.256 269.739C271.298 270.345 275.37 273.287 275.37 274.352C276.925 276.412 276.013 279.052 272.957 280.809L267.269 284.236C266.418 284.729 262.954 286.235 261.903 286.304C259.758 286.945 257.379 287.066 255.304 286.599C254.21 286.599 250.242 284.643 249.452 284.193L175.984 241.671L171.564 239.118L102.551 199.176C101.509 198.57 97.6368 195.74 97.6368 194.684C97.6368 193.525 94.6064 190.279 95.8654 189.552L95.1968 188.358C93.6425 187.457 94.3111 182.022 96.1085 180.992L96.0912 180.984Z" fill="#7F80BF"/>
<path opacity="0.62" d="M96.152 181.693C97.029 181.191 101.414 179.192 102.421 178.716C104.366 177.799 106.754 177.989 108.768 178.404C109.81 178.413 112.485 179.59 113.232 180.014L189.287 223.721L194.479 226.707L269.483 269.808C270.412 270.345 274.702 273.357 274.702 274.291C276.386 276.291 275.535 278.948 272.47 280.713L266.844 284.149C265.923 284.677 262.632 286.079 261.504 286.149C259.368 286.737 257.041 286.806 255.035 286.296C254.062 286.296 249.955 284.219 249.261 283.82L176.271 241.593L171.877 239.058L103.324 199.401C102.395 198.865 98.3227 195.982 98.3227 195.039C98.3227 194.009 94.8929 190.703 96.013 190.063L95.2663 188.911C93.5818 187.942 94.2157 182.801 96.1607 181.685L96.152 181.693Z" fill="#7B7CBC"/>
<path opacity="0.67" d="M96.204 182.412C96.9768 181.97 101.466 179.815 102.334 179.365C104.219 178.379 106.624 178.543 108.656 178.906C109.784 178.915 112.311 179.988 113.119 180.447L188.852 223.981L194.027 226.958L268.711 269.895C269.527 270.362 274.033 273.435 274.033 274.257C275.848 276.204 275.058 278.87 271.984 280.644L266.418 284.097C265.42 284.669 262.32 285.95 261.095 286.027C258.977 286.555 256.684 286.573 254.748 286.027C253.897 286.027 249.651 283.838 249.043 283.492L176.54 241.568L172.181 239.049L104.088 199.678C103.272 199.211 99 196.268 99 195.446C99 194.546 95.1794 191.179 96.1606 190.616L95.3444 189.517C93.5297 188.47 94.1201 183.632 96.2214 182.429L96.204 182.412Z" fill="#7777B9"/>
<path opacity="0.71" d="M96.2562 183.13C96.9161 182.749 101.518 180.43 102.239 180.014C104.062 178.958 106.494 179.088 108.525 179.408C109.732 179.417 112.129 180.386 112.997 180.88L188.401 224.249L193.559 227.218L267.92 269.981C268.615 270.379 273.347 273.513 273.347 274.222C275.292 276.118 274.572 278.792 271.48 280.566L265.984 284.028C264.916 284.643 261.99 285.811 260.687 285.898C258.577 286.365 256.329 286.339 254.47 285.75C253.741 285.75 249.356 283.448 248.835 283.145L176.818 241.516L172.485 239.014L104.852 199.929C104.158 199.531 99.6686 196.536 99.6686 195.835C99.6686 195.065 95.4573 191.638 96.2996 191.153L95.4052 190.097C93.4602 188.981 94.0159 184.437 96.2649 183.147L96.2562 183.13Z" fill="#7373B6"/>
<path opacity="0.76" d="M96.317 183.848C96.864 183.528 101.457 180.663 102.161 180.663C104.106 179.893 106.372 179.642 108.421 179.902C109.706 179.91 111.973 180.776 112.893 181.304L187.975 224.5L193.107 227.451L267.148 270.051C267.729 270.388 272.679 273.573 272.679 274.162C274.754 275.996 274.094 278.688 270.994 280.471L265.559 283.95C264.421 284.608 261.669 285.664 260.279 285.75C258.187 286.166 255.981 286.079 254.193 285.456C253.585 285.456 249.061 283.033 248.627 282.782L177.087 241.455L172.78 238.971L105.608 200.163C105.026 199.825 100.337 196.787 100.337 196.199C100.337 195.558 95.7352 192.07 96.4299 191.664L95.4661 190.66C93.3908 189.465 93.9118 185.225 96.3083 183.848H96.317Z" fill="#6F6EB3"/>
<path opacity="0.81" d="M96.369 184.567C96.8119 184.316 101.509 181.304 102.065 181.304C103.967 180.49 106.233 180.179 108.3 180.395C109.663 180.404 111.799 181.165 112.78 181.728L187.541 224.751L192.656 227.694L266.375 270.12C266.844 270.388 272.019 273.642 272.019 274.11C274.224 275.893 273.625 278.593 270.517 280.376L265.142 283.864C263.935 284.556 261.365 285.508 259.88 285.595C257.796 285.95 255.634 285.82 253.915 285.153C253.428 285.153 248.766 282.617 248.418 282.41L177.365 241.377L173.084 238.902L106.372 200.379C105.903 200.111 101.014 197.021 101.014 196.554C101.014 196.034 96.013 192.495 96.5774 192.166L95.5355 191.205C93.33 189.933 93.8162 185.995 96.3603 184.532L96.369 184.567Z" fill="#6B6AB0"/>
<path opacity="0.86" d="M96.4212 185.285C96.7512 185.095 101.562 181.953 101.978 181.953C103.845 181.088 106.111 180.733 108.187 180.897C109.637 180.914 111.634 181.572 112.667 182.161L187.107 225.019L192.195 227.953L265.593 270.206C265.941 270.405 271.342 273.72 271.342 274.075C273.677 275.806 273.139 278.515 270.03 280.307L264.716 283.812C263.44 284.547 261.043 285.378 259.481 285.482C257.414 285.785 255.295 285.595 253.646 284.894C253.281 284.894 248.479 282.237 248.219 282.089L177.651 241.36L173.397 238.902L107.145 200.665C106.797 200.466 101.692 197.324 101.692 196.969C101.692 196.58 96.2996 192.979 96.7164 192.737L95.5963 191.828C93.2606 190.487 93.7121 186.843 96.4038 185.294L96.4212 185.285Z" fill="#6765AC"/>
<path opacity="0.9" d="M96.4819 186.003C96.699 185.874 101.614 182.602 101.891 182.602C103.724 181.693 105.981 181.287 108.074 181.399C109.602 181.416 111.469 181.97 112.563 182.593L186.682 225.279L191.753 228.196L264.829 270.284C265.064 270.414 270.682 273.789 270.682 274.023C273.148 275.702 272.679 278.42 269.553 280.22L264.3 283.734C262.954 284.513 260.739 285.231 259.081 285.335C257.032 285.577 254.948 285.335 253.376 284.599C253.133 284.599 248.192 281.83 248.019 281.726L177.938 241.291L173.718 238.85L107.926 200.898C107.692 200.769 102.386 197.575 102.386 197.333C102.386 197.073 96.6034 193.412 96.8813 193.248L95.6917 192.382C93.2257 190.963 93.6425 187.622 96.4906 185.986L96.4819 186.003Z" fill="#6361A9"/>
<path opacity="0.95" d="M96.534 186.722C96.6469 186.661 101.666 183.251 101.805 183.251C103.593 182.291 105.851 181.832 107.961 181.901C109.567 181.918 111.304 182.368 112.45 183.026L186.247 225.539L191.301 228.447L264.056 270.362C264.169 270.431 270.013 273.867 270.013 273.98C272.609 275.598 272.201 278.333 269.067 280.133L263.874 283.665C262.45 284.478 260.418 285.093 258.682 285.205C256.641 285.396 254.609 285.101 253.098 284.322C252.977 284.322 247.897 281.432 247.81 281.38L178.207 241.247L174.013 238.824L108.682 201.149C108.569 201.08 103.055 197.835 103.055 197.722C103.055 197.592 96.8727 193.862 97.0203 193.784L95.7526 192.962C93.1563 191.465 93.5384 188.427 96.534 186.705V186.722Z" fill="#5F5CA6"/>
<path d="M252.829 284.037L174.326 238.789L95.8307 193.55C93.1043 191.984 93.4516 189.24 96.5949 187.431L101.727 183.892C104.87 182.083 109.628 181.884 112.355 183.45L190.858 228.689L269.362 273.928C272.088 275.494 271.741 278.238 268.598 280.047L263.466 283.587C260.323 285.396 255.564 285.595 252.838 284.028L252.829 284.037Z" fill="#5B58A3"/>
</g>
<path d="M253.272 282.998L99.8857 194.658C92.0448 190.149 85.6888 178.041 85.6888 167.621V50.6937C85.6888 40.2733 92.0448 35.4785 99.8857 39.9963L253.272 128.328C261.113 132.837 267.469 144.945 267.469 155.365V272.292C267.469 282.713 261.113 287.507 253.272 282.99V282.998Z" fill="url(#paint0_linear_2156_31133)"/>
<path d="M257.414 278.394L101.544 188.643C95.0405 184.523 91.0203 176.293 91.0203 167.863V46.5567C91.0203 44.5574 93.1997 43.3198 94.9276 44.3324C95.1274 44.4536 95.2923 44.5401 95.3878 44.6007L251.414 134.464C259.159 138.912 261.938 146.814 261.938 155.244V276.17C261.938 278.307 259.619 279.649 257.753 278.593C257.605 278.506 257.483 278.446 257.414 278.394Z" fill="url(#paint1_linear_2156_31133)"/>
<path d="M251.414 134.464L95.3878 44.5921C95.2923 44.5401 95.1274 44.4449 94.9276 44.3238C93.1997 43.3111 91.0203 44.5574 91.0203 46.548V167.863C91.0203 176.284 95.0405 184.523 101.544 188.643L257.405 278.403C257.483 278.446 257.596 278.515 257.744 278.602C259.611 279.657 261.929 278.316 261.929 276.178V155.244C261.929 146.823 259.142 138.912 251.405 134.464H251.414ZM260.297 276.17C260.297 276.879 259.698 277.321 259.133 277.321C258.933 277.321 258.742 277.269 258.56 277.165L102.369 187.224C96.4993 183.502 92.6614 175.886 92.6614 167.863V46.5567C92.6614 45.9682 93.1563 45.6133 93.6165 45.6133C93.7815 45.6133 93.9378 45.6566 94.0941 45.7431L250.589 135.883C258.612 140.496 260.297 148.952 260.297 155.244V276.17Z" fill="#AFB6E5"/>
<path d="M259.81 124.554L106.424 36.2142C103.324 34.4313 100.45 34.1024 98.1143 35.0025C97.819 35.115 91.3502 38.8626 91.0723 39.0183H91.0549C93.4775 37.8586 96.5513 38.075 99.8943 39.9963L253.272 128.336C261.113 132.845 267.469 144.954 267.469 155.374V272.301C267.469 278.801 264.994 283.111 261.226 284.34C261.53 284.357 261.912 284.236 262.467 283.916C262.65 283.812 269.457 279.744 269.622 279.623C272.323 277.736 273.999 273.867 273.999 268.519V151.592C273.999 141.171 267.643 129.063 259.802 124.554H259.81Z" fill="url(#paint2_linear_2156_31133)"/>
<path d="M259.689 124.632L106.302 36.2921C103.203 34.5092 100.328 34.1803 97.9927 35.0804C97.6975 35.1929 91.3415 38.8626 91.0636 39.0183H91.0463C93.4688 37.8586 96.5426 38.075 99.8856 39.9963L253.272 128.336C261.113 132.845 267.469 144.954 267.469 155.374V272.301C267.469 278.801 264.994 283.111 261.226 284.34C261.53 284.357 261.912 284.236 262.467 283.916C262.65 283.812 269.336 279.822 269.509 279.701C272.21 277.814 273.886 273.945 273.886 268.597V151.67C273.886 141.249 267.53 129.141 259.689 124.632Z" fill="url(#paint3_linear_2156_31133)"/>
<path d="M259.567 124.71L106.181 36.37C103.081 34.5871 100.207 34.2582 97.8712 35.1583C97.5759 35.2708 91.3415 38.8626 91.0636 39.0183H91.0463C93.4688 37.8586 96.5426 38.075 99.8856 39.9963L253.272 128.336C261.113 132.845 267.469 144.954 267.469 155.374V272.301C267.469 278.801 264.994 283.111 261.226 284.34C261.53 284.357 261.912 284.236 262.467 283.916C262.65 283.812 269.214 279.9 269.388 279.779C272.088 277.892 273.764 274.023 273.764 268.674V151.748C273.764 141.327 267.408 129.219 259.567 124.71Z" fill="url(#paint4_linear_2156_31133)"/>
<path d="M259.446 124.788L106.068 36.4478C102.968 34.6649 100.094 34.3361 97.7583 35.2362C97.463 35.3487 91.3502 38.8625 91.0723 39.0183H91.0549C93.4775 37.8586 96.5513 38.075 99.8943 39.9963L253.272 128.336C261.113 132.845 267.469 144.954 267.469 155.374V272.301C267.469 278.801 264.994 283.111 261.226 284.34C261.53 284.357 261.912 284.236 262.467 283.916C262.65 283.812 269.093 279.978 269.266 279.865C271.967 277.978 273.642 274.11 273.642 268.761V151.825C273.642 141.405 267.286 129.297 259.446 124.788Z" fill="url(#paint5_linear_2156_31133)"/>
<path d="M259.333 124.866L105.946 36.5257C102.847 34.7428 99.9724 34.414 97.6367 35.3141C97.3415 35.4266 91.3502 38.8625 91.0723 39.0183H91.0549C93.4775 37.8586 96.5513 38.075 99.8943 39.9963L253.272 128.336C261.113 132.845 267.469 144.954 267.469 155.374V272.301C267.469 278.801 264.994 283.111 261.226 284.34C261.53 284.357 261.912 284.236 262.467 283.916C262.65 283.812 268.98 280.056 269.145 279.943C271.845 278.056 273.521 274.188 273.521 268.839V151.903C273.521 141.483 267.165 129.375 259.324 124.866H259.333Z" fill="url(#paint6_linear_2156_31133)"/>
<path d="M259.211 124.944L105.825 36.6036C102.725 34.8207 99.8509 34.4919 97.5152 35.392C97.2199 35.5045 91.3502 38.8625 91.0636 39.0183H91.0463C93.4688 37.8586 96.5426 38.075 99.8856 39.9963L253.272 128.336C261.113 132.845 267.469 144.954 267.469 155.374V272.301C267.469 278.801 264.994 283.111 261.226 284.34C261.53 284.357 261.912 284.236 262.467 283.916C262.65 283.812 268.858 280.142 269.032 280.021C271.732 278.134 273.408 274.265 273.408 268.917V151.981C273.408 141.561 267.052 129.453 259.211 124.944Z" fill="url(#paint7_linear_2156_31133)"/>
<path d="M259.09 125.021L105.703 36.6815C102.603 34.8986 99.7293 34.5698 97.3936 35.4699C97.0984 35.5824 91.3415 38.8626 91.0636 39.0183H91.0463C93.4688 37.8586 96.5426 38.075 99.8856 39.9963L253.272 128.336C261.113 132.845 267.469 144.954 267.469 155.374V272.301C267.469 278.801 264.994 283.111 261.226 284.34C261.53 284.357 261.912 284.236 262.467 283.916C262.65 283.812 268.737 280.22 268.91 280.099C271.611 278.212 273.286 274.343 273.286 268.995V152.059C273.286 141.639 266.93 129.531 259.09 125.021Z" fill="url(#paint8_linear_2156_31133)"/>
<path d="M258.968 125.099L105.59 36.7594C102.491 34.9765 99.6164 34.6476 97.2807 35.5478C96.9855 35.6603 91.3502 38.8626 91.0723 39.0097H91.0549C93.4775 37.8499 96.5513 38.0663 99.8943 39.9877L253.272 128.336C261.113 132.845 267.469 144.954 267.469 155.374V272.301C267.469 278.801 264.994 283.111 261.226 284.34C261.53 284.357 261.912 284.236 262.467 283.916C262.65 283.812 268.615 280.298 268.789 280.177C271.489 278.29 273.165 274.421 273.165 269.073V152.146C273.165 141.725 266.809 129.617 258.968 125.108V125.099Z" fill="url(#paint9_linear_2156_31133)"/>
<path d="M258.855 125.177L105.469 36.8373C102.369 35.0544 99.4949 34.7255 97.1591 35.6256C96.8639 35.7382 91.3502 38.8626 91.0723 39.0097H91.0549C93.4775 37.8499 96.5513 38.0663 99.8943 39.9877L253.272 128.336C261.113 132.845 267.469 144.954 267.469 155.374V272.301C267.469 278.801 264.994 283.111 261.226 284.34C261.53 284.357 261.912 284.236 262.467 283.916C262.65 283.812 268.502 280.376 268.667 280.255C271.368 278.368 273.043 274.499 273.043 269.151V152.224C273.043 141.803 266.687 129.695 258.847 125.186L258.855 125.177Z" fill="url(#paint10_linear_2156_31133)"/>
<path d="M258.734 125.255L105.347 36.9152C102.247 35.1323 99.3733 34.8034 97.0376 35.7035C96.7424 35.816 91.3502 38.8539 91.0636 39.0097H91.0463C93.4688 37.8499 96.5426 38.0663 99.8856 39.9877L253.272 128.336C261.113 132.845 267.469 144.954 267.469 155.374V272.301C267.469 278.801 264.994 283.111 261.226 284.34C261.53 284.357 261.912 284.236 262.467 283.916C262.65 283.812 268.381 280.454 268.554 280.333C271.255 278.446 272.93 274.577 272.93 269.228V152.302C272.93 141.881 266.574 129.773 258.734 125.264V125.255Z" fill="url(#paint11_linear_2156_31133)"/>
<path d="M258.612 125.333L105.226 36.9931C102.126 35.2102 99.2518 34.8813 96.916 35.7814C96.6208 35.8939 91.3415 38.8539 91.0636 39.0097H91.0463C93.4688 37.8499 96.5426 38.0663 99.8856 39.9877L253.272 128.336C261.113 132.845 267.469 144.954 267.469 155.374V272.301C267.469 278.801 264.994 283.111 261.226 284.34C261.53 284.357 261.912 284.236 262.467 283.916C262.65 283.812 268.259 280.532 268.433 280.41C271.133 278.524 272.809 274.655 272.809 269.306V152.379C272.809 141.959 266.453 129.851 258.612 125.342V125.333Z" fill="url(#paint12_linear_2156_31133)"/>
<path d="M258.491 125.411L105.113 37.071C102.013 35.2881 99.1389 34.9592 96.8031 35.8593C96.5079 35.9718 91.3502 38.8539 91.0723 39.0097H91.0549C93.4775 37.8499 96.5513 38.0663 99.8943 39.9877L253.272 128.336C261.113 132.845 267.469 144.954 267.469 155.374V272.301C267.469 278.801 264.994 283.111 261.226 284.34C261.53 284.357 261.912 284.236 262.467 283.916C262.65 283.812 268.137 280.609 268.311 280.488C271.012 278.602 272.687 274.733 272.687 269.384V152.457C272.687 142.037 266.331 129.929 258.491 125.42V125.411Z" fill="url(#paint13_linear_2156_31133)"/>
<path d="M258.378 125.497L104.991 37.1575C101.891 35.3746 99.0173 35.0458 96.6816 35.9459C96.3863 36.0584 91.3502 38.8625 91.0723 39.0183H91.0549C93.4775 37.8586 96.5513 38.075 99.8943 39.9963L253.272 128.336C261.113 132.845 267.469 144.954 267.469 155.374V272.301C267.469 278.801 264.994 283.111 261.226 284.34C261.53 284.357 261.912 284.236 262.467 283.916C262.65 283.812 268.016 280.687 268.19 280.566C270.89 278.679 272.566 274.811 272.566 269.462V152.535C272.566 142.115 266.21 130.007 258.369 125.497H258.378Z" fill="url(#paint14_linear_2156_31133)"/>
<path d="M258.256 125.575L104.87 37.2354C101.77 35.4525 98.8957 35.1237 96.56 36.0238C96.2648 36.1363 91.3502 38.8626 91.0723 39.0183H91.0549C93.4775 37.8586 96.5513 38.075 99.8943 39.9963L253.272 128.336C261.113 132.845 267.469 144.954 267.469 155.374V272.301C267.469 278.801 264.994 283.111 261.226 284.34C261.53 284.357 261.912 284.236 262.467 283.916C262.65 283.812 267.903 280.765 268.068 280.644C270.768 278.757 272.444 274.889 272.444 269.54V152.613C272.444 142.193 266.088 130.085 258.247 125.575H258.256Z" fill="url(#paint15_linear_2156_31133)"/>
<path d="M258.135 125.653L104.748 37.3133C101.648 35.5304 98.7742 35.2016 96.4385 36.1017C96.1432 36.2142 91.3415 38.8626 91.0636 39.0183H91.0463C93.4688 37.8586 96.5426 38.075 99.8856 39.9963L253.272 128.336C261.113 132.845 267.469 144.954 267.469 155.374V272.301C267.469 278.801 264.994 283.111 261.226 284.34C261.53 284.357 261.912 284.236 262.467 283.916C262.65 283.812 267.781 280.843 267.955 280.722C270.656 278.835 272.331 274.967 272.331 269.618V152.691C272.331 142.271 265.975 130.162 258.135 125.653Z" fill="url(#paint16_linear_2156_31133)"/>
<path d="M258.013 125.731L104.627 37.3912C101.527 35.6083 98.6526 35.2795 96.3169 36.1796C96.0217 36.2921 91.3415 38.8626 91.0636 39.0183H91.0463C93.4688 37.8586 96.5426 38.075 99.8856 39.9963L253.272 128.336C261.113 132.845 267.469 144.954 267.469 155.374V272.301C267.469 278.801 264.994 283.111 261.226 284.34C261.53 284.357 261.912 284.236 262.467 283.916C262.65 283.812 267.66 280.921 267.834 280.809C270.534 278.922 272.21 275.053 272.21 269.704V152.769C272.21 142.348 265.854 130.24 258.013 125.731Z" fill="url(#paint17_linear_2156_31133)"/>
<path d="M257.891 125.809L104.514 37.4691C101.414 35.6862 98.5397 35.3574 96.204 36.2575C95.9088 36.37 91.3502 38.8626 91.0723 39.0183H91.0549C93.4775 37.8586 96.5513 38.075 99.8943 39.9963L253.272 128.336C261.113 132.845 267.469 144.954 267.469 155.374V272.301C267.469 278.801 264.994 283.111 261.226 284.34C261.53 284.357 261.912 284.236 262.467 283.916C262.65 283.812 267.538 280.999 267.712 280.886C270.412 279 272.088 275.131 272.088 269.782V152.847C272.088 142.426 265.732 130.318 257.891 125.809Z" fill="url(#paint18_linear_2156_31133)"/>
<path d="M257.779 125.887L104.392 37.547C101.292 35.7641 98.4182 35.4352 96.0824 36.3353C95.7872 36.4478 91.3502 38.8625 91.0723 39.0183H91.0549C93.4775 37.8586 96.5513 38.075 99.8943 39.9963L253.272 128.336C261.113 132.845 267.469 144.954 267.469 155.374V272.301C267.469 278.801 264.994 283.111 261.226 284.34C261.53 284.357 261.912 284.236 262.467 283.916C262.65 283.812 267.425 281.086 267.59 280.964C270.291 279.078 271.967 275.209 271.967 269.86V152.925C271.967 142.504 265.611 130.396 257.77 125.887H257.779Z" fill="url(#paint19_linear_2156_31133)"/>
<path d="M257.657 125.965L104.271 37.6249C101.171 35.842 98.2966 35.5131 95.9609 36.4132C95.6657 36.5257 91.3502 38.8625 91.0636 39.0183H91.0463C93.4688 37.8586 96.5426 38.075 99.8856 39.9963L253.272 128.336C261.113 132.845 267.469 144.954 267.469 155.374V272.301C267.469 278.801 264.994 283.111 261.226 284.34C261.53 284.357 261.912 284.236 262.467 283.916C262.65 283.812 267.304 281.163 267.478 281.042C270.178 279.155 271.854 275.287 271.854 269.938V153.003C271.854 142.582 265.498 130.474 257.657 125.965Z" fill="url(#paint20_linear_2156_31133)"/>
<path d="M257.535 126.043L104.149 37.7028C101.049 35.9199 98.1751 35.591 95.8393 36.4911C95.5441 36.6036 91.3415 38.8626 91.0636 39.0097H91.0463C93.4688 37.8499 96.5426 38.0663 99.8856 39.9877L253.272 128.336C261.113 132.845 267.469 144.954 267.469 155.374V272.301C267.469 278.801 264.994 283.111 261.226 284.34C261.53 284.357 261.912 284.236 262.467 283.916C262.65 283.812 267.182 281.241 267.356 281.12C270.056 279.233 271.732 275.365 271.732 270.016V153.089C271.732 142.669 265.376 130.561 257.535 126.051V126.043Z" fill="url(#paint21_linear_2156_31133)"/>
<path d="M257.414 126.121L104.036 37.7807C100.936 35.9978 98.0622 35.6689 95.7264 36.569C95.4312 36.6815 91.3502 38.8626 91.0723 39.0097H91.0549C93.4775 37.8499 96.5513 38.0663 99.8943 39.9877L253.272 128.336C261.113 132.845 267.469 144.954 267.469 155.374V272.301C267.469 278.801 264.994 283.111 261.226 284.34C261.53 284.357 261.912 284.236 262.467 283.916C262.65 283.812 267.061 281.319 267.234 281.198C269.935 279.311 271.611 275.443 271.611 270.094V153.167C271.611 142.747 265.255 130.638 257.414 126.129V126.121Z" fill="url(#paint22_linear_2156_31133)"/>
<path d="M257.301 126.199L103.915 37.8586C100.815 36.0757 97.9406 35.7468 95.6049 36.6469C95.3096 36.7594 91.3502 38.8539 91.0723 39.0097H91.0549C93.4775 37.8499 96.5513 38.0663 99.8943 39.9877L253.272 128.336C261.113 132.845 267.469 144.954 267.469 155.374V272.301C267.469 278.801 264.994 283.111 261.226 284.34C261.53 284.357 261.912 284.236 262.467 283.916C262.65 283.812 266.948 281.397 267.113 281.276C269.813 279.389 271.489 275.52 271.489 270.172V153.245C271.489 142.824 265.133 130.716 257.292 126.207L257.301 126.199Z" fill="url(#paint23_linear_2156_31133)"/>
<path d="M253.958 127.99L100.572 39.6501C97.3589 37.798 94.398 37.5384 92.0188 38.5596C94.0506 38.2394 96.3864 38.7241 98.8697 40.1608L252.247 128.501C260.088 133.01 266.444 145.118 266.444 155.538V272.465C266.444 278.61 264.221 282.782 260.8 284.253C265.185 283.561 268.146 279.078 268.146 271.955V155.036C268.146 144.616 261.79 132.508 253.949 127.999L253.958 127.99Z" fill="white"/>
<path d="M148.511 161.225V159.044L131.692 149.558V151.739L148.511 161.225Z" fill="#AFB6E5"/>
<path d="M101.292 107.772V109.953L154.25 140.02V137.831L101.292 107.772Z" fill="#5277F7"/>
<path opacity="0.7" d="M137.336 146.563L101.292 125.913V128.103L137.336 148.744V146.563Z" fill="url(#paint24_linear_2156_31133)"/>
<path d="M143.014 136.922L101.292 113.156V117.18L143.014 140.946V136.922Z" fill="#929CDB"/>
<path d="M128.731 137.069L101.292 121.378V123.559L128.731 139.25V137.069Z" fill="white"/>
<path d="M130.884 138.315V140.496L180.178 168.417V166.236L130.884 138.315Z" fill="white"/>
<path d="M139.489 147.801V149.982L164.427 164.219V162.038L139.489 147.801Z" fill="white"/>
<path opacity="0.7" d="M145.168 142.184L198.256 172.372V168.348L145.168 138.16V142.184Z" fill="url(#paint25_linear_2156_31133)"/>
<path d="M182.331 169.663L198.256 178.751V176.57L182.331 167.473V169.663Z" fill="white"/>
<path d="M166.58 165.457L198.256 183.286V181.105L166.58 163.276V165.457Z" fill="white"/>
<path d="M129.538 148.312L101.292 132.162V134.343L129.538 150.493V148.312Z" fill="#AFB6E5"/>
<path d="M150.664 162.471L167.874 172.26V170.07L150.664 160.281V162.471Z" fill="#AFB6E5"/>
<path d="M148.511 122.711V120.53L131.692 111.044V113.225L148.511 122.711Z" fill="#AFB6E5"/>
<path d="M101.292 69.2583V71.4394L154.25 101.506V99.3166L101.292 69.2583Z" fill="#5277F7"/>
<path d="M137.336 108.049L101.292 87.3989V89.5886L137.336 110.23V108.049Z" fill="white"/>
<path d="M158.418 107.305L101.292 74.6417V78.6662L158.418 111.33V107.305Z" fill="url(#paint26_linear_2156_31133)"/>
<path d="M128.731 98.555L101.292 82.8638V85.0448L128.731 100.736V98.555Z" fill="white"/>
<path d="M130.884 99.8013V101.982L180.178 129.903V127.722L130.884 99.8013Z" fill="white"/>
<path d="M139.489 109.287V111.468L164.427 125.705V123.524L139.489 109.287Z" fill="white"/>
<path d="M182.331 131.149L198.256 140.237V138.056L182.331 128.959V131.149Z" fill="white"/>
<path d="M166.58 126.943L198.256 144.772V142.591L166.58 124.762V126.943Z" fill="white"/>
<path d="M129.538 109.798L101.292 93.6477V95.8287L129.538 111.979V109.798Z" fill="#AFB6E5"/>
<path d="M150.664 123.957L167.874 133.746V131.556L150.664 121.767V123.957Z" fill="#AFB6E5"/>
<path d="M148.511 198.302V196.121L131.692 186.627V188.816L148.511 198.302Z" fill="#AFB6E5"/>
<path d="M101.292 144.841V147.031L154.25 177.089V174.908L101.292 144.841Z" fill="#5277F7"/>
<path d="M137.336 183.632L101.292 162.99V165.171L137.336 185.822V183.632Z" fill="white"/>
<path d="M134.062 169.092L101.292 150.233V154.258L134.062 173.116V169.092Z" fill="#929CDB"/>
<path opacity="0.7" d="M122.114 170.442L101.292 158.455V160.636L122.114 172.632V170.442Z" fill="url(#paint27_linear_2156_31133)"/>
<path d="M124.268 171.688V173.869L180.178 205.494V203.313L124.268 171.688Z" fill="white"/>
<path d="M139.489 184.878V187.059L157.472 197.419V195.238L139.489 184.878Z" fill="white"/>
<path d="M182.331 206.732L198.256 215.828V213.638L182.331 204.551V206.732Z" fill="white"/>
<path d="M159.625 198.665L185.11 212.885V210.704L159.625 196.484V198.665Z" fill="white"/>
<path d="M129.538 185.389L101.292 169.23V171.42L129.538 187.57V185.389Z" fill="#AFB6E5"/>
<path d="M150.664 200.548L167.874 210.328V208.147L150.664 198.359V200.548Z" fill="#AFB6E5"/>
<path d="M171.947 190.539L136.216 170.33V174.354L171.947 194.563V190.539Z" fill="#929CDB"/>
<path d="M174.135 191.776V195.801L198.256 209.449V205.416L174.135 191.776Z" fill="#929CDB"/>
<path style="mix-blend-mode:multiply" d="M133.666 114.058C146.745 106.438 146.609 81.9515 133.363 59.3668C120.117 36.7822 98.7775 24.6514 85.6992 32.272C72.6209 39.8925 72.7565 64.3787 86.0022 86.9633C99.248 109.548 120.588 121.679 133.666 114.058Z" fill="url(#paint28_radial_2156_31133)"/>
<path d="M140.87 119.136C134.106 115.242 128.809 105.228 128.809 96.3307V88.2384C128.809 81.3578 132.213 76.7448 137.292 76.7448C139.003 76.7448 140.792 77.2727 142.598 78.3113L145.038 79.7134C138.673 62.672 126.274 46.4615 112.025 38.2567C91.2808 26.313 74.4617 35.868 74.4617 59.5996C74.4617 83.3311 91.2808 112.247 112.025 124.182C125.987 132.214 138.161 130.5 144.638 121.3L140.87 119.136Z" fill="#AFB6E5"/>
<path d="M273.99 161.787L136.476 82.682C130.276 79.1162 125.249 82.8984 125.249 91.1378V99.256C125.249 107.495 130.276 117.068 136.476 120.633L273.99 199.747C280.19 203.313 285.217 199.531 285.217 191.292V183.173C285.217 174.934 280.19 165.362 273.99 161.796V161.787Z" fill="#E5E8FC"/>
<g style="mix-blend-mode:multiply" opacity="0.7">
<path opacity="0.09" d="M135.399 71.1018C126.647 66.0647 119.553 70.0979 119.553 80.1115V94.9026C119.553 104.916 126.647 117.12 135.399 122.157L247.611 186.566C256.363 191.603 266.67 187.068 266.67 177.054V162.263C266.67 152.25 256.372 140.557 247.611 135.52L135.399 71.1018Z" fill="#AFB6E5"/>
<path opacity="0.18" d="M136.554 72.5472C127.845 67.536 120.777 71.5432 120.777 81.5136V95.1969C120.777 105.159 127.836 117.301 136.554 122.313L246.612 185.536C255.321 190.547 265.272 186.081 265.272 176.12V162.436C265.272 152.475 255.33 140.791 246.612 135.771L136.554 72.5472Z" fill="#AFB6E5"/>
<path opacity="0.27" d="M137.718 73.9925C129.052 69.0073 122.019 72.9972 122.019 82.9157V95.4825C122.019 105.401 129.043 117.474 137.718 122.468L245.631 184.498C254.297 189.483 263.891 185.086 263.891 175.176V162.609C263.891 152.691 254.297 141.016 245.631 136.03L137.718 73.9925Z" fill="#AFB6E5"/>
<path opacity="0.36" d="M138.873 75.4379C130.25 70.47 123.252 74.4512 123.252 84.3091V95.7595C123.252 105.626 130.242 117.648 138.873 122.607L244.641 183.45C253.263 188.418 262.502 184.091 262.502 174.224V162.774C262.502 152.907 253.263 141.241 244.641 136.281L138.873 75.4379Z" fill="#AFB6E5"/>
<path opacity="0.45" d="M140.028 76.8833C131.449 71.9413 124.485 75.8966 124.485 85.7112V96.0451C124.485 105.86 131.44 117.821 140.028 122.763L243.643 182.412C252.221 187.354 261.104 183.095 261.104 173.281V162.947C261.104 153.132 252.221 141.474 243.643 136.532L140.028 76.8833Z" fill="#AFB6E5"/>
<path opacity="0.55" d="M141.182 78.3286C132.647 73.4127 125.718 77.3506 125.718 87.1133V96.3307C125.718 106.102 132.638 118.002 141.182 122.91L242.653 181.373C251.188 186.289 259.715 182.1 259.715 172.337V163.12C259.715 153.349 251.188 141.708 242.653 136.792L141.182 78.3286Z" fill="#AFB6E5"/>
<path opacity="0.64" d="M142.337 79.774C133.836 74.884 126.951 78.796 126.951 88.5154V96.6163C126.951 106.336 133.836 118.175 142.337 123.065L241.663 180.335C250.164 185.225 258.326 181.105 258.326 171.385V163.285C258.326 153.565 250.155 141.924 241.663 137.034L142.337 79.774Z" fill="#AFB6E5"/>
<path opacity="0.73" d="M143.492 81.2193C135.035 76.3553 128.184 80.25 128.184 89.9174V96.9019C128.184 106.569 135.035 118.357 143.492 123.221L240.664 179.305C249.122 184.169 256.936 180.127 256.936 170.451V163.466C256.936 153.799 249.122 142.167 240.664 137.303L143.492 81.2193Z" fill="#AFB6E5"/>
<path opacity="0.82" d="M144.656 82.6647C136.242 77.8266 129.425 81.6953 129.425 91.3195V97.1875C129.425 106.812 136.242 118.53 144.656 123.368L239.683 178.257C248.097 183.095 255.556 179.123 255.556 169.499V163.631C255.556 154.007 248.097 142.392 239.683 137.554L144.656 82.6647Z" fill="#AFB6E5"/>
<path opacity="0.91" d="M145.81 84.11C137.44 79.298 130.658 83.1494 130.658 92.7216V97.4731C130.658 107.045 137.44 118.703 145.81 123.524L238.693 177.227C247.064 182.04 254.166 178.136 254.166 168.564V163.812C254.166 154.24 247.064 142.625 238.693 137.813L145.81 84.11Z" fill="#AFB6E5"/>
<path d="M146.965 85.5554C138.638 80.7606 131.891 84.6034 131.891 94.1237V97.7674C131.891 107.288 138.638 118.894 146.965 123.68L237.695 176.189C246.022 180.984 252.768 177.141 252.768 167.621V163.977C252.768 154.457 246.022 142.85 237.695 138.064L146.965 85.5554Z" fill="#AFB6E5"/>
</g>
<path d="M279.773 158.412L142.268 79.298C139.611 77.766 137.179 77.6016 135.252 78.545L135.191 78.4757L129.061 82.0675L129.087 82.1454C131.067 80.977 133.645 81.0462 136.485 82.682L273.999 161.796C280.198 165.362 285.226 174.934 285.226 183.173V191.292C285.226 195.299 284.036 198.233 282.1 199.808L285.521 197.566C288.395 195.922 291.009 193.369 291.009 187.916V179.798C291.009 171.559 285.981 161.986 279.781 158.42L279.773 158.412Z" fill="#E9EBFA"/>
<path d="M278.444 199.271C277.359 199.271 276.169 198.899 274.902 198.172L137.388 119.067C131.796 115.847 127.072 106.777 127.072 99.2647V91.1464C127.072 86.2911 129.017 83.158 132.022 83.158C133.107 83.158 134.297 83.5302 135.564 84.2572L273.07 163.371C278.661 166.591 283.385 175.661 283.385 183.182V191.3C283.385 193.888 282.847 196.017 281.831 197.454C280.971 198.674 279.825 199.289 278.436 199.289L278.444 199.271Z" fill="url(#paint29_linear_2156_31133)"/>
<path d="M133.098 103.177V95.4479C133.098 91.3109 135.625 89.4068 138.734 91.1984L243.417 151.765C246.517 153.548 249.052 158.377 249.052 162.497V170.226C249.052 174.345 246.517 176.258 243.417 174.475L138.734 113.909C135.625 112.117 133.098 107.314 133.098 103.177Z" fill="white"/>
<path d="M276.812 191.794L271.298 182.308C270.716 181.313 269.839 180.707 269.171 180.767L267.556 177.989C269.978 175.722 269.735 170.356 266.818 165.344C263.631 159.866 258.465 156.889 255.278 158.697C252.091 160.506 252.091 166.418 255.278 171.896C258.195 176.907 262.763 179.815 265.967 178.889L267.582 181.667C267.191 182.213 267.278 183.269 267.86 184.264L273.373 193.75C274.068 194.935 275.179 195.584 275.874 195.186L276.821 194.65C277.515 194.26 277.515 192.979 276.821 191.794H276.812ZM264.847 175.168C262.745 176.362 259.342 174.406 257.24 170.788C255.139 167.179 255.139 163.285 257.24 162.09C259.342 160.896 262.745 162.852 264.847 166.469C266.948 170.079 266.948 173.973 264.847 175.168Z" fill="white"/>
<path d="M107.232 124.519C87.547 113.19 71.5876 85.7631 71.5876 63.2519C71.5876 52.5026 75.2258 44.8257 81.165 40.9657C74.9045 44.6959 71.0405 52.5199 71.0405 63.5894C71.0405 86.1007 87 113.536 106.676 124.857C116.965 130.777 126.23 131.123 132.734 126.891C126.265 130.751 117.226 130.266 107.223 124.511L107.232 124.519Z" fill="#AFB6E5"/>
<path d="M135.608 122.131C128.826 118.227 123.512 108.179 123.512 99.256V91.1378C123.512 84.2399 126.933 79.6095 132.013 79.6095C133.732 79.6095 135.521 80.1375 137.336 81.1847L139.784 82.5954C133.402 65.5021 120.968 49.2397 106.667 41.0176C85.8712 29.0307 69 38.6202 69 62.421C69 86.2218 85.8712 115.224 106.676 127.202C120.682 135.26 132.89 133.546 139.385 124.312L135.608 122.139V122.131Z" fill="url(#paint30_linear_2156_31133)"/>
<path d="M135.608 122.131C128.826 118.227 123.512 108.179 123.512 99.256V91.1378C123.512 84.2399 126.933 79.6095 132.013 79.6095C133.732 79.6095 135.521 80.1375 137.336 81.1847L137.431 81.2366C131.249 65.606 119.787 50.8928 106.667 43.3458C87 32.0166 71.0405 41.0782 71.0405 63.5894C71.0405 86.1007 87 113.536 106.676 124.857C119.501 132.24 130.737 130.95 137.014 122.936L135.608 122.122V122.131Z" fill="white"/>
<path d="M126.456 111.425C126.247 111.65 126.039 111.875 125.822 112.082C124.198 110.152 122.427 108.274 120.517 106.465C121.42 103.255 121.975 99.4031 122.106 95.0324L123.521 95.846V91.8648L122.106 91.0512C121.975 86.5334 121.42 82.0415 120.517 77.792C122.427 78.1815 124.198 78.3459 125.822 78.2853C126.317 79.3066 126.76 80.3365 127.185 81.3665C127.941 80.726 128.8 80.25 129.747 79.9557C124.763 68.4448 116.201 57.7993 106.493 52.217C91.133 43.3804 78.6469 50.4773 78.6469 68.038C78.6469 85.5987 91.1418 107.071 106.493 115.908C115.715 121.213 123.903 120.763 128.974 115.761C128.036 114.419 127.185 112.957 126.456 111.425ZM97.1852 52.9613C95.7699 54.2422 94.5282 56.0943 93.5383 58.4744C92.1056 57.1243 90.7684 55.7395 89.5354 54.3287C91.7322 53.1517 94.3198 52.667 97.1852 52.9613ZM87.1563 56.0424C88.78 57.9724 90.5513 59.8505 92.4616 61.6594C91.5586 64.8703 91.0029 68.7217 90.8726 73.0924L82.2156 68.1072C82.5629 62.7239 84.3516 58.6302 87.1649 56.0424H87.1563ZM87.1563 89.8395C84.3429 84.0235 82.5542 77.8699 82.2069 72.0798L90.8639 77.065C90.9942 81.5828 91.5499 86.0747 92.4529 90.3242C90.5427 89.9347 88.7713 89.7703 87.1476 89.8309L87.1563 89.8395ZM89.5354 94.2795C90.7684 94.2881 92.1143 94.4526 93.5383 94.7468C94.5282 98.2694 95.7612 101.541 97.1852 104.458C94.3198 101.446 91.7322 97.9837 89.5354 94.2795ZM104.748 110.594C101.631 107.729 98.861 102.259 96.9594 95.6643C99.4254 96.4692 102.056 97.6029 104.748 99.0396V110.594ZM104.748 95.0584C101.64 93.388 98.6353 92.0811 95.8306 91.1984C94.9971 87.3037 94.4848 83.1753 94.3458 79.0643L104.739 85.0448V95.0498L104.748 95.0584ZM104.748 81.0722L94.3545 75.0917C94.4848 71.1364 95.0058 67.5966 95.8393 64.6626C98.644 67.0081 101.648 69.1545 104.757 71.0672V81.0722H104.748ZM104.748 67.086C102.048 65.4156 99.4167 63.5288 96.9594 61.495C98.861 57.0896 101.631 54.8134 104.748 55.5318V67.086ZM123.443 73.8454C122.21 73.8368 120.864 73.6723 119.44 73.378C118.45 69.8555 117.217 66.584 115.793 63.6673C118.658 66.6792 121.246 70.1411 123.443 73.8454ZM108.23 57.531C111.347 60.3958 114.117 65.8656 116.019 72.4606C113.553 71.6557 110.922 70.5219 108.23 69.0852V57.531ZM108.23 73.0665C111.339 74.7369 114.343 76.0437 117.148 76.9265C117.981 80.8212 118.493 84.9496 118.632 89.0606L108.239 83.0801V73.0751L108.23 73.0665ZM108.23 87.0527L118.624 93.0332C118.493 96.9884 117.972 100.528 117.139 103.462C114.334 101.117 111.33 98.9704 108.221 97.0577V87.0527H108.23ZM108.23 112.593V101.039C110.93 102.709 113.561 104.596 116.019 106.63C114.117 111.035 111.347 113.311 108.23 112.593ZM115.793 115.155C117.208 113.874 118.45 112.022 119.44 109.642C120.873 110.992 122.21 112.377 123.443 113.787C121.246 114.965 118.658 115.449 115.793 115.155Z" fill="#AFB6E5"/>
<path d="M139.793 82.5868L145.698 80.5616C139.446 63.0701 126.794 46.2797 112.19 37.8759C102.386 32.2329 93.4515 31.3761 86.7481 34.5438L81.356 37.5903V37.6163C88.0506 34.5178 96.9334 35.392 106.676 41.009C120.968 49.2311 133.402 65.4935 139.793 82.5868Z" fill="url(#paint31_linear_2156_31133)"/>
<path d="M140.366 82.3877C134.071 65.0088 121.758 49.0406 107.24 40.6887C96.6902 34.613 87.1476 34.0937 80.3053 38.1528C87.1041 34.4399 96.4124 35.0977 106.676 41.0089C120.968 49.231 133.402 65.4935 139.793 82.5868L140.366 82.3877Z" fill="white"/>
<path d="M139.385 124.303C137.787 126.579 135.842 128.405 133.611 129.73C135.929 128.466 137.943 126.683 139.619 124.433L139.385 124.303Z" fill="white"/>
<g style="mix-blend-mode:multiply" opacity="0.5">
<path opacity="0.09" d="M215.475 100.502C212.644 98.8752 210.352 100.173 210.352 103.41V114.584C210.352 117.821 212.644 121.767 215.475 123.1L239.171 136.74C242.001 138.661 245.327 137.19 245.327 133.953V122.78C245.327 119.543 242.001 115.761 239.171 114.134L215.475 100.494V100.502Z" fill="#AFB6E5"/>
<path opacity="0.18" d="M215.318 100.727C212.505 99.1089 210.221 100.407 210.221 103.627V114.437C210.221 117.656 212.505 121.577 215.318 122.624L238.85 136.169C241.663 138.367 244.876 136.922 244.876 133.702V122.892C244.876 119.673 241.663 115.891 238.85 114.272L215.318 100.727Z" fill="#AFB6E5"/>
<path opacity="0.27" d="M215.162 100.961C212.357 99.3512 210.091 100.641 210.091 103.843V114.298C210.091 117.5 212.366 121.404 215.162 122.148L238.52 135.598C241.324 138.082 244.424 136.662 244.424 133.451V122.996C244.424 119.794 241.324 116.02 238.52 114.402L215.162 100.952V100.961Z" fill="#AFB6E5"/>
<path opacity="0.36" d="M215.015 101.186C212.227 99.5849 209.97 100.866 209.97 104.051V114.142C209.97 117.327 212.227 121.213 215.015 121.655L238.207 135C240.994 137.77 243.981 136.368 243.981 133.183V123.091C243.981 119.906 240.994 116.133 238.207 114.523L215.015 101.177V101.186Z" fill="#AFB6E5"/>
<path opacity="0.45" d="M214.858 101.411C212.088 99.8186 209.839 101.091 209.839 104.267V113.995C209.839 117.172 212.088 121.032 214.858 121.179L237.877 134.429C240.647 137.476 243.521 136.1 243.521 132.932V123.204C243.521 120.028 240.647 116.263 237.877 114.67L214.858 101.42V101.411Z" fill="#AFB6E5"/>
<path opacity="0.55" d="M214.711 101.645C211.949 100.052 209.709 101.325 209.709 104.484V113.857C209.709 117.016 211.949 120.858 214.711 120.703L237.565 133.858C240.326 137.19 243.078 135.84 243.078 132.681V123.308C243.078 120.149 240.326 116.384 237.565 114.8L214.711 101.645Z" fill="#AFB6E5"/>
<path opacity="0.64" d="M214.554 101.87C211.811 100.286 209.579 101.558 209.579 104.7V113.71C209.579 116.851 211.802 120.677 214.554 120.227L237.235 133.287C239.978 136.905 242.618 135.572 242.618 132.43V123.42C242.618 120.279 239.978 116.514 237.235 114.939L214.554 101.878V101.87Z" fill="#AFB6E5"/>
<path opacity="0.73" d="M214.398 102.103C211.663 100.528 209.449 101.792 209.449 104.916V113.562C209.449 116.687 211.663 120.495 214.398 119.742L236.913 132.698C239.648 136.593 242.175 135.286 242.175 132.162V123.516C242.175 120.391 239.648 116.635 236.913 115.06L214.398 102.103Z" fill="#AFB6E5"/>
<path opacity="0.82" d="M214.25 102.328C211.533 100.762 209.327 102.017 209.327 105.124V113.415C209.327 116.522 211.533 120.313 214.25 119.266L236.592 132.127C239.31 136.307 241.724 135.018 241.724 131.911V123.619C241.724 120.512 239.31 116.756 236.592 115.19L214.25 102.328Z" fill="#AFB6E5"/>
<path opacity="0.91" d="M214.094 102.554C211.394 100.996 209.197 102.242 209.197 105.34V113.268C209.197 116.358 211.394 120.131 214.094 118.781L236.271 131.547C238.971 136.004 241.272 134.75 241.272 131.651V123.723C241.272 120.633 238.98 116.877 236.271 115.319L214.094 102.554Z" fill="#AFB6E5"/>
<path d="M213.947 102.787C211.255 101.238 209.075 102.476 209.075 105.557V113.121C209.075 116.202 211.255 119.95 213.947 118.305L235.949 130.976C238.641 135.719 240.821 134.481 240.821 131.4V123.836C240.821 120.755 238.641 117.007 235.949 115.458L213.947 102.787Z" fill="#AFB6E5"/>
</g>
<path opacity="0.9" d="M239.214 137.086L212.67 121.897C210.343 120.556 208.441 116.938 208.441 113.839V105.254C208.441 102.164 210.343 100.727 212.67 102.069L239.214 117.258C241.541 118.6 243.443 122.217 243.443 125.316V133.901C243.443 136.991 241.541 138.428 239.214 137.086Z" fill="url(#paint32_linear_2156_31133)"/>
<path style="mix-blend-mode:color-dodge" d="M239.214 117.258L212.67 102.069C210.343 100.727 208.441 102.164 208.441 105.254V105.73C208.441 102.64 210.343 101.203 212.67 102.545L239.214 117.734C241.541 119.076 243.443 122.693 243.443 125.792V125.316C243.443 122.226 241.541 118.6 239.214 117.258Z" fill="url(#paint33_radial_2156_31133)"/>
<path d="M215.987 117.405L217.446 118.245V119.915L215.987 119.076V117.405Z" fill="white"/>
<path d="M218.983 120.227C218.583 119.517 218.392 118.721 218.392 117.838V112.039C218.392 111.156 218.592 110.585 218.983 110.326C219.382 110.066 219.946 110.152 220.693 110.585C221.44 111.009 222.004 111.581 222.404 112.29C222.803 113 222.994 113.796 222.994 114.679V120.478C222.994 121.36 222.795 121.932 222.404 122.183C222.013 122.442 221.44 122.356 220.693 121.923C219.946 121.49 219.382 120.928 218.983 120.209V120.227ZM221.475 119.725V113.701C221.475 112.974 221.214 112.463 220.685 112.16C220.164 111.857 219.903 112.074 219.903 112.792V118.816C219.903 119.543 220.164 120.054 220.685 120.357C221.206 120.659 221.475 120.443 221.475 119.716V119.725Z" fill="white"/>
<path d="M224.019 112.654L226.268 113.943C227.049 114.393 227.622 114.93 227.978 115.553C228.334 116.176 228.517 116.921 228.517 117.777V118.452C228.517 119.595 228.187 120.132 227.527 120.054V120.088C227.891 120.426 228.152 120.833 228.308 121.309C228.456 121.785 228.534 122.347 228.534 122.996V124.935C228.534 125.247 228.543 125.515 228.56 125.714C228.577 125.922 228.621 126.138 228.699 126.372L227.153 125.48C227.101 125.272 227.058 125.082 227.041 124.909C227.023 124.736 227.014 124.45 227.014 124.043V122.027C227.014 121.525 226.945 121.127 226.797 120.85C226.658 120.564 226.407 120.331 226.059 120.123L225.538 119.82V124.554L224.019 123.68V112.636V112.654ZM226.085 118.574C226.389 118.747 226.615 118.79 226.771 118.695C226.928 118.608 226.997 118.349 226.997 117.925V117.076C226.997 116.678 226.936 116.349 226.815 116.098C226.693 115.847 226.493 115.648 226.224 115.493L225.538 115.094V118.245L226.094 118.565L226.085 118.574Z" fill="white"/>
<path d="M230.045 126.597C229.654 125.896 229.463 125.099 229.463 124.208V118.401C229.463 117.509 229.654 116.929 230.045 116.678C230.427 116.419 230.991 116.505 231.729 116.929C232.467 117.353 233.023 117.916 233.414 118.617C233.796 119.318 233.996 120.114 233.996 121.006V121.949L232.563 121.127V120.071C232.563 119.344 232.302 118.833 231.782 118.53C231.261 118.227 230.991 118.444 230.991 119.162V125.203C230.991 125.922 231.252 126.424 231.782 126.726C232.302 127.029 232.563 126.822 232.563 126.103V123.94L231.808 123.507V121.932L234.004 123.195V126.804C234.004 127.696 233.813 128.276 233.423 128.527C233.041 128.786 232.476 128.7 231.738 128.276C231 127.852 230.444 127.289 230.054 126.588L230.045 126.597Z" fill="white"/>
<path d="M181 132.36C181 131.56 181.48 131.26 182.14 131.63C182.8 132 183.28 132.83 183.28 133.65C183.28 134.47 182.83 134.77 182.14 134.38C181.45 133.99 181 133.14 181 132.36Z" fill="#381C1C"/>
<path d="M184.84 135.71V124L186.94 125.19L189.55 131.69C190.23 133.38 190.81 135.06 191.28 136.59L191.31 136.61C191.19 134.98 191.14 133.44 191.14 131.65V127.56L192.85 128.53V140.24L190.95 139.16L188.31 132.52C187.66 130.87 186.99 129.04 186.49 127.44H186.45C186.53 128.99 186.54 130.54 186.54 132.47V136.66L184.85 135.7L184.84 135.71Z" fill="#381C1C"/>
<path d="M194.98 141.45V129.74L197.08 130.93L199.69 137.43C200.37 139.12 200.95 140.8 201.42 142.33L201.45 142.35C201.33 140.72 201.28 139.18 201.28 137.39V133.31L202.99 134.28V145.99L201.09 144.91L198.45 138.27C197.8 136.62 197.13 134.79 196.63 133.19H196.59C196.67 134.74 196.68 136.29 196.68 138.22V142.41L194.99 141.45H194.98Z" fill="#381C1C"/>
<path d="M205.07 144.83C205.67 145.57 206.57 146.43 207.52 146.96C208.7 147.63 209.36 147.36 209.36 146.4C209.36 145.51 208.85 144.7 207.56 143.44C205.89 141.8 204.83 140.17 204.83 138.49C204.83 136.58 206.21 135.9 208.4 137.14C209.49 137.76 210.31 138.5 210.83 139.11L210.38 140.58C210.02 140.15 209.31 139.42 208.37 138.89C207.2 138.23 206.69 138.67 206.69 139.35C206.69 140.25 207.27 141 208.63 142.37C210.38 144.13 211.24 145.64 211.24 147.32C211.24 149.2 210.01 150.14 207.4 148.66C206.34 148.06 205.23 147.08 204.67 146.38L205.07 144.84V144.83Z" fill="#381C1C"/>
<path d="M212.6 150.24C212.6 149.44 213.08 149.14 213.74 149.51C214.4 149.88 214.88 150.71 214.88 151.53C214.88 152.35 214.43 152.65 213.74 152.26C213.05 151.87 212.6 151.02 212.6 150.24Z" fill="#381C1C"/>
<path d="M225.41 152.69C225.41 156.62 223.36 157.7 220.57 156.12C217.78 154.54 215.92 150.97 215.92 147.53C215.92 144.09 217.87 142.5 220.72 144.11C223.57 145.72 225.41 149.35 225.41 152.69ZM217.87 148.6C217.87 150.98 218.9 153.46 220.67 154.46C222.44 155.46 223.46 154.13 223.46 151.68C223.46 149.47 222.51 146.85 220.67 145.81C218.83 144.77 217.87 146.19 217.87 148.6Z" fill="#381C1C"/>
<path d="M227 159.57V147.86L229.1 149.05L231.71 155.55C232.39 157.24 232.97 158.92 233.44 160.45L233.47 160.47C233.35 158.84 233.3 157.3 233.3 155.51V151.43L235.01 152.4V164.11L233.11 163.03L230.47 156.39C229.82 154.74 229.15 152.91 228.65 151.31H228.61C228.69 152.86 228.7 154.41 228.7 156.34V160.53L227.01 159.57H227Z" fill="#381C1C"/>
<path d="M242.8 163.31L238.99 161.15V164.59L243.25 167V168.75L237.15 165.3V153.59L243.03 156.92V158.67L239 156.39V159.41L242.81 161.57V163.31H242.8Z" fill="#381C1C"/>
<g style="mix-blend-mode:multiply" opacity="0.5">
<path opacity="0.09" d="M215.475 166.374C212.644 164.747 210.352 166.045 210.352 169.282V180.456C210.352 183.693 212.644 187.639 215.475 188.972L239.171 202.612C242.001 204.533 245.327 203.062 245.327 199.825V188.652C245.327 185.415 242.001 181.633 239.171 180.006L215.475 166.366V166.374Z" fill="#AFB6E5"/>
<path opacity="0.18" d="M215.318 166.608C212.505 164.989 210.221 166.288 210.221 169.507V180.317C210.221 183.537 212.505 187.457 215.318 188.505L238.85 202.05C241.663 204.248 244.876 202.802 244.876 199.583V188.773C244.876 185.553 241.663 181.771 238.85 180.153L215.318 166.608Z" fill="#AFB6E5"/>
<path opacity="0.27" d="M215.162 166.833C212.357 165.223 210.091 166.513 210.091 169.715V180.17C210.091 183.372 212.366 187.276 215.162 188.02L238.52 201.47C241.324 203.954 244.424 202.534 244.424 199.323V188.868C244.424 185.666 241.324 181.892 238.52 180.274L215.162 166.824V166.833Z" fill="#AFB6E5"/>
<path opacity="0.36" d="M215.015 167.058C212.227 165.457 209.97 166.738 209.97 169.923V180.014C209.97 183.199 212.227 187.085 215.015 187.527L238.207 200.872C240.994 203.642 243.981 202.24 243.981 199.055V188.963C243.981 185.778 240.994 182.005 238.207 180.395L215.015 167.049V167.058Z" fill="#AFB6E5"/>
<path opacity="0.45" d="M214.858 167.292C212.088 165.699 209.839 166.971 209.839 170.148V179.876C209.839 183.052 212.088 186.912 214.858 187.059L237.877 200.31C240.647 203.356 243.521 201.98 243.521 198.813V189.085C243.521 185.908 240.647 182.143 237.877 180.551L214.858 167.3V167.292Z" fill="#AFB6E5"/>
<path opacity="0.55" d="M214.711 167.517C211.949 165.924 209.709 167.196 209.709 170.355V179.729C209.709 182.888 211.949 186.73 214.711 186.575L237.565 199.73C240.326 203.062 243.078 201.712 243.078 198.553V189.18C243.078 186.021 240.326 182.256 237.565 180.672L214.711 167.517Z" fill="#AFB6E5"/>
<path opacity="0.64" d="M214.554 167.75C211.811 166.167 209.579 167.439 209.579 170.572V179.582C209.579 182.723 211.802 186.549 214.554 186.099L237.235 199.159C239.978 202.777 242.618 201.444 242.618 198.302V189.292C242.618 186.151 239.978 182.386 237.235 180.811L214.554 167.75Z" fill="#AFB6E5"/>
<path opacity="0.73" d="M214.398 167.975C211.663 166.4 209.449 167.664 209.449 170.788V179.434C209.449 182.559 211.663 186.367 214.398 185.614L236.913 198.57C239.648 202.465 242.175 201.158 242.175 198.034V189.387C242.175 186.263 239.648 182.507 236.913 180.932L214.398 167.975Z" fill="#AFB6E5"/>
<path opacity="0.82" d="M214.25 168.209C211.533 166.643 209.327 167.898 209.327 171.005V179.296C209.327 182.403 211.533 186.194 214.25 185.147L236.592 198.008C239.31 202.188 241.724 200.898 241.724 197.791V189.5C241.724 186.393 239.31 182.637 236.592 181.07L214.25 168.209Z" fill="#AFB6E5"/>
<path opacity="0.91" d="M214.094 168.434C211.394 166.876 209.197 168.123 209.197 171.221V179.149C209.197 182.239 211.394 186.012 214.094 184.662L236.271 197.428C238.971 201.885 241.272 200.63 241.272 197.532V189.604C241.272 186.514 238.98 182.758 236.271 181.2L214.094 168.434Z" fill="#AFB6E5"/>
<path d="M213.947 168.659C211.255 167.11 209.075 168.348 209.075 171.429V178.993C209.075 182.074 211.255 185.822 213.947 184.177L235.949 196.848C238.641 201.591 240.821 200.353 240.821 197.272V189.708C240.821 186.627 238.641 182.879 235.949 181.33L213.947 168.659Z" fill="#AFB6E5"/>
</g>
<path opacity="0.9" d="M239.214 202.967L212.67 187.778C210.343 186.436 208.441 182.818 208.441 179.72V171.134C208.441 168.045 210.343 166.608 212.67 167.949L239.214 183.139C241.541 184.48 243.443 188.098 243.443 191.196V199.782C243.443 202.872 241.541 204.308 239.214 202.967Z" fill="url(#paint34_linear_2156_31133)"/>
<path style="mix-blend-mode:color-dodge" d="M239.214 183.139L212.67 167.949C210.343 166.608 208.441 168.045 208.441 171.134V171.61C208.441 168.521 210.343 167.084 212.67 168.425L239.214 183.615C241.541 184.956 243.443 188.574 243.443 191.672V191.196C243.443 188.107 241.541 184.48 239.214 183.139Z" fill="url(#paint35_radial_2156_31133)"/>
<path d="M215.987 183.52L217.446 184.359V186.029L215.987 185.19V183.52Z" fill="white"/>
<path d="M218.583 175.644L220.485 176.734L221.961 184.195L221.987 184.212V177.608L223.342 178.387V189.422L221.787 188.522L219.964 179.417L219.938 179.4V187.457L218.583 186.679V175.644Z" fill="white"/>
<path d="M224.47 179.028L228.603 181.408V182.983L225.981 181.477V184.394L228.065 185.588V187.163L225.981 185.969V189.362L228.603 190.867V192.443L224.47 190.063V179.028Z" fill="white"/>
<path d="M230.661 184.169L229.072 183.26V181.685L233.761 184.385V185.96L232.172 185.051V194.511L230.653 193.637V184.177L230.661 184.169Z" fill="white"/>
<g style="mix-blend-mode:multiply" opacity="0.5">
<path opacity="0.09" d="M215.475 195.411C212.644 193.784 210.352 195.082 210.352 198.319V209.493C210.352 212.73 212.644 216.676 215.475 218.009L239.171 231.649C242.001 233.57 245.327 232.099 245.327 228.862V217.689C245.327 214.452 242.001 210.67 239.171 209.043L215.475 195.403V195.411Z" fill="#AFB6E5"/>
<path opacity="0.18" d="M215.318 195.636C212.505 194.018 210.221 195.316 210.221 198.536V209.346C210.221 212.565 212.505 216.486 215.318 217.533L238.85 231.078C241.663 233.276 244.876 231.831 244.876 228.611V217.801C244.876 214.582 241.663 210.8 238.85 209.181L215.318 195.636Z" fill="#AFB6E5"/>
<path opacity="0.27" d="M215.162 195.861C212.357 194.252 210.091 195.541 210.091 198.743V209.198C210.091 212.401 212.366 216.304 215.162 217.048L238.52 230.498C241.324 232.982 244.424 231.563 244.424 228.352V217.897C244.424 214.694 241.324 210.921 238.52 209.302L215.162 195.853V195.861Z" fill="#AFB6E5"/>
<path opacity="0.36" d="M215.015 196.095C212.227 194.494 209.97 195.775 209.97 198.96V209.051C209.97 212.236 212.227 216.122 215.015 216.564L238.207 229.909C240.994 232.679 243.981 231.277 243.981 228.092V218C243.981 214.815 240.994 211.042 238.207 209.432L215.015 196.086V196.095Z" fill="#AFB6E5"/>
<path opacity="0.45" d="M214.858 196.32C212.088 194.728 209.839 196 209.839 199.176V208.904C209.839 212.081 212.088 215.941 214.858 216.088L237.877 229.338C240.647 232.385 243.521 231.009 243.521 227.841V218.113C243.521 214.937 240.647 211.172 237.877 209.579L214.858 196.329V196.32Z" fill="#AFB6E5"/>
<path opacity="0.55" d="M214.711 196.554C211.949 194.961 209.709 196.233 209.709 199.393V208.766C209.709 211.925 211.949 215.767 214.711 215.612L237.565 228.767C240.326 232.099 243.078 230.749 243.078 227.59V218.217C243.078 215.058 240.326 211.293 237.565 209.709L214.711 196.554Z" fill="#AFB6E5"/>
<path opacity="0.64" d="M214.554 196.779C211.811 195.195 209.579 196.467 209.579 199.609V208.619C209.579 211.76 211.802 215.586 214.554 215.136L237.235 228.196C239.978 231.814 242.618 230.481 242.618 227.339V218.329C242.618 215.188 239.978 211.423 237.235 209.848L214.554 196.787V196.779Z" fill="#AFB6E5"/>
<path opacity="0.73" d="M214.398 197.004C211.663 195.429 209.449 196.692 209.449 199.817V208.463C209.449 211.587 211.663 215.395 214.398 214.642L236.913 227.599C239.648 231.493 242.175 230.186 242.175 227.062V218.416C242.175 215.291 239.648 211.535 236.913 209.96L214.398 197.004Z" fill="#AFB6E5"/>
<path opacity="0.82" d="M214.25 197.237C211.533 195.671 209.327 196.926 209.327 200.033V208.324C209.327 211.431 211.533 215.222 214.25 214.175L236.592 227.036C239.31 231.216 241.724 229.927 241.724 226.82V218.528C241.724 215.421 239.31 211.665 236.592 210.099L214.25 197.237Z" fill="#AFB6E5"/>
<path opacity="0.91" d="M214.094 197.462C211.394 195.905 209.197 197.151 209.197 200.249V208.177C209.197 211.267 211.394 215.04 214.094 213.69L236.271 226.456C238.971 230.913 241.272 229.658 241.272 226.56V218.632C241.272 215.542 238.98 211.786 236.271 210.228L214.094 197.462Z" fill="#AFB6E5"/>
<path d="M213.947 197.696C211.255 196.147 209.075 197.385 209.075 200.466V208.03C209.075 211.111 211.255 214.859 213.947 213.214L235.949 225.885C238.641 230.628 240.821 229.39 240.821 226.309V218.745C240.821 215.664 238.641 211.916 235.949 210.367L213.947 197.696Z" fill="#AFB6E5"/>
</g>
<path opacity="0.9" d="M239.214 231.995L212.67 216.806C210.343 215.465 208.441 211.847 208.441 208.748V200.163C208.441 197.073 210.343 195.636 212.67 196.978L239.214 212.167C241.541 213.509 243.443 217.126 243.443 220.225V228.81C243.443 231.9 241.541 233.337 239.214 231.995Z" fill="url(#paint36_linear_2156_31133)"/>
<path style="mix-blend-mode:color-dodge" d="M239.214 212.167L212.67 196.978C210.343 195.636 208.441 197.073 208.441 200.163V200.639C208.441 197.549 210.343 196.112 212.67 197.454L239.214 212.643C241.541 213.985 243.443 217.602 243.443 220.701V220.225C243.443 217.135 241.541 213.509 239.214 212.167Z" fill="url(#paint37_radial_2156_31133)"/>
<path d="M215.987 212.193L217.446 213.033V214.703L215.987 213.863V212.193Z" fill="white"/>
<path d="M218.583 204.317L220.876 205.633C221.657 206.083 222.23 206.619 222.586 207.242C222.942 207.866 223.124 208.61 223.124 209.467V209.908C223.124 210.479 223.046 210.895 222.881 211.154C222.716 211.414 222.473 211.535 222.143 211.501V211.535C222.899 212.262 223.272 213.249 223.272 214.487V215.43C223.272 216.278 223.081 216.815 222.69 217.04C222.3 217.265 221.727 217.152 220.971 216.719L218.583 215.343V204.308V204.317ZM220.693 210.029C220.997 210.202 221.223 210.246 221.379 210.15C221.527 210.055 221.605 209.804 221.605 209.38V208.766C221.605 208.368 221.544 208.039 221.423 207.788C221.301 207.537 221.101 207.338 220.841 207.182L220.111 206.758V209.674L220.702 210.012L220.693 210.029ZM220.971 215.153C221.24 215.309 221.44 215.343 221.562 215.248C221.692 215.162 221.753 214.911 221.753 214.513V213.552C221.753 213.05 221.674 212.652 221.527 212.375C221.379 212.089 221.127 211.855 220.78 211.648L220.103 211.258V214.651L220.971 215.153Z" fill="white"/>
<path d="M224.158 207.519L225.677 208.394V219.428L224.158 218.554V207.519Z" fill="white"/>
<path d="M226.494 218.364C226.494 218.364 227.351 216.444 227.9 215.214C228.45 213.983 229.307 212.063 229.307 212.063L226.632 210.523V208.947L230.931 211.423V212.972L229.524 216.122L228.117 219.273L230.931 220.891V222.466L226.494 219.913V218.364Z" fill="white"/>
<g style="mix-blend-mode:multiply" opacity="0.5">
<path opacity="0.09" d="M215.475 223.842C212.644 222.215 210.352 223.514 210.352 226.75V237.924C210.352 241.161 212.644 245.107 215.475 246.44L239.171 260.08C242.001 262.002 245.327 260.53 245.327 257.293V246.12C245.327 242.883 242.001 239.101 239.171 237.474L215.475 223.834V223.842Z" fill="#AFB6E5"/>
<path opacity="0.18" d="M215.318 224.067C212.505 222.449 210.221 223.747 210.221 226.967V237.777C210.221 240.996 212.505 244.917 215.318 245.964L238.85 259.509C241.663 261.707 244.876 260.262 244.876 257.042V246.232C244.876 243.013 241.663 239.231 238.85 237.612L215.318 224.067Z" fill="#AFB6E5"/>
<path opacity="0.27" d="M215.162 224.301C212.357 222.691 210.091 223.981 210.091 227.183V237.638C210.091 240.841 212.366 244.744 215.162 245.488L238.52 258.938C241.324 261.422 244.424 260.002 244.424 256.791V246.336C244.424 243.134 241.324 239.361 238.52 237.742L215.162 224.292V224.301Z" fill="#AFB6E5"/>
<path opacity="0.36" d="M215.015 224.526C212.227 222.925 209.97 224.206 209.97 227.391V237.482C209.97 240.667 212.227 244.553 215.015 244.995L238.207 258.341C240.994 261.11 243.981 259.708 243.981 256.523V246.432C243.981 243.247 240.994 239.473 238.207 237.863L215.015 224.518V224.526Z" fill="#AFB6E5"/>
<path opacity="0.45" d="M214.858 224.76C212.088 223.167 209.839 224.44 209.839 227.616V237.344C209.839 240.52 212.088 244.38 214.858 244.528L237.877 257.778C240.647 260.825 243.521 259.448 243.521 256.281V246.553C243.521 243.376 240.647 239.612 237.877 238.019L214.858 224.769V224.76Z" fill="#AFB6E5"/>
<path opacity="0.55" d="M214.711 224.985C211.949 223.392 209.709 224.665 209.709 227.824V237.197C209.709 240.356 211.949 244.199 214.711 244.043L237.565 257.198C240.326 260.53 243.078 259.18 243.078 256.021V246.648C243.078 243.489 240.326 239.724 237.565 238.14L214.711 224.985Z" fill="#AFB6E5"/>
<path opacity="0.64" d="M214.554 225.21C211.811 223.626 209.579 224.898 209.579 228.031V237.041C209.579 240.183 211.802 244.008 214.554 243.558L237.235 256.618C239.978 260.236 242.618 258.903 242.618 255.761V246.752C242.618 243.61 239.978 239.845 237.235 238.27L214.554 225.21Z" fill="#AFB6E5"/>
<path opacity="0.73" d="M214.398 225.444C211.663 223.868 209.449 225.132 209.449 228.256V236.903C209.449 240.027 211.663 243.835 214.398 243.082L236.913 256.038C239.648 259.933 242.175 258.626 242.175 255.502V246.856C242.175 243.731 239.648 239.975 236.913 238.4L214.398 225.444Z" fill="#AFB6E5"/>
<path opacity="0.82" d="M214.25 225.669C211.533 224.102 209.327 225.357 209.327 228.464V236.755C209.327 239.863 211.533 243.653 214.25 242.606L236.592 255.467C239.31 259.647 241.724 258.358 241.724 255.251V246.959C241.724 243.852 239.31 240.096 236.592 238.53L214.25 225.669Z" fill="#AFB6E5"/>
<path opacity="0.91" d="M214.094 225.902C211.394 224.344 209.197 225.591 209.197 228.689V236.617C209.197 239.707 211.394 243.48 214.094 242.13L236.271 254.896C238.971 259.353 241.272 258.098 241.272 255V247.072C241.272 243.982 238.98 240.226 236.271 238.668L214.094 225.902Z" fill="#AFB6E5"/>
<path d="M213.947 226.127C211.255 224.578 209.075 225.816 209.075 228.897V236.461C209.075 239.542 211.255 243.29 213.947 241.645L235.949 254.316C238.641 259.059 240.821 257.821 240.821 254.74V247.176C240.821 244.095 238.641 240.347 235.949 238.798L213.947 226.127Z" fill="#AFB6E5"/>
</g>
<path opacity="0.9" d="M239.214 260.426L212.67 245.237C210.343 243.896 208.441 240.278 208.441 237.18V228.594C208.441 225.504 210.343 224.067 212.67 225.409L239.214 240.598C241.541 241.94 243.443 245.557 243.443 248.656V257.241C243.443 260.331 241.541 261.768 239.214 260.426Z" fill="url(#paint38_linear_2156_31133)"/>
<path style="mix-blend-mode:color-dodge" d="M239.214 240.607L212.67 225.418C210.343 224.076 208.441 225.513 208.441 228.603V229.079C208.441 225.989 210.343 224.552 212.67 225.894L239.214 241.083C241.541 242.424 243.443 246.042 243.443 249.141V248.664C243.443 245.575 241.541 241.948 239.214 240.607Z" fill="url(#paint39_radial_2156_31133)"/>
<path d="M215.987 240.866L217.446 241.706V243.376L215.987 242.537V240.866Z" fill="white"/>
<path d="M218.965 243.688C218.583 242.987 218.384 242.191 218.384 241.299V235.501C218.384 234.609 218.575 234.029 218.965 233.778C219.347 233.519 219.912 233.605 220.65 234.029C221.388 234.453 221.944 235.016 222.334 235.717C222.716 236.418 222.916 237.214 222.916 238.106V239.049L221.483 238.227V237.171C221.483 236.444 221.223 235.933 220.693 235.63C220.172 235.327 219.912 235.544 219.912 236.271V242.312C219.912 243.03 220.172 243.532 220.693 243.835C221.214 244.138 221.483 243.93 221.483 243.212V241.048L220.728 240.616V239.04L222.916 240.304V243.913C222.916 244.804 222.725 245.384 222.334 245.635C221.952 245.895 221.388 245.808 220.65 245.384C219.912 244.96 219.356 244.398 218.965 243.697V243.688Z" fill="white"/>
<path d="M224.375 246.795C223.975 246.085 223.784 245.289 223.784 244.406V238.599C223.784 237.716 223.984 237.145 224.375 236.894C224.774 236.634 225.339 236.721 226.085 237.154C226.832 237.586 227.397 238.149 227.796 238.867C228.195 239.577 228.386 240.373 228.386 241.256V247.063C228.386 247.946 228.187 248.517 227.796 248.768C227.397 249.028 226.832 248.941 226.085 248.509C225.339 248.076 224.774 247.513 224.375 246.795ZM226.867 246.293V240.269C226.867 239.542 226.606 239.032 226.085 238.729C225.564 238.426 225.295 238.642 225.295 239.361V245.384C225.295 246.111 225.556 246.622 226.085 246.925C226.606 247.228 226.867 247.011 226.867 246.293Z" fill="white"/>
<path d="M228.977 238.971L230.505 239.854L231.495 248.985L231.521 249.002L232.511 241.014L233.9 241.819L232.441 252.014L230.427 250.854L228.968 238.971H228.977Z" fill="white"/>
<path d="M157.289 186.35L122.001 149.532L86.7135 145.741L76.9537 151.332C76.9537 151.332 86.6701 153.634 86.783 156.205C89.11 208.844 120.43 241.412 121.967 242.97V242.996H122.001L122.036 243.03V243.004C122.462 243.056 121.237 247.098 124.676 246.57C127.42 246.155 138.56 239.153 138.873 238.962C148.363 233.112 158.158 219.238 157.298 186.765C157.298 186.627 157.289 186.341 157.289 186.341V186.35Z" fill="url(#paint40_linear_2156_31133)"/>
<path d="M147.538 191.949L112.25 155.132L76.9624 151.341V151.557C75.2692 210.194 110.583 246.908 112.216 248.569V248.595H112.25L112.285 248.63V248.604C113.987 248.829 149.145 252.672 147.547 192.365C147.547 192.226 147.538 191.941 147.538 191.941V191.949Z" fill="#6DEAF6"/>
<path style="mix-blend-mode:screen" d="M146.245 192.313L112.25 156.837L78.2562 153.184V153.392C76.6238 209.891 110.653 245.263 112.224 246.864V246.89H112.259L112.294 246.925V246.899C113.935 247.115 147.808 250.82 146.271 192.711C146.271 192.572 146.262 192.304 146.262 192.304L146.245 192.313Z" fill="url(#paint41_linear_2156_31133)"/>
<path d="M141.382 193.68L112.25 163.276L83.1188 160.143V160.325C81.7208 208.74 110.879 239.058 112.224 240.434V240.46H112.25L112.277 240.494V240.468C113.683 240.65 142.719 243.826 141.391 194.035C141.391 193.923 141.382 193.689 141.382 193.689V193.68Z" fill="url(#paint42_linear_2156_31133)"/>
<path opacity="0.94" d="M107.397 216.183L92.4183 190.426L101.622 185.112L111.304 201.747L129.981 191.136L135.252 200.353L107.397 216.183Z" fill="url(#paint43_linear_2156_31133)"/>
<path opacity="0.32" d="M112.25 156.837L78.2562 153.184V153.392C77.7265 171.472 80.8611 187.388 85.4197 200.725L130.025 175.375L112.259 156.837H112.25Z" fill="white"/>
<g style="mix-blend-mode:screen">
<path d="M104.505 253.857L103.993 253.355L103.767 253.321L103.75 253.113C101.179 250.456 68.1665 215.101 69.7641 159.442L69.7815 158.767L104.401 162.488L104.514 162.601L138.621 198.198L138.638 198.769C139.246 221.54 134.557 237.569 124.711 246.423C116.288 253.996 106.867 253.658 104.592 253.442L104.514 253.875L104.505 253.857ZM104.401 252.542C105.946 252.724 115.55 253.477 124.12 245.774C133.767 237.102 138.36 221.289 137.761 198.787V198.544L103.984 163.302L70.6238 159.719C69.139 215.136 102.135 250.205 104.401 252.542Z" fill="url(#paint44_linear_2156_31133)"/>
</g>
<defs>
<linearGradient id="paint0_linear_2156_31133" x1="-39.2779" y1="114.281" x2="355.275" y2="201.151" gradientUnits="userSpaceOnUse">
<stop stop-color="#AFB6E5"/>
<stop offset="0.14" stop-color="#B5BCE8"/>
<stop offset="0.35" stop-color="#C7CDF0"/>
<stop offset="0.58" stop-color="#E5E9FF"/>
<stop offset="0.86" stop-color="#F4F6FF"/>
<stop offset="1" stop-color="white"/>
</linearGradient>
<linearGradient id="paint1_linear_2156_31133" x1="98.8784" y1="44.9036" x2="264.565" y2="294.86" gradientUnits="userSpaceOnUse">
<stop stop-color="#21ACEF"/>
<stop offset="0.24" stop-color="#24AFEF"/>
<stop offset="0.46" stop-color="#30B8F0"/>
<stop offset="0.69" stop-color="#43C8F2"/>
<stop offset="0.9" stop-color="#5EDEF4"/>
<stop offset="1" stop-color="#6DEAF6"/>
</linearGradient>
<linearGradient id="paint2_linear_2156_31133" x1="142.684" y1="12.0239" x2="276.978" y2="281.954" gradientUnits="userSpaceOnUse">
<stop stop-color="#B3BAE7"/>
<stop offset="0.19" stop-color="#B7BDE9"/>
<stop offset="0.28" stop-color="#BAC0E9"/>
<stop offset="0.41" stop-color="#AFB6E5"/>
<stop offset="0.91" stop-color="#AFB6E5"/>
<stop offset="1" stop-color="#B3BAE7"/>
</linearGradient>
<linearGradient id="paint3_linear_2156_31133" x1="142.632" y1="12.0672" x2="276.917" y2="281.989" gradientUnits="userSpaceOnUse">
<stop stop-color="#B4BBE8"/>
<stop offset="0.19" stop-color="#B9BEEA"/>
<stop offset="0.28" stop-color="#BCC2EA"/>
<stop offset="0.41" stop-color="#B2B8E6"/>
<stop offset="0.43" stop-color="#B2B8E6"/>
<stop offset="0.54" stop-color="#B3B9E6"/>
<stop offset="0.72" stop-color="#AFB6E5"/>
<stop offset="0.91" stop-color="#AFB6E5"/>
<stop offset="1" stop-color="#B4BBE8"/>
</linearGradient>
<linearGradient id="paint4_linear_2156_31133" x1="142.572" y1="12.1104" x2="276.856" y2="282.015" gradientUnits="userSpaceOnUse">
<stop stop-color="#B5BCE8"/>
<stop offset="0.19" stop-color="#BAC0EA"/>
<stop offset="0.28" stop-color="#BDC3EB"/>
<stop offset="0.41" stop-color="#B4BBE7"/>
<stop offset="0.43" stop-color="#B4BBE7"/>
<stop offset="0.54" stop-color="#B7BDE7"/>
<stop offset="0.72" stop-color="#AFB6E5"/>
<stop offset="0.91" stop-color="#AFB6E5"/>
<stop offset="1" stop-color="#B5BCE8"/>
</linearGradient>
<linearGradient id="paint5_linear_2156_31133" x1="142.519" y1="12.1624" x2="276.787" y2="282.049" gradientUnits="userSpaceOnUse">
<stop stop-color="#B7BDE9"/>
<stop offset="0.19" stop-color="#BCC1EB"/>
<stop offset="0.28" stop-color="#BFC5EC"/>
<stop offset="0.41" stop-color="#B7BDE9"/>
<stop offset="0.43" stop-color="#B7BDE9"/>
<stop offset="0.54" stop-color="#BAC0E9"/>
<stop offset="0.72" stop-color="#AFB6E5"/>
<stop offset="0.91" stop-color="#AFB6E5"/>
<stop offset="1" stop-color="#B7BDE9"/>
</linearGradient>
<linearGradient id="paint6_linear_2156_31133" x1="142.459" y1="12.2056" x2="276.726" y2="282.084" gradientUnits="userSpaceOnUse">
<stop stop-color="#B8BFE9"/>
<stop offset="0.19" stop-color="#BDC3EC"/>
<stop offset="0.28" stop-color="#C1C6EC"/>
<stop offset="0.41" stop-color="#B9C0EA"/>
<stop offset="0.43" stop-color="#B9C0EA"/>
<stop offset="0.54" stop-color="#BEC4EA"/>
<stop offset="0.72" stop-color="#AFB6E5"/>
<stop offset="0.91" stop-color="#AFB6E5"/>
<stop offset="1" stop-color="#B8BFE9"/>
</linearGradient>
<linearGradient id="paint7_linear_2156_31133" x1="142.407" y1="12.2576" x2="276.665" y2="282.11" gradientUnits="userSpaceOnUse">
<stop stop-color="#B9C0EA"/>
<stop offset="0.19" stop-color="#BFC4ED"/>
<stop offset="0.28" stop-color="#C2C8ED"/>
<stop offset="0.41" stop-color="#BCC2EB"/>
<stop offset="0.43" stop-color="#BCC2EB"/>
<stop offset="0.54" stop-color="#C2C7EB"/>
<stop offset="0.72" stop-color="#AFB6E5"/>
<stop offset="0.91" stop-color="#AFB6E5"/>
<stop offset="1" stop-color="#B9C0EA"/>
</linearGradient>
<linearGradient id="paint8_linear_2156_31133" x1="142.346" y1="12.3009" x2="276.596" y2="282.145" gradientUnits="userSpaceOnUse">
<stop stop-color="#BAC1EA"/>
<stop offset="0.19" stop-color="#C0C6ED"/>
<stop offset="0.28" stop-color="#C4C9EE"/>
<stop offset="0.41" stop-color="#BEC4EC"/>
<stop offset="0.43" stop-color="#BEC5EC"/>
<stop offset="0.54" stop-color="#C6CBEC"/>
<stop offset="0.7" stop-color="#B2B9E6"/>
<stop offset="0.72" stop-color="#AFB6E5"/>
<stop offset="0.91" stop-color="#AFB6E5"/>
<stop offset="1" stop-color="#BAC1EA"/>
</linearGradient>
<linearGradient id="paint9_linear_2156_31133" x1="142.294" y1="12.3528" x2="276.535" y2="282.179" gradientUnits="userSpaceOnUse">
<stop stop-color="#BCC2EB"/>
<stop offset="0.19" stop-color="#C2C7EE"/>
<stop offset="0.28" stop-color="#C6CBEF"/>
<stop offset="0.41" stop-color="#C1C7ED"/>
<stop offset="0.43" stop-color="#C1C7EE"/>
<stop offset="0.54" stop-color="#CACEEE"/>
<stop offset="0.68" stop-color="#B6BCE7"/>
<stop offset="0.72" stop-color="#AFB6E5"/>
<stop offset="0.91" stop-color="#AFB6E5"/>
<stop offset="0.99" stop-color="#B9C0EA"/>
<stop offset="1" stop-color="#BCC2EB"/>
</linearGradient>
<linearGradient id="paint10_linear_2156_31133" x1="142.242" y1="12.3961" x2="276.474" y2="282.205" gradientUnits="userSpaceOnUse">
<stop stop-color="#BDC3EC"/>
<stop offset="0.19" stop-color="#C4C9EF"/>
<stop offset="0.28" stop-color="#C7CDF0"/>
<stop offset="0.41" stop-color="#C3C9EF"/>
<stop offset="0.43" stop-color="#C4C9EF"/>
<stop offset="0.54" stop-color="#CDD2EF"/>
<stop offset="0.66" stop-color="#B9BFE8"/>
<stop offset="0.72" stop-color="#AFB6E5"/>
<stop offset="0.91" stop-color="#AFB6E5"/>
<stop offset="0.98" stop-color="#B9C0EA"/>
<stop offset="1" stop-color="#BDC3EC"/>
</linearGradient>
<linearGradient id="paint11_linear_2156_31133" x1="142.181" y1="12.4393" x2="276.405" y2="282.24" gradientUnits="userSpaceOnUse">
<stop stop-color="#BEC4EC"/>
<stop offset="0.19" stop-color="#C5CAEF"/>
<stop offset="0.28" stop-color="#C9CEF1"/>
<stop offset="0.41" stop-color="#C6CBF0"/>
<stop offset="0.43" stop-color="#C6CCF0"/>
<stop offset="0.53" stop-color="#D0D4F0"/>
<stop offset="0.54" stop-color="#D1D5F0"/>
<stop offset="0.65" stop-color="#BDC3E9"/>
<stop offset="0.72" stop-color="#AFB6E5"/>
<stop offset="0.91" stop-color="#AFB6E5"/>
<stop offset="0.98" stop-color="#B9C0EA"/>
<stop offset="1" stop-color="#BEC4EC"/>
</linearGradient>
<linearGradient id="paint12_linear_2156_31133" x1="142.129" y1="12.4912" x2="276.344" y2="282.266" gradientUnits="userSpaceOnUse">
<stop stop-color="#BFC5ED"/>
<stop offset="0.19" stop-color="#C7CCF0"/>
<stop offset="0.28" stop-color="#CBD0F2"/>
<stop offset="0.41" stop-color="#C8CEF1"/>
<stop offset="0.43" stop-color="#C9CEF1"/>
<stop offset="0.52" stop-color="#D3D7F1"/>
<stop offset="0.54" stop-color="#D5D9F1"/>
<stop offset="0.64" stop-color="#C1C6EA"/>
<stop offset="0.72" stop-color="#AFB6E5"/>
<stop offset="0.91" stop-color="#AFB6E5"/>
<stop offset="0.98" stop-color="#B9C0EA"/>
<stop offset="1" stop-color="#BFC5ED"/>
</linearGradient>
<linearGradient id="paint13_linear_2156_31133" x1="142.068" y1="12.5345" x2="276.283" y2="282.3" gradientUnits="userSpaceOnUse">
<stop stop-color="#C1C7ED"/>
<stop offset="0.19" stop-color="#C8CDF1"/>
<stop offset="0.28" stop-color="#CCD1F2"/>
<stop offset="0.41" stop-color="#CBD0F2"/>
<stop offset="0.43" stop-color="#CBD1F3"/>
<stop offset="0.51" stop-color="#D5D8F3"/>
<stop offset="0.54" stop-color="#D9DCF3"/>
<stop offset="0.63" stop-color="#C5CAEC"/>
<stop offset="0.72" stop-color="#AFB6E5"/>
<stop offset="0.91" stop-color="#AFB6E5"/>
<stop offset="0.97" stop-color="#B9C0E9"/>
<stop offset="1" stop-color="#C1C7ED"/>
</linearGradient>
<linearGradient id="paint14_linear_2156_31133" x1="142.016" y1="12.5865" x2="276.214" y2="282.335" gradientUnits="userSpaceOnUse">
<stop stop-color="#C2C8EE"/>
<stop offset="0.19" stop-color="#CACFF2"/>
<stop offset="0.28" stop-color="#CED3F3"/>
<stop offset="0.41" stop-color="#CDD3F3"/>
<stop offset="0.43" stop-color="#CED3F4"/>
<stop offset="0.51" stop-color="#D8DBF4"/>
<stop offset="0.54" stop-color="#DDE0F4"/>
<stop offset="0.62" stop-color="#C9CEED"/>
<stop offset="0.72" stop-color="#AFB6E5"/>
<stop offset="0.91" stop-color="#AFB6E5"/>
<stop offset="0.97" stop-color="#B9C0EA"/>
<stop offset="1" stop-color="#C2C8EE"/>
</linearGradient>
<linearGradient id="paint15_linear_2156_31133" x1="141.955" y1="12.6297" x2="276.153" y2="282.361" gradientUnits="userSpaceOnUse">
<stop stop-color="#C3C9EE"/>
<stop offset="0.19" stop-color="#CBD0F2"/>
<stop offset="0.28" stop-color="#D0D4F4"/>
<stop offset="0.41" stop-color="#D0D5F4"/>
<stop offset="0.43" stop-color="#D0D6F5"/>
<stop offset="0.5" stop-color="#DADDF5"/>
<stop offset="0.54" stop-color="#E1E3F5"/>
<stop offset="0.62" stop-color="#CDD1EE"/>
<stop offset="0.72" stop-color="#AFB6E5"/>
<stop offset="0.91" stop-color="#AFB6E5"/>
<stop offset="0.97" stop-color="#B9C0E9"/>
<stop offset="1" stop-color="#C3C9EE"/>
</linearGradient>
<linearGradient id="paint16_linear_2156_31133" x1="141.903" y1="12.673" x2="276.093" y2="282.395" gradientUnits="userSpaceOnUse">
<stop stop-color="#C4CAEF"/>
<stop offset="0.19" stop-color="#CDD2F3"/>
<stop offset="0.28" stop-color="#D1D6F5"/>
<stop offset="0.41" stop-color="#D2D7F6"/>
<stop offset="0.43" stop-color="#D3D8F6"/>
<stop offset="0.5" stop-color="#DDE0F6"/>
<stop offset="0.54" stop-color="#E4E7F6"/>
<stop offset="0.61" stop-color="#D0D4EF"/>
<stop offset="0.72" stop-color="#AFB6E5"/>
<stop offset="0.91" stop-color="#AFB6E5"/>
<stop offset="0.96" stop-color="#B9C0EA"/>
<stop offset="1" stop-color="#C4CAEF"/>
</linearGradient>
<linearGradient id="paint17_linear_2156_31133" x1="141.842" y1="12.7249" x2="276.023" y2="282.43" gradientUnits="userSpaceOnUse">
<stop stop-color="#C6CBF0"/>
<stop offset="0.19" stop-color="#CFD3F4"/>
<stop offset="0.28" stop-color="#D3D8F6"/>
<stop offset="0.41" stop-color="#D5DAF7"/>
<stop offset="0.43" stop-color="#D6DAF8"/>
<stop offset="0.5" stop-color="#E0E2F8"/>
<stop offset="0.54" stop-color="#E8EAF8"/>
<stop offset="0.61" stop-color="#D4D8F1"/>
<stop offset="0.72" stop-color="#AFB6E5"/>
<stop offset="0.91" stop-color="#AFB6E5"/>
<stop offset="0.96" stop-color="#B9BFEA"/>
<stop offset="1" stop-color="#C6CBF0"/>
</linearGradient>
<linearGradient id="paint18_linear_2156_31133" x1="141.79" y1="12.7682" x2="275.962" y2="282.456" gradientUnits="userSpaceOnUse">
<stop stop-color="#C7CCF0"/>
<stop offset="0.19" stop-color="#D0D5F4"/>
<stop offset="0.28" stop-color="#D5D9F7"/>
<stop offset="0.41" stop-color="#D7DCF8"/>
<stop offset="0.43" stop-color="#D8DDF9"/>
<stop offset="0.49" stop-color="#E2E5F9"/>
<stop offset="0.54" stop-color="#ECEEF9"/>
<stop offset="0.61" stop-color="#D8DBF2"/>
<stop offset="0.72" stop-color="#AFB6E5"/>
<stop offset="0.91" stop-color="#AFB6E5"/>
<stop offset="0.96" stop-color="#B9BFE9"/>
<stop offset="1" stop-color="#C7CCF0"/>
</linearGradient>
<linearGradient id="paint19_linear_2156_31133" x1="141.738" y1="12.8201" x2="275.902" y2="282.491" gradientUnits="userSpaceOnUse">
<stop stop-color="#C8CDF1"/>
<stop offset="0.19" stop-color="#D2D6F5"/>
<stop offset="0.28" stop-color="#D6DBF8"/>
<stop offset="0.41" stop-color="#DADEF9"/>
<stop offset="0.43" stop-color="#DBDFFA"/>
<stop offset="0.49" stop-color="#E5E7FA"/>
<stop offset="0.54" stop-color="#F0F1FA"/>
<stop offset="0.6" stop-color="#DCDFF3"/>
<stop offset="0.72" stop-color="#AFB6E5"/>
<stop offset="0.91" stop-color="#AFB6E5"/>
<stop offset="0.96" stop-color="#B9BFEA"/>
<stop offset="1" stop-color="#C8CDF1"/>
</linearGradient>
<linearGradient id="paint20_linear_2156_31133" x1="141.677" y1="12.8634" x2="275.832" y2="282.525" gradientUnits="userSpaceOnUse">
<stop stop-color="#C9CFF1"/>
<stop offset="0.19" stop-color="#D3D8F6"/>
<stop offset="0.28" stop-color="#D8DCF8"/>
<stop offset="0.41" stop-color="#DCE1FA"/>
<stop offset="0.43" stop-color="#DDE2FB"/>
<stop offset="0.49" stop-color="#E7EAFB"/>
<stop offset="0.54" stop-color="#F4F5FB"/>
<stop offset="0.6" stop-color="#E0E3F4"/>
<stop offset="0.72" stop-color="#AFB6E5"/>
<stop offset="0.91" stop-color="#AFB6E5"/>
<stop offset="0.96" stop-color="#B9C0EA"/>
<stop offset="1" stop-color="#C9CFF1"/>
</linearGradient>
<linearGradient id="paint21_linear_2156_31133" x1="141.625" y1="12.9067" x2="275.771" y2="282.551" gradientUnits="userSpaceOnUse">
<stop stop-color="#CBD0F2"/>
<stop offset="0.19" stop-color="#D5D9F7"/>
<stop offset="0.28" stop-color="#DADEF9"/>
<stop offset="0.41" stop-color="#DFE3FC"/>
<stop offset="0.43" stop-color="#E0E4FD"/>
<stop offset="0.49" stop-color="#EAECFD"/>
<stop offset="0.54" stop-color="#F7F8FD"/>
<stop offset="0.6" stop-color="#E3E5F6"/>
<stop offset="0.72" stop-color="#AFB6E5"/>
<stop offset="0.91" stop-color="#AFB6E5"/>
<stop offset="0.95" stop-color="#B9C0EA"/>
<stop offset="1" stop-color="#CBD0F2"/>
</linearGradient>
<linearGradient id="paint22_linear_2156_31133" x1="141.564" y1="12.9586" x2="275.711" y2="282.586" gradientUnits="userSpaceOnUse">
<stop stop-color="#CCD1F2"/>
<stop offset="0.19" stop-color="#D6DBF7"/>
<stop offset="0.28" stop-color="#DBDFFA"/>
<stop offset="0.41" stop-color="#E1E6FD"/>
<stop offset="0.43" stop-color="#E2E7FE"/>
<stop offset="0.48" stop-color="#ECEFFE"/>
<stop offset="0.54" stop-color="#FBFCFE"/>
<stop offset="0.59" stop-color="#E7E9F7"/>
<stop offset="0.71" stop-color="#B4BBE6"/>
<stop offset="0.72" stop-color="#AFB6E5"/>
<stop offset="0.91" stop-color="#AFB6E5"/>
<stop offset="0.95" stop-color="#B9C0E9"/>
<stop offset="1" stop-color="#CCD1F2"/>
</linearGradient>
<linearGradient id="paint23_linear_2156_31133" x1="141.512" y1="13.0019" x2="275.641" y2="282.612" gradientUnits="userSpaceOnUse">
<stop stop-color="#CDD2F3"/>
<stop offset="0.43" stop-color="#E5E9FF"/>
<stop offset="0.48" stop-color="#EFF1FF"/>
<stop offset="0.54" stop-color="white"/>
<stop offset="0.59" stop-color="#EBEDF8"/>
<stop offset="0.7" stop-color="#B8BEE8"/>
<stop offset="0.72" stop-color="#AFB6E5"/>
<stop offset="0.91" stop-color="#AFB6E5"/>
<stop offset="0.95" stop-color="#B9C0EA"/>
<stop offset="1" stop-color="#CDD2F3"/>
</linearGradient>
<linearGradient id="paint24_linear_2156_31133" x1="101.292" y1="137.329" x2="137.336" y2="137.329" gradientUnits="userSpaceOnUse">
<stop stop-color="#836DF3"/>
<stop offset="0.1" stop-color="#8B6DF3"/>
<stop offset="0.45" stop-color="#A56DF3"/>
<stop offset="0.76" stop-color="#B56DF3"/>
<stop offset="1" stop-color="#BB6DF3"/>
</linearGradient>
<linearGradient id="paint25_linear_2156_31133" x1="105.339" y1="119.266" x2="198.543" y2="170.152" gradientUnits="userSpaceOnUse">
<stop stop-color="#836DF3"/>
<stop offset="0.1" stop-color="#8B6DF3"/>
<stop offset="0.45" stop-color="#A56DF3"/>
<stop offset="0.76" stop-color="#B56DF3"/>
<stop offset="1" stop-color="#BB6DF3"/>
</linearGradient>
<linearGradient id="paint26_linear_2156_31133" x1="101.292" y1="92.9899" x2="158.418" y2="92.9899" gradientUnits="userSpaceOnUse">
<stop stop-color="#836DF3"/>
<stop offset="0.05" stop-color="#8B6DF3"/>
<stop offset="0.22" stop-color="#A56DF3"/>
<stop offset="0.37" stop-color="#B56DF3"/>
<stop offset="0.49" stop-color="#BB6DF3"/>
<stop offset="1" stop-color="#F36DD4"/>
</linearGradient>
<linearGradient id="paint27_linear_2156_31133" x1="69" y1="165.543" x2="122.114" y2="165.543" gradientUnits="userSpaceOnUse">
<stop stop-color="#836DF3"/>
<stop offset="0.1" stop-color="#8B6DF3"/>
<stop offset="0.45" stop-color="#A56DF3"/>
<stop offset="0.76" stop-color="#B56DF3"/>
<stop offset="1" stop-color="#BB6DF3"/>
</linearGradient>
<radialGradient id="paint28_radial_2156_31133" cx="0" cy="0" r="1" gradientUnits="userSpaceOnUse" gradientTransform="translate(115.332 74.0296) scale(38.8046 38.6785)">
<stop stop-color="#AFB6E5"/>
<stop offset="0.14" stop-color="#B5BCE8"/>
<stop offset="0.35" stop-color="#C7CDF0"/>
<stop offset="0.58" stop-color="#E5E9FF"/>
<stop offset="0.86" stop-color="#F4F6FF"/>
<stop offset="1" stop-color="white"/>
</radialGradient>
<linearGradient id="paint29_linear_2156_31133" x1="351.599" y1="215.889" x2="120.353" y2="97.1392" gradientUnits="userSpaceOnUse">
<stop stop-color="#21ACEF"/>
<stop offset="0.24" stop-color="#24AFEF"/>
<stop offset="0.46" stop-color="#30B8F0"/>
<stop offset="0.69" stop-color="#43C8F2"/>
<stop offset="0.9" stop-color="#5EDEF4"/>
<stop offset="1" stop-color="#6DEAF6"/>
</linearGradient>
<linearGradient id="paint30_linear_2156_31133" x1="80.0188" y1="115.605" x2="128.554" y2="57.8599" gradientUnits="userSpaceOnUse">
<stop stop-color="#21ACEF"/>
<stop offset="0.24" stop-color="#24AFEF"/>
<stop offset="0.46" stop-color="#30B8F0"/>
<stop offset="0.69" stop-color="#43C8F2"/>
<stop offset="0.9" stop-color="#5EDEF4"/>
<stop offset="1" stop-color="#6DEAF6"/>
</linearGradient>
<linearGradient id="paint31_linear_2156_31133" x1="96.1259" y1="28.3296" x2="132.117" y2="88.9992" gradientUnits="userSpaceOnUse">
<stop stop-color="#21ACEF"/>
<stop offset="0.24" stop-color="#24AFEF"/>
<stop offset="0.46" stop-color="#30B8F0"/>
<stop offset="0.69" stop-color="#43C8F2"/>
<stop offset="0.9" stop-color="#5EDEF4"/>
<stop offset="1" stop-color="#6DEAF6"/>
</linearGradient>
<linearGradient id="paint32_linear_2156_31133" x1="240.256" y1="77.9305" x2="187.166" y2="233.391" gradientUnits="userSpaceOnUse">
<stop stop-color="#B4F759"/>
<stop offset="0.05" stop-color="#90ED6E"/>
<stop offset="0.15" stop-color="#35D5A4"/>
<stop offset="0.2" stop-color="#00C7C5"/>
<stop offset="0.41" stop-color="#2D9BE0"/>
<stop offset="0.6" stop-color="#5277F7"/>
<stop offset="0.66" stop-color="#5A76F6"/>
<stop offset="0.77" stop-color="#7273F5"/>
<stop offset="0.9" stop-color="#9970F4"/>
<stop offset="1" stop-color="#BB6DF3"/>
</linearGradient>
<radialGradient id="paint33_radial_2156_31133" cx="0" cy="0" r="1" gradientUnits="userSpaceOnUse" gradientTransform="translate(224.056 111.591) scale(33.345 33.2366)">
<stop stop-color="#711F56"/>
<stop offset="0.16" stop-color="#6B1D51"/>
<stop offset="0.36" stop-color="#5C1946"/>
<stop offset="0.58" stop-color="#421232"/>
<stop offset="0.82" stop-color="#1F0818"/>
<stop offset="1"/>
</radialGradient>
<linearGradient id="paint34_linear_2156_31133" x1="260.522" y1="84.8544" x2="207.432" y2="240.315" gradientUnits="userSpaceOnUse">
<stop stop-color="#B4F759"/>
<stop offset="0.05" stop-color="#90ED6E"/>
<stop offset="0.15" stop-color="#35D5A4"/>
<stop offset="0.2" stop-color="#00C7C5"/>
<stop offset="0.41" stop-color="#2D9BE0"/>
<stop offset="0.6" stop-color="#5277F7"/>
<stop offset="0.66" stop-color="#5A76F6"/>
<stop offset="0.77" stop-color="#7273F5"/>
<stop offset="0.9" stop-color="#9970F4"/>
<stop offset="1" stop-color="#BB6DF3"/>
</linearGradient>
<radialGradient id="paint35_radial_2156_31133" cx="0" cy="0" r="1" gradientUnits="userSpaceOnUse" gradientTransform="translate(168.973 177.275) scale(33.345 33.2366)">
<stop stop-color="#711F56"/>
<stop offset="0.16" stop-color="#6B1D51"/>
<stop offset="0.36" stop-color="#5C1946"/>
<stop offset="0.58" stop-color="#421232"/>
<stop offset="0.82" stop-color="#1F0818"/>
<stop offset="1"/>
</radialGradient>
<linearGradient id="paint36_linear_2156_31133" x1="269.449" y1="87.9009" x2="216.358" y2="243.361" gradientUnits="userSpaceOnUse">
<stop stop-color="#B4F759"/>
<stop offset="0.05" stop-color="#90ED6E"/>
<stop offset="0.15" stop-color="#35D5A4"/>
<stop offset="0.2" stop-color="#00C7C5"/>
<stop offset="0.41" stop-color="#2D9BE0"/>
<stop offset="0.6" stop-color="#5277F7"/>
<stop offset="0.66" stop-color="#5A76F6"/>
<stop offset="0.77" stop-color="#7273F5"/>
<stop offset="0.9" stop-color="#9970F4"/>
<stop offset="1" stop-color="#BB6DF3"/>
</linearGradient>
<radialGradient id="paint37_radial_2156_31133" cx="0" cy="0" r="1" gradientUnits="userSpaceOnUse" gradientTransform="translate(168.973 206.222) scale(0.421129 0.41976)">
<stop stop-color="#711F56"/>
<stop offset="0.16" stop-color="#6B1D51"/>
<stop offset="0.36" stop-color="#5C1946"/>
<stop offset="0.58" stop-color="#421232"/>
<stop offset="0.82" stop-color="#1F0818"/>
<stop offset="1"/>
</radialGradient>
<linearGradient id="paint38_linear_2156_31133" x1="278.201" y1="90.8955" x2="225.111" y2="246.356" gradientUnits="userSpaceOnUse">
<stop stop-color="#B4F759"/>
<stop offset="0.05" stop-color="#90ED6E"/>
<stop offset="0.15" stop-color="#35D5A4"/>
<stop offset="0.2" stop-color="#00C7C5"/>
<stop offset="0.41" stop-color="#2D9BE0"/>
<stop offset="0.6" stop-color="#5277F7"/>
<stop offset="0.66" stop-color="#5A76F6"/>
<stop offset="0.77" stop-color="#7273F5"/>
<stop offset="0.9" stop-color="#9970F4"/>
<stop offset="1" stop-color="#BB6DF3"/>
</linearGradient>
<radialGradient id="paint39_radial_2156_31133" cx="0" cy="0" r="1" gradientUnits="userSpaceOnUse" gradientTransform="translate(168.973 234.58) scale(33.345 33.2366)">
<stop stop-color="#711F56"/>
<stop offset="0.16" stop-color="#6B1D51"/>
<stop offset="0.36" stop-color="#5C1946"/>
<stop offset="0.58" stop-color="#421232"/>
<stop offset="0.82" stop-color="#1F0818"/>
<stop offset="1"/>
</radialGradient>
<linearGradient id="paint40_linear_2156_31133" x1="76.9624" y1="196.182" x2="157.35" y2="196.182" gradientUnits="userSpaceOnUse">
<stop stop-color="#21ACEF"/>
<stop offset="0.24" stop-color="#24AFEF"/>
<stop offset="0.46" stop-color="#30B8F0"/>
<stop offset="0.69" stop-color="#43C8F2"/>
<stop offset="0.9" stop-color="#5EDEF4"/>
<stop offset="1" stop-color="#6DEAF6"/>
</linearGradient>
<linearGradient id="paint41_linear_2156_31133" x1="78.1954" y1="200.102" x2="146.305" y2="200.102" gradientUnits="userSpaceOnUse">
<stop stop-color="#DFE7FE"/>
<stop offset="0.61" stop-color="#99E5F7"/>
<stop offset="1" stop-color="#6BE4F3"/>
</linearGradient>
<linearGradient id="paint42_linear_2156_31133" x1="85.4024" y1="161.484" x2="138.967" y2="234.455" gradientUnits="userSpaceOnUse">
<stop stop-color="#21ACEF"/>
<stop offset="0.24" stop-color="#24AFEF"/>
<stop offset="0.46" stop-color="#30B8F0"/>
<stop offset="0.69" stop-color="#43C8F2"/>
<stop offset="0.9" stop-color="#5EDEF4"/>
<stop offset="1" stop-color="#6DEAF6"/>
</linearGradient>
<linearGradient id="paint43_linear_2156_31133" x1="86.045" y1="183.485" x2="144.836" y2="220.059" gradientUnits="userSpaceOnUse">
<stop offset="0.11" stop-color="#142E6E"/>
<stop offset="0.27" stop-color="#103A83"/>
<stop offset="0.73" stop-color="#095CBD"/>
<stop offset="0.87" stop-color="#3BA1D8"/>
<stop offset="1" stop-color="#6BE4F3"/>
</linearGradient>
<linearGradient id="paint44_linear_2156_31133" x1="69.7034" y1="206.308" x2="138.69" y2="206.308" gradientUnits="userSpaceOnUse">
<stop stop-color="#2061EA"/>
<stop offset="0.49" stop-color="#8EAFF4"/>
<stop offset="1" stop-color="white"/>
</linearGradient>
</defs>
</svg>
