<svg width="349" height="348" viewBox="0 0 349 348" fill="none" xmlns="http://www.w3.org/2000/svg">
<path d="M192.407 80.5297C228.338 83.9058 268.124 89.5629 288.671 114.801C309.241 139.78 310.172 184.436 293.252 219.375C276.214 254.173 241.041 279.49 205.331 285.545C169.362 291.578 132.736 278.209 96.5039 255.852C60.2495 233.754 24.3892 202.669 23.9031 170.86C23.5355 139.193 58.4009 106.921 91.8126 91.2627C125.083 75.7231 156.736 77.1752 192.407 80.5297Z" fill="#11CABE" fill-opacity="0.2"/>
<path fill-rule="evenodd" clip-rule="evenodd" d="M44.033 172.11C31.1162 156.785 33.0685 133.89 48.3937 120.973L151.989 33.658C167.314 20.7411 190.209 22.6935 203.126 38.0187L253.02 97.2159C265.937 112.541 263.984 135.436 248.659 148.353L145.064 235.668C129.739 248.585 106.844 246.632 93.9274 231.307L44.033 172.11ZM57.7489 132.073C48.5538 139.823 47.3824 153.559 55.1325 162.755L105.027 221.952C112.777 231.147 126.514 232.318 135.709 224.568L239.304 137.253C248.499 129.503 249.67 115.766 241.92 106.571L192.026 47.3739C184.276 38.1787 170.539 37.0073 161.344 44.7574L57.7489 132.073Z" fill="#11CABE"/>
<path fill-rule="evenodd" clip-rule="evenodd" d="M56.5066 186.909C53.9232 183.844 54.3137 179.265 57.3787 176.682L205.372 51.9458C208.437 49.3625 213.016 49.7529 215.599 52.818C218.182 55.883 217.792 60.4619 214.727 63.0453L66.7339 187.781C63.6689 190.365 59.0899 189.974 56.5066 186.909Z" fill="#11CABE"/>
<path fill-rule="evenodd" clip-rule="evenodd" d="M109.89 205.197C107.306 202.132 107.697 197.553 110.762 194.97L155.16 157.549C158.225 154.965 162.804 155.356 165.387 158.421C167.97 161.486 167.58 166.065 164.515 168.648L120.117 206.069C117.052 208.652 112.473 208.262 109.89 205.197Z" fill="#11CABE"/>
</svg>
