<svg width="327" height="150" viewBox="0 0 327 150" fill="none" xmlns="http://www.w3.org/2000/svg">
<g clip-path="url(#clip0_1658_33289)">
<g filter="url(#filter0_d_1658_33289)">
<path d="M327 0H0V150H327V0Z" fill="#08082D"/>
</g>
<g clip-path="url(#clip1_1658_33289)">
<path d="M189.53 94.0034C202.303 94.0034 212.694 83.6194 212.694 70.8555C212.694 60.1866 205.238 50.7909 194.897 48.3381C193.052 38.862 184.786 32.0318 175.07 32.0318C171.1 32.0318 167.283 33.1687 164 35.3262C160.718 33.1697 156.901 32.0318 152.932 32.0318C143.214 32.0318 134.948 38.862 133.103 48.3381C122.763 50.7909 115.306 60.1875 115.306 70.8555C115.306 83.6194 125.697 94.0034 138.466 94.0034H140.9L140.897 105.477C138.521 105.782 136.678 107.816 136.678 110.274C136.678 112.941 138.849 115.111 141.517 115.111C144.185 115.111 146.357 112.941 146.357 110.274C146.357 107.861 144.579 105.855 142.264 105.494L142.268 87.6257H157.936L163.526 93.2139C163.653 93.3417 163.827 93.4137 164.009 93.4137C164.191 93.4137 164.364 93.3417 164.492 93.2139L170.082 87.6257H185.868L185.865 105.477C183.489 105.782 181.644 107.816 181.644 110.274C181.644 112.941 183.815 115.111 186.484 115.111C189.152 115.111 191.323 112.941 191.323 110.274C191.323 107.861 189.546 105.855 187.231 105.494L187.233 94.0034H189.531H189.53ZM144.991 110.274C144.991 112.189 143.433 113.746 141.517 113.746C139.601 113.746 138.045 112.189 138.045 110.274C138.045 108.359 139.603 106.801 141.517 106.801C143.431 106.801 144.991 108.359 144.991 110.274ZM169.798 86.2606C169.616 86.2606 169.442 86.3326 169.315 86.4604L164.008 91.7655L158.701 86.4604C158.573 86.3326 158.4 86.2606 158.218 86.2606H139.253C136.917 86.2606 135.017 84.3683 135.017 82.0413V63.0039C135.017 60.6675 136.917 58.7676 139.253 58.7676H188.761C191.09 58.7676 192.985 60.6675 192.985 63.0039V82.0413C192.985 84.3683 191.09 86.2606 188.761 86.2606H169.798V86.2606ZM188.761 87.6257C191.843 87.6257 194.351 85.1199 194.351 82.0404V63.0029C194.351 59.914 191.843 57.4015 188.761 57.4015H139.253C136.164 57.4015 133.65 59.914 133.65 63.0029V82.0404C133.65 85.1199 136.164 87.6257 139.253 87.6257H140.902V92.6383H138.466C126.449 92.6383 116.672 82.8668 116.672 70.8555C116.672 60.6722 123.89 51.7215 133.837 49.5716C134.109 49.5129 134.318 49.2943 134.367 49.0197C135.92 39.9677 143.728 33.3969 152.93 33.3969C156.779 33.3969 160.473 34.5433 163.611 36.7102C163.843 36.8712 164.153 36.8712 164.388 36.7102C167.526 34.5424 171.22 33.3969 175.069 33.3969C184.272 33.3969 192.079 39.9677 193.632 49.0197C193.68 49.2943 193.889 49.5129 194.161 49.5716C204.108 51.7215 211.326 60.6732 211.326 70.8555C211.326 82.8659 201.548 92.6383 189.529 92.6383H187.231V87.6257H188.76H188.761ZM189.957 110.274C189.957 112.189 188.399 113.746 186.483 113.746C184.566 113.746 183.008 112.189 183.008 110.274C183.008 108.359 184.566 106.801 186.483 106.801C188.399 106.801 189.957 108.359 189.957 110.274ZM186.887 75.6627C186.887 76.7097 186.417 77.6838 185.564 78.4099C184.742 79.1076 183.657 79.4929 182.509 79.4929H179.197C176.918 79.492 175.044 77.9972 174.838 76.0168C174.8 75.6419 175.071 75.3058 175.446 75.267C175.819 75.231 176.158 75.4999 176.197 75.8757C176.328 77.1376 177.646 78.1269 179.197 78.1269H182.509C183.333 78.1269 184.105 77.859 184.678 77.3705C185.223 76.9085 185.521 76.3036 185.521 75.6674C185.521 74.3071 184.172 73.2023 182.51 73.2023H179.182C176.768 73.2014 174.803 71.4841 174.803 69.375C174.803 68.3279 175.273 67.3538 176.126 66.6287C176.949 65.93 178.033 65.5457 179.182 65.5457H182.51C184.676 65.5457 186.495 66.9013 186.834 68.7681C186.9 69.1392 186.655 69.4952 186.283 69.5624C185.928 69.6268 185.557 69.3844 185.489 69.0124C185.271 67.8148 183.991 66.9127 182.51 66.9127H179.182C178.358 66.9127 177.586 67.1815 177.013 67.67C176.468 68.132 176.17 68.7369 176.17 69.3731C176.17 70.7334 177.522 71.8382 179.182 71.8382H182.51C184.924 71.8391 186.887 73.5564 186.887 75.6656V75.6627ZM170.457 66.2282V78.8123C170.457 79.0944 170.284 79.3481 170.019 79.4494C169.939 79.4806 169.856 79.4958 169.774 79.4958C169.585 79.4958 169.401 79.4172 169.268 79.2714L159.034 67.9976V78.8132C159.034 79.1909 158.728 79.4958 158.351 79.4958C157.974 79.4958 157.668 79.19 157.668 78.8132V66.2292C157.668 65.9471 157.842 65.6934 158.106 65.5921C158.37 65.4898 158.668 65.5608 158.857 65.77L169.091 77.0439V66.2292C169.091 65.8515 169.397 65.5466 169.774 65.5466C170.151 65.5466 170.457 65.8524 170.457 66.2292V66.2282ZM152.714 66.2263V78.8104C152.714 79.0925 152.541 79.3462 152.276 79.4475C152.196 79.4787 152.113 79.4939 152.031 79.4939C151.842 79.4939 151.658 79.4153 151.525 79.2695L141.291 67.9957V78.8113C141.291 79.189 140.985 79.4939 140.608 79.4939C140.232 79.4939 139.926 79.1881 139.926 78.8113V66.2273C139.926 65.9452 140.099 65.6915 140.363 65.5902C140.627 65.4879 140.925 65.5589 141.114 65.7681L151.348 77.042V66.2273C151.348 65.8496 151.654 65.5447 152.031 65.5447C152.408 65.5447 152.714 65.8505 152.714 66.2273V66.2263ZM180.081 98.4225C180.081 95.7557 177.91 93.5859 175.242 93.5859C172.574 93.5859 170.402 95.7557 170.402 98.4225C170.402 100.857 172.213 102.877 174.559 103.211V118.438C172.213 118.771 170.402 120.791 170.402 123.226C170.402 125.893 172.574 128.064 175.242 128.064C177.91 128.064 180.081 125.893 180.081 123.226C180.081 120.791 178.271 118.771 175.925 118.438V103.211C178.271 102.877 180.081 100.857 180.081 98.4225ZM171.769 98.4225C171.769 96.5093 173.327 94.952 175.243 94.952C177.159 94.952 178.715 96.5093 178.715 98.4225C178.715 100.336 177.157 101.895 175.243 101.895C173.329 101.895 171.769 100.338 171.769 98.4225ZM178.715 123.226C178.715 125.141 177.157 126.698 175.243 126.698C173.329 126.698 171.769 125.141 171.769 123.226C171.769 121.311 173.327 119.754 175.243 119.754C177.159 119.754 178.715 121.311 178.715 123.226ZM157.598 98.4225C157.598 95.7557 155.428 93.5859 152.759 93.5859C150.091 93.5859 147.919 95.7557 147.919 98.4225C147.919 100.857 149.73 102.877 152.077 103.211V118.438C149.73 118.771 147.919 120.791 147.919 123.226C147.919 125.893 150.091 128.064 152.759 128.064C155.428 128.064 157.598 125.893 157.598 123.226C157.598 120.791 155.788 118.771 153.442 118.438V103.211C155.788 102.877 157.598 100.857 157.598 98.4225V98.4225ZM149.286 98.4225C149.286 96.5093 150.844 94.952 152.76 94.952C154.676 94.952 156.233 96.5093 156.233 98.4225C156.233 100.336 154.675 101.895 152.76 101.895C150.846 101.895 149.286 100.338 149.286 98.4225V98.4225ZM156.233 123.226C156.233 125.141 154.675 126.698 152.76 126.698C150.846 126.698 149.286 125.141 149.286 123.226C149.286 121.311 150.844 119.754 152.76 119.754C154.676 119.754 156.233 121.311 156.233 123.226ZM164.069 95.3808C163.691 95.3808 163.386 95.6866 163.386 96.0634L163.383 105.477C161.005 105.782 159.161 107.816 159.161 110.274C159.161 112.941 161.333 115.111 164.001 115.111C166.669 115.111 168.841 112.941 168.841 110.274C168.841 107.861 167.063 105.855 164.748 105.494L164.752 96.0634C164.752 95.6857 164.446 95.3808 164.069 95.3808V95.3808ZM167.475 110.274C167.475 112.189 165.917 113.746 164.001 113.746C162.085 113.746 160.527 112.189 160.527 110.274C160.527 108.359 162.085 106.801 164.001 106.801C165.917 106.801 167.475 108.359 167.475 110.274ZM198.621 135.413C197.619 135.981 196.619 136.533 195.595 137.055C190.87 139.448 185.899 141.308 180.827 142.584C179.843 142.826 178.841 143.05 177.86 143.254C147.303 149.447 116.076 134.366 101.929 106.568C88.6101 80.3989 93.182 48.6051 113.276 27.2511C113.694 27.5683 114.168 27.8172 114.683 27.9848C115.17 28.1438 115.665 28.2186 116.152 28.2186C118.158 28.2186 120.029 26.9397 120.684 24.9327C121.497 22.4383 120.128 19.7469 117.631 18.9337C116.425 18.5427 115.132 18.6421 113.998 19.2177C112.865 19.7933 112.024 20.7769 111.631 21.9858C111.237 23.1937 111.337 24.484 111.914 25.6162C112.032 25.8491 112.168 26.0687 112.32 26.2751C91.7992 48.0494 87.124 80.4888 100.711 107.187C112.97 131.275 137.803 146 164.113 146C168.761 146 173.456 145.54 178.135 144.59C179.134 144.382 180.154 144.156 181.156 143.909C186.331 142.606 191.396 140.71 196.213 138.271C197.255 137.74 198.273 137.177 199.293 136.602C199.62 136.417 199.737 135.999 199.551 135.672C199.365 135.342 198.947 135.229 198.62 135.413H198.621ZM112.928 22.4089C113.208 21.5465 113.807 20.846 114.617 20.4351C115.101 20.189 115.624 20.064 116.152 20.064C116.505 20.064 116.861 20.1199 117.206 20.2325C118.987 20.8119 119.964 22.7317 119.384 24.5096C118.803 26.2874 116.883 27.2663 115.106 26.686C114.243 26.4058 113.541 25.8056 113.13 24.9981C112.719 24.1896 112.647 23.2704 112.928 22.4089V22.4089ZM227.315 42.8077C212.877 14.4531 181.039 -0.918832 149.914 5.41437C148.981 5.5895 148.01 5.80439 146.857 6.09313C141.65 7.40142 136.59 9.2957 131.816 11.722C130.77 12.2531 129.726 12.822 128.73 13.3938C128.404 13.5822 128.29 13.9987 128.478 14.3263C128.667 14.6538 129.085 14.7627 129.411 14.5781C130.388 14.0167 131.411 13.4601 132.436 12.9394C137.118 10.5586 142.082 8.70025 147.189 7.41751C148.315 7.13635 149.261 6.92619 150.177 6.75485C180.714 0.538088 211.939 15.6185 226.1 43.4268C239.261 69.2888 234.894 100.863 215.261 122.176C214.864 121.885 214.416 121.651 213.922 121.49C211.424 120.678 208.734 122.047 207.92 124.541C207.108 127.037 208.476 129.728 210.973 130.541C211.459 130.698 211.957 130.777 212.452 130.777C213.193 130.777 213.928 130.602 214.607 130.257C215.741 129.68 216.582 128.698 216.975 127.49C217.476 125.95 217.146 124.337 216.235 123.135C236.281 101.403 240.745 69.1913 227.317 42.8086L227.315 42.8077ZM215.674 127.067C215.393 127.928 214.793 128.628 213.985 129.041C213.179 129.449 212.257 129.523 211.395 129.242C209.615 128.662 208.638 126.743 209.218 124.965C209.798 123.185 211.723 122.209 213.496 122.789C215.277 123.367 216.253 125.288 215.674 127.068V127.067ZM224.436 62.7691C224.27 61.8802 224.069 61.0007 223.847 60.1137C222.71 55.5953 221.066 51.2056 218.958 47.0668C218.789 46.7297 218.373 46.601 218.041 46.7676C217.704 46.9389 217.57 47.3498 217.741 47.6859C219.801 51.7338 221.41 56.0279 222.521 60.4469C222.737 61.3046 222.933 62.1576 223.095 63.0304C228.477 89.4443 215.421 116.447 191.347 128.694C169.287 139.907 142.195 136.354 123.781 119.873C124.067 119.479 124.298 119.035 124.457 118.548C125.272 116.044 123.896 113.342 121.391 112.525C120.179 112.131 118.883 112.232 117.743 112.81C116.604 113.388 115.76 114.376 115.365 115.588C114.549 118.094 115.924 120.795 118.431 121.611C118.921 121.77 119.417 121.846 119.907 121.846C120.971 121.846 121.999 121.487 122.828 120.85C134.337 131.171 149.17 136.548 164.12 136.548C173.631 136.548 183.189 134.371 191.967 129.909C216.587 117.384 229.939 89.7699 224.437 62.7682L224.436 62.7691ZM118.854 120.313C117.987 120.032 117.281 119.428 116.868 118.616C116.454 117.804 116.382 116.879 116.666 116.012C116.947 115.144 117.551 114.441 118.364 114.027C118.851 113.779 119.377 113.654 119.909 113.654C120.264 113.654 120.621 113.71 120.967 113.824C122.758 114.408 123.741 116.337 123.158 118.125C122.574 119.917 120.641 120.894 118.854 120.313V120.313ZM212.908 31.319C212.329 30.182 211.341 29.3366 210.128 28.9419H210.127C208.915 28.549 207.619 28.6503 206.48 29.2268C206.234 29.3518 206.004 29.4966 205.787 29.6566C186.909 12.308 158.948 8.45317 136.065 20.0849C111.455 32.5979 98.0986 60.2131 103.585 87.2452C103.765 88.1133 103.963 88.9956 104.176 89.8684C105.307 94.3565 106.954 98.75 109.071 102.927C109.192 103.164 109.433 103.302 109.681 103.302C109.785 103.302 109.891 103.278 109.989 103.229C110.326 103.058 110.462 102.647 110.29 102.311C108.219 98.2246 106.607 93.9268 105.502 89.5399C105.294 88.6879 105.1 87.8208 104.924 86.9716C99.5591 60.5416 112.62 33.5379 136.684 21.3023C159.045 9.93565 186.358 13.6911 204.819 30.6213C204.511 31.035 204.266 31.5007 204.102 32.0062C203.707 33.2199 203.809 34.514 204.386 35.6518C204.965 36.7888 205.953 37.6332 207.168 38.0289C207.658 38.188 208.154 38.2637 208.644 38.2637C210.658 38.2637 212.537 36.98 213.193 34.9655C213.589 33.7519 213.488 32.4578 212.909 31.3199L212.908 31.319ZM211.893 34.5414C211.31 36.3306 209.384 37.3104 207.589 36.7292C206.723 36.447 206.017 35.845 205.604 35.0318C205.19 34.2195 205.118 33.2946 205.401 32.4284C205.869 30.9886 207.211 30.0722 208.65 30.0722C208.999 30.0722 209.354 30.1262 209.705 30.2398C210.572 30.5219 211.276 31.1249 211.69 31.9371C212.104 32.7494 212.176 33.6743 211.893 34.5414Z" fill="url(#paint0_linear_1658_33289)"/>
</g>
</g>
<defs>
<filter id="filter0_d_1658_33289" x="-4" y="0" width="335" height="158" filterUnits="userSpaceOnUse" color-interpolation-filters="sRGB">
<feFlood flood-opacity="0" result="BackgroundImageFix"/>
<feColorMatrix in="SourceAlpha" type="matrix" values="0 0 0 0 0 0 0 0 0 0 0 0 0 0 0 0 0 0 127 0" result="hardAlpha"/>
<feOffset dy="4"/>
<feGaussianBlur stdDeviation="2"/>
<feComposite in2="hardAlpha" operator="out"/>
<feColorMatrix type="matrix" values="0 0 0 0 0 0 0 0 0 0 0 0 0 0 0 0 0 0 0.25 0"/>
<feBlend mode="normal" in2="BackgroundImageFix" result="effect1_dropShadow_1658_33289"/>
<feBlend mode="normal" in="SourceGraphic" in2="effect1_dropShadow_1658_33289" result="shape"/>
</filter>
<linearGradient id="paint0_linear_1658_33289" x1="200.605" y1="138.344" x2="127.396" y2="11.4778" gradientUnits="userSpaceOnUse">
<stop stop-color="#2254E3"/>
<stop offset="0.4" stop-color="#0080FF"/>
<stop offset="0.44" stop-color="#018AFF"/>
<stop offset="0.65" stop-color="#07C4FF"/>
<stop offset="0.8" stop-color="#0BE9FF"/>
<stop offset="0.89" stop-color="#0DF7FF"/>
</linearGradient>
<clipPath id="clip0_1658_33289">
<rect width="327" height="150" rx="15" fill="white"/>
</clipPath>
<clipPath id="clip1_1658_33289">
<rect width="142" height="142" fill="white" transform="translate(93 4)"/>
</clipPath>
</defs>
</svg>
