<svg width="210" height="192" viewBox="0 0 210 192" fill="none" xmlns="http://www.w3.org/2000/svg">
<g clip-path="url(#clip0_1045_25845)">
<path d="M174.35 76.6C173.18 60.86 160.2 48.71 144.29 48.71C139.44 48.71 134.65 49.89 130.35 52.14C126.23 46.54 121.63 42.61 117.51 39.9C115.57 38.62 113.74 37.61 112.12 36.83C108.28 34.96 105.59 34.32 105.37 34.27C101.64 33.23 97.76 32.71 93.84 32.71C77.19 32.71 62.1 42.26 54.92 57.2C50.26 54.41 44.96 52.95 39.48 52.95C22.84 52.95 9.31 66.49 9.31 83.13C9.31 88.69 10.82 94.07 13.69 98.79C5.09 105.62 0 116.08 0 127.04C0 146.93 16.19 163.12 36.09 163.12C37.06 163.12 72.61 162.86 106.98 162.61C121.1 162.51 134.85 162.4 145.56 162.33C146.59 162.32 147.58 162.31 148.54 162.31C159.1 162.23 166.06 162.18 166.39 162.18C190.2 162.18 209.57 142.81 209.57 119C209.57 98.05 194.83 80.4 174.35 76.6ZM166.39 159.23C166.06 159.23 159.26 159.28 148.94 159.35C147.98 159.35 146.99 159.37 145.98 159.38C135.2 159.46 121.27 159.56 106.96 159.67C72.59 159.92 37.05 160.18 36.09 160.18C17.81 160.18 2.94 145.31 2.94 127.04C2.94 116.56 8.02 106.57 16.53 100.33C17.16 99.86 17.32 98.97 16.88 98.32C13.85 93.82 12.25 88.57 12.25 83.13C12.25 68.11 24.47 55.9 39.48 55.9C44.95 55.9 50.23 57.51 54.74 60.56C55.1 60.81 55.55 60.88 55.97 60.76C56.39 60.63 56.74 60.33 56.91 59.93C63.29 45.18 77.79 35.65 93.84 35.65C97.49 35.65 101.11 36.14 104.64 37.12C104.78 37.15 118.68 40.48 128.7 54.9C129.14 55.54 129.99 55.72 130.65 55.34C134.8 52.92 139.52 51.65 144.29 51.65C159.01 51.65 170.95 63.18 171.47 77.9C171.5 78.61 172.02 79.19 172.71 79.31C192.36 82.41 206.63 99.11 206.63 119C206.63 141.18 188.58 159.23 166.39 159.23Z" fill="#64748B"/>
<path d="M172.71 79.3099C172.02 79.1899 171.5 78.6099 171.47 77.8999C170.95 63.1799 159.01 51.6499 144.29 51.6499C139.52 51.6499 134.8 52.9199 130.65 55.3399C129.99 55.7199 129.14 55.5399 128.7 54.8999C118.68 40.4799 104.78 37.1499 104.64 37.1199C101.11 36.1399 97.4899 35.6499 93.8399 35.6499C77.7899 35.6499 63.2899 45.1799 56.9099 59.9299C56.7399 60.3299 56.3899 60.6299 55.9699 60.7599C55.5499 60.8799 55.0999 60.8099 54.7399 60.5599C50.2299 57.5099 44.9499 55.8999 39.4799 55.8999C24.4699 55.8999 12.2499 68.1099 12.2499 83.1299C12.2499 88.5699 13.8499 93.8199 16.8799 98.3199C17.3199 98.9699 17.1599 99.8599 16.5299 100.33C8.01994 106.57 2.93994 116.56 2.93994 127.04C2.93994 145.31 17.8099 160.18 36.0899 160.18C37.0499 160.18 72.5899 159.92 106.96 159.67C121.27 159.56 135.2 159.46 145.98 159.38C146.14 158.09 146.27 156.76 146.38 155.4C146.45 154.59 147.18 154 147.97 154.05C148.77 154.12 149.38 154.83 149.31 155.64C149.21 156.9 149.09 158.14 148.94 159.35C159.26 159.28 166.06 159.23 166.39 159.23C188.58 159.23 206.63 141.18 206.63 119C206.63 99.1099 192.36 82.4099 172.71 79.3099ZM121.79 50.1299C122.5 49.7399 123.4 50.0199 123.78 50.7299C125.98 54.8799 128.1 59.2199 130.09 63.6299C130.42 64.3799 130.09 65.2499 129.35 65.5799C129.15 65.6699 128.95 65.7099 128.74 65.7099C128.18 65.7099 127.65 65.3899 127.4 64.8399C125.45 60.4799 123.35 56.1999 121.18 52.1099C120.8 51.3999 121.07 50.4999 121.79 50.1299ZM133.43 121.45C133.43 132.62 124.34 141.71 113.17 141.71H96.7799C85.6099 141.71 76.5199 132.62 76.5199 121.45V102.13C76.5199 94.6999 80.5799 87.8799 87.1099 84.3199C87.8999 83.8899 88.7299 83.5099 89.5899 83.1799V77.9999C89.5899 69.5199 96.4899 62.6099 104.97 62.6099C113.45 62.6099 120.36 69.5199 120.36 77.9999V83.1899C121.22 83.5099 122.05 83.8999 122.84 84.3299C129.37 87.8799 133.43 94.6999 133.43 102.13V121.45ZM138.85 90.9499C138.7 90.9899 138.55 91.0199 138.4 91.0199C137.78 91.0199 137.2 90.6199 137 89.9899C136.28 87.7199 135.51 85.4399 134.71 83.1499C133.93 80.9499 133.13 78.7699 132.3 76.6199C132.01 75.8599 132.39 75.0099 133.15 74.7199C133.91 74.4299 134.76 74.8099 135.05 75.5599C135.89 77.7399 136.7 79.9399 137.48 82.1799C138.3 84.4899 139.07 86.7999 139.8 89.0999C140.05 89.8699 139.62 90.6999 138.85 90.9499ZM145.08 117.26C144.38 117.26 143.77 116.77 143.63 116.06C142.78 111.53 141.73 106.89 140.53 102.25C140.33 101.46 140.8 100.66 141.59 100.45C142.38 100.25 143.18 100.73 143.38 101.51C144.6 106.21 145.66 110.92 146.53 115.52C146.68 116.32 146.15 117.09 145.35 117.24C145.26 117.24 145.17 117.26 145.08 117.26ZM148.18 144.16H148.14C147.35 144.16 146.69 143.53 146.67 142.74C146.53 138.22 146.18 133.49 145.59 128.65C145.5 127.84 146.07 127.11 146.88 127.02C147.67 126.89 148.42 127.49 148.52 128.3C149.11 133.22 149.48 138.05 149.61 142.65C149.63 143.46 149 144.14 148.18 144.16Z" fill="#2873FF"/>
<path d="M47.0199 79.8099C47.0199 85.0099 42.8099 89.2299 37.6099 89.2299C32.4099 89.2299 28.1899 85.0099 28.1899 79.8099C28.1899 74.6099 32.4099 70.3999 37.6099 70.3999C42.8099 70.3999 47.0199 74.6099 47.0199 79.8099Z" fill="white"/>
<path d="M120.36 78.0001V84.2301C120.36 85.0501 119.7 85.7001 118.89 85.7001C118.08 85.7001 117.42 85.0501 117.42 84.2301V78.0001C117.42 71.1401 111.83 65.5601 104.97 65.5601C98.11 65.5601 92.53 71.1401 92.53 78.0001V84.2301C92.53 85.0501 91.88 85.7001 91.06 85.7001C90.24 85.7001 89.59 85.0501 89.59 84.2301V78.0001C89.59 69.5201 96.49 62.6101 104.97 62.6101C113.45 62.6101 120.36 69.5201 120.36 78.0001Z" fill="#64748B"/>
<path d="M122.84 84.3301C122.05 83.9001 121.22 83.5101 120.36 83.1901C120.02 83.0601 119.68 82.9401 119.34 82.8301C118.71 82.6301 118.07 82.4601 117.42 82.3201C116.03 82.0201 114.61 81.8701 113.17 81.8701H105.23C105.15 81.8601 105.08 81.8601 105.01 81.8601H96.78C95.34 81.8701 93.92 82.0201 92.53 82.3201C91.88 82.4601 91.24 82.6301 90.61 82.8301C90.27 82.9401 89.93 83.0601 89.59 83.1801C88.73 83.5101 87.9 83.8901 87.11 84.3201C80.58 87.8801 76.52 94.7001 76.52 102.13V121.45C76.52 132.62 85.61 141.71 96.78 141.71H113.17C124.34 141.71 133.43 132.62 133.43 121.45V102.13C133.43 94.7001 129.37 87.8801 122.84 84.3301ZM130.49 121.45C130.49 131 122.72 138.76 113.17 138.76H96.78C87.23 138.76 79.46 131 79.46 121.45V102.13C79.46 95.7801 82.93 89.9501 88.51 86.9101C89.46 86.4001 90.46 85.9701 91.51 85.6401C93.21 85.0901 94.99 84.8201 96.78 84.8201L104.78 84.8001C104.86 84.8001 104.93 84.8201 105.01 84.8201H113.17C114.97 84.8201 116.74 85.0901 118.44 85.6401C119.49 85.9701 120.5 86.4001 121.43 86.9101C127.02 89.9501 130.49 95.7801 130.49 102.13V121.45Z" fill="#64748B"/>
<path d="M111.32 121.45C111.87 121.33 108.17 111.76 108.17 111.76C109.58 110.77 110.49 109.13 110.49 107.28C110.49 104.25 108.03 101.79 105 101.79C101.97 101.79 99.51 104.25 99.51 107.28C99.51 109.13 100.43 110.77 101.83 111.76C101.83 111.76 98.26 120.74 98.61 121.45C98.95 122.16 110.76 121.57 111.31 121.45H111.32Z" fill="#B9D1FF"/>
<path d="M45.9 44.7301H45.87C45.06 44.7101 44.41 44.0401 44.43 43.2201C44.49 40.7001 44.63 38.2001 44.86 35.7701C44.94 34.9601 45.66 34.3901 46.46 34.4401C47.27 34.5101 47.87 35.2301 47.79 36.0401C47.57 38.4001 47.43 40.8301 47.37 43.2901C47.35 44.0901 46.69 44.7301 45.9 44.7301Z" fill="#64748B"/>
<path d="M78.5501 1.54998C73.2101 -0.330017 68.1201 -0.500017 63.6201 1.04998C62.8501 1.31998 62.4401 2.14998 62.7101 2.91998C62.9701 3.68998 63.7901 4.09998 64.5801 3.82998C68.4601 2.49998 72.8601 2.65998 77.5701 4.32998C77.7401 4.38998 77.9001 4.40998 78.0601 4.40998C78.6701 4.40998 79.2401 4.02998 79.4501 3.42998C79.7201 2.65998 79.3201 1.81998 78.5501 1.54998ZM100.89 17.66C97.3001 13.84 93.6801 10.56 90.1301 7.92998C89.4801 7.45998 88.5601 7.58998 88.0701 8.23998C87.5901 8.88998 87.7201 9.80998 88.3801 10.3C91.7901 12.82 95.2801 15.98 98.7401 19.68C99.0301 19.99 99.4201 20.14 99.8201 20.14C100.18 20.14 100.54 20.01 100.82 19.75C101.42 19.19 101.45 18.26 100.89 17.66ZM55.0601 9.07998C54.3901 8.60998 53.4701 8.76998 53.0001 9.42998C50.5101 12.99 48.5101 17.51 47.0701 22.89C46.8601 23.67 47.3301 24.48 48.1201 24.69C48.2401 24.72 48.3701 24.74 48.5001 24.74C49.1501 24.74 49.7401 24.3 49.9201 23.65C51.2701 18.61 53.1101 14.4 55.4101 11.13C55.8801 10.46 55.7201 9.53998 55.0601 9.07998ZM117.51 39.9C117.47 39.77 117.41 39.64 117.34 39.52C114.72 35.29 111.99 31.29 109.23 27.63C108.74 26.97 107.81 26.85 107.17 27.34C106.52 27.83 106.39 28.75 106.88 29.4C108.64 31.74 110.4 34.23 112.12 36.83C113.04 38.21 113.95 39.63 114.84 41.07C115.12 41.52 115.6 41.76 116.09 41.76C116.36 41.76 116.63 41.69 116.87 41.54C117.44 41.19 117.68 40.51 117.51 39.9ZM130.09 63.63C128.1 59.22 125.98 54.88 123.78 50.73C123.4 50.02 122.5 49.74 121.79 50.13C121.07 50.5 120.8 51.4 121.18 52.11C123.35 56.2 125.45 60.48 127.4 64.84C127.65 65.39 128.18 65.71 128.74 65.71C128.95 65.71 129.15 65.67 129.35 65.58C130.09 65.25 130.42 64.38 130.09 63.63ZM139.8 89.1C139.07 86.8 138.3 84.49 137.48 82.18C136.7 79.94 135.89 77.74 135.05 75.56C134.76 74.81 133.91 74.43 133.15 74.72C132.39 75.01 132.01 75.86 132.3 76.62C133.13 78.77 133.93 80.95 134.71 83.15C135.51 85.44 136.28 87.72 137 89.99C137.2 90.62 137.78 91.02 138.4 91.02C138.55 91.02 138.7 90.99 138.85 90.95C139.62 90.7 140.05 89.87 139.8 89.1ZM146.53 115.52C145.66 110.92 144.6 106.21 143.38 101.51C143.18 100.73 142.38 100.25 141.59 100.45C140.8 100.66 140.33 101.46 140.53 102.25C141.73 106.89 142.78 111.53 143.63 116.06C143.77 116.77 144.38 117.26 145.08 117.26C145.17 117.26 145.26 117.26 145.35 117.24C146.15 117.09 146.68 116.32 146.53 115.52ZM148.52 128.3C148.42 127.49 147.67 126.89 146.88 127.02C146.07 127.11 145.5 127.84 145.59 128.65C146.18 133.49 146.53 138.22 146.67 142.74C146.69 143.53 147.35 144.16 148.14 144.16H148.18C149 144.14 149.63 143.46 149.61 142.65C149.48 138.05 149.11 133.22 148.52 128.3ZM147.97 154.05C147.18 154 146.45 154.59 146.38 155.4C146.27 156.76 146.14 158.09 145.98 159.38C145.86 160.39 145.72 161.37 145.56 162.33C145.18 164.75 144.7 167.05 144.12 169.19C143.91 169.98 144.38 170.78 145.17 170.99C145.29 171.03 145.42 171.04 145.55 171.04C146.2 171.04 146.79 170.61 146.97 169.95C147.61 167.57 148.13 165.01 148.54 162.31C148.69 161.34 148.83 160.36 148.94 159.35C149.09 158.14 149.21 156.9 149.31 155.64C149.38 154.83 148.77 154.12 147.97 154.05ZM141.41 180.13C140.73 179.7 139.81 179.9 139.37 180.58C136.72 184.78 133.42 187.59 129.47 188.98L129.94 190.38L130.55 191.72C135.04 190.15 138.84 186.93 141.86 182.16C142.3 181.47 142.09 180.56 141.41 180.13ZM117.74 188.9C113.9 187.75 109.83 185.59 105.64 182.49C104.99 182.02 104.07 182.15 103.58 182.8C103.1 183.46 103.24 184.38 103.89 184.86C108.35 188.16 112.73 190.47 116.89 191.72C117.03 191.76 117.18 191.78 117.31 191.78C117.95 191.78 118.53 191.37 118.72 190.73C118.96 189.95 118.51 189.13 117.74 188.9Z" fill="#64748B"/>
<path d="M95.0901 176.52C94.7001 176.52 94.3201 176.37 94.0301 176.07C92.3801 174.35 90.7101 172.49 89.0501 170.51C88.5301 169.89 88.6101 168.96 89.2301 168.44C89.8501 167.91 90.7801 167.99 91.3001 168.62C92.9201 170.54 94.5501 172.36 96.1501 174.03C96.7101 174.62 96.7001 175.55 96.1101 176.11C95.8301 176.39 95.4601 176.52 95.0901 176.52Z" fill="#64748B"/>
</g>
<defs>
<clipPath id="clip0_1045_25845">
<rect width="209.57" height="191.78" fill="white"/>
</clipPath>
</defs>
</svg>
