<svg width="266" height="270" viewBox="0 0 266 270" fill="none" xmlns="http://www.w3.org/2000/svg">
<ellipse opacity="0.3" cx="133" cy="134.989" rx="83" ry="83.9146" fill="#DBE8FF"/>
<path opacity="0.3" d="M216 134.989C216 157.244 207.255 178.589 191.69 194.326C176.124 210.063 155.013 218.904 133 218.904C110.987 218.904 89.8757 210.063 74.3101 194.326C58.7446 178.589 50 157.245 50 134.989L133 134.989H216Z" fill="#B9D1FF"/>
<ellipse cx="133" cy="134.989" rx="66" ry="66.7273" fill="white"/>
<mask id="path-4-outside-1_1256_26128" maskUnits="userSpaceOnUse" x="94.7478" y="96.3264" width="77" height="77" fill="black">
<rect fill="white" x="94.7478" y="96.3264" width="77" height="77"/>
<path d="M140.925 98.4367C135.683 97.1206 130.166 96.9325 124.798 98.0988C124.384 98.189 124.12 98.6005 124.21 99.018C124.299 99.4356 124.708 99.701 125.123 99.6108C130.263 98.4939 135.559 98.678 140.595 99.9487C152.641 102.987 162.667 112.103 166.485 124.01C167.962 128.615 168.59 133.518 168.715 138.657C168.726 139.084 169.078 139.422 169.502 139.411C169.926 139.401 170.262 139.046 170.252 138.619C170.124 133.41 169.489 128.38 167.976 123.623C164.01 111.157 153.532 101.602 140.925 98.4367Z"/>
<path d="M120.899 100.777C121.308 100.663 121.548 100.237 121.435 99.8255C121.322 99.4138 120.899 99.172 120.49 99.2856C114.877 100.844 106.98 106.23 102.1 113.425C102.098 113.428 102.096 113.431 102.094 113.434C97.8092 119.934 95.1231 128.102 95.8731 136.028C95.8738 136.035 95.8746 136.043 95.8755 136.051C96.0553 137.498 96.357 138.942 96.6591 140.389C97.2954 143.435 97.9332 146.488 97.436 149.591C97.3684 150.012 97.6533 150.409 98.0723 150.477C98.4912 150.545 98.8857 150.259 98.9532 149.837C99.4729 146.594 98.8276 143.431 98.1822 140.268C97.8837 138.804 97.5852 137.341 97.4019 135.87C96.6965 128.38 99.2372 120.567 103.372 114.293C108.067 107.374 115.668 102.229 120.899 100.777Z"/>
<path d="M130.983 102.505C140.63 101.912 150.275 105.875 156.753 113.467C157.03 113.791 156.993 114.279 156.671 114.558C156.349 114.836 155.864 114.799 155.587 114.475C149.427 107.255 140.249 103.484 131.072 104.049C131.068 104.049 131.065 104.049 131.062 104.05C119.456 104.615 108.587 112.539 104.59 123.643C104.445 124.045 104.004 124.253 103.605 124.107C103.206 123.962 103 123.518 103.145 123.116C107.356 111.419 118.769 103.102 130.983 102.505Z"/>
<path d="M159.094 116.846C158.858 116.491 158.38 116.397 158.028 116.635C157.675 116.873 157.582 117.354 157.818 117.708C161.409 123.09 162.894 128.947 163.481 135.897C163.517 136.323 163.889 136.638 164.312 136.602C164.735 136.566 165.048 136.192 165.012 135.766C164.413 128.664 162.881 122.522 159.094 116.846Z"/>
<path d="M164.499 139.05C164.922 139.023 165.287 139.347 165.314 139.773C165.603 144.437 165.606 149.714 165.093 153.613C165.038 154.037 164.651 154.335 164.231 154.279C163.81 154.223 163.514 153.834 163.57 153.41C164.064 149.652 164.066 144.487 163.78 139.87C163.753 139.444 164.075 139.076 164.499 139.05Z"/>
<path d="M103.429 127.39C103.529 126.974 103.275 126.556 102.863 126.456C102.45 126.356 102.035 126.611 101.935 127.027C101.371 129.378 101.079 131.793 101.067 134.211C101.055 136.702 101.517 139.135 101.978 141.568C102.356 143.558 102.734 145.549 102.853 147.574C103.009 150.234 102.453 152.898 101.493 155.433C101.342 155.832 101.54 156.279 101.937 156.431C102.333 156.583 102.778 156.383 102.929 155.984C103.944 153.304 104.559 150.418 104.387 147.483C104.269 145.472 103.891 143.493 103.514 141.514C103.053 139.099 102.592 136.686 102.604 134.218C102.615 131.921 102.893 129.625 103.429 127.39Z"/>
<path d="M123.592 110.202C123.75 110.599 123.559 111.049 123.166 111.208C115.199 114.428 109.217 121.695 107.997 130.264C107.487 133.844 108.038 137.39 108.588 140.935C108.898 142.931 109.208 144.927 109.329 146.929C109.59 151.27 109.099 156.037 106.293 160.375C106.061 160.733 105.585 160.834 105.23 160.601C104.874 160.368 104.773 159.889 105.005 159.531C107.562 155.579 108.046 151.189 107.795 147.023C107.673 144.992 107.365 142.972 107.057 140.954C106.504 137.334 105.952 133.717 106.475 130.044C107.778 120.895 114.15 113.186 122.593 109.773C122.987 109.614 123.434 109.806 123.592 110.202Z"/>
<path d="M150.568 114.606C144.283 108.681 135.175 106.613 126.896 108.441C126.482 108.532 126.219 108.945 126.31 109.362C126.401 109.779 126.811 110.043 127.226 109.952C135.065 108.221 143.642 110.195 149.518 115.735C154.47 120.404 157.346 127.197 158.099 134.61C158.142 135.035 158.519 135.344 158.942 135.301C159.364 135.257 159.671 134.877 159.628 134.452C158.846 126.756 155.849 119.584 150.568 114.606Z"/>
<path d="M159.467 138.136C159.889 138.092 160.267 138.401 160.31 138.826C161.04 145.978 160.725 153.703 159.624 161.176C159.561 161.598 159.17 161.89 158.751 161.827C158.331 161.764 158.041 161.371 158.103 160.949C159.19 153.58 159.496 145.986 158.781 138.984C158.738 138.559 159.045 138.179 159.467 138.136Z"/>
<path d="M132.677 113.045C120.902 113.045 111.335 122.5 111.335 134.191C111.335 135.44 111.445 136.663 111.655 137.853C111.729 138.273 112.128 138.554 112.546 138.479C112.964 138.404 113.242 138.003 113.168 137.582C112.974 136.481 112.872 135.348 112.872 134.191C112.872 123.379 121.727 114.592 132.677 114.592C137.626 114.592 142.147 116.387 145.617 119.353C145.94 119.63 146.425 119.59 146.7 119.264C146.975 118.939 146.935 118.451 146.612 118.174C142.872 114.978 138.001 113.045 132.677 113.045Z"/>
<path d="M148.333 121.058C148.64 120.762 149.126 120.773 149.42 121.081C152.811 124.64 153.897 130.235 154.615 134.929C155.424 140.218 155.547 145.377 155.547 147.769C155.547 148.196 155.203 148.542 154.779 148.542C154.355 148.542 154.011 148.196 154.011 147.769C154.011 145.415 153.888 140.344 153.096 135.165C152.429 130.806 151.468 125.465 148.311 122.151C148.017 121.843 148.027 121.354 148.333 121.058Z"/>
<path d="M155.352 152.198C155.386 151.772 155.07 151.4 154.647 151.366C154.224 151.332 153.854 151.649 153.82 152.075C153.443 156.839 152.95 161.598 151.949 165.994C151.854 166.411 152.113 166.826 152.527 166.921C152.94 167.016 153.353 166.756 153.447 166.34C154.474 161.828 154.974 156.975 155.352 152.198Z"/>
<path d="M112.892 140.699C113.308 140.617 113.712 140.89 113.794 141.309C115.419 149.613 114.296 157.157 109.994 163.766C109.761 164.123 109.285 164.223 108.93 163.988C108.575 163.754 108.476 163.275 108.709 162.918C112.757 156.7 113.846 149.581 112.286 141.608C112.204 141.189 112.475 140.782 112.892 140.699Z"/>
<path d="M132.677 118.077C125.034 118.077 117.535 124.033 116.77 131.517C116.435 134.794 116.906 138.022 117.376 141.251C117.788 144.07 118.199 146.891 118.074 149.746C117.788 156.28 115.883 161.673 112.611 166.116C112.358 166.459 112.429 166.943 112.77 167.198C113.111 167.452 113.592 167.38 113.845 167.037C117.316 162.325 119.311 156.628 119.609 149.814C119.734 146.972 119.321 144.16 118.909 141.35C118.437 138.137 117.966 134.927 118.299 131.676C118.971 125.101 125.695 119.624 132.677 119.624C135.934 119.624 144.36 121.399 147.04 130.187C148.72 135.695 149.178 143.148 148.771 150.389C148.364 157.629 147.099 164.554 145.397 168.994C145.245 169.393 145.442 169.841 145.838 169.994C146.234 170.148 146.679 169.95 146.831 169.551C148.612 164.905 149.894 157.805 150.306 150.476C150.717 143.149 150.265 135.489 148.509 129.734C145.534 119.978 136.208 118.077 132.677 118.077Z"/>
<path d="M120.852 163.767C121.207 164 121.308 164.479 121.076 164.837C120.599 165.572 120.18 166.342 119.761 167.111C119.342 167.881 118.922 168.65 118.446 169.386C118.214 169.743 117.738 169.844 117.382 169.611C117.027 169.378 116.927 168.898 117.159 168.541C117.635 167.805 118.054 167.036 118.474 166.266C118.893 165.497 119.312 164.727 119.789 163.992C120.02 163.634 120.496 163.533 120.852 163.767Z"/>
<path d="M127.432 126.106C127.784 125.868 127.879 125.388 127.643 125.033C127.407 124.678 126.93 124.583 126.577 124.82C123.534 126.869 121.668 129.686 121.668 133.812C121.668 136.269 122.1 138.278 122.544 140.338C123.207 143.421 123.658 146.497 123.577 149.663C123.479 153.508 122.731 157.022 121.294 160.369C121.126 160.761 121.305 161.216 121.695 161.385C122.085 161.555 122.537 161.374 122.705 160.982C124.224 157.443 125.01 153.734 125.113 149.703C125.197 146.413 124.734 143.215 124.046 140.011C123.601 137.942 123.204 136.095 123.204 133.812C123.204 130.276 124.75 127.911 127.432 126.106Z"/>
<path d="M130.431 123.388C133.619 122.734 137.051 123.543 139.576 125.6C144.088 129.275 144.688 135.978 145.174 141.409L145.199 141.686C145.827 148.687 145.108 155.487 143.659 162.316C143.57 162.734 143.162 163 142.747 162.911C142.332 162.822 142.067 162.411 142.156 161.993C143.583 155.266 144.278 148.628 143.668 141.825C143.648 141.6 143.628 141.371 143.607 141.14L143.607 141.137C143.175 136.229 142.634 130.081 138.609 126.803C136.45 125.043 133.489 124.34 130.738 124.904C130.322 124.989 129.916 124.719 129.831 124.301C129.747 123.882 130.015 123.474 130.431 123.388Z"/>
<path d="M142.573 166.165C142.678 165.751 142.429 165.33 142.018 165.224C141.607 165.119 141.188 165.369 141.084 165.783C140.619 167.62 139.903 169.277 138.996 170.804C138.778 171.17 138.896 171.645 139.26 171.864C139.625 172.084 140.096 171.965 140.314 171.598C141.292 169.953 142.069 168.157 142.573 166.165Z"/>
<path d="M138.815 154.941C139.237 154.991 139.538 155.375 139.488 155.8C138.762 161.972 137.124 167.478 134.495 172.253C134.289 172.626 133.822 172.761 133.45 172.554C133.079 172.347 132.945 171.876 133.151 171.503C135.667 166.933 137.255 161.628 137.962 155.618C138.012 155.194 138.394 154.891 138.815 154.941Z"/>
<path d="M138.657 133.407C138.124 130.541 135.681 128.35 132.715 128.35C128.699 128.35 125.881 132.425 126.874 136.216C128.554 142.907 128.83 149.357 127.693 155.568L127.692 155.573C126.705 161.15 124.809 166.167 122.224 170.419C122.002 170.783 122.116 171.259 122.478 171.482C122.84 171.705 123.313 171.591 123.535 171.226C126.226 166.801 128.186 161.601 129.205 155.847C130.386 149.395 130.093 142.72 128.363 135.833L128.361 135.824C127.616 132.989 129.692 129.897 132.715 129.897C134.897 129.897 136.739 131.512 137.145 133.686C138.264 140.216 138.846 146.271 138.432 151.485C138.398 151.911 138.713 152.284 139.136 152.318C139.559 152.352 139.93 152.034 139.964 151.608C140.394 146.204 139.787 140 138.659 133.417C138.658 133.414 138.658 133.41 138.657 133.407Z"/>
<path d="M130.422 166.904C130.8 167.1 130.949 167.566 130.755 167.946L128.719 171.934C128.525 172.314 128.061 172.464 127.684 172.268C127.306 172.073 127.158 171.607 127.352 171.227L129.388 167.239C129.582 166.859 130.045 166.709 130.422 166.904Z"/>
<path d="M133.287 134.152C133.19 133.736 132.776 133.479 132.363 133.576C131.95 133.674 131.694 134.09 131.791 134.506C134.382 145.609 134.026 155.358 130.87 163.663C130.718 164.062 130.917 164.509 131.313 164.662C131.709 164.814 132.153 164.615 132.305 164.216C135.596 155.556 135.931 145.48 133.287 134.152Z"/>
</mask>
<path d="M140.925 98.4367C135.683 97.1206 130.166 96.9325 124.798 98.0988C124.384 98.189 124.12 98.6005 124.21 99.018C124.299 99.4356 124.708 99.701 125.123 99.6108C130.263 98.4939 135.559 98.678 140.595 99.9487C152.641 102.987 162.667 112.103 166.485 124.01C167.962 128.615 168.59 133.518 168.715 138.657C168.726 139.084 169.078 139.422 169.502 139.411C169.926 139.401 170.262 139.046 170.252 138.619C170.124 133.41 169.489 128.38 167.976 123.623C164.01 111.157 153.532 101.602 140.925 98.4367Z" fill="#2873FF"/>
<path d="M120.899 100.777C121.308 100.663 121.548 100.237 121.435 99.8255C121.322 99.4138 120.899 99.172 120.49 99.2856C114.877 100.844 106.98 106.23 102.1 113.425C102.098 113.428 102.096 113.431 102.094 113.434C97.8092 119.934 95.1231 128.102 95.8731 136.028C95.8738 136.035 95.8746 136.043 95.8755 136.051C96.0553 137.498 96.357 138.942 96.6591 140.389C97.2954 143.435 97.9332 146.488 97.436 149.591C97.3684 150.012 97.6533 150.409 98.0723 150.477C98.4912 150.545 98.8857 150.259 98.9532 149.837C99.4729 146.594 98.8276 143.431 98.1822 140.268C97.8837 138.804 97.5852 137.341 97.4019 135.87C96.6965 128.38 99.2372 120.567 103.372 114.293C108.067 107.374 115.668 102.229 120.899 100.777Z" fill="#2873FF"/>
<path d="M130.983 102.505C140.63 101.912 150.275 105.875 156.753 113.467C157.03 113.791 156.993 114.279 156.671 114.558C156.349 114.836 155.864 114.799 155.587 114.475C149.427 107.255 140.249 103.484 131.072 104.049C131.068 104.049 131.065 104.049 131.062 104.05C119.456 104.615 108.587 112.539 104.59 123.643C104.445 124.045 104.004 124.253 103.605 124.107C103.206 123.962 103 123.518 103.145 123.116C107.356 111.419 118.769 103.102 130.983 102.505Z" fill="#2873FF"/>
<path d="M159.094 116.846C158.858 116.491 158.38 116.397 158.028 116.635C157.675 116.873 157.582 117.354 157.818 117.708C161.409 123.09 162.894 128.947 163.481 135.897C163.517 136.323 163.889 136.638 164.312 136.602C164.735 136.566 165.048 136.192 165.012 135.766C164.413 128.664 162.881 122.522 159.094 116.846Z" fill="#2873FF"/>
<path d="M164.499 139.05C164.922 139.023 165.287 139.347 165.314 139.773C165.603 144.437 165.606 149.714 165.093 153.613C165.038 154.037 164.651 154.335 164.231 154.279C163.81 154.223 163.514 153.834 163.57 153.41C164.064 149.652 164.066 144.487 163.78 139.87C163.753 139.444 164.075 139.076 164.499 139.05Z" fill="#2873FF"/>
<path d="M103.429 127.39C103.529 126.974 103.275 126.556 102.863 126.456C102.45 126.356 102.035 126.611 101.935 127.027C101.371 129.378 101.079 131.793 101.067 134.211C101.055 136.702 101.517 139.135 101.978 141.568C102.356 143.558 102.734 145.549 102.853 147.574C103.009 150.234 102.453 152.898 101.493 155.433C101.342 155.832 101.54 156.279 101.937 156.431C102.333 156.583 102.778 156.383 102.929 155.984C103.944 153.304 104.559 150.418 104.387 147.483C104.269 145.472 103.891 143.493 103.514 141.514C103.053 139.099 102.592 136.686 102.604 134.218C102.615 131.921 102.893 129.625 103.429 127.39Z" fill="#2873FF"/>
<path d="M123.592 110.202C123.75 110.599 123.559 111.049 123.166 111.208C115.199 114.428 109.217 121.695 107.997 130.264C107.487 133.844 108.038 137.39 108.588 140.935C108.898 142.931 109.208 144.927 109.329 146.929C109.59 151.27 109.099 156.037 106.293 160.375C106.061 160.733 105.585 160.834 105.23 160.601C104.874 160.368 104.773 159.889 105.005 159.531C107.562 155.579 108.046 151.189 107.795 147.023C107.673 144.992 107.365 142.972 107.057 140.954C106.504 137.334 105.952 133.717 106.475 130.044C107.778 120.895 114.15 113.186 122.593 109.773C122.987 109.614 123.434 109.806 123.592 110.202Z" fill="#2873FF"/>
<path d="M150.568 114.606C144.283 108.681 135.175 106.613 126.896 108.441C126.482 108.532 126.219 108.945 126.31 109.362C126.401 109.779 126.811 110.043 127.226 109.952C135.065 108.221 143.642 110.195 149.518 115.735C154.47 120.404 157.346 127.197 158.099 134.61C158.142 135.035 158.519 135.344 158.942 135.301C159.364 135.257 159.671 134.877 159.628 134.452C158.846 126.756 155.849 119.584 150.568 114.606Z" fill="#2873FF"/>
<path d="M159.467 138.136C159.889 138.092 160.267 138.401 160.31 138.826C161.04 145.978 160.725 153.703 159.624 161.176C159.561 161.598 159.17 161.89 158.751 161.827C158.331 161.764 158.041 161.371 158.103 160.949C159.19 153.58 159.496 145.986 158.781 138.984C158.738 138.559 159.045 138.179 159.467 138.136Z" fill="#2873FF"/>
<path d="M132.677 113.045C120.902 113.045 111.335 122.5 111.335 134.191C111.335 135.44 111.445 136.663 111.655 137.853C111.729 138.273 112.128 138.554 112.546 138.479C112.964 138.404 113.242 138.003 113.168 137.582C112.974 136.481 112.872 135.348 112.872 134.191C112.872 123.379 121.727 114.592 132.677 114.592C137.626 114.592 142.147 116.387 145.617 119.353C145.94 119.63 146.425 119.59 146.7 119.264C146.975 118.939 146.935 118.451 146.612 118.174C142.872 114.978 138.001 113.045 132.677 113.045Z" fill="#2873FF"/>
<path d="M148.333 121.058C148.64 120.762 149.126 120.773 149.42 121.081C152.811 124.64 153.897 130.235 154.615 134.929C155.424 140.218 155.547 145.377 155.547 147.769C155.547 148.196 155.203 148.542 154.779 148.542C154.355 148.542 154.011 148.196 154.011 147.769C154.011 145.415 153.888 140.344 153.096 135.165C152.429 130.806 151.468 125.465 148.311 122.151C148.017 121.843 148.027 121.354 148.333 121.058Z" fill="#2873FF"/>
<path d="M155.352 152.198C155.386 151.772 155.07 151.4 154.647 151.366C154.224 151.332 153.854 151.649 153.82 152.075C153.443 156.839 152.95 161.598 151.949 165.994C151.854 166.411 152.113 166.826 152.527 166.921C152.94 167.016 153.353 166.756 153.447 166.34C154.474 161.828 154.974 156.975 155.352 152.198Z" fill="#2873FF"/>
<path d="M112.892 140.699C113.308 140.617 113.712 140.89 113.794 141.309C115.419 149.613 114.296 157.157 109.994 163.766C109.761 164.123 109.285 164.223 108.93 163.988C108.575 163.754 108.476 163.275 108.709 162.918C112.757 156.7 113.846 149.581 112.286 141.608C112.204 141.189 112.475 140.782 112.892 140.699Z" fill="#2873FF"/>
<path d="M132.677 118.077C125.034 118.077 117.535 124.033 116.77 131.517C116.435 134.794 116.906 138.022 117.376 141.251C117.788 144.07 118.199 146.891 118.074 149.746C117.788 156.28 115.883 161.673 112.611 166.116C112.358 166.459 112.429 166.943 112.77 167.198C113.111 167.452 113.592 167.38 113.845 167.037C117.316 162.325 119.311 156.628 119.609 149.814C119.734 146.972 119.321 144.16 118.909 141.35C118.437 138.137 117.966 134.927 118.299 131.676C118.971 125.101 125.695 119.624 132.677 119.624C135.934 119.624 144.36 121.399 147.04 130.187C148.72 135.695 149.178 143.148 148.771 150.389C148.364 157.629 147.099 164.554 145.397 168.994C145.245 169.393 145.442 169.841 145.838 169.994C146.234 170.148 146.679 169.95 146.831 169.551C148.612 164.905 149.894 157.805 150.306 150.476C150.717 143.149 150.265 135.489 148.509 129.734C145.534 119.978 136.208 118.077 132.677 118.077Z" fill="#2873FF"/>
<path d="M120.852 163.767C121.207 164 121.308 164.479 121.076 164.837C120.599 165.572 120.18 166.342 119.761 167.111C119.342 167.881 118.922 168.65 118.446 169.386C118.214 169.743 117.738 169.844 117.382 169.611C117.027 169.378 116.927 168.898 117.159 168.541C117.635 167.805 118.054 167.036 118.474 166.266C118.893 165.497 119.312 164.727 119.789 163.992C120.02 163.634 120.496 163.533 120.852 163.767Z" fill="#2873FF"/>
<path d="M127.432 126.106C127.784 125.868 127.879 125.388 127.643 125.033C127.407 124.678 126.93 124.583 126.577 124.82C123.534 126.869 121.668 129.686 121.668 133.812C121.668 136.269 122.1 138.278 122.544 140.338C123.207 143.421 123.658 146.497 123.577 149.663C123.479 153.508 122.731 157.022 121.294 160.369C121.126 160.761 121.305 161.216 121.695 161.385C122.085 161.555 122.537 161.374 122.705 160.982C124.224 157.443 125.01 153.734 125.113 149.703C125.197 146.413 124.734 143.215 124.046 140.011C123.601 137.942 123.204 136.095 123.204 133.812C123.204 130.276 124.75 127.911 127.432 126.106Z" fill="#2873FF"/>
<path d="M130.431 123.388C133.619 122.734 137.051 123.543 139.576 125.6C144.088 129.275 144.688 135.978 145.174 141.409L145.199 141.686C145.827 148.687 145.108 155.487 143.659 162.316C143.57 162.734 143.162 163 142.747 162.911C142.332 162.822 142.067 162.411 142.156 161.993C143.583 155.266 144.278 148.628 143.668 141.825C143.648 141.6 143.628 141.371 143.607 141.14L143.607 141.137C143.175 136.229 142.634 130.081 138.609 126.803C136.45 125.043 133.489 124.34 130.738 124.904C130.322 124.989 129.916 124.719 129.831 124.301C129.747 123.882 130.015 123.474 130.431 123.388Z" fill="#2873FF"/>
<path d="M142.573 166.165C142.678 165.751 142.429 165.33 142.018 165.224C141.607 165.119 141.188 165.369 141.084 165.783C140.619 167.62 139.903 169.277 138.996 170.804C138.778 171.17 138.896 171.645 139.26 171.864C139.625 172.084 140.096 171.965 140.314 171.598C141.292 169.953 142.069 168.157 142.573 166.165Z" fill="#2873FF"/>
<path d="M138.815 154.941C139.237 154.991 139.538 155.375 139.488 155.8C138.762 161.972 137.124 167.478 134.495 172.253C134.289 172.626 133.822 172.761 133.45 172.554C133.079 172.347 132.945 171.876 133.151 171.503C135.667 166.933 137.255 161.628 137.962 155.618C138.012 155.194 138.394 154.891 138.815 154.941Z" fill="#2873FF"/>
<path d="M138.657 133.407C138.124 130.541 135.681 128.35 132.715 128.35C128.699 128.35 125.881 132.425 126.874 136.216C128.554 142.907 128.83 149.357 127.693 155.568L127.692 155.573C126.705 161.15 124.809 166.167 122.224 170.419C122.002 170.783 122.116 171.259 122.478 171.482C122.84 171.705 123.313 171.591 123.535 171.226C126.226 166.801 128.186 161.601 129.205 155.847C130.386 149.395 130.093 142.72 128.363 135.833L128.361 135.824C127.616 132.989 129.692 129.897 132.715 129.897C134.897 129.897 136.739 131.512 137.145 133.686C138.264 140.216 138.846 146.271 138.432 151.485C138.398 151.911 138.713 152.284 139.136 152.318C139.559 152.352 139.93 152.034 139.964 151.608C140.394 146.204 139.787 140 138.659 133.417C138.658 133.414 138.658 133.41 138.657 133.407Z" fill="#2873FF"/>
<path d="M130.422 166.904C130.8 167.1 130.949 167.566 130.755 167.946L128.719 171.934C128.525 172.314 128.061 172.464 127.684 172.268C127.306 172.073 127.158 171.607 127.352 171.227L129.388 167.239C129.582 166.859 130.045 166.709 130.422 166.904Z" fill="#2873FF"/>
<path d="M133.287 134.152C133.19 133.736 132.776 133.479 132.363 133.576C131.95 133.674 131.694 134.09 131.791 134.506C134.382 145.609 134.026 155.358 130.87 163.663C130.718 164.062 130.917 164.509 131.313 164.662C131.709 164.814 132.153 164.615 132.305 164.216C135.596 155.556 135.931 145.48 133.287 134.152Z" fill="#2873FF"/>
<path d="M140.925 98.4367C135.683 97.1206 130.166 96.9325 124.798 98.0988C124.384 98.189 124.12 98.6005 124.21 99.018C124.299 99.4356 124.708 99.701 125.123 99.6108C130.263 98.4939 135.559 98.678 140.595 99.9487C152.641 102.987 162.667 112.103 166.485 124.01C167.962 128.615 168.59 133.518 168.715 138.657C168.726 139.084 169.078 139.422 169.502 139.411C169.926 139.401 170.262 139.046 170.252 138.619C170.124 133.41 169.489 128.38 167.976 123.623C164.01 111.157 153.532 101.602 140.925 98.4367Z" stroke="#2873FF" mask="url(#path-4-outside-1_1256_26128)"/>
<path d="M120.899 100.777C121.308 100.663 121.548 100.237 121.435 99.8255C121.322 99.4138 120.899 99.172 120.49 99.2856C114.877 100.844 106.98 106.23 102.1 113.425C102.098 113.428 102.096 113.431 102.094 113.434C97.8092 119.934 95.1231 128.102 95.8731 136.028C95.8738 136.035 95.8746 136.043 95.8755 136.051C96.0553 137.498 96.357 138.942 96.6591 140.389C97.2954 143.435 97.9332 146.488 97.436 149.591C97.3684 150.012 97.6533 150.409 98.0723 150.477C98.4912 150.545 98.8857 150.259 98.9532 149.837C99.4729 146.594 98.8276 143.431 98.1822 140.268C97.8837 138.804 97.5852 137.341 97.4019 135.87C96.6965 128.38 99.2372 120.567 103.372 114.293C108.067 107.374 115.668 102.229 120.899 100.777Z" stroke="#2873FF" mask="url(#path-4-outside-1_1256_26128)"/>
<path d="M130.983 102.505C140.63 101.912 150.275 105.875 156.753 113.467C157.03 113.791 156.993 114.279 156.671 114.558C156.349 114.836 155.864 114.799 155.587 114.475C149.427 107.255 140.249 103.484 131.072 104.049C131.068 104.049 131.065 104.049 131.062 104.05C119.456 104.615 108.587 112.539 104.59 123.643C104.445 124.045 104.004 124.253 103.605 124.107C103.206 123.962 103 123.518 103.145 123.116C107.356 111.419 118.769 103.102 130.983 102.505Z" stroke="#2873FF" mask="url(#path-4-outside-1_1256_26128)"/>
<path d="M159.094 116.846C158.858 116.491 158.38 116.397 158.028 116.635C157.675 116.873 157.582 117.354 157.818 117.708C161.409 123.09 162.894 128.947 163.481 135.897C163.517 136.323 163.889 136.638 164.312 136.602C164.735 136.566 165.048 136.192 165.012 135.766C164.413 128.664 162.881 122.522 159.094 116.846Z" stroke="#2873FF" mask="url(#path-4-outside-1_1256_26128)"/>
<path d="M164.499 139.05C164.922 139.023 165.287 139.347 165.314 139.773C165.603 144.437 165.606 149.714 165.093 153.613C165.038 154.037 164.651 154.335 164.231 154.279C163.81 154.223 163.514 153.834 163.57 153.41C164.064 149.652 164.066 144.487 163.78 139.87C163.753 139.444 164.075 139.076 164.499 139.05Z" stroke="#2873FF" mask="url(#path-4-outside-1_1256_26128)"/>
<path d="M103.429 127.39C103.529 126.974 103.275 126.556 102.863 126.456C102.45 126.356 102.035 126.611 101.935 127.027C101.371 129.378 101.079 131.793 101.067 134.211C101.055 136.702 101.517 139.135 101.978 141.568C102.356 143.558 102.734 145.549 102.853 147.574C103.009 150.234 102.453 152.898 101.493 155.433C101.342 155.832 101.54 156.279 101.937 156.431C102.333 156.583 102.778 156.383 102.929 155.984C103.944 153.304 104.559 150.418 104.387 147.483C104.269 145.472 103.891 143.493 103.514 141.514C103.053 139.099 102.592 136.686 102.604 134.218C102.615 131.921 102.893 129.625 103.429 127.39Z" stroke="#2873FF" mask="url(#path-4-outside-1_1256_26128)"/>
<path d="M123.592 110.202C123.75 110.599 123.559 111.049 123.166 111.208C115.199 114.428 109.217 121.695 107.997 130.264C107.487 133.844 108.038 137.39 108.588 140.935C108.898 142.931 109.208 144.927 109.329 146.929C109.59 151.27 109.099 156.037 106.293 160.375C106.061 160.733 105.585 160.834 105.23 160.601C104.874 160.368 104.773 159.889 105.005 159.531C107.562 155.579 108.046 151.189 107.795 147.023C107.673 144.992 107.365 142.972 107.057 140.954C106.504 137.334 105.952 133.717 106.475 130.044C107.778 120.895 114.15 113.186 122.593 109.773C122.987 109.614 123.434 109.806 123.592 110.202Z" stroke="#2873FF" mask="url(#path-4-outside-1_1256_26128)"/>
<path d="M150.568 114.606C144.283 108.681 135.175 106.613 126.896 108.441C126.482 108.532 126.219 108.945 126.31 109.362C126.401 109.779 126.811 110.043 127.226 109.952C135.065 108.221 143.642 110.195 149.518 115.735C154.47 120.404 157.346 127.197 158.099 134.61C158.142 135.035 158.519 135.344 158.942 135.301C159.364 135.257 159.671 134.877 159.628 134.452C158.846 126.756 155.849 119.584 150.568 114.606Z" stroke="#2873FF" mask="url(#path-4-outside-1_1256_26128)"/>
<path d="M159.467 138.136C159.889 138.092 160.267 138.401 160.31 138.826C161.04 145.978 160.725 153.703 159.624 161.176C159.561 161.598 159.17 161.89 158.751 161.827C158.331 161.764 158.041 161.371 158.103 160.949C159.19 153.58 159.496 145.986 158.781 138.984C158.738 138.559 159.045 138.179 159.467 138.136Z" stroke="#2873FF" mask="url(#path-4-outside-1_1256_26128)"/>
<path d="M132.677 113.045C120.902 113.045 111.335 122.5 111.335 134.191C111.335 135.44 111.445 136.663 111.655 137.853C111.729 138.273 112.128 138.554 112.546 138.479C112.964 138.404 113.242 138.003 113.168 137.582C112.974 136.481 112.872 135.348 112.872 134.191C112.872 123.379 121.727 114.592 132.677 114.592C137.626 114.592 142.147 116.387 145.617 119.353C145.94 119.63 146.425 119.59 146.7 119.264C146.975 118.939 146.935 118.451 146.612 118.174C142.872 114.978 138.001 113.045 132.677 113.045Z" stroke="#2873FF" mask="url(#path-4-outside-1_1256_26128)"/>
<path d="M148.333 121.058C148.64 120.762 149.126 120.773 149.42 121.081C152.811 124.64 153.897 130.235 154.615 134.929C155.424 140.218 155.547 145.377 155.547 147.769C155.547 148.196 155.203 148.542 154.779 148.542C154.355 148.542 154.011 148.196 154.011 147.769C154.011 145.415 153.888 140.344 153.096 135.165C152.429 130.806 151.468 125.465 148.311 122.151C148.017 121.843 148.027 121.354 148.333 121.058Z" stroke="#2873FF" mask="url(#path-4-outside-1_1256_26128)"/>
<path d="M155.352 152.198C155.386 151.772 155.07 151.4 154.647 151.366C154.224 151.332 153.854 151.649 153.82 152.075C153.443 156.839 152.95 161.598 151.949 165.994C151.854 166.411 152.113 166.826 152.527 166.921C152.94 167.016 153.353 166.756 153.447 166.34C154.474 161.828 154.974 156.975 155.352 152.198Z" stroke="#2873FF" mask="url(#path-4-outside-1_1256_26128)"/>
<path d="M112.892 140.699C113.308 140.617 113.712 140.89 113.794 141.309C115.419 149.613 114.296 157.157 109.994 163.766C109.761 164.123 109.285 164.223 108.93 163.988C108.575 163.754 108.476 163.275 108.709 162.918C112.757 156.7 113.846 149.581 112.286 141.608C112.204 141.189 112.475 140.782 112.892 140.699Z" stroke="#2873FF" mask="url(#path-4-outside-1_1256_26128)"/>
<path d="M132.677 118.077C125.034 118.077 117.535 124.033 116.77 131.517C116.435 134.794 116.906 138.022 117.376 141.251C117.788 144.07 118.199 146.891 118.074 149.746C117.788 156.28 115.883 161.673 112.611 166.116C112.358 166.459 112.429 166.943 112.77 167.198C113.111 167.452 113.592 167.38 113.845 167.037C117.316 162.325 119.311 156.628 119.609 149.814C119.734 146.972 119.321 144.16 118.909 141.35C118.437 138.137 117.966 134.927 118.299 131.676C118.971 125.101 125.695 119.624 132.677 119.624C135.934 119.624 144.36 121.399 147.04 130.187C148.72 135.695 149.178 143.148 148.771 150.389C148.364 157.629 147.099 164.554 145.397 168.994C145.245 169.393 145.442 169.841 145.838 169.994C146.234 170.148 146.679 169.95 146.831 169.551C148.612 164.905 149.894 157.805 150.306 150.476C150.717 143.149 150.265 135.489 148.509 129.734C145.534 119.978 136.208 118.077 132.677 118.077Z" stroke="#2873FF" mask="url(#path-4-outside-1_1256_26128)"/>
<path d="M120.852 163.767C121.207 164 121.308 164.479 121.076 164.837C120.599 165.572 120.18 166.342 119.761 167.111C119.342 167.881 118.922 168.65 118.446 169.386C118.214 169.743 117.738 169.844 117.382 169.611C117.027 169.378 116.927 168.898 117.159 168.541C117.635 167.805 118.054 167.036 118.474 166.266C118.893 165.497 119.312 164.727 119.789 163.992C120.02 163.634 120.496 163.533 120.852 163.767Z" stroke="#2873FF" mask="url(#path-4-outside-1_1256_26128)"/>
<path d="M127.432 126.106C127.784 125.868 127.879 125.388 127.643 125.033C127.407 124.678 126.93 124.583 126.577 124.82C123.534 126.869 121.668 129.686 121.668 133.812C121.668 136.269 122.1 138.278 122.544 140.338C123.207 143.421 123.658 146.497 123.577 149.663C123.479 153.508 122.731 157.022 121.294 160.369C121.126 160.761 121.305 161.216 121.695 161.385C122.085 161.555 122.537 161.374 122.705 160.982C124.224 157.443 125.01 153.734 125.113 149.703C125.197 146.413 124.734 143.215 124.046 140.011C123.601 137.942 123.204 136.095 123.204 133.812C123.204 130.276 124.75 127.911 127.432 126.106Z" stroke="#2873FF" mask="url(#path-4-outside-1_1256_26128)"/>
<path d="M130.431 123.388C133.619 122.734 137.051 123.543 139.576 125.6C144.088 129.275 144.688 135.978 145.174 141.409L145.199 141.686C145.827 148.687 145.108 155.487 143.659 162.316C143.57 162.734 143.162 163 142.747 162.911C142.332 162.822 142.067 162.411 142.156 161.993C143.583 155.266 144.278 148.628 143.668 141.825C143.648 141.6 143.628 141.371 143.607 141.14L143.607 141.137C143.175 136.229 142.634 130.081 138.609 126.803C136.45 125.043 133.489 124.34 130.738 124.904C130.322 124.989 129.916 124.719 129.831 124.301C129.747 123.882 130.015 123.474 130.431 123.388Z" stroke="#2873FF" mask="url(#path-4-outside-1_1256_26128)"/>
<path d="M142.573 166.165C142.678 165.751 142.429 165.33 142.018 165.224C141.607 165.119 141.188 165.369 141.084 165.783C140.619 167.62 139.903 169.277 138.996 170.804C138.778 171.17 138.896 171.645 139.26 171.864C139.625 172.084 140.096 171.965 140.314 171.598C141.292 169.953 142.069 168.157 142.573 166.165Z" stroke="#2873FF" mask="url(#path-4-outside-1_1256_26128)"/>
<path d="M138.815 154.941C139.237 154.991 139.538 155.375 139.488 155.8C138.762 161.972 137.124 167.478 134.495 172.253C134.289 172.626 133.822 172.761 133.45 172.554C133.079 172.347 132.945 171.876 133.151 171.503C135.667 166.933 137.255 161.628 137.962 155.618C138.012 155.194 138.394 154.891 138.815 154.941Z" stroke="#2873FF" mask="url(#path-4-outside-1_1256_26128)"/>
<path d="M138.657 133.407C138.124 130.541 135.681 128.35 132.715 128.35C128.699 128.35 125.881 132.425 126.874 136.216C128.554 142.907 128.83 149.357 127.693 155.568L127.692 155.573C126.705 161.15 124.809 166.167 122.224 170.419C122.002 170.783 122.116 171.259 122.478 171.482C122.84 171.705 123.313 171.591 123.535 171.226C126.226 166.801 128.186 161.601 129.205 155.847C130.386 149.395 130.093 142.72 128.363 135.833L128.361 135.824C127.616 132.989 129.692 129.897 132.715 129.897C134.897 129.897 136.739 131.512 137.145 133.686C138.264 140.216 138.846 146.271 138.432 151.485C138.398 151.911 138.713 152.284 139.136 152.318C139.559 152.352 139.93 152.034 139.964 151.608C140.394 146.204 139.787 140 138.659 133.417C138.658 133.414 138.658 133.41 138.657 133.407Z" stroke="#2873FF" mask="url(#path-4-outside-1_1256_26128)"/>
<path d="M130.422 166.904C130.8 167.1 130.949 167.566 130.755 167.946L128.719 171.934C128.525 172.314 128.061 172.464 127.684 172.268C127.306 172.073 127.158 171.607 127.352 171.227L129.388 167.239C129.582 166.859 130.045 166.709 130.422 166.904Z" stroke="#2873FF" mask="url(#path-4-outside-1_1256_26128)"/>
<path d="M133.287 134.152C133.19 133.736 132.776 133.479 132.363 133.576C131.95 133.674 131.694 134.09 131.791 134.506C134.382 145.609 134.026 155.358 130.87 163.663C130.718 164.062 130.917 164.509 131.313 164.662C131.709 164.814 132.153 164.615 132.305 164.216C135.596 155.556 135.931 145.48 133.287 134.152Z" stroke="#2873FF" mask="url(#path-4-outside-1_1256_26128)"/>
<g opacity="0.5">
<path d="M90 261.872V243.168L111.5 230.025" stroke="#2873FF" stroke-width="0.5" stroke-linecap="round"/>
<path d="M176 8.10602L176 26.8099L154.5 39.9531" stroke="#2873FF" stroke-width="0.5" stroke-linecap="round"/>
<path d="M175.5 261.872V243.168L154 230.025" stroke="#2873FF" stroke-width="0.5" stroke-linecap="round"/>
<path d="M90.5 8.10602L90.5 26.8099L112 39.9531" stroke="#2873FF" stroke-width="0.5" stroke-linecap="round"/>
<path d="M100.5 264.399V247.718L126.5 235.08" stroke="#2873FF" stroke-width="0.5" stroke-linecap="round"/>
<path d="M165.5 5.57839L165.5 22.2602L139.5 34.8979" stroke="#2873FF" stroke-width="0.5" stroke-linecap="round"/>
<path d="M165 264.399V247.718L139 235.08" stroke="#2873FF" stroke-width="0.5" stroke-linecap="round"/>
<path d="M101 5.57839L101 22.2602L127 34.898" stroke="#2873FF" stroke-width="0.5" stroke-linecap="round"/>
<path d="M73 212.837V243.168" stroke="#2873FF" stroke-width="0.5" stroke-linecap="round"/>
<path d="M193 57.1406L193 26.81" stroke="#2873FF" stroke-width="0.5" stroke-linecap="round"/>
<path d="M193 212.837V243.168" stroke="#2873FF" stroke-width="0.5" stroke-linecap="round"/>
<path d="M73 57.1406L73 26.81" stroke="#2873FF" stroke-width="0.5" stroke-linecap="round"/>
<path d="M81 257.322L81 230.025" stroke="#2873FF" stroke-width="0.5" stroke-linecap="round"/>
<path d="M185 12.6558L185 39.9533" stroke="#2873FF" stroke-width="0.5" stroke-linecap="round"/>
<path d="M185 257.322L185 230.025" stroke="#2873FF" stroke-width="0.5" stroke-linecap="round"/>
<path d="M81 12.6558L81 39.9533" stroke="#2873FF" stroke-width="0.5" stroke-linecap="round"/>
<path d="M114 267.433L114 261.367" stroke="#2873FF" stroke-width="0.5" stroke-linecap="round"/>
<path d="M152 2.54541L152 8.61153" stroke="#2873FF" stroke-width="0.5" stroke-linecap="round"/>
<path d="M152 267.433L152 261.367" stroke="#2873FF" stroke-width="0.5" stroke-linecap="round"/>
<path d="M114 2.54541L114 8.61153" stroke="#2873FF" stroke-width="0.5" stroke-linecap="round"/>
<path d="M133 268.444L133 256.311" stroke="#2873FF" stroke-width="0.5" stroke-linecap="round"/>
<path d="M133 1.53442L133 13.6667" stroke="#2873FF" stroke-width="0.5" stroke-linecap="round"/>
<path d="M50.5 236.091L64 222.442V200.705" stroke="#2873FF" stroke-width="0.5" stroke-linecap="round"/>
<path d="M215.5 33.887L202 47.5358L202 69.2727" stroke="#2873FF" stroke-width="0.5" stroke-linecap="round"/>
<path d="M215.5 236.091L202 222.442V200.705" stroke="#2873FF" stroke-width="0.5" stroke-linecap="round"/>
<path d="M50.5 33.887L64 47.5358L64 69.2727" stroke="#2873FF" stroke-width="0.5" stroke-linecap="round"/>
<path d="M41.5 230.025L55 216.376V194.134" stroke="#2873FF" stroke-width="0.5" stroke-linecap="round"/>
<path d="M224.5 39.9531L211 53.6018L211 75.8442" stroke="#2873FF" stroke-width="0.5" stroke-linecap="round"/>
<path d="M224.5 230.025L211 216.376V194.134" stroke="#2873FF" stroke-width="0.5" stroke-linecap="round"/>
<path d="M41.5 39.9531L55 53.6018L55 75.8442" stroke="#2873FF" stroke-width="0.5" stroke-linecap="round"/>
<path d="M49 181.496L34 196.661V218.904" stroke="#2873FF" stroke-width="0.5" stroke-linecap="round"/>
<path d="M217 88.4822L232 73.3169L232 51.0745" stroke="#2873FF" stroke-width="0.5" stroke-linecap="round"/>
<path d="M217 181.496L232 196.661V218.904" stroke="#2873FF" stroke-width="0.5" stroke-linecap="round"/>
<path d="M49 88.4822L34 73.3169L34 51.0745" stroke="#2873FF" stroke-width="0.5" stroke-linecap="round"/>
<path d="M21.75 156.726C21.75 158.545 20.2923 160.014 18.5 160.014C16.7077 160.014 15.25 158.545 15.25 156.726C15.25 154.907 16.7077 153.437 18.5 153.437C20.2923 153.437 21.75 154.907 21.75 156.726Z" stroke="#2873FF" stroke-width="0.5" stroke-linecap="round"/>
<path d="M244.25 113.252C244.25 111.433 245.708 109.963 247.5 109.963C249.292 109.963 250.75 111.433 250.75 113.252C250.75 115.071 249.292 116.541 247.5 116.541C245.708 116.541 244.25 115.071 244.25 113.252Z" stroke="#2873FF" stroke-width="0.5" stroke-linecap="round"/>
<path d="M244.25 156.726C244.25 158.545 245.708 160.014 247.5 160.014C249.292 160.014 250.75 158.545 250.75 156.726C250.75 154.907 249.292 153.437 247.5 153.437C245.708 153.437 244.25 154.907 244.25 156.726Z" stroke="#2873FF" stroke-width="0.5" stroke-linecap="round"/>
<path d="M21.75 113.252C21.75 111.433 20.2923 109.963 18.5 109.963C16.7077 109.963 15.25 111.433 15.25 113.252C15.25 115.071 16.7077 116.541 18.5 116.541C20.2923 116.541 21.75 115.071 21.75 113.252Z" stroke="#2873FF" stroke-width="0.5" stroke-linecap="round"/>
<path d="M75.75 245.19C75.75 246.73 74.5162 247.973 73 247.973C71.4838 247.973 70.25 246.73 70.25 245.19C70.25 243.65 71.4838 242.407 73 242.407C74.5162 242.407 75.75 243.65 75.75 245.19Z" stroke="#2873FF" stroke-width="0.5" stroke-linecap="round"/>
<path d="M190.25 24.7877C190.25 23.2481 191.484 22.0047 193 22.0047C194.516 22.0047 195.75 23.2481 195.75 24.7877C195.75 26.3274 194.516 27.5708 193 27.5708C191.484 27.5708 190.25 26.3274 190.25 24.7877Z" stroke="#2873FF" stroke-width="0.5" stroke-linecap="round"/>
<path d="M190.25 245.19C190.25 246.73 191.484 247.973 193 247.973C194.516 247.973 195.75 246.73 195.75 245.19C195.75 243.65 194.516 242.407 193 242.407C191.484 242.407 190.25 243.65 190.25 245.19Z" stroke="#2873FF" stroke-width="0.5" stroke-linecap="round"/>
<path d="M75.75 24.7877C75.75 23.2481 74.5162 22.0047 73 22.0047C71.4838 22.0047 70.25 23.2481 70.25 24.7877C70.25 26.3274 71.4838 27.5708 73 27.5708C74.5162 27.5708 75.75 26.3274 75.75 24.7877Z" stroke="#2873FF" stroke-width="0.5" stroke-linecap="round"/>
<path d="M78.25 226.992C78.25 225.452 79.4838 224.209 81 224.209C82.5162 224.209 83.75 225.452 83.75 226.992C83.75 228.531 82.5162 229.775 81 229.775C79.4838 229.775 78.25 228.531 78.25 226.992Z" stroke="#2873FF" stroke-width="0.5" stroke-linecap="round"/>
<path d="M187.75 42.9862C187.75 44.5258 186.516 45.7692 185 45.7692C183.484 45.7692 182.25 44.5258 182.25 42.9862C182.25 41.4466 183.484 40.2031 185 40.2031C186.516 40.2031 187.75 41.4466 187.75 42.9862Z" stroke="#2873FF" stroke-width="0.5" stroke-linecap="round"/>
<path d="M187.75 226.992C187.75 225.452 186.516 224.209 185 224.209C183.484 224.209 182.25 225.452 182.25 226.992C182.25 228.531 183.484 229.775 185 229.775C186.516 229.775 187.75 228.531 187.75 226.992Z" stroke="#2873FF" stroke-width="0.5" stroke-linecap="round"/>
<path d="M78.25 42.9862C78.25 44.5258 79.4838 45.7692 81 45.7692C82.5162 45.7692 83.75 44.5258 83.75 42.9862C83.75 41.4466 82.5162 40.2031 81 40.2031C79.4838 40.2031 78.25 41.4466 78.25 42.9862Z" stroke="#2873FF" stroke-width="0.5" stroke-linecap="round"/>
<path d="M111.25 258.333C111.25 256.794 112.484 255.55 114 255.55C115.516 255.55 116.75 256.794 116.75 258.333C116.75 259.873 115.516 261.116 114 261.116C112.484 261.116 111.25 259.873 111.25 258.333Z" stroke="#2873FF" stroke-width="0.5" stroke-linecap="round"/>
<path d="M154.75 11.6446C154.75 13.1843 153.516 14.4277 152 14.4277C150.484 14.4277 149.25 13.1843 149.25 11.6446C149.25 10.105 150.484 8.86157 152 8.86157C153.516 8.86157 154.75 10.105 154.75 11.6446Z" stroke="#2873FF" stroke-width="0.5" stroke-linecap="round"/>
<path d="M149.25 258.333C149.25 256.794 150.484 255.55 152 255.55C153.516 255.55 154.75 256.794 154.75 258.333C154.75 259.873 153.516 261.116 152 261.116C150.484 261.116 149.25 259.873 149.25 258.333Z" stroke="#2873FF" stroke-width="0.5" stroke-linecap="round"/>
<path d="M116.75 11.6446C116.75 13.1843 115.516 14.4277 114 14.4277C112.484 14.4277 111.25 13.1843 111.25 11.6446C111.25 10.105 112.484 8.86157 114 8.86157C115.516 8.86157 116.75 10.105 116.75 11.6446Z" stroke="#2873FF" stroke-width="0.5" stroke-linecap="round"/>
<path d="M130.25 253.278C130.25 251.739 131.484 250.495 133 250.495C134.516 250.495 135.75 251.739 135.75 253.278C135.75 254.818 134.516 256.061 133 256.061C131.484 256.061 130.25 254.818 130.25 253.278Z" stroke="#2873FF" stroke-width="0.5" stroke-linecap="round"/>
<path d="M135.75 16.6998C135.75 18.2394 134.516 19.4829 133 19.4829C131.484 19.4829 130.25 18.2394 130.25 16.6998C130.25 15.1602 131.484 13.9167 133 13.9167C134.516 13.9167 135.75 15.1602 135.75 16.6998Z" stroke="#2873FF" stroke-width="0.5" stroke-linecap="round"/>
<line x1="18.25" y1="160.514" x2="18.25" y2="193.378" stroke="#2873FF" stroke-width="0.5" stroke-linecap="round"/>
<line x1="247.75" y1="109.463" x2="247.75" y2="76.5997" stroke="#2873FF" stroke-width="0.5" stroke-linecap="round"/>
<line x1="0.25" y1="-0.25" x2="33.1136" y2="-0.25" transform="matrix(4.3235e-08 1 1 -4.41931e-08 248 160.264)" stroke="#2873FF" stroke-width="0.5" stroke-linecap="round"/>
<line x1="0.25" y1="-0.25" x2="33.1136" y2="-0.25" transform="matrix(4.32349e-08 -1 -1 -4.4193e-08 18 109.713)" stroke="#2873FF" stroke-width="0.5" stroke-linecap="round"/>
<path d="M265.75 134.989C265.75 209.117 206.313 269.205 133 269.205C59.6868 269.205 0.25 209.117 0.25 134.989C0.25 60.8612 59.6868 0.773438 133 0.773438C206.313 0.773438 265.75 60.8612 265.75 134.989Z" stroke="#2873FF" stroke-width="0.5" stroke-linecap="round"/>
<path d="M1 132.461H36" stroke="#2873FF" stroke-width="0.5" stroke-linecap="round"/>
<path d="M265.5 132.461H230.5" stroke="#2873FF" stroke-width="0.5" stroke-linecap="round"/>
<path d="M10.5 132.967L15.5 142.066H52.5" stroke="#2873FF" stroke-width="0.5" stroke-linecap="round"/>
<path d="M256 132.967L251 142.066H214" stroke="#2873FF" stroke-width="0.5" stroke-linecap="round"/>
<path d="M18.5 132.461L23.5 125.384H38" stroke="#2873FF" stroke-width="0.5" stroke-linecap="round"/>
<path d="M248 132.461L243 125.384H228.5" stroke="#2873FF" stroke-width="0.5" stroke-linecap="round"/>
</g>
</svg>
