<svg width="40" height="41" viewBox="0 0 40 41" fill="none" xmlns="http://www.w3.org/2000/svg">
<path d="M32.3352 6.86621H7.63794V29.328H32.3352V6.86621Z" fill="white"/>
<path fill-rule="evenodd" clip-rule="evenodd" d="M39.9868 20.0135C39.9868 31.052 31.0386 40.0002 20.0001 40.0002C8.96177 40.0002 0.0134277 31.052 0.0134277 20.0135C0.0134277 8.9752 8.96177 0.0268555 20.0001 0.0268555C31.0386 0.0268555 39.9868 8.9752 39.9868 20.0135ZM14.3365 27.9672H10.4576C9.64254 27.9672 9.23993 27.9672 8.99445 27.8102C8.7293 27.6383 8.56728 27.3535 8.54764 27.0392C8.5329 26.7497 8.73423 26.396 9.13683 25.689L18.7142 8.80756C19.1217 8.0907 19.3279 7.73227 19.5882 7.59971C19.868 7.45733 20.2019 7.45733 20.4818 7.59971C20.742 7.73227 20.9482 8.0907 21.3558 8.80756L23.3247 12.2445L23.3347 12.2621C23.7749 13.0311 23.9981 13.4211 24.0955 13.8304C24.2035 14.2772 24.2035 14.7486 24.0955 15.1954C23.9973 15.6078 23.7764 16.0006 23.3296 16.7813L18.2988 25.6743L18.2858 25.6971C17.8427 26.4724 17.6182 26.8654 17.307 27.1619C16.9682 27.4861 16.5607 27.7216 16.1139 27.8544C15.7063 27.9672 15.2497 27.9672 14.3365 27.9672ZM24.1319 27.9672H29.6898C30.5098 27.9672 30.9223 27.9672 31.1679 27.8054C31.433 27.6335 31.5999 27.3437 31.6148 27.0296C31.6289 26.7494 31.4319 26.4096 31.046 25.7436C31.0327 25.7209 31.0194 25.6979 31.0058 25.6744L28.2218 20.9118L28.1901 20.8581C27.7989 20.1966 27.6014 19.8625 27.3478 19.7334C27.0681 19.591 26.7389 19.591 26.4592 19.7334C26.2038 19.8659 25.9976 20.2145 25.5901 20.9167L22.816 25.6793L22.8065 25.6957C22.4004 26.3967 22.1974 26.747 22.2121 27.0344C22.2317 27.3487 22.3937 27.6383 22.6589 27.8102C22.8995 27.9672 23.3119 27.9672 24.1319 27.9672Z" fill="#E84142"/>
</svg>
