<svg width="40" height="40" viewBox="0 0 40 40" fill="none" xmlns="http://www.w3.org/2000/svg">
<circle cx="20" cy="20" r="20" fill="#EDF0F4"/>
<g clip-path="url(#clip0_1420_28654)">
<path fill-rule="evenodd" clip-rule="evenodd" d="M9.7 9C9.2 6.4 11.2 4 13.8 4C16.1 4 18 5.9 18 8.2V13.4C18.6 13.4 19.2 13.3 19.8 13.3C20.4 13.3 20.9 13.3 21.5 13.4V8.2C21.5 5.9 23.4 4 25.7 4C28.3 4 30.3 6.4 29.9 9L28.8 15.1C32.7 16.8 35.7 19.8 35.7 23.5V25.8C35.7 28.9 33.7 31.5 30.8 33.2C27.9 35 24.1 36 19.8 36C15.5 36 11.7 35 8.8 33.2C6 31.5 4 28.9 4 25.8V23.5C4 19.8 6.9 16.8 10.8 15.1L9.7 9ZM27.3 15.9L28.6 8.7C28.9 6.9 27.6 5.2 25.7 5.2C24.1 5.2 22.8 6.5 22.8 8.1V14.7C22.4 14.6 21.9 14.6 21.5 14.6C20.9 14.6 20.4 14.5 19.8 14.5C19.2 14.5 18.6 14.5 18 14.6C17.6 14.6 17.1 14.7 16.7 14.7V8.2C16.7 6.6 15.4 5.3 13.8 5.3C12 5.3 10.6 7 11 8.8L12.3 16C8.1 17.6 5.3 20.4 5.3 23.6V25.9C5.3 30.8 11.8 34.8 19.8 34.8C27.8 34.8 34.3 30.8 34.3 25.9V23.6C34.4 20.3 31.6 17.5 27.3 15.9Z" fill="#633001"/>
<path d="M34.4 25.8C34.4 30.7 27.9 34.7 19.9 34.7C11.9 34.7 5.40002 30.7 5.40002 25.8V23.5H34.5V25.8H34.4Z" fill="#FEDC90"/>
<path fill-rule="evenodd" clip-rule="evenodd" d="M11 8.7998C10.6 6.9998 12 5.2998 13.8 5.2998C15.4 5.2998 16.7 6.5998 16.7 8.1998V14.7998C17.7 14.6998 18.7 14.5998 19.8 14.5998C20.8 14.5998 21.8 14.6998 22.8 14.7998V8.1998C22.8 6.5998 24.1 5.2998 25.7 5.2998C27.5 5.2998 28.9 6.9998 28.6 8.7998L27.3 15.9998C31.5 17.5998 34.4 20.3998 34.4 23.5998C34.4 28.4998 27.9 32.4998 19.9 32.4998C11.9 32.4998 5.40002 28.4998 5.40002 23.5998C5.40002 20.3998 8.20002 17.5998 12.4 15.9998L11 8.7998Z" fill="#D1884F"/>
<path d="M15.8 22.9C15.8 24.2 15.1 25.3 14.2 25.3C13.3 25.3 12.6 24.2 12.6 22.9C12.6 21.6 13.3 20.5 14.2 20.5C15.1 20.5 15.8 21.6 15.8 22.9Z" fill="#633001"/>
<path d="M26.9 22.9C26.9 24.2 26.2 25.3 25.3 25.3C24.4 25.3 23.7 24.2 23.7 22.9C23.7 21.6 24.4 20.5 25.3 20.5C26.2 20.5 26.9 21.6 26.9 22.9Z" fill="#633001"/>
</g>
<defs>
<clipPath id="clip0_1420_28654">
<rect width="31.7" height="32" fill="white" transform="translate(4 4)"/>
</clipPath>
</defs>
</svg>
