<svg width="40" height="40" viewBox="0 0 40 40" fill="none" xmlns="http://www.w3.org/2000/svg">
<circle cx="20" cy="20" r="20" fill="#EDF0F4"/>
<g clip-path="url(#clip0_1364_28245)">
<path d="M17.6275 12.7646C17.353 12.7254 17.3399 12.7123 17.4706 12.6992C17.719 12.66 18.2941 12.7123 18.6994 12.8038C19.6405 13.026 20.4902 13.6012 21.3922 14.6077L21.6275 14.8822L21.9673 14.8299C23.4183 14.5946 24.9085 14.7776 26.1504 15.3528C26.4902 15.5097 27.0262 15.8234 27.0915 15.9018C27.1177 15.928 27.1569 16.0979 27.183 16.2678C27.2745 16.8822 27.2353 17.3397 27.0392 17.6927C26.9347 17.8888 26.9347 17.941 27 18.111C27.0523 18.2417 27.2092 18.3332 27.353 18.3332C27.6667 18.3332 27.9935 17.8365 28.1504 17.1437L28.2157 16.8691L28.3334 16.9999C29 17.745 29.5229 18.7776 29.6013 19.5097L29.6275 19.7057L29.5098 19.5358C29.3137 19.2352 29.1307 19.0391 28.8824 18.8691C28.4379 18.5685 27.9673 18.477 26.7255 18.4116C25.6013 18.3463 24.9608 18.2548 24.3334 18.0456C23.2615 17.6927 22.7124 17.2352 21.4445 15.5489C20.8824 14.8038 20.5294 14.3986 20.1765 14.0587C19.4053 13.3136 18.634 12.9214 17.6275 12.7646Z" fill="#FF007A"/>
<path d="M27.366 14.425C27.3921 13.9283 27.4575 13.6015 27.6013 13.3008C27.6536 13.1832 27.7059 13.0786 27.7189 13.0786C27.732 13.0786 27.7059 13.1701 27.6666 13.2747C27.5621 13.5623 27.549 13.9675 27.6144 14.425C27.7059 15.0133 27.7451 15.0917 28.3725 15.7322C28.6601 16.0329 29 16.4119 29.1307 16.5688L29.3529 16.8564L29.1307 16.6472C28.8562 16.3858 28.2287 15.8891 28.0849 15.8237C27.9934 15.7714 27.9804 15.7714 27.915 15.8368C27.8627 15.8891 27.8497 15.9675 27.8497 16.3466C27.8366 16.9348 27.7581 17.3008 27.5621 17.6799C27.4575 17.876 27.4444 17.8368 27.5359 17.6146C27.6013 17.4446 27.6144 17.3662 27.6144 16.8041C27.6144 15.6668 27.4836 15.3923 26.6863 14.9348C26.4902 14.8172 26.1503 14.6472 25.9542 14.5557C25.7451 14.4642 25.5882 14.3858 25.6013 14.3858C25.6274 14.3597 26.3987 14.5819 26.6993 14.7126C27.1568 14.8956 27.2353 14.9087 27.2876 14.8956C27.3268 14.8564 27.3529 14.7518 27.366 14.425Z" fill="#FF007A"/>
<path d="M18.1634 16.3726C17.6144 15.6144 17.2614 14.4379 17.3399 13.5621L17.366 13.2876L17.4967 13.3137C17.732 13.353 18.1372 13.5098 18.3333 13.6275C18.8562 13.9412 19.0915 14.3726 19.3137 15.4445C19.3791 15.7582 19.4706 16.1242 19.5098 16.2418C19.5752 16.4379 19.8235 16.8954 20.0327 17.183C20.1765 17.3922 20.085 17.4967 19.7582 17.4706C19.2614 17.4183 18.5948 16.9608 18.1634 16.3726Z" fill="#FF007A"/>
<path d="M26.6994 22.0586C24.1111 21.0129 23.1961 20.1109 23.1961 18.5815C23.1961 18.3593 23.2092 18.1763 23.2092 18.1763C23.2222 18.1763 23.3138 18.2547 23.4314 18.3462C23.9543 18.7645 24.5425 18.9475 26.1765 19.1828C27.1307 19.3266 27.6798 19.4312 28.1765 19.6011C29.7582 20.124 30.7386 21.1959 30.9739 22.6469C31.0392 23.0652 31 23.8625 30.8955 24.2808C30.8039 24.6076 30.5425 25.2089 30.4772 25.222C30.4641 25.222 30.4379 25.1567 30.4379 25.0521C30.4118 24.5031 30.1373 23.9802 29.6798 23.575C29.1307 23.1044 28.4249 22.7514 26.6994 22.0586Z" fill="#FF007A"/>
<path d="M24.8693 22.4902C24.8431 22.2941 24.7778 22.0458 24.7385 21.9412L24.6732 21.7451L24.7908 21.8889C24.9608 22.085 25.0915 22.3203 25.2091 22.6471C25.3006 22.8954 25.3006 22.9739 25.3006 23.3791C25.3006 23.7713 25.2876 23.8628 25.2091 24.085C25.0784 24.4379 24.9215 24.6863 24.6601 24.9608C24.1895 25.4445 23.5751 25.7059 22.6993 25.8235C22.5425 25.8366 22.098 25.8758 21.7059 25.902C20.7255 25.9543 20.0719 26.0588 19.4836 26.268C19.4052 26.2941 19.3268 26.3203 19.3137 26.3072C19.2876 26.2811 19.6928 26.0458 20.0196 25.8889C20.4771 25.6667 20.9477 25.549 21.9804 25.366C22.4902 25.2876 23.013 25.183 23.1438 25.1307C24.4379 24.7255 25.0784 23.719 24.8693 22.4902Z" fill="#FF007A"/>
<path d="M26.0589 24.5946C25.719 23.8495 25.6405 23.1436 25.8236 22.4769C25.8497 22.4116 25.8758 22.3462 25.902 22.3462C25.9281 22.3462 26.0066 22.3854 26.085 22.4377C26.2419 22.5423 26.5687 22.7253 27.4053 23.1828C28.4641 23.758 29.0654 24.2024 29.4837 24.7122C29.8497 25.1566 30.0719 25.6665 30.1765 26.2939C30.2419 26.6468 30.2026 27.4965 30.1111 27.8495C29.8236 28.9606 29.17 29.8495 28.2157 30.3593C28.0719 30.4377 27.9543 30.49 27.9412 30.49C27.9281 30.49 27.9804 30.3593 28.0589 30.2024C28.3726 29.5357 28.4118 28.8952 28.1765 28.1763C28.0327 27.7318 27.7321 27.1959 27.1307 26.2939C26.4118 25.2482 26.2419 24.9736 26.0589 24.5946Z" fill="#FF007A"/>
<path d="M16.3203 28.5949C17.2876 27.7844 18.4771 27.2093 19.5752 27.0263C20.0458 26.9478 20.8301 26.974 21.2615 27.0916C21.9543 27.2746 22.5817 27.6668 22.9085 28.1505C23.2222 28.621 23.366 29.0263 23.5098 29.9282C23.5621 30.2812 23.6275 30.6472 23.6405 30.7256C23.7451 31.1962 23.9543 31.5622 24.2157 31.7583C24.6209 32.059 25.3268 32.072 26.0196 31.8106C26.1373 31.7714 26.2419 31.7322 26.2419 31.7452C26.268 31.7714 25.9151 32.0067 25.6798 32.1243C25.353 32.2943 25.0915 32.3465 24.7386 32.3465C24.1111 32.3465 23.5752 32.0197 23.1438 31.3661C23.0523 31.2354 22.8693 30.8563 22.7124 30.5034C22.2549 29.4446 22.0196 29.1309 21.4837 28.7779C21.0131 28.4773 20.4118 28.4119 19.9543 28.6341C19.353 28.9217 19.1961 29.6929 19.6144 30.1635C19.7843 30.3596 20.0981 30.5165 20.3595 30.5557C20.8432 30.621 21.2615 30.242 21.2615 29.7583C21.2615 29.4446 21.1438 29.2616 20.8301 29.1178C20.4118 28.9348 19.9543 29.1439 19.9673 29.5492C19.9673 29.7191 20.0458 29.8237 20.2157 29.9021C20.3203 29.9544 20.3203 29.9544 20.2419 29.9413C19.8628 29.8629 19.7713 29.3923 20.0719 29.0916C20.4379 28.7256 21.2092 28.8825 21.4706 29.3923C21.5752 29.6014 21.5883 30.0197 21.4968 30.2812C21.2745 30.8563 20.6471 31.157 20.0066 30.9871C19.5752 30.8694 19.3922 30.7518 18.8693 30.2158C17.9543 29.2746 17.6013 29.0916 16.2941 28.8956L16.0458 28.8563L16.3203 28.5949Z" fill="#FF007A"/>
<path fill-rule="evenodd" clip-rule="evenodd" d="M9.44448 7.56209C12.4902 11.2614 17.183 17.0131 17.4183 17.3268C17.6144 17.5882 17.536 17.8366 17.2092 18.0196C17.0262 18.1242 16.6471 18.2288 16.4641 18.2288C16.2549 18.2288 16.0066 18.1242 15.8366 17.9542C15.719 17.8366 15.2092 17.0915 14.0589 15.3007C13.183 13.9281 12.4379 12.7908 12.4249 12.7778C12.3726 12.7516 12.3726 12.7516 13.9674 15.6013C14.9739 17.3922 15.3007 18.0327 15.3007 18.1111C15.3007 18.281 15.2484 18.3725 15.0392 18.6078C14.6863 19 14.5294 19.4444 14.4118 20.3725C14.2811 21.4052 13.9281 22.1373 12.9216 23.3791C12.3334 24.1111 12.2419 24.2418 12.0981 24.5425C11.9151 24.9085 11.8628 25.1176 11.8366 25.5882C11.8105 26.085 11.8628 26.3987 12.0066 26.8693C12.1373 27.2876 12.2811 27.5621 12.634 28.098C12.9347 28.5686 13.1177 28.9216 13.1177 29.0523C13.1177 29.1569 13.1438 29.1569 13.6144 29.0523C14.7386 28.7908 15.6667 28.3464 16.1765 27.7974C16.4902 27.4575 16.5687 27.2745 16.5687 26.8039C16.5687 26.5033 16.5556 26.4379 16.4772 26.2549C16.3464 25.9673 16.0981 25.732 15.5621 25.366C14.8562 24.8824 14.5556 24.4902 14.4772 23.9673C14.4118 23.5229 14.4902 23.2222 14.8824 22.3987C15.2876 21.549 15.3922 21.1961 15.4575 20.3333C15.4968 19.7843 15.5621 19.5621 15.719 19.3922C15.8889 19.2092 16.0327 19.1438 16.4379 19.0915C17.1046 19 17.536 18.8301 17.8758 18.5033C18.1765 18.2288 18.3072 17.9542 18.3203 17.549L18.3334 17.2484L18.1634 17.0654C17.5491 16.3595 9.03925 7 9.00003 7C8.98696 7 9.19611 7.24837 9.44448 7.56209ZM13.4575 26.1503C13.6013 25.902 13.5229 25.5882 13.2876 25.4314C13.0654 25.2876 12.7255 25.3529 12.7255 25.549C12.7255 25.6013 12.7517 25.6536 12.8301 25.6797C12.9477 25.7451 12.9608 25.8105 12.8693 25.9542C12.7778 26.098 12.7778 26.2288 12.8955 26.3203C13.0785 26.4641 13.3268 26.3856 13.4575 26.1503Z" fill="#FF007A"/>
<path fill-rule="evenodd" clip-rule="evenodd" d="M18.7516 19.2746C18.4379 19.3661 18.1373 19.706 18.0458 20.0459C17.9935 20.255 18.0196 20.6341 18.1111 20.7518C18.2549 20.9348 18.3856 20.987 18.7516 20.987C19.4706 20.987 20.085 20.6733 20.1503 20.2942C20.2157 19.9805 19.9412 19.5491 19.5621 19.3531C19.366 19.2485 18.9608 19.2093 18.7516 19.2746ZM19.5882 19.9282C19.6928 19.7714 19.6536 19.6014 19.4575 19.4838C19.1046 19.2616 18.5686 19.4446 18.5686 19.7844C18.5686 19.9544 18.8431 20.1374 19.1046 20.1374C19.2745 20.1374 19.5098 20.0328 19.5882 19.9282Z" fill="#FF007A"/>
</g>
<defs>
<clipPath id="clip0_1364_28245">
<rect width="22" height="25.3333" fill="white" transform="translate(9 7)"/>
</clipPath>
</defs>
</svg>
