<svg width="40" height="40" viewBox="0 0 40 40" fill="none" xmlns="http://www.w3.org/2000/svg">
<path d="M39.4016 24.8381C36.7301 35.5525 25.877 42.0731 15.1601 39.4012C4.44772 36.7301 -2.07358 25.8775 0.599038 15.1639C3.26931 4.44838 14.1225 -2.07268 24.836 0.598468C35.5521 3.26961 42.073 14.1234 39.4013 24.8383L39.4015 24.8381H39.4016Z" fill="#23292F"/>
<path d="M29.8374 8.3335H33.8738L25.4737 16.6498C22.4316 19.6598 17.4996 19.6598 14.4553 16.6498L6.05194 8.3335H10.0916L16.4735 14.6509C18.4083 16.5576 21.5158 16.5576 23.4506 14.6509L29.8374 8.3335Z" fill="white"/>
<path d="M10.0398 31.4581H6.00067L14.4553 23.0906C17.4974 20.0805 22.4295 20.0805 25.4737 23.0906L33.9284 31.4581H29.8919L23.4555 25.0895C21.5207 23.1828 18.4133 23.1828 16.4785 25.0895L10.0398 31.4581Z" fill="white"/>
</svg>
