<svg width="40" height="41" viewBox="0 0 40 41" fill="none" xmlns="http://www.w3.org/2000/svg">
<path d="M20 0.0263672C31.0467 0.0263672 40 8.98146 40 20.0264C40 31.0731 31.0467 40.0264 20 40.0264C8.95509 40.0264 0 31.0722 0 20.0264C0 8.98146 8.95509 0.0263672 20 0.0263672Z" fill="#F5AC37"/>
<path d="M20.7371 21.4386H28.3368C28.4988 21.4386 28.5753 21.4386 28.587 21.2262C28.6491 20.4531 28.6491 19.6755 28.587 18.9015C28.587 18.7512 28.5123 18.6891 28.3493 18.6891H13.2247C13.0375 18.6891 12.9871 18.7512 12.9871 18.9267V21.1515C12.9871 21.4386 12.9871 21.4386 13.2868 21.4386H20.7371ZM27.7382 16.089C27.7598 16.0323 27.7598 15.9702 27.7382 15.9144C27.6113 15.6381 27.461 15.3744 27.2864 15.1269C27.0236 14.7039 26.714 14.3142 26.3612 13.9641C26.1947 13.7526 26.0021 13.5627 25.7861 13.4016C24.7043 12.4809 23.4182 11.8292 22.0358 11.5016C21.3383 11.345 20.6255 11.2703 19.9109 11.2766H13.1986C13.0114 11.2766 12.9862 11.3513 12.9862 11.5142V15.9513C12.9862 16.1385 12.9862 16.1889 13.2238 16.1889H27.6482C27.6482 16.1889 27.7733 16.1637 27.7985 16.089H27.7373H27.7382ZM27.7382 24.0388C27.5258 24.0154 27.3116 24.0154 27.0992 24.0388H13.2373C13.0501 24.0388 12.9871 24.0388 12.9871 24.289V28.627C12.9871 28.8268 12.9871 28.8772 13.2373 28.8772H19.6373C19.9433 28.9006 20.2493 28.879 20.549 28.8151C21.4778 28.7485 22.3913 28.5469 23.2625 28.2148C23.5793 28.105 23.8853 27.9619 24.1742 27.79H24.2615C25.7618 27.0097 26.9804 25.7839 27.749 24.2791C27.749 24.2791 27.8363 24.0901 27.7382 24.0406V24.0388ZM10.4752 31.1263V31.0516V28.1392V27.1519V24.2143C10.4752 24.0514 10.4752 24.0271 10.2754 24.0271H7.56274C7.41244 24.0271 7.35034 24.0271 7.35034 23.8273V21.4521H10.2502C10.4122 21.4521 10.4752 21.4521 10.4752 21.2397V18.8898C10.4752 18.7395 10.4752 18.7026 10.2754 18.7026H7.56274C7.41244 18.7026 7.35034 18.7026 7.35034 18.5028V16.3032C7.35034 16.1655 7.35034 16.1286 7.55014 16.1286H10.2376C10.4248 16.1286 10.4752 16.1286 10.4752 15.891V9.15352C10.4752 8.95372 10.4752 8.90332 10.7254 8.90332H20.0999C20.7803 8.93032 21.4562 9.00502 22.1249 9.12832C23.5028 9.38303 24.8267 9.87533 26.0372 10.5782C26.84 11.0507 27.5789 11.6213 28.2368 12.2784C28.7319 12.7923 29.1783 13.3485 29.5743 13.9407C29.9676 14.541 30.2943 15.1827 30.5508 15.8532C30.5823 16.0278 30.7497 16.1457 30.9243 16.116H33.1617C33.4488 16.116 33.4488 16.116 33.4614 16.3914V18.4416C33.4614 18.6414 33.3867 18.6918 33.186 18.6918H31.4607C31.2861 18.6918 31.2357 18.6918 31.2483 18.9168C31.3167 19.6782 31.3167 20.4423 31.2483 21.2037C31.2483 21.4161 31.2483 21.4413 31.4868 21.4413H33.4605C33.5478 21.5538 33.4605 21.6663 33.4605 21.7797C33.4731 21.9247 33.4731 22.0714 33.4605 22.2163V23.7292C33.4605 23.9416 33.3984 24.0046 33.2103 24.0046H30.8478C30.6831 23.9731 30.5229 24.0784 30.4851 24.2422C29.9226 25.7047 29.0226 27.016 27.8597 28.0672C27.4349 28.4497 26.9885 28.8097 26.5223 29.1418C26.0219 29.4298 25.535 29.7295 25.022 29.9671C24.0779 30.3919 23.0879 30.7051 22.0718 30.904C21.107 31.0768 20.1287 31.1551 19.1468 31.1416H10.4716V31.129L10.4752 31.1263Z" fill="#FEFEFD"/>
</svg>
