<svg width="30" height="37" viewBox="0 0 30 37" fill="none" xmlns="http://www.w3.org/2000/svg">
<path d="M12.5567 32.6079L12.3651 35.3459L12.5567 32.6079Z" fill="#656565"/>
<path d="M10.1613 34.4021L12.5806 32.4194L15 36.2904L10.1613 34.4021Z" fill="#656565"/>
<path d="M10.1613 28.5483V34.402L12.5806 32.4193L10.1613 28.5483Z" fill="#787778"/>
<path d="M17.4193 32.4194L14.9999 36.2904L19.8386 34.4021L17.4193 32.4194Z" fill="#5C5C5C"/>
<path d="M19.8387 34.402L17.4193 32.4193L19.8387 28.5483V34.402Z" fill="#787778"/>
<path d="M10.1613 28.5483H19.8387L15 36.2903L10.1613 28.5483Z" fill="#4A4A4A"/>
<path d="M10.8128 9.79443L21.1386 14.104L13.7352 20.0785L10.8128 9.79443Z" fill="#FED12F"/>
<path d="M18.6058 2.54639L24.4506 8.61889L21.1386 14.1037L18.6058 2.54639Z" fill="#FED12F"/>
<path d="M9.83868 28.3056L20.5541 25.1714L19.58 28.3056H9.83868Z" fill="#FED12F"/>
<path d="M8.86456 25.1717L13.7352 20.0786L9.83869 28.3059L8.86456 25.1717Z" fill="#FED12F"/>
<path d="M4.96808 8.61889L10.8129 2.54639V9.79422L4.96808 8.61889Z" fill="#FED12F"/>
<path d="M13.7352 20.0786L20.5541 25.1716L21.1386 14.104L13.7352 20.0786Z" fill="#FFF3CB"/>
<path d="M13.7352 20.0785L4.38359 18.4135L8.86459 25.1716L13.7352 20.0785Z" fill="#FFF3CB"/>
<path d="M10.8128 9.79443L18.6058 2.5466L21.1386 14.104L10.8128 9.79443Z" fill="#FFDD63"/>
<path d="M4.38355 18.4134L10.8128 9.79435L13.7352 20.0784L4.38355 18.4134Z" fill="#FFEDAC"/>
<path d="M9.8387 28.3057L13.7352 20.0784L20.5541 25.1715L9.8387 28.3057Z" fill="#FFDD63"/>
<path d="M20.5541 25.1714L21.1386 14.1038L25.0351 18.4133L20.5541 25.1714Z" fill="#FFDD63"/>
<path d="M4.38357 18.4134L4.96805 8.61902L10.8128 9.79435L4.38357 18.4134Z" fill="#FFDD63"/>
<path d="M21.1386 14.1042L24.4506 8.61934L25.0351 18.4137L21.1386 14.1042Z" fill="#FEE382"/>
<path d="M18.6059 2.54653L10.8128 9.79436L10.8128 2.54653L18.6059 2.54653Z" fill="#FEF1C0"/>
</svg>
