<svg width="667" height="235" viewBox="0 0 667 235" fill="none" xmlns="http://www.w3.org/2000/svg">
<g filter="url(#filter0_d_670_10657)">
<path d="M93.3528 17.6C80.5527 19.6 57.6528 25.3 45.3528 29.6C34.8528 33.2 17.6528 40.3 16.5528 41.5C15.3528 42.7 16.2528 68.6 17.8528 79.2C24.2528 121.7 44.5528 161.6 74.2528 190.3C82.9528 198.7 98.5528 211 100.553 211C103.053 211 123.8 194.5 125 191.5C125 191.5 120.5 188.5 116 185C83.4 163.1 59.7528 120.3 53.0528 82C50.0528 65.1 50.0528 64.2 53.1528 62.6C57.1528 60.5 79.4528 53.1 82.7528 52.8C85.5528 52.5 85.6528 52.6 87.3528 61C93.1528 89.5 109.253 121.1 131.153 147C139.653 157.1 148.053 165.7 148.753 164.9C148.953 164.7 151.553 160.7 154.653 156C173.253 127.1 183.153 94.6 185.053 55.6L185.653 42L177.253 38.1C172.653 35.9 164.953 32.8 160.153 31.1L151.353 27.5V40.4C151.353 61.5 148.153 85.4 143.553 99L141.653 104.4L137.853 97.5C132.353 87.8 126.953 74.8 123.953 64.4C121.353 55.5 117.853 35.2 116.753 22.7L116.153 16L109.553 16.1C105.853 16.2 98.5527 16.8 93.3528 17.6Z" fill="url(#paint0_linear_670_10657)"/>
</g>
<g filter="url(#filter1_d_670_10657)">
<path d="M303.523 66.9091V160H284.432L247.386 106.273H246.795V160H224.295V66.9091H243.659L280.295 120.545H281.068V66.9091H303.523ZM337.352 161.182C332.898 161.182 328.943 160.439 325.489 158.955C322.064 157.439 319.352 155.167 317.352 152.136C315.383 149.076 314.398 145.242 314.398 140.636C314.398 136.758 315.08 133.485 316.443 130.818C317.807 128.152 319.686 125.985 322.08 124.318C324.473 122.652 327.231 121.394 330.352 120.545C333.473 119.667 336.807 119.076 340.352 118.773C344.322 118.409 347.519 118.03 349.943 117.636C352.367 117.212 354.125 116.621 355.216 115.864C356.337 115.076 356.898 113.97 356.898 112.545V112.318C356.898 109.985 356.095 108.182 354.489 106.909C352.883 105.636 350.716 105 347.989 105C345.049 105 342.686 105.636 340.898 106.909C339.11 108.182 337.973 109.939 337.489 112.182L316.989 111.455C317.595 107.212 319.155 103.424 321.67 100.091C324.216 96.7273 327.701 94.0909 332.125 92.1818C336.58 90.2424 341.928 89.2727 348.17 89.2727C352.625 89.2727 356.731 89.803 360.489 90.8636C364.246 91.8939 367.519 93.4091 370.307 95.4091C373.095 97.3788 375.246 99.803 376.761 102.682C378.307 105.561 379.08 108.848 379.08 112.545V160H358.17V150.273H357.625C356.383 152.636 354.792 154.636 352.852 156.273C350.943 157.909 348.686 159.136 346.08 159.955C343.504 160.773 340.595 161.182 337.352 161.182ZM344.216 146.636C346.61 146.636 348.761 146.152 350.67 145.182C352.61 144.212 354.155 142.879 355.307 141.182C356.458 139.455 357.034 137.455 357.034 135.182V128.545C356.398 128.879 355.625 129.182 354.716 129.455C353.837 129.727 352.867 129.985 351.807 130.227C350.746 130.47 349.655 130.682 348.534 130.864C347.413 131.045 346.337 131.212 345.307 131.364C343.216 131.697 341.428 132.212 339.943 132.909C338.489 133.606 337.367 134.515 336.58 135.636C335.822 136.727 335.443 138.03 335.443 139.545C335.443 141.848 336.261 143.606 337.898 144.818C339.564 146.03 341.67 146.636 344.216 146.636ZM457.898 90.1818L433.943 160H408.489L384.58 90.1818H407.989L420.852 138.273H421.58L434.489 90.1818H457.898ZM484.227 161.182C479.773 161.182 475.818 160.439 472.364 158.955C468.939 157.439 466.227 155.167 464.227 152.136C462.258 149.076 461.273 145.242 461.273 140.636C461.273 136.758 461.955 133.485 463.318 130.818C464.682 128.152 466.561 125.985 468.955 124.318C471.348 122.652 474.106 121.394 477.227 120.545C480.348 119.667 483.682 119.076 487.227 118.773C491.197 118.409 494.394 118.03 496.818 117.636C499.242 117.212 501 116.621 502.091 115.864C503.212 115.076 503.773 113.97 503.773 112.545V112.318C503.773 109.985 502.97 108.182 501.364 106.909C499.758 105.636 497.591 105 494.864 105C491.924 105 489.561 105.636 487.773 106.909C485.985 108.182 484.848 109.939 484.364 112.182L463.864 111.455C464.47 107.212 466.03 103.424 468.545 100.091C471.091 96.7273 474.576 94.0909 479 92.1818C483.455 90.2424 488.803 89.2727 495.045 89.2727C499.5 89.2727 503.606 89.803 507.364 90.8636C511.121 91.8939 514.394 93.4091 517.182 95.4091C519.97 97.3788 522.121 99.803 523.636 102.682C525.182 105.561 525.955 108.848 525.955 112.545V160H505.045V150.273H504.5C503.258 152.636 501.667 154.636 499.727 156.273C497.818 157.909 495.561 159.136 492.955 159.955C490.379 160.773 487.47 161.182 484.227 161.182ZM491.091 146.636C493.485 146.636 495.636 146.152 497.545 145.182C499.485 144.212 501.03 142.879 502.182 141.182C503.333 139.455 503.909 137.455 503.909 135.182V128.545C503.273 128.879 502.5 129.182 501.591 129.455C500.712 129.727 499.742 129.985 498.682 130.227C497.621 130.47 496.53 130.682 495.409 130.864C494.288 131.045 493.212 131.212 492.182 131.364C490.091 131.697 488.303 132.212 486.818 132.909C485.364 133.606 484.242 134.515 483.455 135.636C482.697 136.727 482.318 138.03 482.318 139.545C482.318 141.848 483.136 143.606 484.773 144.818C486.439 146.03 488.545 146.636 491.091 146.636ZM539.545 160V90.1818H561.136V102.909H561.864C563.136 98.303 565.212 94.8788 568.091 92.6364C570.97 90.3636 574.318 89.2273 578.136 89.2273C579.167 89.2273 580.227 89.303 581.318 89.4545C582.409 89.5758 583.424 89.7727 584.364 90.0455V109.364C583.303 109 581.909 108.712 580.182 108.5C578.485 108.288 576.97 108.182 575.636 108.182C573 108.182 570.621 108.773 568.5 109.955C566.409 111.106 564.758 112.727 563.545 114.818C562.364 116.879 561.773 119.303 561.773 122.091V160H539.545ZM610.477 161.182C606.023 161.182 602.068 160.439 598.614 158.955C595.189 157.439 592.477 155.167 590.477 152.136C588.508 149.076 587.523 145.242 587.523 140.636C587.523 136.758 588.205 133.485 589.568 130.818C590.932 128.152 592.811 125.985 595.205 124.318C597.598 122.652 600.356 121.394 603.477 120.545C606.598 119.667 609.932 119.076 613.477 118.773C617.447 118.409 620.644 118.03 623.068 117.636C625.492 117.212 627.25 116.621 628.341 115.864C629.462 115.076 630.023 113.97 630.023 112.545V112.318C630.023 109.985 629.22 108.182 627.614 106.909C626.008 105.636 623.841 105 621.114 105C618.174 105 615.811 105.636 614.023 106.909C612.235 108.182 611.098 109.939 610.614 112.182L590.114 111.455C590.72 107.212 592.28 103.424 594.795 100.091C597.341 96.7273 600.826 94.0909 605.25 92.1818C609.705 90.2424 615.053 89.2727 621.295 89.2727C625.75 89.2727 629.856 89.803 633.614 90.8636C637.371 91.8939 640.644 93.4091 643.432 95.4091C646.22 97.3788 648.371 99.803 649.886 102.682C651.432 105.561 652.205 108.848 652.205 112.545V160H631.295V150.273H630.75C629.508 152.636 627.917 154.636 625.977 156.273C624.068 157.909 621.811 159.136 619.205 159.955C616.629 160.773 613.72 161.182 610.477 161.182ZM617.341 146.636C619.735 146.636 621.886 146.152 623.795 145.182C625.735 144.212 627.28 142.879 628.432 141.182C629.583 139.455 630.159 137.455 630.159 135.182V128.545C629.523 128.879 628.75 129.182 627.841 129.455C626.962 129.727 625.992 129.985 624.932 130.227C623.871 130.47 622.78 130.682 621.659 130.864C620.538 131.045 619.462 131.212 618.432 131.364C616.341 131.697 614.553 132.212 613.068 132.909C611.614 133.606 610.492 134.515 609.705 135.636C608.947 136.727 608.568 138.03 608.568 139.545C608.568 141.848 609.386 143.606 611.023 144.818C612.689 146.03 614.795 146.636 617.341 146.636Z" fill="url(#paint1_linear_670_10657)" shape-rendering="crispEdges"/>
</g>
<defs>
<filter id="filter0_d_670_10657" x="0" y="0" width="209.653" height="235" filterUnits="userSpaceOnUse" color-interpolation-filters="sRGB">
<feFlood flood-opacity="0" result="BackgroundImageFix"/>
<feColorMatrix in="SourceAlpha" type="matrix" values="0 0 0 0 0 0 0 0 0 0 0 0 0 0 0 0 0 0 127 0" result="hardAlpha"/>
<feOffset dx="4" dy="4"/>
<feGaussianBlur stdDeviation="10"/>
<feComposite in2="hardAlpha" operator="out"/>
<feColorMatrix type="matrix" values="0 0 0 0 0 0 0 0 0 0 0 0 0 0 0 0 0 0 0.2 0"/>
<feBlend mode="normal" in2="BackgroundImageFix" result="effect1_dropShadow_670_10657"/>
<feBlend mode="normal" in="SourceGraphic" in2="effect1_dropShadow_670_10657" result="shape"/>
</filter>
<filter id="filter1_d_670_10657" x="218.295" y="60.9091" width="447.909" height="114.273" filterUnits="userSpaceOnUse" color-interpolation-filters="sRGB">
<feFlood flood-opacity="0" result="BackgroundImageFix"/>
<feColorMatrix in="SourceAlpha" type="matrix" values="0 0 0 0 0 0 0 0 0 0 0 0 0 0 0 0 0 0 127 0" result="hardAlpha"/>
<feOffset dx="4" dy="4"/>
<feGaussianBlur stdDeviation="5"/>
<feComposite in2="hardAlpha" operator="out"/>
<feColorMatrix type="matrix" values="0 0 0 0 0 0 0 0 0 0 0 0 0 0 0 0 0 0 0.1 0"/>
<feBlend mode="normal" in2="BackgroundImageFix" result="effect1_dropShadow_670_10657"/>
<feBlend mode="normal" in="SourceGraphic" in2="effect1_dropShadow_670_10657" result="shape"/>
</filter>
<linearGradient id="paint0_linear_670_10657" x1="-93.5" y1="-4" x2="271.5" y2="99.5" gradientUnits="userSpaceOnUse">
<stop offset="0.0083687" stop-color="#020024"/>
<stop offset="0.267209" stop-color="#00D4FF"/>
<stop offset="0.610175" stop-color="#2A5ADA"/>
<stop offset="1" stop-color="#2A5ADA"/>
</linearGradient>
<linearGradient id="paint1_linear_670_10657" x1="276" y1="133.5" x2="104" y2="12" gradientUnits="userSpaceOnUse">
<stop stop-color="#10192D"/>
<stop offset="1" stop-color="#10192D" stop-opacity="0"/>
</linearGradient>
</defs>
</svg>
