<svg width="672" height="174" viewBox="0 0 672 174" fill="none" xmlns="http://www.w3.org/2000/svg">
<g clip-path="url(#clip0_2330_32098)">
<path d="M17.2128 110.255C21.3461 118.645 26.1591 126.633 31.6243 134.186C35.4246 131.007 39.0979 127.643 42.6372 124.103C45.7234 121.017 48.6723 117.831 51.4839 114.546C62.6959 101.477 71.752 86.849 78.4841 70.9304C84.1656 57.4972 88.0208 43.5251 90.0222 29.1789C98.862 30.3461 107.441 32.344 115.683 35.0938C115.69 35.4817 115.69 35.8731 115.69 36.261C115.69 76.3682 98.7179 112.589 71.577 138.106C64.8209 144.464 57.4332 150.153 49.5237 155.075C56.3896 161.886 63.7533 168.038 71.577 173.5C79.4007 168.038 86.7643 161.886 93.6302 155.075C93.8053 154.907 93.9804 154.732 94.1555 154.557C109.514 139.198 121.574 121.305 130.002 101.384C137.277 84.1884 141.561 66.1036 142.783 47.4868C143.03 43.7654 143.154 40.0235 143.154 36.261C143.154 29.4329 142.749 22.6665 141.942 15.9792C140.212 15.1759 138.465 14.4 136.7 13.6551C128.739 10.2873 120.586 7.56158 112.275 5.48464C105.477 3.77847 98.5771 2.50828 91.5876 1.68094C84.9895 0.894794 78.3124 0.500006 71.577 0.500006C69.0675 0.500006 66.5683 0.554934 64.076 0.664788C64.1412 2.37096 64.1721 4.084 64.1721 5.80735C64.1721 13.4491 63.5542 20.9535 62.3664 28.2657C58.7927 50.3293 50.0352 70.6763 37.3917 88.0162C31.4733 96.1351 24.7001 103.591 17.2128 110.255Z" fill="url(#paint0_linear_2330_32098)"/>
<path d="M-7.36034e-05 36.2611C-7.32745e-05 40.0236 0.123508 43.7655 0.370682 47.4868C1.59281 66.1037 5.87714 84.1885 13.1516 101.384C14.4217 104.388 15.7778 107.347 17.2127 110.255C24.7 103.591 31.4732 96.1351 37.3916 88.0162C30.9857 72.0015 27.4635 54.5346 27.4635 36.2611C27.4635 35.8731 27.4635 35.4818 27.4704 35.0939C27.5528 24.9323 28.7234 15.0248 30.8793 5.48468C22.5681 7.56162 14.4149 10.2874 6.45386 13.6551C4.68933 14.4 2.94196 15.1759 1.21175 15.9792C0.405012 22.6666 -7.42003e-05 29.4329 -7.36034e-05 36.2611Z" fill="#0630A2"/>
</g>
<g filter="url(#filter0_d_2330_32098)">
<path d="M268.527 132H250.607L210.031 70.688V132H192.111V42.528H210.031L250.607 103.968V42.528H268.527V132ZM281.628 96.288C281.628 89.12 283.036 82.7627 285.852 77.216C288.753 71.6693 292.636 67.4027 297.5 64.416C302.449 61.4293 307.953 59.936 314.012 59.936C319.303 59.936 323.911 61.0027 327.836 63.136C331.847 65.2693 335.047 67.9573 337.436 71.2V61.088H355.484V132H337.436V121.632C335.132 124.96 331.932 127.733 327.836 129.952C323.825 132.085 319.175 133.152 313.884 133.152C307.911 133.152 302.449 131.616 297.5 128.544C292.636 125.472 288.753 121.163 285.852 115.616C283.036 109.984 281.628 103.541 281.628 96.288ZM337.436 96.544C337.436 92.192 336.583 88.48 334.876 85.408C333.169 82.2507 330.865 79.8613 327.964 78.24C325.063 76.5333 321.948 75.68 318.62 75.68C315.292 75.68 312.22 76.4907 309.404 78.112C306.588 79.7333 304.284 82.1227 302.492 85.28C300.785 88.352 299.932 92.0213 299.932 96.288C299.932 100.555 300.785 104.309 302.492 107.552C304.284 110.709 306.588 113.141 309.404 114.848C312.305 116.555 315.377 117.408 318.62 117.408C321.948 117.408 325.063 116.597 327.964 114.976C330.865 113.269 333.169 110.88 334.876 107.808C336.583 104.651 337.436 100.896 337.436 96.544ZM402.554 115.488L420.474 61.088H439.546L413.306 132H391.546L365.434 61.088H384.634L402.554 115.488ZM445.003 96.288C445.003 89.12 446.411 82.7627 449.227 77.216C452.128 71.6693 456.011 67.4027 460.875 64.416C465.824 61.4293 471.328 59.936 477.387 59.936C482.678 59.936 487.286 61.0027 491.211 63.136C495.222 65.2693 498.422 67.9573 500.811 71.2V61.088H518.859V132H500.811V121.632C498.507 124.96 495.307 127.733 491.211 129.952C487.2 132.085 482.55 133.152 477.259 133.152C471.286 133.152 465.824 131.616 460.875 128.544C456.011 125.472 452.128 121.163 449.227 115.616C446.411 109.984 445.003 103.541 445.003 96.288ZM500.811 96.544C500.811 92.192 499.958 88.48 498.251 85.408C496.544 82.2507 494.24 79.8613 491.339 78.24C488.438 76.5333 485.323 75.68 481.995 75.68C478.667 75.68 475.595 76.4907 472.779 78.112C469.963 79.7333 467.659 82.1227 465.867 85.28C464.16 88.352 463.307 92.0213 463.307 96.288C463.307 100.555 464.16 104.309 465.867 107.552C467.659 110.709 469.963 113.141 472.779 114.848C475.68 116.555 478.752 117.408 481.995 117.408C485.323 117.408 488.438 116.597 491.339 114.976C494.24 113.269 496.544 110.88 498.251 107.808C499.958 104.651 500.811 100.896 500.811 96.544ZM554.281 72.096C556.585 68.3413 559.572 65.3973 563.241 63.264C566.996 61.1307 571.262 60.064 576.041 60.064V78.88H571.305C565.673 78.88 561.406 80.2027 558.505 82.848C555.689 85.4933 554.281 90.1013 554.281 96.672V132H536.361V61.088H554.281V72.096ZM583.503 96.288C583.503 89.12 584.911 82.7627 587.727 77.216C590.628 71.6693 594.511 67.4027 599.375 64.416C604.324 61.4293 609.828 59.936 615.887 59.936C621.178 59.936 625.786 61.0027 629.711 63.136C633.722 65.2693 636.922 67.9573 639.311 71.2V61.088H657.359V132H639.311V121.632C637.007 124.96 633.807 127.733 629.711 129.952C625.7 132.085 621.05 133.152 615.759 133.152C609.786 133.152 604.324 131.616 599.375 128.544C594.511 125.472 590.628 121.163 587.727 115.616C584.911 109.984 583.503 103.541 583.503 96.288ZM639.311 96.544C639.311 92.192 638.458 88.48 636.751 85.408C635.044 82.2507 632.74 79.8613 629.839 78.24C626.938 76.5333 623.823 75.68 620.495 75.68C617.167 75.68 614.095 76.4907 611.279 78.112C608.463 79.7333 606.159 82.1227 604.367 85.28C602.66 88.352 601.807 92.0213 601.807 96.288C601.807 100.555 602.66 104.309 604.367 107.552C606.159 110.709 608.463 113.141 611.279 114.848C614.18 116.555 617.252 117.408 620.495 117.408C623.823 117.408 626.938 116.597 629.839 114.976C632.74 113.269 635.044 110.88 636.751 107.808C638.458 104.651 639.311 100.896 639.311 96.544Z" fill="#10192D"/>
</g>
<defs>
<filter id="filter0_d_2330_32098" x="186.111" y="36.528" width="485.248" height="110.624" filterUnits="userSpaceOnUse" color-interpolation-filters="sRGB">
<feFlood flood-opacity="0" result="BackgroundImageFix"/>
<feColorMatrix in="SourceAlpha" type="matrix" values="0 0 0 0 0 0 0 0 0 0 0 0 0 0 0 0 0 0 127 0" result="hardAlpha"/>
<feOffset dx="4" dy="4"/>
<feGaussianBlur stdDeviation="5"/>
<feComposite in2="hardAlpha" operator="out"/>
<feColorMatrix type="matrix" values="0 0 0 0 0 0 0 0 0 0 0 0 0 0 0 0 0 0 0.1 0"/>
<feBlend mode="normal" in2="BackgroundImageFix" result="effect1_dropShadow_2330_32098"/>
<feBlend mode="normal" in="SourceGraphic" in2="effect1_dropShadow_2330_32098" result="shape"/>
</filter>
<linearGradient id="paint0_linear_2330_32098" x1="-11.4708" y1="141.897" x2="150.098" y2="33.3536" gradientUnits="userSpaceOnUse">
<stop stop-color="#0630A1"/>
<stop offset="1" stop-color="#1790EA"/>
</linearGradient>
<clipPath id="clip0_2330_32098">
<rect width="143.154" height="173" fill="white" transform="matrix(-1 8.74228e-08 8.74228e-08 1 143.154 0.5)"/>
</clipPath>
</defs>
</svg>
