<?xml version="1.0" encoding="utf-8"?>
<!-- Svg Vector Icons : http://www.onlinewebfonts.com/icon -->
<!DOCTYPE svg PUBLIC "-//W3C//DTD SVG 1.1//EN" "http://www.w3.org/Graphics/SVG/1.1/DTD/svg11.dtd">
<svg version="1.1" xmlns="http://www.w3.org/2000/svg" xmlns:xlink="http://www.w3.org/1999/xlink" x="0px" y="0px" viewBox="0 0 1000 1000" enable-background="new 0 0 1000 1000" xml:space="preserve">
<metadata> Svg Vector Icons : http://www.onlinewebfonts.com/icon </metadata>
<g><path d="M447.4,988.5c-3.8,0-7.7-1.3-10.8-4c-7.1-6-8.1-16.6-2.1-23.8c6.5-7.7,12.9-15.7,19-23.7c6.2-8,12.2-16.2,18-24.5c5.8-8.3,11.5-16.8,17-25.3c5.5-8.5,10.8-17.3,15.9-26c5.1-8.8,10.1-17.8,14.8-26.7c4.8-9,9.4-18.2,13.7-27.4c4.4-9.2,8.6-18.7,12.6-28.1c4-9.4,7.8-19.1,11.4-28.7c3.6-9.6,7-19.5,10.1-29.3c3.2-9.8,6.2-19.9,8.9-29.9c2.7-10,5.3-20.3,7.6-30.4c2.3-10.2,4.4-20.6,6.3-30.9c1.9-10.4,3.5-20.9,5-31.4c1.4-10.5,2.6-21.2,3.6-31.8c1-10.6,1.7-21.5,2.2-32.2c0.5-10.8,0.7-21.8,0.7-32.6c0-0.1,0-0.2,0-0.2s0-0.2,0-0.2c0-3.5-0.2-7-0.5-10.4c-0.3-3.4-0.9-6.8-1.5-10.1c-0.7-3.3-1.5-6.5-2.5-9.7c-1-3.1-2.1-6.3-3.4-9.3c-1.3-3-2.7-6-4.3-8.9c-1.5-2.9-3.3-5.7-5.1-8.4c-1.8-2.7-3.8-5.3-5.8-7.8c-2.1-2.5-4.3-4.9-6.5-7.2c-2.3-2.3-4.7-4.5-7.2-6.5c-2.5-2.1-5.1-4-7.8-5.8c-2.7-1.8-5.5-3.5-8.4-5.1c-2.9-1.6-5.8-3-8.9-4.3c-3-1.3-6.2-2.4-9.3-3.4c-3.2-1-6.4-1.8-9.7-2.5c-3.3-0.7-6.7-1.2-10.1-1.5c-6.9-0.7-13.9-0.7-20.8,0c-3.4,0.3-6.8,0.9-10.1,1.5c-3.3,0.7-6.5,1.5-9.7,2.5c-3.1,1-6.3,2.1-9.3,3.4c-3,1.3-6,2.7-8.9,4.3c-2.9,1.5-5.7,3.3-8.4,5.1c-2.7,1.8-5.3,3.8-7.8,5.8c-2.5,2.1-4.9,4.3-7.2,6.5c-2.3,2.3-4.5,4.7-6.5,7.2c-2.1,2.5-4,5.1-5.8,7.8c-1.8,2.7-3.5,5.5-5.1,8.4c-1.6,2.9-3,5.9-4.3,8.9c-1.3,3-2.4,6.2-3.4,9.3c-1,3.2-1.8,6.4-2.5,9.7c-0.7,3.3-1.2,6.7-1.5,10.1c-0.3,3.4-0.5,6.9-0.5,10.4c0,0.1,0,0.2,0,0.2c0,0.1,0,0.2,0,0.2c0,9.6-0.3,19.3-0.8,28.8c-0.5,9.4-1.3,19-2.4,28.4c-1,9.3-2.4,18.7-3.9,27.9c-1.6,9.1-3.4,18.4-5.4,27.4c-2,9-4.4,18-6.9,26.8c-2.5,8.8-5.3,17.6-8.3,26.2c-3,8.6-6.2,17.2-9.7,25.6c-3.4,8.4-7.1,16.7-11,24.9c-3.9,8.1-8,16.3-12.3,24.2c-4.3,7.9-8.8,15.8-13.5,23.4c-4.7,7.6-9.6,15.2-14.7,22.6c-5.1,7.3-10.4,14.6-15.9,21.7c-5.5,7.1-11.2,14.1-17,20.8c-5.8,6.7-11.9,13.4-18.1,19.9s-12.6,12.8-19.1,18.9c-6.5,6.1-13.2,12.1-20.1,17.8c-7.1,6-17.8,5.1-23.8-2c-6-7.1-5.1-17.8,2-23.8c6.4-5.4,12.7-11,18.7-16.7c6.1-5.7,12-11.6,17.8-17.6c5.8-6,11.4-12.2,16.8-18.5c5.4-6.3,10.8-12.8,15.9-19.4c5.1-6.6,10.1-13.4,14.8-20.3c4.8-6.9,9.4-14,13.7-21.1c4.4-7.1,8.6-14.5,12.6-21.8c4-7.4,7.9-15,11.5-22.5c3.6-7.6,7.1-15.4,10.3-23.2c3.2-7.8,6.3-15.9,9-23.9c2.8-8,5.4-16.3,7.8-24.5c2.4-8.2,4.5-16.7,6.4-25c1.9-8.4,3.6-17,5.1-25.5c1.5-8.6,2.7-17.3,3.7-26c1-8.8,1.7-17.7,2.2-26.5c0.5-8.9,0.8-17.9,0.8-26.9c0-0.1,0-0.2,0-0.2c0-0.1,0-0.2,0-0.2c0-4.6,0.2-9.2,0.7-13.8c0.5-4.5,1.1-9,2-13.4c0.9-4.4,2-8.7,3.3-13c1.3-4.2,2.8-8.4,4.5-12.4c1.7-4,3.6-8,5.7-11.8c2.1-3.8,4.3-7.6,6.8-11.1c2.4-3.6,5-7.1,7.8-10.4c2.7-3.3,5.7-6.5,8.7-9.6c3-3,6.3-6,9.6-8.7c3.3-2.7,6.8-5.4,10.4-7.8c3.6-2.4,7.3-4.7,11.1-6.8c3.8-2.1,7.8-4,11.8-5.7c4.1-1.7,8.2-3.2,12.4-4.5c4.2-1.3,8.6-2.4,13-3.3c4.4-0.9,8.9-1.6,13.4-2c9.1-0.9,18.5-0.9,27.6,0c4.5,0.5,9,1.1,13.4,2c4.4,0.9,8.7,2,13,3.3c4.2,1.3,8.4,2.8,12.4,4.5c4,1.7,8,3.6,11.8,5.7c3.8,2.1,7.6,4.3,11.1,6.8c3.6,2.4,7.1,5,10.4,7.8c3.3,2.7,6.5,5.7,9.6,8.7c3,3,6,6.3,8.7,9.6c2.7,3.3,5.4,6.8,7.8,10.4c2.4,3.6,4.7,7.3,6.8,11.1c2.1,3.8,4,7.8,5.7,11.8c1.7,4.1,3.2,8.2,4.5,12.4c1.3,4.2,2.4,8.6,3.3,13c0.9,4.4,1.6,8.9,2,13.4c0.5,4.5,0.7,9.2,0.7,13.8c0,0.1,0,0.1,0,0.2c0,0.1,0,0.2,0,0.2c0,11.3-0.3,22.8-0.8,34.1c-0.5,11.2-1.3,22.6-2.3,33.7c-1,11.1-2.3,22.3-3.7,33.3c-1.5,11-3.2,22-5.2,32.9c-2,10.8-4.2,21.7-6.6,32.4c-2.4,10.6-5.1,21.3-8,31.8c-2.9,10.5-6,21-9.3,31.3c-3.3,10.3-6.9,20.6-10.6,30.7c-3.7,10.1-7.7,20.2-11.9,30.1c-4.2,9.9-8.6,19.8-13.2,29.4c-4.6,9.6-9.4,19.3-14.4,28.7c-5,9.4-10.2,18.8-15.5,28c-5.3,9.2-11,18.3-16.7,27.2c-5.7,8.9-11.7,17.8-17.8,26.5c-6.1,8.6-12.4,17.3-18.9,25.6c-6.4,8.4-13.1,16.7-19.9,24.8C457,986.5,452.2,988.5,447.4,988.5L447.4,988.5z M600.8,980.6c-3.1,0-6.3-0.9-9.1-2.7c-7.8-5.1-10.1-15.5-5-23.3c5.2-8.1,10.4-16.4,15.4-24.7c5-8.3,9.8-16.8,14.5-25.3c4.7-8.5,9.3-17.2,13.6-25.8c4.4-8.7,8.7-17.6,12.8-26.4c4.1-8.9,8.1-17.9,11.9-26.9c3.8-9,7.5-18.2,10.9-27.4c3.5-9.2,6.8-18.5,10-27.8c3.2-9.3,6.2-18.9,9-28.3c2.8-9.5,5.5-19.1,8-28.7c2.5-9.6,4.9-19.4,7-29.1c2.2-9.7,4.2-19.7,6-29.5c1.7-9.2,10.5-15.2,19.7-13.5c9.2,1.7,15.2,10.5,13.5,19.7c-1.9,10.2-4,20.6-6.2,30.7c-2.2,10.1-4.7,20.3-7.3,30.3c-2.6,10-5.4,20-8.4,29.9c-2.9,9.8-6.1,19.7-9.4,29.4c-3.3,9.7-6.8,19.4-10.4,29c-3.6,9.5-7.4,19.1-11.4,28.5c-3.9,9.3-8.1,18.7-12.3,28c-4.2,9.2-8.7,18.4-13.3,27.4c-4.6,9-9.3,18.1-14.2,26.9c-4.9,8.8-9.9,17.7-15.1,26.3c-5.2,8.6-10.5,17.3-16,25.7C611.8,977.9,606.4,980.6,600.8,980.6L600.8,980.6z M316.4,954.6c-4.4,0-8.8-1.7-12.1-5.1c-6.5-6.7-6.4-17.4,0.3-23.9c6.9-6.7,13.6-13.6,20.2-20.6c6.5-7,13-14.3,19.1-21.6c6.2-7.3,12.3-14.9,18.1-22.5c5.8-7.6,11.5-15.5,17-23.4c5.5-7.9,10.8-16.1,15.8-24.2c5.1-8.2,10-16.6,14.7-25c4.7-8.4,9.2-17.1,13.5-25.8c4.3-8.7,8.4-17.6,12.2-26.5c3.8-8.9,7.5-18.1,10.9-27.2c3.4-9.2,6.6-18.5,9.6-27.9c3-9.4,5.7-19,8.2-28.5c2.5-9.6,4.8-19.3,6.8-29.1c2-9.8,3.8-19.7,5.4-29.6c1.5-9.9,2.8-20.1,3.9-30.1c1-10.1,1.8-20.4,2.4-30.6c0.5-10.3,0.8-20.7,0.8-31c0-9.3,7.6-16.9,16.9-16.9s16.9,7.6,16.9,16.9c0,10.9-0.3,21.9-0.8,32.7c-0.6,10.8-1.4,21.6-2.5,32.3c-1.1,10.6-2.5,21.3-4.1,31.8c-1.6,10.4-3.5,21-5.7,31.3c-2.1,10.3-4.6,20.6-7.2,30.7c-2.6,10.1-5.6,20.2-8.7,30.1c-3.1,9.9-6.5,19.8-10.1,29.5c-3.6,9.7-7.5,19.3-11.5,28.8c-4.1,9.4-8.4,18.9-12.9,28.1c-4.5,9.2-9.3,18.4-14.2,27.3c-4.9,8.9-10.1,17.8-15.5,26.5c-5.3,8.6-11,17.3-16.8,25.6c-5.8,8.4-11.8,16.7-18,24.7c-6.2,8.1-12.6,16.1-19.1,23.8c-6.5,7.7-13.3,15.4-20.2,22.8c-6.9,7.4-14.1,14.7-21.3,21.8C324.9,953,320.7,954.6,316.4,954.6L316.4,954.6z M776.5,902.3c-2.2,0-4.5-0.4-6.6-1.4c-8.6-3.7-12.5-13.6-8.9-22.2c3.1-7.2,6.1-14.5,9-21.8c2.9-7.3,5.8-14.7,8.5-22.1c2.7-7.4,5.4-14.9,8-22.3c2.6-7.5,5.1-15.1,7.4-22.6c2.4-7.5,4.7-15.2,6.9-22.8c2.2-7.6,4.3-15.4,6.3-23.1c2-7.7,3.9-15.5,5.8-23.3c1.8-7.8,3.6-15.7,5.2-23.5c1.6-7.8,3.2-15.8,4.6-23.7c1.4-7.9,2.8-16,4-23.9c1.2-8,2.4-16.1,3.4-24.1c1-8.1,2-16.2,2.8-24.3c0.8-8.1,1.6-16.4,2.2-24.5c0.6-8.2,1.2-16.5,1.6-24.7c0.4-8.2,0.7-16.6,1-24.9c0.2-8.3,0.3-16.7,0.3-25c0-0.1,0-0.2,0-0.2c0-0.1,0-0.2,0-0.2c0-11.5-0.6-23.2-1.7-34.6c-1.1-11.2-2.9-22.5-5.1-33.6c-2.2-10.9-5-21.8-8.3-32.4c-3.3-10.5-7.1-20.9-11.4-31c-4.2-10-9-20-14.2-29.5c-5.2-9.5-10.9-18.9-16.9-27.9c-6-8.9-12.6-17.7-19.4-26c-6.9-8.3-14.2-16.4-21.8-24c-7.6-7.6-15.7-15-24-21.8c-8.3-6.9-17.1-13.4-26-19.4c-9-6.1-18.4-11.8-27.9-16.9c-9.6-5.2-19.5-10-29.5-14.2c-10.1-4.3-20.6-8.1-31-11.4c-10.6-3.3-21.5-6.1-32.4-8.3c-11-2.3-22.3-4-33.6-5.1c-11.4-1.2-23.1-1.7-34.6-1.7c-9.3,0-16.9-7.6-16.9-16.9c0-9.3,7.6-16.9,16.9-16.9c12.7,0,25.5,0.6,38,1.9c12.4,1.3,24.8,3.1,36.9,5.6c12,2.4,24,5.5,35.6,9.2c11.5,3.6,23,7.8,34.2,12.5c11,4.7,22,9.9,32.5,15.6c10.5,5.7,20.8,11.9,30.6,18.6c9.8,6.6,19.5,13.8,28.6,21.4c9.1,7.5,18,15.6,26.4,24c8.4,8.4,16.4,17.3,24,26.4c7.6,9.2,14.7,18.8,21.4,28.6c6.7,9.9,12.9,20.2,18.6,30.7c5.7,10.5,11,21.5,15.6,32.5c4.7,11.1,8.9,22.6,12.5,34.2c3.6,11.7,6.7,23.7,9.2,35.6c2.5,12.1,4.4,24.6,5.6,36.9c1.3,12.5,1.9,25.3,1.9,38c0,0.1,0,0.2,0,0.2c0,0.1,0,0.2,0,0.2c0,8.6-0.1,17.3-0.3,25.9c-0.2,8.6-0.6,17.2-1,25.7c-0.4,8.5-1,17.1-1.6,25.6c-0.6,8.4-1.4,17-2.3,25.4c-0.9,8.4-1.8,16.9-2.9,25.2c-1.1,8.3-2.3,16.7-3.5,25c-1.3,8.2-2.7,16.6-4.2,24.8c-1.5,8.2-3.1,16.5-4.8,24.6c-1.7,8.1-3.5,16.3-5.4,24.4c-1.9,8.1-3.9,16.2-6,24.1c-2.1,7.9-4.3,16-6.5,23.9c-2.3,7.9-4.7,15.9-7.1,23.6c-2.5,7.8-5,15.7-7.7,23.4c-2.6,7.7-5.4,15.5-8.2,23.1c-2.8,7.6-5.8,15.3-8.8,22.9c-3,7.6-6.2,15.1-9.3,22.6C789.3,898.4,783.1,902.3,776.5,902.3L776.5,902.3z M124.3,805.9c-5,0-9.9-2.2-13.3-6.4c-5.8-7.3-4.5-17.9,2.8-23.7c5-4,10-8.1,14.9-12.4c4.8-4.2,9.6-8.7,14.1-13.2c4.6-4.5,9.1-9.2,13.4-13.9c4.3-4.7,8.6-9.7,12.6-14.6c4.1-5,8-10.1,11.8-15.3c3.8-5.2,7.5-10.6,10.9-16c3.5-5.4,6.9-11,10.1-16.6c3.2-5.6,6.3-11.4,9.1-17.2c2.9-5.8,5.6-11.8,8.2-17.7c2.6-6,5-12.1,7.2-18.3c2.2-6.2,4.3-12.5,6.2-18.8c1.9-6.3,3.6-12.8,5.1-19.2c1.5-6.5,2.9-13.1,4.1-19.6c1.2-6.6,2.2-13.3,2.9-20c0.8-6.7,1.4-13.6,1.8-20.4c0.3-5.9,0.5-11.8,0.6-17.7c-0.2-1.1-0.4-2.3-0.4-3.5c0-8.6,0.4-17.4,1.3-25.9c0.9-8.4,2.1-16.9,3.8-25.2c1.7-8.2,3.8-16.4,6.2-24.3c2.4-7.9,5.3-15.7,8.5-23.3c3.2-7.5,6.8-15,10.7-22.2c3.9-7.1,8.1-14.2,12.7-20.9c4.5-6.7,9.4-13.3,14.6-19.5c5.1-6.2,10.6-12.3,16.3-18c5.7-5.7,11.8-11.2,18-16.3c6.2-5.2,12.8-10.1,19.5-14.6c7.7-5.2,18.2-3.2,23.4,4.5c2,2.9,2.9,6.2,2.9,9.4c0,5.4-2.6,10.7-7.4,14c-5.8,3.9-11.5,8.2-16.9,12.6c-5.4,4.5-10.7,9.2-15.6,14.2c-5,5-9.7,10.2-14.2,15.6c-4.5,5.4-8.7,11.1-12.6,16.9c-3.9,5.8-7.6,11.9-11,18.1c-3.4,6.2-6.5,12.7-9.2,19.2c-2.8,6.6-5.3,13.4-7.4,20.2c-2.1,6.9-4,14-5.4,21.1c-1.5,7.2-2.6,14.5-3.3,21.8c-0.7,6.4-1,13-1.1,19.5c0.2,1.1,0.4,2.3,0.4,3.4c0,7.5-0.2,15.2-0.7,22.7c-0.4,7.4-1.1,15-2,22.3c-0.9,7.3-1.9,14.7-3.2,22c-1.3,7.2-2.8,14.4-4.5,21.5c-1.7,7-3.6,14.1-5.6,21.1c-2.1,6.9-4.4,13.8-6.8,20.6c-2.4,6.7-5.1,13.5-7.9,20c-2.8,6.5-5.8,13.1-9,19.5c-3.2,6.3-6.5,12.7-10,18.9c-3.5,6.1-7.2,12.3-11,18.2c-3.8,5.9-7.9,11.8-12,17.5c-4.1,5.7-8.5,11.4-12.9,16.8c-4.4,5.4-9.1,10.8-13.8,16c-4.7,5.2-9.7,10.3-14.7,15.2c-5,4.9-10.2,9.8-15.5,14.4c-5.3,4.6-10.8,9.2-16.3,13.6C131.6,804.8,127.9,805.9,124.3,805.9L124.3,805.9z M63.4,700.9c-4.7,0-9.3-1.9-12.6-5.7c-6.2-7-5.6-17.6,1.4-23.8c2.9-2.6,5.8-5.3,8.6-8c2.8-2.7,5.5-5.6,8.1-8.4c2.6-2.9,5.2-5.8,7.7-8.8c2.5-3,4.9-6.1,7.2-9.2c2.3-3.1,4.6-6.4,6.8-9.6c2.2-3.3,4.3-6.6,6.3-10c2-3.4,3.9-6.8,5.7-10.3c1.8-3.5,3.6-7.1,5.2-10.6c1.6-3.6,3.2-7.3,4.7-10.9c1.5-3.7,2.8-7.4,4.1-11.2c1.3-3.8,2.5-7.6,3.5-11.5c1.1-3.9,2.1-7.8,2.9-11.7c0.9-3.9,1.6-8,2.3-12c0.7-4,1.2-8.1,1.7-12.2c0.4-4.1,0.8-8.3,1-12.4c0.2-4.2,0.3-8.4,0.3-12.6c0-0.1,0-0.2,0-0.2c0-0.1,0-0.2,0-0.2c0-12.7,0.6-25.5,1.9-38c1.3-12.4,3.1-24.8,5.6-36.9c2.4-12,5.5-24,9.2-35.6c3.6-11.5,7.8-23,12.5-34.2c4.7-11,9.9-22,15.6-32.5c4.4-8.2,14.7-11.2,22.9-6.8c5.6,3.1,8.8,8.9,8.8,14.8c0,2.7-0.7,5.5-2,8c-5.2,9.6-10,19.5-14.2,29.5c-4.3,10.1-8.1,20.6-11.4,31c-3.3,10.6-6.1,21.5-8.3,32.4c-2.3,11-4,22.3-5.1,33.6c-1.2,11.4-1.7,23.1-1.7,34.6c0,0.1,0,0.1,0,0.2c0,0.1,0,0.2,0,0.2c0,4.8-0.1,9.7-0.4,14.4c-0.3,4.7-0.7,9.5-1.2,14.2c-0.5,4.7-1.2,9.4-1.9,14c-0.8,4.6-1.6,9.2-2.6,13.8c-1,4.5-2.1,9.1-3.4,13.5c-1.2,4.4-2.6,8.8-4.1,13.2c-1.5,4.3-3,8.7-4.7,12.9c-1.7,4.2-3.5,8.4-5.4,12.6c-1.9,4.1-3.9,8.2-6,12.2c-2.1,4-4.3,8-6.6,11.8c-2.3,3.9-4.7,7.7-7.2,11.4c-2.5,3.7-5.1,7.4-7.8,11c-2.7,3.6-5.5,7.1-8.3,10.6c-2.8,3.4-5.8,6.9-8.8,10.2c-3,3.3-6.2,6.5-9.3,9.7c-3.2,3.1-6.5,6.2-9.8,9.2C71.3,699.5,67.3,700.9,63.4,700.9L63.4,700.9z M734.3,582.1c-0.4,0-0.8,0-1.3,0c-9.3-0.7-16.3-8.8-15.6-18.1c0.8-10.2,1.3-20.6,1.7-30.9c0.4-10.3,0.6-20.8,0.6-31.2c0-0.1,0-0.2,0-0.2c0-0.1,0-0.2,0-0.2c0-7.5-0.4-15.1-1.1-22.5c-0.7-7.3-1.9-14.6-3.3-21.8c-1.5-7.1-3.3-14.2-5.4-21.1c-2.1-6.8-4.6-13.6-7.4-20.2c-2.8-6.5-5.9-13-9.2-19.2c-3.4-6.2-7.1-12.3-11-18.1c-2-2.9-2.9-6.2-2.9-9.4c0-5.4,2.6-10.7,7.4-14c7.7-5.2,18.2-3.2,23.4,4.5c4.5,6.7,8.8,13.8,12.7,20.9c3.9,7.2,7.5,14.6,10.7,22.2c3.2,7.6,6.1,15.4,8.5,23.3c2.5,7.9,4.6,16.1,6.2,24.3c1.7,8.3,3,16.8,3.8,25.2c0.9,8.5,1.3,17.3,1.3,25.9c0,0.1,0,0.2,0,0.2c0,0.1,0,0.2,0,0.2c0,10.8-0.2,21.7-0.6,32.4c-0.4,10.7-1,21.5-1.8,32.1C750.4,575.3,743,582.1,734.3,582.1L734.3,582.1z M27,521.3c-0.1,0-0.2,0-0.3,0c0,0,0,0,0,0c-0.6,0-1.2-0.1-1.8-0.1c0,0,0,0,0,0c0,0,0,0,0,0l0,0c-8.3-1.1-14.6-8.2-14.7-16.7c0,0,0,0,0,0c0,0,0-0.1,0-0.1c0-0.1,0-0.2,0-0.2l0-0.9c0,0,0-0.1,0-0.2c0,0,0-0.1,0-0.2l0-0.7c0-0.1,0-0.1,0-0.1l0-0.5c0-16.7,0.8-33.6,2.5-50.1c1.7-16.3,4.1-32.7,7.4-48.7c3.2-15.8,7.3-31.6,12.1-47c4.7-15.2,10.3-30.4,16.5-45c6.1-14.5,13.1-29,20.6-42.8c7.5-13.8,15.7-27.4,24.5-40.4c8.7-13,18.2-25.6,28.2-37.7c9.9-12,20.6-23.7,31.6-34.8c6.6-6.6,17.3-6.6,23.9,0c6.6,6.6,6.6,17.3,0,23.9c-10.3,10.3-20.2,21.2-29.4,32.4c-9.3,11.2-18.1,23.1-26.3,35.1c-8.2,12.1-15.9,24.8-22.8,37.6c-7,12.9-13.5,26.3-19.2,39.9c-5.8,13.7-10.9,27.8-15.3,41.9c-4.4,14.3-8.2,29-11.2,43.7c-3,14.9-5.4,30.1-6.9,45.3c-1.5,14.7-2.3,29.7-2.3,44.6c0.1,0.8,0.2,1.7,0.2,2.5l0,0.3l0,1.3c0,0.1,0,0.1,0,0.2l0,0.3c0,0,0,0.1,0,0.2c0,0.1,0,0.1,0,0.2c0,0.1,0,0.1,0,0.1c0,0.1,0,0.1,0,0.1c0,0,0,0.1,0,0.1c0,0.3,0,0.6,0,0.9c0,0,0,0,0,0c0,0,0,0,0,0C43.1,514.5,35.8,521.3,27,521.3L27,521.3z M973.1,518.4c-9.3,0-16.9-7.6-16.9-16.9c0-15.6-0.8-31.3-2.4-46.7c-1.5-15.2-3.9-30.4-6.9-45.3c-3-14.7-6.8-29.4-11.2-43.7c-4.4-14.1-9.6-28.3-15.3-41.9c-5.7-13.5-12.2-26.9-19.2-39.9c-7-12.8-14.7-25.5-22.8-37.6c-8.1-12.1-17-23.9-26.3-35.1c-9.3-11.2-19.2-22.1-29.4-32.4c-6.6-6.6-6.6-17.3,0-23.9c6.6-6.6,17.3-6.6,23.9,0c11,11,21.7,22.7,31.6,34.8c10,12.1,19.4,24.8,28.2,37.7c8.8,13,17,26.6,24.5,40.4c7.5,13.9,14.5,28.3,20.6,42.8c6.2,14.7,11.7,29.8,16.5,45c4.8,15.4,8.8,31.2,12.1,47c3.3,16,5.8,32.4,7.4,48.7c1.7,16.5,2.5,33.4,2.5,50.1C990,510.8,982.4,518.4,973.1,518.4L973.1,518.4z M667.3,351.1c-4.3,0-8.6-1.6-11.9-4.9c-5-5-10.2-9.7-15.6-14.2c-5.4-4.5-11.1-8.7-16.9-12.6c-5.8-3.9-11.9-7.6-18.1-11c-6.2-3.4-12.7-6.5-19.2-9.2c-6.6-2.8-13.4-5.3-20.2-7.4c-6.9-2.1-14-4-21.1-5.4c-7.2-1.5-14.5-2.6-21.8-3.3c-14.8-1.5-30.2-1.5-45,0c-7.3,0.7-14.6,1.9-21.8,3.3c-7.1,1.4-14.2,3.3-21.1,5.4c-8.9,2.8-18.4-2.2-21.1-11.1c-0.5-1.7-0.8-3.4-0.8-5c0-7.2,4.6-13.9,11.9-16.1c8-2.5,16.1-4.6,24.3-6.2c8.3-1.7,16.8-3,25.2-3.8c17.1-1.7,34.7-1.7,51.8,0c8.4,0.9,16.9,2.1,25.2,3.8c8.2,1.7,16.4,3.8,24.3,6.2c7.9,2.4,15.7,5.3,23.3,8.5c7.5,3.2,15,6.8,22.2,10.7c7.1,3.9,14.2,8.1,20.9,12.7c6.7,4.5,13.3,9.4,19.5,14.6c6.2,5.1,12.3,10.6,18,16.3c3.3,3.3,4.9,7.6,4.9,11.9s-1.6,8.6-4.9,11.9C676,349.4,671.6,351.1,667.3,351.1L667.3,351.1z M249,267.4c-4.3,0-8.6-1.6-11.9-4.9c-3.3-3.3-4.9-7.6-4.9-11.9s1.6-8.6,4.9-11.9c8.4-8.4,17.2-16.4,26.4-24c9.2-7.6,18.8-14.8,28.6-21.4c9.9-6.7,20.2-12.9,30.6-18.6c10.5-5.7,21.5-11,32.5-15.6c11.1-4.7,22.6-8.9,34.2-12.5c11.7-3.6,23.7-6.7,35.6-9.2c9.1-1.9,18.1,4,19.9,13.2c0.2,1.1,0.3,2.3,0.3,3.4c0,7.9-5.5,14.9-13.5,16.5c-10.9,2.2-21.8,5-32.4,8.3c-10.5,3.3-20.9,7.1-31,11.4c-10,4.2-20,9-29.5,14.2c-9.5,5.2-18.9,10.9-27.9,16.9c-8.9,6-17.7,12.6-26,19.4c-8.3,6.9-16.4,14.2-24,21.8C257.7,265.7,253.4,267.4,249,267.4L249,267.4z M764.6,126c-3.3,0-6.5-0.9-9.4-2.9c-12.1-8.2-24.8-15.9-37.6-22.8c-12.9-7-26.3-13.5-39.9-19.2c-13.7-5.8-27.8-10.9-41.9-15.3c-8.9-2.8-13.9-12.2-11.1-21.1c2.8-8.9,12.2-13.9,21.1-11.1c15.2,4.7,30.4,10.3,45,16.5c14.5,6.1,29,13.1,42.8,20.6c13.8,7.5,27.4,15.7,40.4,24.5c7.7,5.2,9.8,15.7,4.5,23.4C775.3,123.4,770,126,764.6,126L764.6,126z M235.4,126c-5.4,0-10.7-2.6-14-7.4c-5.2-7.7-3.2-18.2,4.5-23.4c13-8.8,26.6-17,40.4-24.5c13.9-7.5,28.3-14.5,42.8-20.6c14.7-6.2,29.8-11.7,45-16.5c15.4-4.8,31.2-8.8,47-12.1c16-3.3,32.4-5.8,48.7-7.4c16.5-1.7,33.4-2.5,50.1-2.5c16.7,0,33.6,0.9,50.1,2.5c9.3,0.9,16,9.2,15.1,18.5c-0.9,9.3-9.2,16-18.5,15.1c-15.4-1.6-31.1-2.4-46.7-2.4c-15.6,0-31.3,0.8-46.7,2.4c-15.2,1.5-30.4,3.9-45.3,6.9c-14.7,3-29.4,6.8-43.7,11.2c-14.2,4.4-28.3,9.6-41.9,15.3c-13.5,5.7-27,12.2-39.9,19.2c-12.8,7-25.5,14.7-37.6,22.8C241.9,125.1,238.6,126,235.4,126L235.4,126z"/></g>
</svg>