<svg width="30" height="30" viewBox="0 0 30 30" fill="none" xmlns="http://www.w3.org/2000/svg">
<mask id="mask0_1967_31041" style="mask-type:alpha" maskUnits="userSpaceOnUse" x="0" y="0" width="30" height="30">
<circle cx="15" cy="15" r="15" fill="#D9D9D9"/>
</mask>
<g mask="url(#mask0_1967_31041)">
<path d="M45 0H-5V33.3333H45V0Z" fill="#EE1C25"/>
<path d="M8 8L10.4721 16L4 11.0557H12L5.52787 16L8 8Z" fill="#FFFF00"/>
<path d="M15.2642 7.51556L15.0329 10.1404L13.6772 7.88089L16.1021 8.912L13.5342 9.50313L15.2642 7.51556Z" fill="#FFFF00"/>
<path d="M18.4872 10.596L17.2554 12.9254L16.8828 10.3169L18.7175 12.2082L16.1215 11.7565L18.4872 10.596Z" fill="#FFFF00"/>
<path d="M18.7943 15.2415L16.7195 16.8658L17.4433 14.3322L18.3469 16.8074L16.161 15.336L18.7943 15.2415Z" fill="#FFFF00"/>
<path d="M15.211 17.1904L15.0888 19.8226L13.6405 17.6213L16.1061 18.5509L13.565 19.248L15.211 17.1904Z" fill="#FFFF00"/>
</g>
</svg>
