<svg width="25" height="24" viewBox="0 0 25 24" fill="none" xmlns="http://www.w3.org/2000/svg">
<path d="M17.5 2.42993H7.5C4.5 2.42993 2.5 4.42993 2.5 7.42993V13.4299C2.5 16.4299 4.5 18.4299 7.5 18.4299V20.5599C7.5 21.3599 8.39 21.8399 9.05 21.3899L13.5 18.4299H17.5C20.5 18.4299 22.5 16.4299 22.5 13.4299V7.42993C22.5 4.42993 20.5 2.42993 17.5 2.42993ZM12.5 14.5999C12.08 14.5999 11.75 14.2599 11.75 13.8499C11.75 13.4399 12.08 13.0999 12.5 13.0999C12.92 13.0999 13.25 13.4399 13.25 13.8499C13.25 14.2599 12.92 14.5999 12.5 14.5999ZM13.76 10.4499C13.37 10.7099 13.25 10.8799 13.25 11.1599V11.3699C13.25 11.7799 12.91 12.1199 12.5 12.1199C12.09 12.1199 11.75 11.7799 11.75 11.3699V11.1599C11.75 9.99993 12.6 9.42993 12.92 9.20993C13.29 8.95993 13.41 8.78993 13.41 8.52993C13.41 8.02993 13 7.61993 12.5 7.61993C12 7.61993 11.59 8.02993 11.59 8.52993C11.59 8.93993 11.25 9.27993 10.84 9.27993C10.43 9.27993 10.09 8.93993 10.09 8.52993C10.09 7.19993 11.17 6.11993 12.5 6.11993C13.83 6.11993 14.91 7.19993 14.91 8.52993C14.91 9.66993 14.07 10.2399 13.76 10.4499Z" fill="#2873FF"/>
</svg>
