<svg xmlns="http://www.w3.org/2000/svg" viewBox="0 0 324 342" class="w-32 h-32"><path d="M126.47 242.92a.37.37 0 0 1 .37.38v15.95c0 7.57-4.73 11.29-11 11.29s-11-3.72-11-11.29V243.3a.38.38 0 0 1 .38-.38H109a.38.38 0 0 1 .37.38V259c0 5.28 2.76 7.37 6.52 7.37s6.51-2.09 6.51-7.37v-15.7a.38.38 0 0 1 .38-.38zm64.99 13.58a14.08 14.08 0 1 1-14.08-14 13.83 13.83 0 0 1 14.08 14zm-23.74 0a9.64 9.64 0 1 0 9.66-9.85 9.51 9.51 0 0 0-9.66 9.85zM230 270.08h-3.84a.38.38 0 0 1-.35-.52L236 243.32a.55.55 0 0 1 .53-.36h4.8a.57.57 0 0 1 .53.36L252 269.56a.38.38 0 0 1-.35.52h-3.84a.39.39 0 0 1-.35-.25l-8.19-21.6a.37.37 0 0 0-.7 0l-8.2 21.6a.37.37 0 0 1-.37.25zm-153.78 0h-3.84a.38.38 0 0 1-.35-.52l10.15-26.24a.57.57 0 0 1 .53-.36h4.8a.55.55 0 0 1 .53.36l10.16 26.24a.38.38 0 0 1-.35.52H94a.37.37 0 0 1-.35-.25l-8.19-21.6a.38.38 0 0 0-.71 0l-8.19 21.6a.39.39 0 0 1-.34.25zm142.48-.61-7.62-9.74c4.3-.81 6.82-3.72 6.82-8.17 0-5.11-3.33-8.6-9.22-8.6h-10.63a.57.57 0 0 0-.57.57 3.62 3.62 0 0 0 3.62 3.61h7.11c3.57 0 5.27 1.83 5.27 4.46s-1.66 4.49-5.27 4.49h-10.16a.58.58 0 0 0-.57.57v13a.38.38 0 0 0 .38.38h3.63a.38.38 0 0 0 .37-.38V260H206l6.62 8.63a3.77 3.77 0 0 0 3 1.48h2.75a.38.38 0 0 0 .33-.64zm-61.51 0-7.62-9.74c4.3-.81 6.82-3.72 6.82-8.17 0-5.11-3.33-8.6-9.22-8.6h-10.63a.57.57 0 0 0-.57.57 3.62 3.62 0 0 0 3.62 3.61h7.11c3.57 0 5.27 1.83 5.27 4.46s-1.66 4.49-5.27 4.49h-10.16a.58.58 0 0 0-.57.57v13a.38.38 0 0 0 .38.38H140a.38.38 0 0 0 .37-.38V260h4.19l6.61 8.63a3.77 3.77 0 0 0 3 1.48h2.75a.38.38 0 0 0 .27-.64z" fill="currentColor"></path><path d="M162 83a15.92 15.92 0 0 1 14.31 8.84l45 90A16 16 0 0 1 207 205h-90a16 16 0 0 1-14.31-23.16l45-90A15.92 15.92 0 0 1 162 83m0-11a27 27 0 0 0-24.15 14.92l-45 90A27 27 0 0 0 117 216h90a27 27 0 0 0 24.15-39.08l-45-90A27 27 0 0 0 162 72z" fill="#70d44b"></path></svg>