<svg width="16" height="12" viewBox="0 0 16 12" fill="none" xmlns="http://www.w3.org/2000/svg">
<path d="M6 4.5C6 4.89782 5.84196 5.27936 5.56066 5.56066C5.27936 5.84196 4.89782 6 4.5 6C4.10218 6 3.72064 5.84196 3.43934 5.56066C3.15804 5.27936 3 4.89782 3 4.5C3 4.10218 3.15804 3.72064 3.43934 3.43934C3.72064 3.15804 4.10218 3 4.5 3C4.89782 3 5.27936 3.15804 5.56066 3.43934C5.84196 3.72064 6 4.10218 6 4.5ZM2 7.699C2.00026 7.44739 2.10033 7.20616 2.27825 7.02825C2.45616 6.85033 2.69739 6.75026 2.949 6.75H6.05C6.30161 6.75026 6.54284 6.85033 6.72075 7.02825C6.89867 7.20616 6.99873 7.44739 6.999 7.699C6.999 8.546 6.422 9.284 5.6 9.49L5.541 9.505C4.857 9.675 4.141 9.675 3.457 9.505L3.397 9.49C2.99782 9.3899 2.64354 9.15929 2.39043 8.8348C2.13732 8.5103 1.9999 8.11054 2 7.699V7.699ZM9.5 4C9.36739 4 9.24021 4.05268 9.14645 4.14645C9.05268 4.24021 9 4.36739 9 4.5C9 4.63261 9.05268 4.75979 9.14645 4.85355C9.24021 4.94732 9.36739 5 9.5 5H12.5C12.6326 5 12.7598 4.94732 12.8536 4.85355C12.9473 4.75979 13 4.63261 13 4.5C13 4.36739 12.9473 4.24021 12.8536 4.14645C12.7598 4.05268 12.6326 4 12.5 4H9.5ZM9.5 7C9.36739 7 9.24021 7.05268 9.14645 7.14645C9.05268 7.24021 9 7.36739 9 7.5C9 7.63261 9.05268 7.75979 9.14645 7.85355C9.24021 7.94732 9.36739 8 9.5 8H12.5C12.6326 8 12.7598 7.94732 12.8536 7.85355C12.9473 7.75979 13 7.63261 13 7.5C13 7.36739 12.9473 7.24021 12.8536 7.14645C12.7598 7.05268 12.6326 7 12.5 7H9.5ZM0 1.75C0 0.784 0.784 0 1.75 0H14.25C15.216 0 16 0.784 16 1.75V10.25C16 10.7141 15.8156 11.1592 15.4874 11.4874C15.1592 11.8156 14.7141 12 14.25 12H1.75C1.28587 12 0.840752 11.8156 0.512563 11.4874C0.184375 11.1592 0 10.7141 0 10.25V1.75ZM1.75 1C1.55109 1 1.36032 1.07902 1.21967 1.21967C1.07902 1.36032 1 1.55109 1 1.75V10.25C1 10.664 1.336 11 1.75 11H14.25C14.4489 11 14.6397 10.921 14.7803 10.7803C14.921 10.6397 15 10.4489 15 10.25V1.75C15 1.55109 14.921 1.36032 14.7803 1.21967C14.6397 1.07902 14.4489 1 14.25 1H1.75Z" fill="black"/>
</svg>
