<svg width="10" height="16" viewBox="0 0 10 16" fill="none" xmlns="http://www.w3.org/2000/svg">
<path d="M7.71731 0H2.31205C1.39311 0 0.612305 0.749287 0.612305 1.66798V14.3339C0.612305 15.2526 1.37659 16 2.29553 16L7.70969 15.9942C8.62851 15.9942 9.38021 15.2466 9.38021 14.3278L9.38809 1.66709C9.38796 0.745093 8.63994 0 7.71731 0ZM4.23382 1.00002H5.80203C5.93979 1.00002 6.05201 1.11186 6.05201 1.25C6.05201 1.38814 5.93979 1.49997 5.80203 1.49997H4.23382C4.09568 1.49997 3.98384 1.38814 3.98384 1.25C3.98384 1.11186 4.09568 1.00002 4.23382 1.00002ZM3.29149 1.07958C3.38413 0.987061 3.55277 0.98579 3.64529 1.07958C3.69168 1.12584 3.71913 1.19078 3.71913 1.25711C3.71913 1.32218 3.69168 1.38699 3.64529 1.43338C3.59916 1.47977 3.53396 1.50709 3.46902 1.50709C3.40281 1.50709 3.33915 1.47977 3.29149 1.43338C3.24536 1.38712 3.21905 1.32218 3.21905 1.25711C3.21892 1.19078 3.24536 1.12584 3.29149 1.07958ZM4.96747 15.5045C4.55496 15.5045 4.21946 15.1687 4.21946 14.7564C4.21946 14.3438 4.55496 14.0082 4.96747 14.0082C5.37999 14.0082 5.71549 14.3438 5.71549 14.7564C5.71549 15.1687 5.37986 15.5045 4.96747 15.5045ZM8.61211 13.4997H1.48728V2.37507H8.61211V13.4997Z" fill="white"/>
</svg>
