<svg width="14" height="14" viewBox="0 0 14 14" fill="none" xmlns="http://www.w3.org/2000/svg">
<path fill-rule="evenodd" clip-rule="evenodd" d="M6.72794 0C3.01221 0 0 2.94571 0 6.58024C0 10.2134 3.01221 13.1598 6.72794 13.1598C8.317 13.1598 9.77795 12.6208 10.9295 11.7191L13.1164 13.8528L13.1745 13.9018C13.3775 14.0488 13.6652 14.032 13.8493 13.8514C13.9459 13.7572 14.0003 13.628 14 13.493C13.9997 13.3581 13.9449 13.2291 13.8479 13.1353L11.6869 11.0268C12.823 9.82469 13.4561 8.23353 13.4566 6.57954C13.4566 2.94711 10.4444 0 6.72864 0H6.72794ZM6.72772 1.01364C9.87154 1.01364 12.4203 3.50573 12.4203 6.57954C12.4203 9.65405 9.87224 12.1461 6.72842 12.1461C3.58461 12.1461 1.03582 9.65335 1.03582 6.57954C1.03582 3.50573 3.58391 1.01364 6.72772 1.01364Z" fill="black"/>
</svg>
