<svg width="20" height="20" viewBox="0 0 20 20" fill="none" xmlns="http://www.w3.org/2000/svg">
<path d="M10.0167 2.425C7.25841 2.425 5.01674 4.66667 5.01674 7.425V9.83334C5.01674 10.3417 4.80007 11.1167 4.54174 11.55L3.58341 13.1417C2.99174 14.125 3.40007 15.2167 4.48341 15.5833C8.07507 16.7833 11.9501 16.7833 15.5417 15.5833C16.5501 15.25 16.9917 14.0583 16.4417 13.1417L15.4834 11.55C15.2334 11.1167 15.0167 10.3417 15.0167 9.83334V7.425C15.0167 4.675 12.7667 2.425 10.0167 2.425Z" stroke="#10192D" stroke-width="1.5" stroke-miterlimit="10" stroke-linecap="round"/>
<path d="M11.5584 2.66667C11.3001 2.59167 11.0334 2.53334 10.7584 2.5C9.95843 2.4 9.19176 2.45834 8.4751 2.66667C8.71676 2.05 9.31676 1.61667 10.0168 1.61667C10.7168 1.61667 11.3168 2.05 11.5584 2.66667Z" stroke="#10192D" stroke-width="1.5" stroke-miterlimit="10" stroke-linecap="round" stroke-linejoin="round"/>
<path d="M12.5166 15.8833C12.5166 17.2583 11.3916 18.3833 10.0166 18.3833C9.33327 18.3833 8.69993 18.1 8.24993 17.65C7.79993 17.2 7.5166 16.5667 7.5166 15.8833" stroke="#0C0507" stroke-width="1.5" stroke-miterlimit="10"/>
</svg>
