<svg width="16" height="16" viewBox="0 0 16 16" fill="none" xmlns="http://www.w3.org/2000/svg">
<path d="M5.75997 5.76001C5.22109 5.76001 4.46365 5.86036 3.83997 6.07188V6.75438C4.39101 6.52398 5.20797 6.40001 5.75997 6.40001C6.31837 6.40001 6.81841 6.50039 7.24497 6.69751C7.40433 6.77111 7.63885 6.89249 7.87309 7.01313C8.11053 7.13569 8.34774 7.25731 8.50934 7.33251C9.00438 7.56291 9.58653 7.68001 10.24 7.68001C10.7788 7.68001 11.5363 7.57965 12.16 7.36813V6.68563C11.6092 6.91571 10.792 7.04001 10.24 7.04001C9.68029 7.04001 9.18864 6.94323 8.77872 6.75251C8.6232 6.68019 8.39564 6.56246 8.16684 6.44438C7.92364 6.31862 7.67917 6.19274 7.51309 6.11626C7.00173 5.87978 6.41181 5.76001 5.75997 5.76001ZM5.75997 8.32001C5.22109 8.32001 4.46365 8.42036 3.83997 8.63188V9.31438C4.39101 9.08398 5.20797 8.96001 5.75997 8.96001C6.31837 8.96001 6.81841 9.06039 7.24497 9.25751C7.40433 9.33111 7.63885 9.45249 7.87309 9.57313C8.11053 9.69569 8.34774 9.81731 8.50934 9.89251C9.00438 10.1229 9.58653 10.24 10.24 10.24C10.7788 10.24 11.5363 10.1397 12.16 9.92813V9.24563C11.6092 9.47571 10.792 9.60001 10.24 9.60001C9.68029 9.60001 9.18864 9.50323 8.77872 9.31251C8.6232 9.24019 8.39564 9.12246 8.16684 9.00438C7.92364 8.87862 7.67917 8.75274 7.51309 8.67626C7.00173 8.43978 6.41181 8.32001 5.75997 8.32001Z" fill="black"/>
</svg>
