<svg width="16" height="14" viewBox="0 0 16 14" fill="none" xmlns="http://www.w3.org/2000/svg">
<path fill-rule="evenodd" clip-rule="evenodd" d="M5.85735 0.481384C5.85719 0.215365 5.64141 -0.00015817 5.37539 8.71002e-08L4.17998 0.000711733L4.04991 0.00378906C2.541 0.0735118 1.33952 1.31843 1.33906 2.8439V4.23728L1.34282 4.2977C1.37254 4.5352 1.57518 4.71895 1.82073 4.71895C2.08675 4.71895 2.3024 4.5033 2.3024 4.23728V2.84405L2.30541 2.73745C2.36092 1.74959 3.17904 0.965259 4.18084 0.964052L5.37597 0.963341L5.43639 0.959552C5.67387 0.929689 5.8575 0.72694 5.85735 0.481384ZM11.8146 2.24599e-06C13.341 0.00457213 14.5852 1.20656 14.6575 2.71737L14.6608 2.8476V4.23728C14.6608 4.5033 14.4451 4.71895 14.1791 4.71895C13.9336 4.71895 13.7309 4.5352 13.7012 4.2977L13.6975 4.23728L13.6975 2.84905C13.6944 1.84476 12.909 1.02479 11.9199 0.966631L11.8132 0.963341H10.6434C10.3774 0.963341 10.1617 0.74769 10.1617 0.481671C10.1617 0.236114 10.3455 0.0334752 10.583 0.00375298L10.6434 8.71002e-08L11.8146 2.24599e-06ZM15.5183 6.76978C15.7843 6.76978 16 6.98543 16 7.25145C16 7.497 15.8162 7.69964 15.5787 7.72936L15.5183 7.73312H14.6608L14.6608 10.477C14.6562 12.0033 13.4542 13.2475 11.9434 13.3198L11.8132 13.3231H10.6434C10.3774 13.3231 10.1617 13.1075 10.1617 12.8415C10.1617 12.5959 10.3455 12.3933 10.583 12.3635L10.6434 12.3598L11.8117 12.3598C12.816 12.3568 13.636 11.5713 13.6942 10.5822L13.6975 10.4755V7.73312H2.3024V10.4791C2.3024 11.4811 3.08607 12.3003 4.07369 12.3567L4.18026 12.3598H5.37568C5.6417 12.3598 5.85735 12.5754 5.85735 12.8415C5.85735 13.087 5.6736 13.2896 5.4361 13.3194L5.37568 13.3231H4.17968C2.65389 13.3213 1.40992 12.1182 1.34198 10.6092L1.33906 10.4791V7.73312H0.481671C0.215651 7.73312 0 7.51747 0 7.25145C0 7.00589 0.18375 6.80325 0.421251 6.77353L0.481671 6.76978H1.82073H14.1791H15.5183Z" fill="black"/>
</svg>
