<svg width="24" height="24" viewBox="0 0 24 24" fill="none" xmlns="http://www.w3.org/2000/svg">
<path d="M18.4999 4.11031L13.5099 2.24031C12.6799 1.93031 11.3199 1.93031 10.4899 2.24031L5.49991 4.11031C4.34991 4.54031 3.40991 5.90031 3.40991 7.12031V14.5503C3.40991 15.7303 4.18991 17.2803 5.13991 17.9903L9.43991 21.2003C10.8499 22.2603 13.1699 22.2603 14.5799 21.2003L18.8799 17.9903C19.8299 17.2803 20.6099 15.7303 20.6099 14.5503V7.12031C20.5899 5.90031 19.6499 4.54031 18.4999 4.11031ZM11.9299 7.03031C13.1099 7.03031 14.0699 7.99031 14.0699 9.17031C14.0699 10.3303 13.1599 11.2603 12.0099 11.3003H11.9899H11.9699C11.9499 11.3003 11.9299 11.3003 11.9099 11.3003C10.7099 11.2603 9.80991 10.3303 9.80991 9.17031C9.79991 7.99031 10.7599 7.03031 11.9299 7.03031ZM14.1899 16.3603C13.5799 16.7603 12.7899 16.9703 11.9999 16.9703C11.2099 16.9703 10.4099 16.7703 9.80991 16.3603C9.23991 15.9803 8.92991 15.4603 8.91991 14.8903C8.91991 14.3303 9.23991 13.7903 9.80991 13.4103C11.0199 12.6103 12.9899 12.6103 14.1999 13.4103C14.7699 13.7903 15.0899 14.3103 15.0899 14.8803C15.0799 15.4403 14.7599 15.9803 14.1899 16.3603Z" fill="#2873FF"/>
</svg>
