<svg width="12" height="13" viewBox="0 0 12 13" fill="none" xmlns="http://www.w3.org/2000/svg">
<path d="M0.899951 11.0505C0.651851 11.0505 0.449951 10.8486 0.449951 10.6005C0.449951 10.5165 0.476951 10.4316 0.531851 10.341L5.58835 2.01599C5.64865 1.91669 5.78215 1.75049 5.99995 1.75049C6.21775 1.75049 6.35125 1.91669 6.41125 2.01599L11.4675 10.341C11.523 10.4316 11.55 10.5165 11.55 10.6005C11.55 10.8486 11.3481 11.0505 11.1 11.0505H0.899951Z" fill="#F65556"/>
<path d="M6.00002 10.0003C6.3314 10.0003 6.60002 9.73166 6.60002 9.40029C6.60002 9.06892 6.3314 8.80029 6.00002 8.80029C5.66865 8.80029 5.40002 9.06892 5.40002 9.40029C5.40002 9.73166 5.66865 10.0003 6.00002 10.0003Z" fill="white"/>
<path d="M6.00002 4.60034C5.66852 4.60034 5.40002 4.84814 5.40002 5.15414C5.40002 5.35874 5.70062 7.94564 5.70212 7.95644C5.71982 8.09384 5.84642 8.20034 6.00002 8.20034C6.15362 8.20034 6.28022 8.09384 6.29792 7.95644C6.29942 7.94564 6.60002 5.35874 6.60002 5.15414C6.60002 4.84814 6.33152 4.60034 6.00002 4.60034Z" fill="white"/>
</svg>
