<svg width="28" height="31" viewBox="0 0 28 31" fill="none" xmlns="http://www.w3.org/2000/svg">
<g filter="url(#filter0_d_1413_28521)">
<path d="M23 6.72998C22.98 6.72998 22.95 6.72998 22.92 6.72998C17.63 6.19998 12.35 5.99998 7.12004 6.52998L5.08004 6.72998C4.66004 6.76998 4.29004 6.46998 4.25004 6.04998C4.21004 5.62998 4.51004 5.26998 4.92004 5.22998L6.96004 5.02998C12.28 4.48998 17.67 4.69998 23.07 5.22998C23.48 5.26998 23.78 5.63998 23.74 6.04998C23.71 6.43998 23.38 6.72998 23 6.72998Z" fill="#F65556"/>
<path d="M10.5 5.72C10.46 5.72 10.42 5.72 10.37 5.71C9.97001 5.64 9.69001 5.25 9.76001 4.85L9.98001 3.54C10.14 2.58 10.36 1.25 12.69 1.25H15.31C17.65 1.25 17.87 2.63 18.02 3.55L18.24 4.85C18.31 5.26 18.03 5.65 17.63 5.71C17.22 5.78 16.83 5.5 16.77 5.1L16.55 3.8C16.41 2.93 16.38 2.76 15.32 2.76H12.7C11.64 2.76 11.62 2.9 11.47 3.79L11.24 5.09C11.18 5.46 10.86 5.72 10.5 5.72Z" fill="#F65556"/>
<path d="M17.21 22.7501H10.79C7.30002 22.7501 7.16002 20.8201 7.05002 19.2601L6.40002 9.19007C6.37002 8.78007 6.69002 8.42008 7.10002 8.39008C7.52002 8.37008 7.87002 8.68008 7.90002 9.09008L8.55002 19.1601C8.66002 20.6801 8.70002 21.2501 10.79 21.2501H17.21C19.31 21.2501 19.35 20.6801 19.45 19.1601L20.1 9.09008C20.13 8.68008 20.49 8.37008 20.9 8.39008C21.31 8.42008 21.63 8.77007 21.6 9.19007L20.95 19.2601C20.84 20.8201 20.7 22.7501 17.21 22.7501Z" fill="#F65556"/>
<path d="M15.66 17.25H12.33C11.92 17.25 11.58 16.91 11.58 16.5C11.58 16.09 11.92 15.75 12.33 15.75H15.66C16.07 15.75 16.41 16.09 16.41 16.5C16.41 16.91 16.07 17.25 15.66 17.25Z" fill="#F65556"/>
<path d="M16.5 13.25H11.5C11.09 13.25 10.75 12.91 10.75 12.5C10.75 12.09 11.09 11.75 11.5 11.75H16.5C16.91 11.75 17.25 12.09 17.25 12.5C17.25 12.91 16.91 13.25 16.5 13.25Z" fill="#F65556"/>
</g>
<defs>
<filter id="filter0_d_1413_28521" x="-2" y="0" width="32" height="32" filterUnits="userSpaceOnUse" color-interpolation-filters="sRGB">
<feFlood flood-opacity="0" result="BackgroundImageFix"/>
<feColorMatrix in="SourceAlpha" type="matrix" values="0 0 0 0 0 0 0 0 0 0 0 0 0 0 0 0 0 0 127 0" result="hardAlpha"/>
<feOffset dy="4"/>
<feGaussianBlur stdDeviation="2"/>
<feComposite in2="hardAlpha" operator="out"/>
<feColorMatrix type="matrix" values="0 0 0 0 0 0 0 0 0 0 0 0 0 0 0 0 0 0 0.25 0"/>
<feBlend mode="normal" in2="BackgroundImageFix" result="effect1_dropShadow_1413_28521"/>
<feBlend mode="normal" in="SourceGraphic" in2="effect1_dropShadow_1413_28521" result="shape"/>
</filter>
</defs>
</svg>
