<svg width="45" height="45" viewBox="0 0 45 45" fill="none" xmlns="http://www.w3.org/2000/svg">
<path d="M22.5 7.75212e-08C18.0499 7.75212e-08 13.6998 1.3196 9.99968 3.79193C6.29957 6.26426 3.41569 9.77828 1.71272 13.8896C0.00974889 18.001 -0.435826 22.525 0.432341 26.8895C1.30051 31.2541 3.44343 35.2632 6.59011 38.4099C9.73679 41.5566 13.7459 43.6995 18.1105 44.5677C22.475 45.4358 26.999 44.9903 31.1104 43.2873C35.2217 41.5843 38.7357 38.7004 41.2081 35.0003C43.6804 31.3002 45 26.9501 45 22.5C45.0002 19.5452 44.4184 16.6193 43.2878 13.8893C42.1571 11.1594 40.4998 8.67892 38.4105 6.58955C36.3211 4.50018 33.8406 2.84285 31.1107 1.71221C28.3807 0.581567 25.4548 -0.000245202 22.5 7.75212e-08ZM29.6539 34.093C29.5697 34.303 29.4415 34.4926 29.2781 34.649C29.1146 34.8055 28.9196 34.9251 28.7061 35C28.4926 35.0749 28.2656 35.1033 28.0402 35.0833C27.8148 35.0633 27.5964 34.9953 27.3994 34.8839L21.2914 30.1378L17.3712 33.7545C17.2802 33.8217 17.1738 33.865 17.0618 33.8803C16.9497 33.8956 16.8356 33.8825 16.7299 33.8421L17.4814 27.1181L17.5055 27.1372L17.5208 27.0044C17.5208 27.0044 28.5121 16.9975 28.9598 16.5712C29.4132 16.1459 29.2636 16.0537 29.2636 16.0537C29.2894 15.535 28.4502 16.0537 28.4502 16.0537L13.887 25.4227L7.82216 23.3572C7.82216 23.3572 6.89066 23.0231 6.80291 22.2885C6.71066 21.5595 7.85251 21.1635 7.85251 21.1635L31.9658 11.5841C31.9658 11.5841 33.948 10.7009 33.948 12.1635L29.6539 34.093Z" fill="#259CD8"/>
</svg>
