<svg width="21" height="23" viewBox="0 0 21 23" fill="none" xmlns="http://www.w3.org/2000/svg">
<path fill-rule="evenodd" clip-rule="evenodd" d="M12.0813 1.02178C12.529 0.574567 13.7019 0.852862 15.0373 1.48192L15.4228 1.67088C15.4876 1.70385 15.5527 1.73754 15.618 1.77191L16.0113 1.98585C16.2743 2.13344 16.5384 2.29052 16.7997 2.4545L17.1889 2.70532L17.571 2.96455L17.943 3.23024C19.4069 4.30334 20.5586 5.48497 20.5586 6.21575C20.5586 6.93492 19.398 8.10531 17.927 9.17267L17.5533 9.43704L17.1695 9.69519L16.7788 9.94521C16.7133 9.98609 16.6475 10.0266 16.5817 10.0666L16.186 10.3008L15.7906 10.522L15.3985 10.7284C13.9055 11.4884 12.5504 11.8782 12.0813 11.4098C11.7336 11.062 11.5002 9.86953 11.3853 8.40611L11.3478 7.84575C11.3371 7.65548 11.3283 7.46209 11.3214 7.26671L11.3107 6.84909H2.61263L2.52584 6.84325C2.21365 6.8009 1.97303 6.5333 1.97303 6.2095C1.97303 5.85626 2.25939 5.56991 2.61263 5.56991H11.3079C11.3142 5.24508 11.3255 4.92353 11.342 4.61021L11.3778 4.04865C11.4817 2.67322 11.693 1.53246 12.0151 1.09915L12.0813 1.02178ZM18.4978 17.8915C18.81 17.8491 19.0506 17.5815 19.0506 17.2577C19.0506 16.9045 18.7643 16.6181 18.411 16.6181H9.71571C9.70946 16.2933 9.69811 15.9717 9.68162 15.6584L9.6458 15.0969C9.54195 13.7214 9.33066 12.5807 9.00857 12.1474L8.94238 12.07C8.4946 11.6228 7.3218 11.9011 5.98634 12.5301L5.60084 12.7191C5.53602 12.7521 5.47094 12.7858 5.40568 12.8201L5.01237 13.0341C4.74932 13.1817 4.48522 13.3387 4.22396 13.5027L3.8347 13.7535L3.45262 14.0128L3.08063 14.2785C1.61674 15.3516 0.465075 16.5332 0.465075 17.264C0.465075 17.9831 1.62565 19.1535 3.09666 20.2209L3.47039 20.4853L3.8541 20.7434L4.24484 20.9934C4.31039 21.0343 4.3761 21.0748 4.44193 21.1148L4.83768 21.349L5.23308 21.5702L5.62519 21.7766C7.11815 22.5367 8.47329 22.9264 8.94236 22.458C9.2901 22.1102 9.52344 20.9178 9.63833 19.4543L9.67586 18.894C9.68651 18.7037 9.6953 18.5103 9.70223 18.3149L9.71295 17.8973H18.411L18.4978 17.8915Z" fill="#FFC37D"/>
</svg>
