<svg width="24" height="24" viewBox="0 0 24 24" fill="none" xmlns="http://www.w3.org/2000/svg">
<path d="M19.7899 4.22031C16.8299 1.27031 12.0299 1.27031 9.0899 4.22031C7.0199 6.27031 6.3999 9.22031 7.1999 11.8203L2.4999 16.5203C2.1699 16.8603 1.9399 17.5303 2.0099 18.0103L2.3099 20.1903C2.4199 20.9103 3.0899 21.5903 3.8099 21.6903L5.9899 21.9903C6.4699 22.0603 7.1399 21.8403 7.4799 21.4903L8.2999 20.6703C8.4999 20.4803 8.4999 20.1603 8.2999 19.9603L6.3599 18.0203C6.0699 17.7303 6.0699 17.2503 6.3599 16.9603C6.6499 16.6703 7.1299 16.6703 7.4199 16.9603L9.3699 18.9103C9.5599 19.1003 9.8799 19.1003 10.0699 18.9103L12.1899 16.8003C14.7799 17.6103 17.7299 16.9803 19.7899 14.9303C22.7399 11.9803 22.7399 7.17031 19.7899 4.22031ZM14.4999 12.0003C13.1199 12.0003 11.9999 10.8803 11.9999 9.50031C11.9999 8.12031 13.1199 7.00031 14.4999 7.00031C15.8799 7.00031 16.9999 8.12031 16.9999 9.50031C16.9999 10.8803 15.8799 12.0003 14.4999 12.0003Z" fill="#2873FF"/>
</svg>
