<svg width="36" height="36" viewBox="0 0 36 36" fill="none" xmlns="http://www.w3.org/2000/svg">
<path d="M25.0201 31.2449C25.0051 31.2449 24.9751 31.2449 24.9601 31.2449H8.32506C3.91506 30.9299 1.93506 27.5399 1.93506 24.5099C1.93506 21.8099 3.51006 18.8099 6.94506 17.9849C5.98506 14.2349 6.79506 10.7099 9.24006 8.15987C12.0151 5.24987 16.4701 4.09487 20.2951 5.27987C23.8051 6.35987 26.2801 9.25488 27.1801 13.2749C30.2551 13.9649 32.7001 16.2899 33.6901 19.4999C34.7551 22.9949 33.7951 26.5799 31.1701 28.8749C29.4901 30.3899 27.3001 31.2449 25.0201 31.2449ZM8.35506 20.0249C8.34006 20.0249 8.34006 20.0249 8.32506 20.0249C5.47506 20.2349 4.17006 22.4249 4.17006 24.5099C4.17006 26.5949 5.47506 28.7849 8.38506 28.9949H24.9451C26.6851 28.9649 28.3501 28.3649 29.6401 27.1949C31.9801 25.1399 32.1451 22.2149 31.5151 20.1599C30.8851 18.0899 29.1301 15.7499 26.0701 15.3599C25.5751 15.2999 25.1851 14.9249 25.0951 14.4299C24.4951 10.8299 22.5451 8.33987 19.6201 7.43987C16.5751 6.50987 13.0651 7.42488 10.8601 9.71987C8.86506 11.8049 8.29506 14.6849 9.22506 17.8499C9.99006 17.9549 10.7251 18.1799 11.4001 18.5249C11.9551 18.8099 12.1801 19.4849 11.8951 20.0399C11.6101 20.5949 10.9351 20.8199 10.3801 20.5349C9.76506 20.2199 9.09006 20.0549 8.41506 20.0549C8.40006 20.0249 8.38506 20.0249 8.35506 20.0249Z" fill="#2873FF"/>
<path d="M23.775 16.0048C23.355 16.0048 22.965 15.7798 22.77 15.3748C22.485 14.8198 22.725 14.1448 23.28 13.8598C24.21 13.3948 25.245 13.1398 26.265 13.1248C26.865 13.1098 27.405 13.6048 27.405 14.2348C27.42 14.8498 26.925 15.3748 26.295 15.3748C25.605 15.3898 24.9 15.5548 24.27 15.8698C24.105 15.9598 23.94 16.0048 23.775 16.0048Z" fill="#2873FF"/>
</svg>
