<svg width="30" height="30" viewBox="0 0 30 30" fill="none" xmlns="http://www.w3.org/2000/svg">
    <path
        d="M29.8384 15.338C29.8384 14.1175 29.7374 13.2269 29.5188 12.3032H15.3043V17.8121H23.6479C23.4797 19.1811 22.5714 21.2428 20.5527 22.6282L20.5244 22.8127L25.0188 26.2265L25.3301 26.2569C28.1898 23.6674 29.8384 19.8573 29.8384 15.338Z"
        fill="#4285F4" />
    <path
        d="M15.3034 29.8529C19.391 29.8529 22.8226 28.5334 25.3292 26.2573L20.5517 22.6285C19.2733 23.5027 17.5574 24.113 15.3034 24.113C11.2998 24.113 7.90179 21.5235 6.6905 17.9443L6.51295 17.9591L1.83965 21.5053L1.77853 21.6719C4.26815 26.5211 9.38201 29.8529 15.3034 29.8529Z"
        fill="#34A853" />
    <path
        d="M6.69139 17.9441C6.37178 17.0205 6.18681 16.0308 6.18681 15.0082C6.18681 13.9855 6.37178 12.9959 6.67458 12.0723L6.66611 11.8756L1.93424 8.27246L1.77942 8.34466C0.753325 10.3569 0.164551 12.6166 0.164551 15.0082C0.164551 17.3998 0.753325 19.6594 1.77942 21.6716L6.69139 17.9441Z"
        fill="#FBBC05" />
    <path
        d="M15.3034 5.90385C18.1463 5.90385 20.064 7.10789 21.1574 8.11408L25.4302 4.0236C22.8061 1.63201 19.3911 0.164062 15.3034 0.164062C9.38205 0.164062 4.26816 3.49577 1.77853 8.3449L6.67371 12.0725C7.90182 8.4934 11.2998 5.90385 15.3034 5.90385Z"
        fill="#EB4335" />
</svg>