<svg width="42" height="42" viewBox="0 0 42 42" fill="none" xmlns="http://www.w3.org/2000/svg">
    <path
        d="M21.0001 0.166626C14.1834 0.166626 8.14969 3.45374 4.34969 8.51624L11.8896 16.0561C13.6541 12.8124 17.048 10.5833 21.0001 10.5833C23.3292 10.5833 25.4577 11.375 27.1931 12.6666H39.7501L30.3222 16.4386C31.0013 17.8219 31.4167 19.3562 31.4167 21C31.4167 24.4229 29.741 27.4354 27.1931 29.3333H27.2501L18.9859 41.7316C19.6484 41.7961 20.3188 41.8333 21.0001 41.8333C32.5063 41.8333 41.8334 32.5062 41.8334 21C41.8334 9.49371 32.5063 0.166626 21.0001 0.166626ZM4.34562 8.52437C1.7352 12.0056 0.166748 16.3125 0.166748 21C0.166748 31.8145 8.40962 40.6983 18.9534 41.7275L22.4364 31.2701C21.9614 31.3368 21.4917 31.4166 21.0001 31.4166C15.248 31.4166 10.5834 26.752 10.5834 21L4.34562 8.52437ZM21.0001 14.75C19.3425 14.75 17.7528 15.4084 16.5807 16.5805C15.4086 17.7526 14.7501 19.3424 14.7501 21C14.7501 22.6576 15.4086 24.2473 16.5807 25.4194C17.7528 26.5915 19.3425 27.25 21.0001 27.25C22.6577 27.25 24.2474 26.5915 25.4195 25.4194C26.5916 24.2473 27.2501 22.6576 27.2501 21C27.2501 19.3424 26.5916 17.7526 25.4195 16.5805C24.2474 15.4084 22.6577 14.75 21.0001 14.75Z"
        fill="" />
</svg>