<svg width="10" height="13" viewBox="0 0 10 13" fill="none" xmlns="http://www.w3.org/2000/svg">
<path fill-rule="evenodd" clip-rule="evenodd" d="M2.20782 5.1435C2.20782 3.60142 3.45792 2.35131 5 2.35131C6.54208 2.35131 7.79218 3.60142 7.79218 5.1435C7.79218 6.68558 6.54208 7.93568 5 7.93568C3.45792 7.93568 2.20782 6.68558 2.20782 5.1435ZM5 3.23306C3.94489 3.23306 3.08956 4.08839 3.08956 5.1435C3.08956 6.19861 3.94489 7.05394 5 7.05394C6.05511 7.05394 6.91044 6.19861 6.91044 5.1435C6.91044 4.08839 6.05511 3.23306 5 3.23306Z" fill="white"/>
<path fill-rule="evenodd" clip-rule="evenodd" d="M0.0177805 4.47152C0.226064 1.94468 2.33763 0 4.87305 0H5.12695C7.66237 0 9.77394 1.94468 9.98222 4.47152C10.0941 5.82891 9.67482 7.17673 8.81268 8.23111L5.99518 11.6768C5.48083 12.3059 4.51917 12.3059 4.00482 11.6768L1.18732 8.23111C0.325181 7.17673 -0.0941062 5.82891 0.0177805 4.47152ZM4.87305 0.881743C2.79652 0.881743 1.06713 2.47445 0.896543 4.54396C0.803422 5.67367 1.15238 6.79543 1.86992 7.67297L4.68742 11.1187C4.84897 11.3163 5.15103 11.3163 5.31258 11.1187L8.13008 7.67296C8.84762 6.79543 9.19658 5.67367 9.10346 4.54396C8.93287 2.47445 7.20348 0.881743 5.12695 0.881743H4.87305Z" fill="white"/>
</svg>
