<svg width="30" height="30" viewBox="0 0 30 30" fill="none" xmlns="http://www.w3.org/2000/svg">
<circle cx="15" cy="15" r="15" fill="#11CABE"/>
<path fill-rule="evenodd" clip-rule="evenodd" d="M18.1555 25.2594C18.471 25.5132 18.882 25.6098 19.2832 25.5245C19.5826 25.4609 19.8442 25.3039 20.0398 25.0714C20.4358 24.6004 20.4498 23.9234 20.0788 23.4449L23.8261 18.9881C24.093 19.1156 24.3998 19.1515 24.6941 19.089C24.9933 19.0254 25.2547 18.8691 25.4502 18.6368C25.6784 18.365 25.7863 18.0236 25.7533 17.6751C25.7201 17.3265 25.5504 17.0128 25.2752 16.7917C25.0451 16.6061 24.7557 16.5024 24.4569 16.4975L23.2643 10.8825C23.4451 10.7988 23.6009 10.6797 23.7282 10.5282C24.1994 9.96757 24.1211 9.14034 23.5534 8.68339C23.2379 8.4299 22.827 8.3333 22.4249 8.41875C22.1295 8.48154 21.8707 8.63525 21.6756 8.86361L16.4398 6.31388C16.5577 5.82883 16.3855 5.31863 15.9939 5.00331C15.6789 4.74971 15.2676 4.65332 14.866 4.73869C14.5668 4.80226 14.3053 4.95851 14.1097 5.19124C13.8499 5.50059 13.7482 5.89804 13.8283 6.2884L8.49497 8.72685C8.43451 8.65067 8.36728 8.58265 8.29531 8.52469C7.97988 8.27144 7.56873 8.17501 7.16733 8.26033C6.86822 8.32391 6.60631 8.48072 6.41075 8.7132C6.18266 8.98439 6.075 9.32623 6.1083 9.67468C6.14095 10.023 6.3107 10.3368 6.586 10.5578C6.65801 10.616 6.73868 10.6672 6.82724 10.7109L5.40989 16.3014C5.31182 16.3012 5.21389 16.3111 5.1177 16.3315C4.8193 16.395 4.5584 16.5512 4.36322 16.7825C3.89222 17.3434 3.97037 18.1712 4.53858 18.6277C4.85284 18.8807 5.26317 18.9768 5.66457 18.8915C5.75945 18.8713 5.85236 18.8413 5.9405 18.8018L9.50667 23.3325C9.28212 23.6027 9.17709 23.941 9.20988 24.2859C9.24254 24.6342 9.41259 24.9484 9.68776 25.1698C10.0029 25.4231 10.4138 25.5197 10.8155 25.4343C11.1149 25.3707 11.3761 25.2137 11.5715 24.9811C11.6986 24.8305 11.7875 24.6584 11.837 24.4694L17.7025 24.5301C17.7653 24.8165 17.9253 25.0736 18.1555 25.2594ZM11.9957 9.28685L14.0386 6.85633L8.79662 9.25358L11.9957 9.28685ZM13.9911 9.30701L14.5167 7.23324L12.7838 9.29458L13.9911 9.30701ZM15.1141 7.37703L15.5269 9.32313L14.623 9.31359L15.1141 7.37703ZM17.3645 9.34212L15.7176 7.25108L16.1592 9.32998L17.3645 9.34212ZM11.4924 9.88547L10.7224 10.8008L8.78428 9.85731L11.4924 9.88547ZM21.3538 9.38342L16.2044 6.8761L18.1523 9.35054L21.3538 9.38342ZM10.3191 11.2813L9.74127 11.9684L8.50534 10.3985L10.3191 11.2813ZM13.2947 12.0533L13.838 9.90972L12.2804 9.89346L11.2866 11.0756L13.2947 12.0533ZM21.3414 9.98739L19.3657 10.8912L18.6319 9.95952L21.3414 9.98739ZM8.56805 13.3642L9.3373 12.4486L8.01695 10.7703L8.56805 13.3642ZM18.7907 11.1538L16.7454 12.0891L16.2877 9.93472L17.8438 9.95105L18.7907 11.1538ZM15.0042 12.8854L16.1701 12.3524L15.6554 9.92846L14.4702 9.91622L13.8588 12.3278L15.0042 12.8854ZM21.5985 10.534L20.3004 12.078L19.75 11.3794L21.5985 10.534ZM13.5488 13.5509L14.2874 13.213L13.7063 12.93L13.5488 13.5509ZM12.8321 13.8789L11.6647 14.4128L10.1257 12.4571L10.8828 11.5556L13.1422 12.6556L12.8321 13.8789ZM16.4308 13.5798L16.2988 12.9576L15.7078 13.2279L16.4308 13.5798ZM11.0899 14.6752L9.04468 15.6109L8.72802 14.1194L9.72216 12.9369L11.0899 14.6752ZM6.01968 16.3953L8.06386 13.9633L7.41328 10.8984L6.01968 16.3953ZM12.6414 14.6297L12.4453 15.4042L12.0491 14.901L12.6414 14.6297ZM21.4178 13.4977L22.0726 10.9159L20.685 12.5664L21.4178 13.4977ZM8.46959 15.8737L6.49392 16.7772L8.22425 14.7183L8.46959 15.8737ZM18.2805 14.4805L19.8965 12.5583L19.1752 11.6422L16.8738 12.6946L17.1344 13.922L18.2805 14.4805ZM17.8767 14.9603L17.4599 15.4562L17.2943 14.6771L17.8767 14.9603ZM8.78212 17.3445L8.59838 16.4789L6.7508 17.3237L8.78212 17.3445ZM12.2549 16.1553L11.9452 17.3774L9.41428 17.3513L9.17319 16.2159L11.4744 15.1638L12.2549 16.1553ZM20.8514 15.7319L21.2271 14.2484L20.2809 13.0464L18.8442 14.7545L20.8514 15.7319ZM12.7341 16.7644L13.2267 17.3904L12.5767 17.3836L12.7341 16.7644ZM15.8109 17.417L16.9567 16.0548L16.5913 14.3346L14.9911 13.5553L13.3583 14.3021L12.9245 16.0129L14.015 17.3983L15.8109 17.417ZM8.91086 17.9504L9.1563 19.1051L6.73831 17.9282L8.91086 17.9504ZM17.2492 17.4323L17.117 16.81L16.5993 17.4258L17.2492 17.4323ZM22.6708 11.056L23.8437 16.5779L21.8971 14.1061L22.6708 11.056ZM14.8906 18.5117L15.3075 18.0162L14.4939 18.0073L14.8906 18.5117ZM20.6988 16.334L20.4123 17.4649L17.8807 17.439L17.62 16.2113L18.4409 15.2349L20.6988 16.334ZM23.3552 16.9512L21.7068 14.8574L21.4152 16.0066L23.3552 16.9512ZM21.2629 16.6092L23.0771 17.4922L21.0438 17.4711L21.2629 16.6092ZM11.2486 20.1247L11.7921 17.9796L9.54303 17.9563L9.85964 19.4476L11.2486 20.1247ZM23.0649 18.0962L20.6001 19.2238L20.8914 18.074L23.0649 18.0962ZM12.8706 20.9143L14.4868 18.9918L13.7061 17.9995L12.4242 17.9866L11.8125 20.399L12.8706 20.9143ZM19.8833 19.551L18.4671 20.1985L18.0094 18.0438L20.2595 18.0674L19.8833 19.551ZM16.8137 20.9549L17.8921 20.4615L17.3773 18.0371L16.0954 18.024L15.2748 19.0001L16.8137 20.9549ZM16.2387 21.2179L14.8228 21.8653L13.4344 21.1895L14.8713 19.4802L16.2387 21.2179ZM9.96767 22.9252L9.31654 19.8607L6.46014 18.4692L9.96767 22.9252ZM11.0959 20.7269L10.5707 22.7975L10.0196 20.203L11.0959 20.7269ZM11.1691 22.938L12.4667 21.3947L11.6602 21.0017L11.1691 22.938ZM14.1059 22.1928L11.6434 23.3197L13.0309 21.6695L14.1059 22.1928ZM18.4341 23.0138L18.0208 21.0673L17.198 21.4436L18.4341 23.0138ZM19.6923 20.3024L19.0377 22.886L18.5955 20.804L19.6923 20.3024ZM17.9449 23.3859L16.6232 21.7062L15.5262 22.2077L17.9449 23.3859ZM23.3214 18.6427L19.6356 23.0265L20.4093 19.9751L23.3214 18.6427ZM17.6643 23.9265L14.8094 22.5354L11.8997 23.8666L17.6643 23.9265Z" fill="white"/>
</svg>
