<svg width="15" height="15" viewBox="0 0 15 15" fill="none" xmlns="http://www.w3.org/2000/svg">
<path fill-rule="evenodd" clip-rule="evenodd" d="M13.6259 7.8043C13.1162 9.29423 12.4536 10.4203 11.7902 10.4208C11.1141 10.4208 9.54391 9.21045 8.02811 7.75191L1.87989 13.9001C1.63012 14.1499 1.22515 14.1499 0.975373 13.9001C0.746411 13.6712 0.727331 13.3118 0.918132 13.0611L0.975373 12.9956L7.12469 6.84629C6.89104 6.6023 6.66372 6.35692 6.44667 6.11412L6.07697 5.69135C5.12341 4.57532 4.4452 3.56711 4.4452 3.07533C4.44562 2.47007 5.47423 1.84836 6.86574 1.35036L7.27262 1.21156L7.6958 1.08022C7.7675 1.05899 7.83973 1.03811 7.91242 1.01758L8.35359 0.898789L8.80244 0.789278C8.8777 0.771839 8.95313 0.754818 9.02867 0.738228L9.48257 0.643992L9.93554 0.560847L10.3841 0.489522L10.8249 0.43074C12.3497 0.247808 13.6673 0.308738 14.1123 0.753699C14.6075 1.24891 14.6476 2.78481 14.4068 4.49084L14.3378 4.93917L14.2567 5.39179L14.1642 5.84526C14.1479 5.92072 14.1311 5.99607 14.1139 6.07124L14.0057 6.51955L13.8878 6.96012C13.847 7.1053 13.8047 7.24862 13.761 7.38951L13.6259 7.8043Z" fill="#61E0A1"/>
</svg>
