<svg width="16" height="13" viewBox="0 0 16 13" fill="none" xmlns="http://www.w3.org/2000/svg">
<path fill-rule="evenodd" clip-rule="evenodd" d="M0.653931 3.11538C0.430151 5.19459 0.440126 7.59259 0.751519 9.66335C0.92382 10.8092 1.85896 11.6876 3.01329 11.7879L4.21967 11.8928C6.73514 12.1114 9.26485 12.1114 11.7803 11.8928L12.9867 11.7879C14.141 11.6876 15.0762 10.8092 15.2485 9.66335C15.5599 7.59258 15.5699 5.19472 15.3461 3.11551C15.3171 2.87446 15.2846 2.63373 15.2485 2.39341C15.0762 1.24761 14.141 0.369211 12.9867 0.268868L11.7803 0.163999C9.26485 -0.0546664 6.73514 -0.0546663 4.21967 0.163999L3.01329 0.268868C1.85896 0.369211 0.92382 1.24761 0.751519 2.39341C0.715387 2.63369 0.682858 2.87437 0.653931 3.11538ZM4.32343 1.35771C6.76986 1.14504 9.23013 1.14504 11.6766 1.35771L12.8829 1.46257C13.4855 1.51495 13.9736 1.97348 14.0636 2.57159C14.0729 2.6337 14.082 2.69585 14.0908 2.75801L9.64869 5.22588C8.62334 5.79552 7.37659 5.79552 6.35125 5.22588L1.90914 2.75804C1.91797 2.69586 1.92706 2.63371 1.93641 2.57159C2.02635 1.97348 2.51449 1.51495 3.11705 1.46257L4.32343 1.35771ZM14.2375 4.04726C14.3924 5.85875 14.3345 7.6839 14.0636 9.48518C13.9736 10.0833 13.4855 10.5418 12.8829 10.5942L11.6766 10.6991C9.23013 10.9117 6.76986 10.9117 4.32343 10.6991L3.11705 10.5942C2.51449 10.5418 2.02635 10.0833 1.93641 9.48518C1.66554 7.68391 1.60758 5.85877 1.76252 4.04729L5.76934 6.2733C7.15657 7.04398 8.84336 7.04399 10.2306 6.2733L14.2375 4.04726Z"/>
</svg>
