<svg width="24" height="24" viewBox="0 0 24 24" fill="none" xmlns="http://www.w3.org/2000/svg">
<path d="M21.74 12.91C21.48 12.05 21.05 11.3 20.48 10.69C19.75 9.85998 18.78 9.28998 17.69 9.03998C17.14 6.53998 15.6 4.73998 13.41 4.06998C11.03 3.32998 8.27 4.04998 6.54 5.85998C5.02 7.44998 4.52 9.63998 5.11 11.97C3.11 12.46 2.12 14.13 2.01 15.72C2 15.83 2 15.93 2 16.03C2 17.91 3.23 20.02 5.97 20.22H16.35C17.77 20.22 19.13 19.69 20.17 18.74C21.8 17.31 22.4 15.08 21.74 12.91Z" fill="#2873FF"/>
</svg>
