<svg width="17" height="12" viewBox="0 0 17 12" fill="none" xmlns="http://www.w3.org/2000/svg">
<path fill-rule="evenodd" clip-rule="evenodd" d="M5 5.625C5 3.89911 6.39911 2.5 8.125 2.5C9.85089 2.5 11.25 3.89911 11.25 5.625C11.25 7.35089 9.85089 8.75 8.125 8.75C6.39911 8.75 5 7.35089 5 5.625ZM8.125 3.75C7.08947 3.75 6.25 4.58947 6.25 5.625C6.25 6.66053 7.08947 7.5 8.125 7.5C9.16053 7.5 10 6.66053 10 5.625C10 4.58947 9.16053 3.75 8.125 3.75Z" fill="#8E8E93"/>
<path fill-rule="evenodd" clip-rule="evenodd" d="M1.72785 4.49696C1.37859 5.00024 1.25 5.39392 1.25 5.625C1.25 5.85608 1.37859 6.24976 1.72785 6.75304C2.06548 7.23954 2.56731 7.7669 3.20223 8.25419C4.47482 9.2309 6.21954 10 8.125 10C10.0305 10 11.7752 9.2309 13.0478 8.25419C13.6827 7.7669 14.1845 7.23954 14.5221 6.75304C14.8714 6.24976 15 5.85608 15 5.625C15 5.39392 14.8714 5.00024 14.5221 4.49696C14.1845 4.01046 13.6827 3.4831 13.0478 2.99581C11.7752 2.0191 10.0305 1.25 8.125 1.25C6.21954 1.25 4.47482 2.0191 3.20223 2.99581C2.56731 3.4831 2.06548 4.01046 1.72785 4.49696ZM2.44117 2.00419C3.88304 0.897566 5.88832 0 8.125 0C10.3617 0 12.367 0.897566 13.8088 2.00419C14.5311 2.55857 15.1277 3.17704 15.5491 3.78429C15.9589 4.37476 16.25 5.02275 16.25 5.625C16.25 6.22725 15.9589 6.87524 15.5491 7.46571C15.1277 8.07296 14.5311 8.69143 13.8088 9.24581C12.367 10.3524 10.3617 11.25 8.125 11.25C5.88832 11.25 3.88304 10.3524 2.44117 9.24581C1.71885 8.69143 1.12234 8.07296 0.700919 7.46571C0.291142 6.87524 0 6.22725 0 5.625C0 5.02275 0.291142 4.37476 0.700919 3.78429C1.12234 3.17704 1.71885 2.55857 2.44117 2.00419Z" fill="#8E8E93"/>
</svg>
