<svg width="21" height="21" viewBox="0 0 21 21" xmlns="http://www.w3.org/2000/svg">
<path fill-rule="evenodd" clip-rule="evenodd" d="M10.6667 2.19538L8.56534 4.36954C8.34168 4.60095 8.03364 4.73163 7.71181 4.73163H4.73153V7.7119C4.73153 8.03373 4.60086 8.34177 4.36944 8.56543L2.19529 10.6667L4.36944 12.7681C4.60086 12.9917 4.73153 13.2998 4.73153 13.6216V16.6019H7.71181C8.03364 16.6019 8.34168 16.7325 8.56534 16.964L10.6667 19.1381L12.768 16.964C12.9916 16.7325 13.2997 16.6019 13.6215 16.6019H16.6018V13.6216C16.6018 13.2998 16.7325 12.9917 16.9639 12.7681L19.138 10.6667L16.9639 8.56543C16.7325 8.34178 16.6018 8.03374 16.6018 7.71191V4.73163H13.6215C13.2997 4.73163 12.9916 4.60095 12.768 4.36954L10.6667 2.19538ZM9.81313 1.02884C10.2797 0.546051 11.0536 0.546052 11.5202 1.02884L13.7222 3.3072H16.8392C17.4948 3.3072 18.0262 3.83865 18.0262 4.49422V7.61119L20.3046 9.81322C20.7874 10.2798 20.7874 11.0537 20.3046 11.5203L18.0262 13.7223V16.8393C18.0262 17.4948 17.4948 18.0263 16.8392 18.0263H13.7222L11.5202 20.3047C11.0536 20.7874 10.2797 20.7874 9.81313 20.3047L7.61109 18.0263H4.49413C3.83855 18.0263 3.30711 17.4948 3.30711 16.8393V13.7223L1.02875 11.5203C0.54596 11.0537 0.545959 10.2798 1.02875 9.81322L3.30711 7.61119V4.49422C3.30711 3.83864 3.83856 3.3072 4.49413 3.3072H7.6111L9.81313 1.02884Z" />
<path fill-rule="evenodd" clip-rule="evenodd" d="M6.15596 10.6667C6.15596 8.17556 8.17547 6.15605 10.6667 6.15605C13.1578 6.15605 15.1773 8.17556 15.1773 10.6667C15.1773 13.1579 13.1578 15.1774 10.6667 15.1774C8.17547 15.1774 6.15596 13.1579 6.15596 10.6667ZM10.6667 7.58048C8.96216 7.58048 7.58039 8.96225 7.58039 10.6667C7.58039 12.3712 8.96216 13.753 10.6667 13.753C12.3712 13.753 13.7529 12.3712 13.7529 10.6667C13.7529 8.96225 12.3712 7.58048 10.6667 7.58048Z"/>
</svg>
