<svg width="30" height="30" viewBox="0 0 30 30" fill="none" xmlns="http://www.w3.org/2000/svg">
<rect width="30" height="30" rx="15" fill="#31CBD1"/>
<path fill-rule="evenodd" clip-rule="evenodd" d="M18.869 12.48C19.0505 12.3339 19.3161 12.3626 19.4622 12.5441C19.595 12.7091 19.5834 12.9436 19.4438 13.0946L19.3981 13.1373L16.2746 15.6516C15.5646 16.2092 14.578 16.2334 13.8417 15.7225L13.7429 15.6495L10.597 13.1384C10.4149 12.993 10.3851 12.7276 10.5305 12.5455C10.6626 12.3799 10.894 12.3403 11.0718 12.4436L11.1234 12.479L14.2666 14.988C14.6757 15.3093 15.241 15.3294 15.6664 15.0508L15.7495 14.9912L18.869 12.48ZM18.4421 8.32034L11.5432 8.32031C9.22051 8.32031 7.54697 10.1923 7.54697 12.6134V17.387C7.54697 19.8081 9.22051 21.6801 11.5432 21.6801H18.4374C19.5535 21.667 20.6103 21.1977 21.3649 20.3821C22.1214 19.5646 22.5119 18.474 22.4461 17.3621L22.4468 12.6134C22.5119 11.5265 22.1214 10.4358 21.3649 9.61834C20.6079 8.80165 19.5521 8.33258 18.4421 8.32034Z" fill="white"/>
</svg>
