<svg width="24" height="23" viewBox="0 0 24 23" fill="none" xmlns="http://www.w3.org/2000/svg">
<path d="M11.076 5.43751C12.7491 5.29113 14.3905 5.89491 15.6473 6.9533L15.6476 6.95672C15.5989 6.39993 15.9367 5.94596 16.4544 5.90066L16.5859 5.88916C17.403 5.81768 17.6341 6.57383 17.6553 6.81695L18.4158 15.4699C18.4086 16.0419 19.0766 16.2788 19.4016 15.8833C20.6636 14.3354 21.8083 8.27549 17.5961 5.19349C13.6675 2.31648 8.81627 3.27298 6.36941 5.29513C3.76917 7.44939 2.36969 11.8277 4.43529 15.6468C6.69043 19.8103 12.1679 20.6319 15.2481 19.065C16.8073 18.271 17.7433 20.3877 16.1258 21.249C13.6884 22.5506 6.62258 23.0576 2.82773 17.639C0.26397 13.9787 -0.211539 7.18691 5.3887 3.15672C9.6687 0.07223 15.6915 0.296136 19.611 3.73155C23.7073 7.32677 24.1324 14.6868 20.7181 17.8612C19.1722 19.3042 16.5977 18.2576 16.45 16.3651L16.3776 15.7503C15.3224 16.9958 13.8436 17.8015 12.1705 17.9479C8.86053 18.2375 5.69144 15.5776 5.40215 12.2711C5.10975 8.929 7.76614 5.72846 11.0761 5.43888L11.076 5.43751ZM15.7685 11.1233C15.4313 8.71195 13.5059 7.41048 11.3335 7.60053L11.2513 7.60773C8.74748 7.82678 7.52908 9.92088 7.72472 12.157C7.94407 14.6642 9.76257 16.1007 11.9671 15.9078C14.4279 15.6925 15.8859 13.7506 15.8174 11.6104L15.7685 11.1233Z" fill="white"/>
</svg>
