<svg width="30" height="30" viewBox="0 0 30 30" fill="none" xmlns="http://www.w3.org/2000/svg">
    <circle cx="15" cy="15" r="15" fill="#3B82F6" />
    <path
        d="M12.5 20.625H10C9.83424 20.625 9.67527 20.5592 9.55806 20.4419C9.44085 20.3247 9.375 20.1658 9.375 20V17.5C9.375 17.3342 9.30915 17.1753 9.19194 17.0581C9.07473 16.9408 8.91576 16.875 8.75 16.875C8.58424 16.875 8.42527 16.9408 8.30806 17.0581C8.19085 17.1753 8.125 17.3342 8.125 17.5V20C8.125 20.4973 8.32254 20.9742 8.67417 21.3258C9.02581 21.6775 9.50272 21.875 10 21.875H12.5C12.6658 21.875 12.8247 21.8092 12.9419 21.6919C13.0592 21.5747 13.125 21.4158 13.125 21.25C13.125 21.0842 13.0592 20.9253 12.9419 20.8081C12.8247 20.6908 12.6658 20.625 12.5 20.625ZM21.25 16.875C21.0842 16.875 20.9253 16.9408 20.8081 17.0581C20.6908 17.1753 20.625 17.3342 20.625 17.5V20C20.625 20.1658 20.5592 20.3247 20.4419 20.4419C20.3247 20.5592 20.1658 20.625 20 20.625H17.5C17.3342 20.625 17.1753 20.6908 17.0581 20.8081C16.9408 20.9253 16.875 21.0842 16.875 21.25C16.875 21.4158 16.9408 21.5747 17.0581 21.6919C17.1753 21.8092 17.3342 21.875 17.5 21.875H20C20.4973 21.875 20.9742 21.6775 21.3258 21.3258C21.6775 20.9742 21.875 20.4973 21.875 20V17.5C21.875 17.3342 21.8092 17.1753 21.6919 17.0581C21.5747 16.9408 21.4158 16.875 21.25 16.875ZM20 8.125H17.5C17.3342 8.125 17.1753 8.19085 17.0581 8.30806C16.9408 8.42527 16.875 8.58424 16.875 8.75C16.875 8.91576 16.9408 9.07473 17.0581 9.19194C17.1753 9.30915 17.3342 9.375 17.5 9.375H20C20.1658 9.375 20.3247 9.44085 20.4419 9.55806C20.5592 9.67527 20.625 9.83424 20.625 10V12.5C20.625 12.6658 20.6908 12.8247 20.8081 12.9419C20.9253 13.0592 21.0842 13.125 21.25 13.125C21.4158 13.125 21.5747 13.0592 21.6919 12.9419C21.8092 12.8247 21.875 12.6658 21.875 12.5V10C21.875 9.50272 21.6775 9.02581 21.3258 8.67417C20.9742 8.32254 20.4973 8.125 20 8.125ZM8.75 13.125C8.91576 13.125 9.07473 13.0592 9.19194 12.9419C9.30915 12.8247 9.375 12.6658 9.375 12.5V10C9.375 9.83424 9.44085 9.67527 9.55806 9.55806C9.67527 9.44085 9.83424 9.375 10 9.375H12.5C12.6658 9.375 12.8247 9.30915 12.9419 9.19194C13.0592 9.07473 13.125 8.91576 13.125 8.75C13.125 8.58424 13.0592 8.42527 12.9419 8.30806C12.8247 8.19085 12.6658 8.125 12.5 8.125H10C9.50272 8.125 9.02581 8.32254 8.67417 8.67417C8.32254 9.02581 8.125 9.50272 8.125 10V12.5C8.125 12.6658 8.19085 12.8247 8.30806 12.9419C8.42527 13.0592 8.58424 13.125 8.75 13.125ZM13.75 10.625H11.25C11.0842 10.625 10.9253 10.6908 10.8081 10.8081C10.6908 10.9253 10.625 11.0842 10.625 11.25V13.75C10.625 13.9158 10.6908 14.0747 10.8081 14.1919C10.9253 14.3092 11.0842 14.375 11.25 14.375H13.75C13.9158 14.375 14.0747 14.3092 14.1919 14.1919C14.3092 14.0747 14.375 13.9158 14.375 13.75V11.25C14.375 11.0842 14.3092 10.9253 14.1919 10.8081C14.0747 10.6908 13.9158 10.625 13.75 10.625ZM13.125 13.125H11.875V11.875H13.125V13.125ZM16.25 14.375H18.75C18.9158 14.375 19.0747 14.3092 19.1919 14.1919C19.3092 14.0747 19.375 13.9158 19.375 13.75V11.25C19.375 11.0842 19.3092 10.9253 19.1919 10.8081C19.0747 10.6908 18.9158 10.625 18.75 10.625H16.25C16.0842 10.625 15.9253 10.6908 15.8081 10.8081C15.6908 10.9253 15.625 11.0842 15.625 11.25V13.75C15.625 13.9158 15.6908 14.0747 15.8081 14.1919C15.9253 14.3092 16.0842 14.375 16.25 14.375ZM16.875 11.875H18.125V13.125H16.875V11.875ZM13.75 15.625H11.25C11.0842 15.625 10.9253 15.6908 10.8081 15.8081C10.6908 15.9253 10.625 16.0842 10.625 16.25V18.75C10.625 18.9158 10.6908 19.0747 10.8081 19.1919C10.9253 19.3092 11.0842 19.375 11.25 19.375H13.75C13.9158 19.375 14.0747 19.3092 14.1919 19.1919C14.3092 19.0747 14.375 18.9158 14.375 18.75V16.25C14.375 16.0842 14.3092 15.9253 14.1919 15.8081C14.0747 15.6908 13.9158 15.625 13.75 15.625ZM13.125 18.125H11.875V16.875H13.125V18.125ZM16.25 17.5C16.4158 17.5 16.5747 17.4342 16.6919 17.3169C16.8092 17.1997 16.875 17.0408 16.875 16.875C17.0408 16.875 17.1997 16.8092 17.3169 16.6919C17.4342 16.5747 17.5 16.4158 17.5 16.25C17.5 16.0842 17.4342 15.9253 17.3169 15.8081C17.1997 15.6908 17.0408 15.625 16.875 15.625H16.25C16.0842 15.625 15.9253 15.6908 15.8081 15.8081C15.6908 15.9253 15.625 16.0842 15.625 16.25V16.875C15.625 17.0408 15.6908 17.1997 15.8081 17.3169C15.9253 17.4342 16.0842 17.5 16.25 17.5ZM18.75 15.625C18.5842 15.625 18.4253 15.6908 18.3081 15.8081C18.1908 15.9253 18.125 16.0842 18.125 16.25V18.125C17.9592 18.125 17.8003 18.1908 17.6831 18.3081C17.5658 18.4253 17.5 18.5842 17.5 18.75C17.5 18.9158 17.5658 19.0747 17.6831 19.1919C17.8003 19.3092 17.9592 19.375 18.125 19.375H18.75C18.9158 19.375 19.0747 19.3092 19.1919 19.1919C19.3092 19.0747 19.375 18.9158 19.375 18.75V16.25C19.375 16.0842 19.3092 15.9253 19.1919 15.8081C19.0747 15.6908 18.9158 15.625 18.75 15.625ZM16.25 18.125C16.1264 18.125 16.0055 18.1617 15.9028 18.2303C15.8 18.299 15.7199 18.3966 15.6726 18.5108C15.6253 18.625 15.6129 18.7507 15.637 18.8719C15.6611 18.9932 15.7206 19.1045 15.8081 19.1919C15.8955 19.2793 16.0068 19.3389 16.1281 19.363C16.2493 19.3871 16.375 19.3747 16.4892 19.3274C16.6034 19.2801 16.701 19.2 16.7697 19.0972C16.8383 18.9944 16.875 18.8736 16.875 18.75C16.875 18.5842 16.8092 18.4253 16.6919 18.3081C16.5747 18.1908 16.4158 18.125 16.25 18.125Z"
        fill="white" />
</svg>