<svg width="20" height="20" viewBox="0 0 20 20" fill="none" xmlns="http://www.w3.org/2000/svg">
<path d="M6.37505 17.4245C6.35005 17.4245 6.31671 17.4412 6.29171 17.4412C4.67505 16.6412 3.35838 15.3162 2.55005 13.6995C2.55005 13.6745 2.56672 13.6412 2.56672 13.6162C3.58338 13.9162 4.63338 14.1412 5.67505 14.3162C5.85838 15.3662 6.07505 16.4079 6.37505 17.4245Z" fill="#2873FF"/>
<path d="M17.45 13.7079C16.625 15.3662 15.25 16.7079 13.575 17.5162C13.8916 16.4579 14.1583 15.3912 14.3333 14.3162C15.3833 14.1412 16.4166 13.9162 17.4333 13.6162C17.425 13.6495 17.45 13.6829 17.45 13.7079Z" fill="#2873FF"/>
<path d="M17.5166 6.42506C16.4666 6.1084 15.4083 5.85006 14.3333 5.66673C14.1583 4.59173 13.9 3.52506 13.575 2.4834C15.3 3.3084 16.6916 4.70006 17.5166 6.42506Z" fill="#2873FF"/>
<path d="M6.37506 2.5748C6.07506 3.59147 5.8584 4.6248 5.6834 5.6748C4.6084 5.84147 3.54173 6.10814 2.4834 6.4248C3.29173 4.7498 4.6334 3.3748 6.29173 2.5498C6.31673 2.5498 6.35006 2.5748 6.37506 2.5748Z" fill="#2873FF"/>
<path d="M12.9082 5.49199C10.9749 5.27533 9.02489 5.27533 7.09155 5.49199C7.29989 4.35033 7.56655 3.20866 7.94155 2.10866C7.95822 2.04199 7.94989 1.99199 7.95822 1.92533C8.61655 1.76699 9.29155 1.66699 9.99989 1.66699C10.6999 1.66699 11.3832 1.76699 12.0332 1.92533C12.0416 1.99199 12.0416 2.04199 12.0582 2.10866C12.4332 3.21699 12.6999 4.35033 12.9082 5.49199Z" fill="#2873FF"/>
<path d="M5.49175 12.9085C4.34175 12.7001 3.20841 12.4335 2.10841 12.0585C2.04175 12.0418 1.99175 12.0501 1.92508 12.0418C1.76675 11.3835 1.66675 10.7085 1.66675 10.0001C1.66675 9.30013 1.76675 8.6168 1.92508 7.9668C1.99175 7.95846 2.04175 7.95846 2.10841 7.9418C3.21675 7.57513 4.34175 7.30013 5.49175 7.0918C5.28342 9.02513 5.28342 10.9751 5.49175 12.9085Z" fill="#2873FF"/>
<path d="M18.3333 10.0001C18.3333 10.7085 18.2333 11.3835 18.075 12.0418C18.0083 12.0501 17.9583 12.0418 17.8916 12.0585C16.7833 12.4251 15.65 12.7001 14.5083 12.9085C14.725 10.9751 14.725 9.02513 14.5083 7.0918C15.65 7.30013 16.7916 7.5668 17.8916 7.9418C17.9583 7.95846 18.0083 7.9668 18.075 7.9668C18.2333 8.62513 18.3333 9.30013 18.3333 10.0001Z" fill="#2873FF"/>
<path d="M12.9082 14.5088C12.6999 15.6588 12.4332 16.7921 12.0582 17.8921C12.0416 17.9588 12.0416 18.0088 12.0332 18.0755C11.3832 18.2338 10.6999 18.3338 9.99989 18.3338C9.29155 18.3338 8.61655 18.2338 7.95822 18.0755C7.94989 18.0088 7.95822 17.9588 7.94155 17.8921C7.57489 16.7838 7.29989 15.6588 7.09155 14.5088C8.05822 14.6171 9.02489 14.6921 9.99989 14.6921C10.9749 14.6921 11.9499 14.6171 12.9082 14.5088Z" fill="#2873FF"/>
<path d="M13.1362 13.1364C11.0519 13.3994 8.94822 13.3994 6.86397 13.1364C6.60101 11.0522 6.60101 8.94846 6.86397 6.86422C8.94822 6.60125 11.0519 6.60125 13.1362 6.86422C13.3992 8.94846 13.3992 11.0522 13.1362 13.1364Z" fill="#2873FF"/>
</svg>
