<svg width="36" height="36" viewBox="0 0 36 36" fill="none" xmlns="http://www.w3.org/2000/svg">
<path d="M13.5 34.125H10.5C3.885 34.125 1.875 32.115 1.875 25.5V10.5C1.875 3.885 3.885 1.875 10.5 1.875H12.75C15.375 1.875 16.2 2.73 17.25 4.125L19.5 7.125C19.995 7.785 20.07 7.875 21 7.875H25.5C32.115 7.875 34.125 9.885 34.125 16.5V19.5C34.125 20.115 33.615 20.625 33 20.625C32.385 20.625 31.875 20.115 31.875 19.5V16.5C31.875 11.145 30.87 10.125 25.5 10.125H21C19.08 10.125 18.45 9.46499 17.7 8.47499L15.45 5.47499C14.67 4.43999 14.43 4.125 12.75 4.125H10.5C5.13 4.125 4.125 5.145 4.125 10.5V25.5C4.125 30.855 5.13 31.875 10.5 31.875H13.5C14.115 31.875 14.625 32.385 14.625 33C14.625 33.615 14.115 34.125 13.5 34.125Z" fill="#2873FF"/>
<path d="M29.0104 34.215C28.9954 34.215 28.9804 34.215 28.9654 34.215H20.6254C18.1204 34.035 16.8604 32.115 16.8604 30.285C16.8604 28.815 17.6853 27.27 19.2753 26.64C18.9453 24.765 19.4254 23.025 20.6704 21.72C22.2004 20.115 24.6603 19.47 26.7903 20.115C28.6503 20.685 29.9853 22.155 30.5403 24.195C32.1153 24.675 33.3604 25.92 33.8704 27.615C34.4704 29.58 33.9154 31.59 32.4304 32.88C31.5304 33.735 30.3004 34.215 29.0104 34.215ZM20.6853 28.605C19.5453 28.71 19.1254 29.565 19.1254 30.285C19.1254 31.005 19.5454 31.875 20.7154 31.965H28.9804C29.7004 32.025 30.4204 31.695 30.9604 31.215C31.9354 30.36 31.9953 29.145 31.7403 28.275C31.4853 27.405 30.7354 26.43 29.4754 26.265C28.9804 26.205 28.5904 25.83 28.5004 25.335C28.1704 23.31 27.0304 22.56 26.1454 22.275C24.8254 21.87 23.2654 22.2899 22.3204 23.2799C21.6754 23.9549 21.0454 25.17 21.7504 27.105C21.9604 27.69 21.6603 28.335 21.0753 28.545C20.9403 28.59 20.8053 28.605 20.6853 28.605Z" fill="#2873FF"/>
</svg>
