<svg width="48" height="48" viewBox="0 0 48 48" fill="none" xmlns="http://www.w3.org/2000/svg">
<circle cx="24" cy="24" r="24" fill="#F3BA2F"/>
<path fill-rule="evenodd" clip-rule="evenodd" d="M18.174 21.606L24 15.78L29.829 21.609L33.219 18.219L24 9L14.784 18.216L18.174 21.606ZM9 24L12.39 20.61L15.78 24L12.39 27.39L9 24ZM24 32.22L18.174 26.394L14.7795 29.7795L14.784 29.784L24 39L33.219 29.7795L29.829 26.391L24 32.22ZM32.22 24L35.61 20.61L39 24L35.61 27.39L32.22 24ZM27.441 23.997H27.438L24 20.559L21.4575 23.1L21.165 23.3925L20.5635 23.9955L20.5575 24L20.5635 24.006L24 27.441L27.441 24V23.997Z" fill="white"/>
</svg>
