<svg width="36" height="36" viewBox="0 0 36 36" fill="none" xmlns="http://www.w3.org/2000/svg">
<path d="M18.09 25.875C17.475 25.875 16.965 25.365 16.965 24.75V17.25C16.965 16.635 17.475 16.125 18.09 16.125C18.705 16.125 19.215 16.635 19.215 17.25V24.75C19.215 25.365 18.705 25.875 18.09 25.875Z" fill="#2873FF"/>
<path d="M21.75 22.125H14.25C13.635 22.125 13.125 21.615 13.125 21C13.125 20.385 13.635 19.875 14.25 19.875H21.75C22.365 19.875 22.875 20.385 22.875 21C22.875 21.615 22.365 22.125 21.75 22.125Z" fill="#2873FF"/>
<path d="M25.5 34.125H10.5C3.885 34.125 1.875 32.115 1.875 25.5V10.5C1.875 3.885 3.885 1.875 10.5 1.875H12.75C15.375 1.875 16.2 2.73 17.25 4.125L19.5 7.125C19.995 7.785 20.07 7.875 21 7.875H25.5C32.115 7.875 34.125 9.885 34.125 16.5V25.5C34.125 32.115 32.115 34.125 25.5 34.125ZM10.5 4.125C5.145 4.125 4.125 5.145 4.125 10.5V25.5C4.125 30.855 5.145 31.875 10.5 31.875H25.5C30.855 31.875 31.875 30.855 31.875 25.5V16.5C31.875 11.145 30.855 10.125 25.5 10.125H21C19.08 10.125 18.45 9.465 17.7 8.475L15.45 5.475C14.67 4.44 14.445 4.125 12.75 4.125H10.5Z" fill="#2873FF"/>
</svg>
