<svg width="30" height="30" viewBox="0 0 30 30" fill="none" xmlns="http://www.w3.org/2000/svg">
<mask id="mask0_1963_30844" style="mask-type:alpha" maskUnits="userSpaceOnUse" x="0" y="0" width="30" height="30">
<circle cx="15" cy="15" r="15" fill="#D9D9D9"/>
</mask>
<g mask="url(#mask0_1963_30844)">
<path d="M40 0H-5V30H40V0Z" fill="#FF0000"/>
<path d="M13 0H-5V30H13V0Z" fill="#006600"/>
<path fill-rule="evenodd" clip-rule="evenodd" d="M18.8681 19.6524C16.6024 19.5841 6.21261 13.0989 6.14136 12.0662L6.71508 11.1094C7.74565 12.6068 18.3671 18.9139 19.4103 18.6904L18.8681 19.6521" fill="#FFFF00"/>
<path d="M18.8681 19.6524C16.6024 19.5841 6.21261 13.0989 6.14136 12.0662L6.71508 11.1094C7.74565 12.6068 18.3671 18.9139 19.4103 18.6904L18.8681 19.6521" stroke="black" stroke-width="0.573" stroke-linecap="round" stroke-linejoin="round"/>
<path fill-rule="evenodd" clip-rule="evenodd" d="M6.59437 10.9789C6.39111 11.5259 9.30555 13.3277 12.8121 15.4604C16.3185 17.593 19.342 18.9109 19.5661 18.7219C19.5798 18.6975 19.6763 18.5313 19.6675 18.5326C19.6255 18.5959 19.5232 18.6159 19.3637 18.5699C18.4164 18.2967 15.9456 17.1626 12.8856 15.307C9.82578 13.4513 7.16358 11.7412 6.7498 11.0146C6.72103 10.9642 6.70053 10.8724 6.70469 10.8009L6.69464 10.8008L6.60654 10.9548L6.59443 10.9789H6.59437L6.59437 10.9789ZM18.9214 19.6819C18.8829 19.7516 18.8113 19.7539 18.6753 19.739C17.8278 19.6452 15.2561 18.3946 12.2131 16.573C8.67235 14.4535 5.7481 12.5222 6.06535 12.0175L6.15167 11.8649L6.16867 11.8702C5.88339 12.7256 11.9398 16.1885 12.2963 16.4093C15.8006 18.5804 18.7549 19.8482 19.0164 19.5187L18.9213 19.6823V19.6821L18.9214 19.6819Z" fill="#FFFF00" stroke="black" stroke-width="0.573" stroke-linecap="round" stroke-linejoin="round"/>
<path fill-rule="evenodd" clip-rule="evenodd" d="M13.013 12.6915C15.2808 12.6736 18.0793 12.3816 19.6897 11.7397L19.3427 11.176C18.3908 11.7028 15.577 12.0493 12.9938 12.1011C9.93864 12.073 7.78209 11.7885 6.70156 11.0635L6.37402 11.6638C8.36032 12.5043 10.3957 12.6828 13.013 12.6915" fill="#FFFF00"/>
<path d="M13.013 12.6915C15.2808 12.6736 18.0793 12.3816 19.6897 11.7397L19.3427 11.176C18.3908 11.7028 15.577 12.0493 12.9938 12.1011C9.93864 12.073 7.78209 11.7885 6.70156 11.0635L6.37402 11.6638C8.36032 12.5043 10.3957 12.6828 13.013 12.6915" stroke="black" stroke-width="0.573" stroke-linecap="round" stroke-linejoin="round"/>
<path fill-rule="evenodd" clip-rule="evenodd" d="M19.7832 11.7527C19.7278 11.8414 18.6775 12.2036 17.1302 12.4709C16.0811 12.6308 14.7127 12.7675 13.0049 12.7692C11.3825 12.7707 10.057 12.6552 9.05362 12.5192C7.42942 12.2646 6.59115 11.9102 6.28125 11.785C6.31088 11.7261 6.32993 11.6847 6.35851 11.6297C7.25063 11.9849 8.09281 12.1991 9.07943 12.3509C10.0763 12.4859 11.3857 12.603 13.0001 12.6015C14.6999 12.5998 16.0533 12.4527 17.0963 12.2975C18.683 12.0416 19.5497 11.7122 19.6714 11.5593L19.7834 11.7527H19.7833H19.7832ZM19.4787 11.181C19.3067 11.3191 18.4498 11.623 16.9423 11.8638C15.9361 12.008 14.6569 12.137 13.0224 12.1386C11.4696 12.1401 10.201 12.0355 9.236 11.8949C7.70495 11.695 6.89008 11.3343 6.5963 11.2291C6.62554 11.1786 6.6553 11.1284 6.68586 11.0781C6.91445 11.1932 7.70084 11.5124 9.25281 11.7323C10.2068 11.8676 11.4774 11.9684 13.0225 11.9668C14.6492 11.9651 15.9139 11.8336 16.9137 11.6901C18.4291 11.4817 19.2445 11.0941 19.3683 10.9971L19.4787 11.1809V11.181L19.4787 11.181Z" fill="#FFFF00" stroke="black" stroke-width="0.573" stroke-linecap="round" stroke-linejoin="round"/>
<path fill-rule="evenodd" clip-rule="evenodd" d="M5.56599 15.4239C6.96084 16.1741 10.0589 16.5522 12.9905 16.5782C15.6599 16.5825 19.1374 16.1656 20.4378 15.4765L20.402 14.7256C19.9952 15.3614 16.2686 15.9713 12.9616 15.9463C9.65461 15.9213 6.58373 15.4106 5.56006 14.7494L5.56601 15.4237" fill="#FFFF00"/>
<path d="M5.56599 15.4239C6.96084 16.1741 10.0589 16.5522 12.9905 16.5782C15.6599 16.5825 19.1374 16.1656 20.4378 15.4765L20.402 14.7256C19.9952 15.3614 16.2686 15.9713 12.9616 15.9463C9.65461 15.9213 6.58373 15.4106 5.56006 14.7494L5.56601 15.4237" stroke="black" stroke-width="0.573" stroke-linecap="round" stroke-linejoin="round"/>
<path fill-rule="evenodd" clip-rule="evenodd" d="M20.509 15.3152L20.5091 15.4942C20.3137 15.7279 19.0882 16.0812 17.5513 16.3299C16.3817 16.5092 14.8568 16.6445 12.9567 16.6445C11.1515 16.6445 9.71196 16.5158 8.59559 16.3444C6.83091 16.0874 5.70216 15.6374 5.47559 15.5031L5.47658 15.2942C6.15719 15.7467 8.00115 16.0777 8.62035 16.1791C9.72945 16.3493 11.1605 16.4771 12.9566 16.4771C14.8478 16.4771 16.3642 16.3427 17.5265 16.1646C18.629 16.0053 20.1998 15.5911 20.509 15.3153H20.509L20.509 15.3152ZM20.5098 14.6783L20.5099 14.8573C20.3144 15.0909 19.0889 15.4441 17.5521 15.6928C16.3825 15.8722 14.8576 16.0074 12.9574 16.0074C11.1523 16.0074 9.71271 15.8788 8.59634 15.7073C6.83166 15.4505 5.70291 15.0005 5.47634 14.8661L5.47733 14.6572C6.15794 15.1097 8.0019 15.4408 8.6211 15.5419C9.7302 15.7123 11.1612 15.8401 12.9574 15.8401C14.8486 15.8401 16.3649 15.7057 17.5272 15.5274C18.6298 15.3682 20.2005 14.9539 20.5097 14.6781L20.5098 14.6783L20.5098 14.6783Z" fill="#FFFF00" stroke="black" stroke-width="0.573" stroke-linecap="round" stroke-linejoin="round"/>
<path fill-rule="evenodd" clip-rule="evenodd" d="M12.9845 19.523C9.77661 19.5039 7.02793 18.6486 6.44751 18.5072L6.87076 19.1698C7.89601 19.6011 10.5776 20.2438 13.0153 20.1726C15.4531 20.1015 17.5835 19.9127 19.0849 19.1818L19.5188 18.4951C18.4957 18.977 15.0137 19.518 12.9845 19.523" fill="#FFFF00"/>
<path d="M12.9845 19.523C9.77661 19.5039 7.02793 18.6486 6.44751 18.5072L6.87076 19.1698C7.89601 19.6011 10.5776 20.2438 13.0153 20.1726C15.4531 20.1015 17.5835 19.9127 19.0849 19.1818L19.5188 18.4951C18.4957 18.977 15.0137 19.518 12.9845 19.523" stroke="black" stroke-width="0.573" stroke-linecap="round" stroke-linejoin="round"/>
<path fill-rule="evenodd" clip-rule="evenodd" d="M19.2477 19.028C19.184 19.1254 19.1189 19.2217 19.053 19.3152C18.3449 19.5649 17.2291 19.827 16.7582 19.9035C15.7964 20.1017 14.3084 20.2481 12.9877 20.2487C10.1459 20.2071 7.8198 19.6508 6.72548 19.1763L6.63718 19.0245L6.6516 19.0017L6.80134 19.0597C8.74744 19.756 10.9332 20.0338 13.0037 20.0836C14.319 20.0883 15.6358 19.9329 16.7006 19.7425C18.3334 19.4153 18.9936 19.1687 19.1962 19.0569L19.2477 19.028H19.2477L19.2477 19.028ZM19.624 18.4074C19.6257 18.4093 19.6273 18.4111 19.6289 18.4132C19.5812 18.4937 19.5321 18.5756 19.4817 18.6578C19.1041 18.7928 18.0791 19.0928 16.5823 19.302C15.5961 19.4364 14.9832 19.5665 13.0214 19.6046C9.34527 19.5111 6.96515 18.7923 6.39972 18.615L6.31592 18.4542C8.44637 19.0104 10.6226 19.3986 13.0215 19.4383C14.8163 19.4001 15.5799 19.2679 16.5579 19.1346C18.3032 18.8632 19.1826 18.5758 19.4465 18.4929C19.4432 18.4881 19.4393 18.4831 19.435 18.4779L19.6242 18.4072L19.6241 18.4074L19.624 18.4074Z" fill="#FFFF00" stroke="black" stroke-width="0.55" stroke-linecap="round" stroke-linejoin="round"/>
<path fill-rule="evenodd" clip-rule="evenodd" d="M19.6624 14.8311C19.6729 16.9414 18.5929 18.8351 17.7231 19.6705C16.4925 20.8524 14.8609 21.6127 12.9554 21.6477C10.8277 21.6868 8.82142 20.2997 8.2833 19.6903C7.2312 18.4989 6.37462 16.986 6.34717 14.9471C6.47749 12.6439 7.38165 11.0396 8.69227 9.93939C10.0029 8.83922 11.748 8.30342 13.2013 8.34174C14.8782 8.386 16.837 9.20859 18.1904 10.8416C19.0771 11.9116 19.4611 13.0727 19.6624 14.8311ZM12.9735 7.60547C17.0599 7.60547 20.4207 10.9308 20.4207 15.0082C20.4207 19.0855 17.0599 22.411 12.9735 22.411C8.88712 22.411 5.5542 19.0856 5.5542 15.0082C5.5542 10.9308 8.88712 7.60547 12.9735 7.60547" fill="#FFFF00"/>
<path d="M12.9735 7.60547C17.0599 7.60547 20.4207 10.9308 20.4207 15.0082C20.4207 19.0855 17.0599 22.411 12.9735 22.411C8.88712 22.411 5.5542 19.0856 5.5542 15.0082C5.5542 10.9308 8.88712 7.60547 12.9735 7.60547M19.6624 14.8311C19.6729 16.9414 18.5929 18.8351 17.7231 19.6705C16.4925 20.8524 14.8609 21.6127 12.9554 21.6477C10.8277 21.6868 8.82142 20.2997 8.2833 19.6903C7.2312 18.4989 6.37462 16.986 6.34717 14.9471C6.47749 12.6439 7.38165 11.0396 8.69227 9.93939C10.0029 8.83922 11.748 8.30342 13.2013 8.34174C14.8782 8.386 16.837 9.20859 18.1904 10.8416C19.0771 11.9116 19.4611 13.0727 19.6624 14.8311Z" stroke="black" stroke-width="0.573" stroke-linecap="round" stroke-linejoin="round"/>
<path fill-rule="evenodd" clip-rule="evenodd" d="M12.9932 7.58008C17.0833 7.58008 20.419 10.9163 20.419 15.0067C20.419 19.0971 17.0832 22.4332 12.9932 22.4332C8.90316 22.4332 5.56738 19.0972 5.56738 15.0067C5.56738 10.9163 8.90323 7.58008 12.9932 7.58008V7.58008ZM5.73081 15.0068C5.73081 19.0013 9.01101 22.2699 12.9932 22.2699C16.9755 22.2699 20.2557 19.0013 20.2557 15.0068C20.2557 11.0121 16.9754 7.74346 12.9932 7.74346C9.01101 7.74346 5.73081 11.0123 5.73081 15.0068Z" fill="#FFFF00" stroke="black" stroke-width="0.573" stroke-linecap="round" stroke-linejoin="round"/>
<path fill-rule="evenodd" clip-rule="evenodd" d="M12.9992 8.19727C16.7291 8.19727 19.8012 11.2588 19.8012 15.0001C19.8012 18.7414 16.729 21.8028 12.9992 21.8028C9.26949 21.8028 6.19727 18.7414 6.19727 15.0001C6.19727 11.2588 9.26957 8.19727 12.9992 8.19727V8.19727ZM6.36062 15C6.36062 18.6514 9.35904 21.6393 12.9992 21.6393C16.6394 21.6393 19.6379 18.6514 19.6379 15C19.6379 11.3486 16.6395 8.36065 12.9992 8.36065C9.35904 8.36065 6.36062 11.3486 6.36062 15Z" fill="#FFFF00" stroke="black" stroke-width="0.573" stroke-linecap="round" stroke-linejoin="round"/>
<path fill-rule="evenodd" clip-rule="evenodd" d="M13.2985 7.55078H12.6621L12.6629 22.4728H13.3015L13.2985 7.55078Z" fill="#FFFF00" stroke="black" stroke-width="0.573" stroke-linecap="round" stroke-linejoin="round"/>
<path fill-rule="evenodd" clip-rule="evenodd" d="M13.2351 7.46484H13.3971L13.3985 22.5586H13.2364L13.2352 7.46484H13.2351ZM12.6035 7.46498H12.7668L12.767 22.5587H12.6036V7.46498H12.6035Z" fill="#FFFF00" stroke="black" stroke-width="0.573" stroke-linecap="round" stroke-linejoin="round"/>
<path fill-rule="evenodd" clip-rule="evenodd" d="M20.4246 15.2946V14.7429L19.9753 14.3244L17.4253 13.6494L13.7503 13.2744L9.32531 13.4994L6.17531 14.2494L5.53931 14.7204V15.2722L7.15031 14.5494L10.9753 13.9494H14.6503L17.3503 14.2494L19.2253 14.6994L20.4246 15.2946Z" fill="#FFFF00" stroke="black" stroke-width="0.573" stroke-linecap="round" stroke-linejoin="round"/>
<path fill-rule="evenodd" clip-rule="evenodd" d="M12.9963 13.8567C14.75 13.8534 16.4516 14.0228 17.8012 14.2856C19.1939 14.564 20.174 14.9123 20.5091 15.3035L20.5087 15.4971C20.1045 15.0104 18.7857 14.6535 17.7698 14.4495C16.4305 14.189 14.7404 14.0208 12.9963 14.024C11.156 14.0275 9.44228 14.2018 8.1225 14.4593C7.0635 14.6694 5.65118 15.0868 5.47485 15.4986V15.2969C5.57169 15.0119 6.62333 14.586 8.09865 14.2907C9.42833 14.0314 11.1452 13.86 12.9963 13.8567V13.8567ZM12.9971 13.2198C14.7508 13.2166 16.4523 13.3861 17.8019 13.6487C19.1946 13.9273 20.1747 14.2754 20.5098 14.6666L20.5094 14.8602C20.1053 14.3736 18.7865 14.0167 17.7706 13.8128C16.4312 13.5521 14.7411 13.3839 12.9971 13.3873C11.1567 13.3906 9.45135 13.565 8.13143 13.8224C7.10948 14.0161 5.63948 14.4501 5.47553 14.8619V14.66C5.57236 14.3781 6.6453 13.9369 8.0994 13.6538C9.42908 13.3945 11.1459 13.2233 12.9971 13.2198V13.2198Z" fill="#FFFF00" stroke="black" stroke-width="0.573" stroke-linecap="round" stroke-linejoin="round"/>
<path fill-rule="evenodd" clip-rule="evenodd" d="M12.9612 9.97105C15.7249 9.95723 18.1355 10.3575 19.2383 10.9224L19.6406 11.6183C18.6821 11.1017 16.0814 10.5646 12.9653 10.6449C10.4262 10.6605 7.71323 10.9245 6.35205 11.6507L6.83231 10.8475C7.94944 10.2682 10.584 9.97428 12.9613 9.9712" fill="#FFFF00"/>
<path d="M12.9612 9.97105C15.7249 9.95723 18.1355 10.3575 19.2383 10.9224L19.6406 11.6183C18.6821 11.1017 16.0814 10.5646 12.9653 10.6449C10.4262 10.6605 7.71323 10.9245 6.35205 11.6507L6.83231 10.8475C7.94944 10.2682 10.584 9.97428 12.9613 9.9712" stroke="black" stroke-width="0.573" stroke-linecap="round" stroke-linejoin="round"/>
<path fill-rule="evenodd" clip-rule="evenodd" d="M12.9978 10.5456C14.5741 10.5415 16.0972 10.6304 17.3085 10.8489C18.4366 11.0589 19.5124 11.374 19.6662 11.5434L19.7855 11.7542C19.4114 11.5099 18.4804 11.2379 17.2851 11.0112C16.0846 10.7856 14.5626 10.7109 12.9951 10.715C11.2159 10.7089 9.83367 10.8028 8.64739 11.0097C7.39279 11.2444 6.52234 11.5798 6.30762 11.7391L6.42449 11.5163C6.84172 11.3035 7.50374 11.0469 8.61621 10.8466C9.84299 10.6225 11.2399 10.5553 12.9979 10.5456H12.9979L12.9978 10.5456ZM12.9972 9.90931C14.5056 9.90535 15.9951 9.98941 17.1561 10.1981C18.0717 10.3764 18.9773 10.6546 19.3089 10.9023L19.4833 11.1795C19.1868 10.8499 18.0706 10.5375 17.0852 10.3626C15.9332 10.1638 14.5056 10.0852 12.9971 10.0726C11.414 10.0771 9.951 10.174 8.81573 10.3807C7.73265 10.5868 7.03373 10.8309 6.738 11.0214L6.89139 10.7899C7.29949 10.5751 7.95879 10.3778 8.78911 10.2164C9.93279 10.0082 11.4048 9.91375 12.9972 9.90931H12.9972Z" fill="#FFFF00" stroke="black" stroke-width="0.573" stroke-linecap="round" stroke-linejoin="round"/>
<path fill-rule="evenodd" clip-rule="evenodd" d="M16.6863 18.094C15.32 17.8389 13.9512 17.8019 12.9951 17.8131C8.38953 17.8671 6.90176 18.7588 6.72018 19.0288L6.37598 18.4677C7.54853 17.6178 10.0565 17.1412 13.02 17.1899C14.5589 17.2151 15.8868 17.3173 17.0039 17.5337L16.6862 18.0941" fill="#FFFF00"/>
<path d="M16.6863 18.094C15.32 17.8389 13.9512 17.8019 12.9951 17.8131C8.38953 17.8671 6.90176 18.7588 6.72018 19.0288L6.37598 18.4677C7.54853 17.6178 10.0565 17.1412 13.02 17.1899C14.5589 17.2151 15.8868 17.3173 17.0039 17.5337L16.6862 18.0941" stroke="black" stroke-width="0.573" stroke-linecap="round" stroke-linejoin="round"/>
<path fill-rule="evenodd" clip-rule="evenodd" d="M12.9684 17.7336C14.2496 17.7527 15.5071 17.8056 16.7209 18.032L16.633 18.1872C15.5057 17.9791 14.3039 17.8994 12.9728 17.9059C11.273 17.8926 9.55389 18.0514 8.05719 18.4809C7.58493 18.6123 6.80311 18.916 6.72339 19.1668L6.63595 19.0227C6.66115 18.8744 7.13367 18.5666 8.017 18.3184C9.73135 17.8275 11.3349 17.7447 12.9684 17.7335V17.7336L12.9684 17.7336ZM13.0266 17.0889C14.3539 17.1137 15.7247 17.1751 17.0571 17.439L16.9655 17.6005C15.7624 17.3617 14.6128 17.282 13.0344 17.2577C11.3293 17.2608 9.52056 17.3824 7.87603 17.8605C7.3451 18.0152 6.42876 18.3495 6.39823 18.6143L6.31079 18.4594C6.3307 18.2189 7.12394 17.9053 7.83764 17.6977C9.49484 17.2159 11.3083 17.092 13.0266 17.0889L13.0266 17.0889Z" fill="#FFFF00" stroke="black" stroke-width="0.55" stroke-linecap="round" stroke-linejoin="round"/>
<path fill-rule="evenodd" clip-rule="evenodd" d="M19.5686 18.5523L19.0152 19.411L17.4251 17.9988L13.3001 15.2238L8.65009 12.6738L6.23584 11.8481L6.75034 10.8941L6.92509 10.7988L8.42509 11.1738L13.3751 13.7238L16.2251 15.5238L18.6251 17.2488L19.6001 18.3738L19.5686 18.5523Z" fill="#FFFF00" stroke="black" stroke-width="0.573" stroke-linecap="round" stroke-linejoin="round"/>
<path fill-rule="evenodd" clip-rule="evenodd" d="M6.1487 11.8715C6.57215 11.5843 9.68412 12.9706 12.9403 14.9341C16.1879 16.9031 19.2911 19.1281 19.011 19.5445L18.9188 19.6895L18.8766 19.7228C18.8856 19.7163 18.9323 19.6592 18.872 19.5048C18.7336 19.0496 16.5324 17.293 12.8799 15.0877C9.31933 12.9645 6.35188 11.6849 6.05518 12.0507L6.1487 11.8715H6.14863L6.1487 11.8715ZM19.6817 18.541C19.9494 18.0121 17.063 15.8377 13.4843 13.7206C9.82332 11.6457 7.18475 10.4243 6.7028 10.7885L6.59571 10.9834C6.59478 10.9942 6.59961 10.9701 6.62223 10.9527C6.70987 10.8762 6.85512 10.8814 6.92067 10.8802C7.75055 10.8926 10.1207 11.9834 13.4461 13.8898C14.9032 14.7384 19.6014 17.7516 19.5835 18.599C19.5848 18.6718 19.5895 18.6868 19.5622 18.7229L19.6817 18.5411V18.5409L19.6817 18.541Z" fill="#FFFF00" stroke="black" stroke-width="0.573" stroke-linecap="round" stroke-linejoin="round"/>
<path d="M8.54524 15.8257C8.54524 17.0461 9.04495 18.1498 9.85451 18.9564C10.6656 19.7647 11.7679 20.2748 12.9902 20.2748C14.2188 20.2748 15.3337 19.7759 16.1414 18.9706C16.9491 18.1655 17.4496 17.0542 17.4498 15.8296H17.4497V9.89047L8.54419 9.87988L8.54511 15.8257H8.54526L8.54524 15.8257Z" fill="white" stroke="black" stroke-width="0.67037"/>
<path d="M8.7118 15.8343V15.8376C8.7118 17.0044 9.1949 18.0669 9.96992 18.8383C10.7465 19.6112 11.816 20.0917 12.986 20.0917C14.162 20.0917 15.2294 19.6147 16.0026 18.8448C16.7757 18.0749 17.2549 17.0123 17.255 15.8415H17.2549V10.0795L8.7169 10.0781L8.71167 15.8342M15.5383 11.8032L15.5386 15.47L15.5355 15.8579H15.5356C15.5356 15.96 15.5294 16.0763 15.5175 16.1754C15.4481 16.7551 15.1815 17.2604 14.7866 17.6535C14.3244 18.1137 13.6863 18.3991 12.9831 18.3991C12.2836 18.3991 11.6602 18.1038 11.1959 17.6416C10.7197 17.1676 10.4437 16.5176 10.4437 15.8456L10.4427 11.7938L15.5382 11.803L15.5384 11.8032L15.5383 11.8032Z" fill="#FF0000"/>
<path d="M8.7118 15.8343V15.8376C8.7118 17.0044 9.1949 18.0669 9.96992 18.8383C10.7465 19.6112 11.816 20.0917 12.986 20.0917C14.162 20.0917 15.2294 19.6147 16.0026 18.8448C16.7757 18.0749 17.2549 17.0123 17.255 15.8415H17.2549V10.0795L8.7169 10.0781L8.71167 15.8342M15.5383 11.8032L15.5386 15.47L15.5355 15.8579H15.5356C15.5356 15.96 15.5294 16.0763 15.5175 16.1754C15.4481 16.7551 15.1815 17.2604 14.7866 17.6535C14.3244 18.1137 13.6863 18.3991 12.9831 18.3991C12.2836 18.3991 11.6602 18.1038 11.1959 17.6416C10.7197 17.1676 10.4437 16.5176 10.4437 15.8456L10.4427 11.7938L15.5382 11.803L15.5384 11.8032L15.5383 11.8032Z" stroke="black" stroke-width="0.50734"/>
<path d="M9.2644 11.581C9.27452 11.1669 9.56833 11.0689 9.57045 11.0674C9.57256 11.066 9.8878 11.173 9.88675 11.5848L9.26441 11.581" fill="#FFFF00"/>
<path d="M9.01085 11.0752L8.95972 11.5511L9.27026 11.5518C9.27324 11.1581 9.5683 11.0926 9.57544 11.094C9.58213 11.0936 9.87461 11.1811 9.88241 11.5518H10.1937L10.1375 11.0723L9.01087 11.0751V11.0753L9.01085 11.0752Z" fill="#FFFF00" stroke="black" stroke-width="0.5"/>
<path d="M8.93882 11.5537H10.2098C10.2366 11.5537 10.2584 11.5802 10.2584 11.6125C10.2584 11.6448 10.2366 11.6711 10.2098 11.6711H8.93882C8.91203 11.6711 8.89014 11.6448 8.89014 11.6125C8.89014 11.5802 8.91203 11.5537 8.93882 11.5537Z" fill="#FFFF00" stroke="black" stroke-width="0.5"/>
<path d="M9.40088 11.551C9.40227 11.3026 9.57054 11.2323 9.5714 11.2324C9.57147 11.2324 9.74707 11.3049 9.74847 11.551H9.40089" fill="#FFFF00"/>
<path d="M9.40088 11.551C9.40227 11.3026 9.57054 11.2323 9.5714 11.2324C9.57147 11.2324 9.74707 11.3049 9.74847 11.551H9.40089" stroke="black" stroke-width="0.5"/>
<path d="M8.96589 10.8779H10.1843C10.2099 10.8779 10.231 10.9018 10.231 10.9308C10.231 10.9598 10.2099 10.9836 10.1843 10.9836H8.96589C8.94022 10.9836 8.91919 10.96 8.91919 10.9308C8.91919 10.9018 8.94022 10.8779 8.96589 10.8779Z" fill="#FFFF00" stroke="black" stroke-width="0.5"/>
<path d="M8.99118 10.9834H10.1565C10.1811 10.9834 10.2012 11.0071 10.2012 11.0362C10.2012 11.0653 10.1811 11.089 10.1565 11.089H8.99118C8.96664 11.089 8.94653 11.0653 8.94653 11.0362C8.94653 11.0071 8.96664 10.9834 8.99118 10.9834Z" fill="#FFFF00" stroke="black" stroke-width="0.5"/>
<path d="M9.36779 10.1898L9.45979 10.1899V10.2553H9.52693V10.1885L9.62118 10.1888V10.2553H9.68851V10.1885H9.78283L9.78268 10.3394C9.78268 10.3631 9.76364 10.3784 9.74154 10.3784H9.4107C9.38847 10.3784 9.36797 10.3606 9.3679 10.3389L9.36768 10.1898H9.36774L9.36779 10.1898Z" fill="#FFFF00" stroke="black" stroke-width="0.5"/>
<path d="M9.7143 10.3919L9.73506 10.8757L9.41235 10.8745L9.43372 10.3906L9.71429 10.3919" fill="#FFFF00"/>
<path d="M9.7143 10.3919L9.73506 10.8757L9.41235 10.8745L9.43372 10.3906L9.71429 10.3919" stroke="black" stroke-width="0.5"/>
<path d="M9.3208 10.6162L9.33066 10.877L9.02124 10.8772L9.02997 10.6162H9.32087H9.3208L9.3208 10.6162Z" fill="#FFFF00" stroke="black" stroke-width="0.5"/>
<path d="M10.1162 10.6162L10.1261 10.877L9.81665 10.8772L9.82538 10.6162H10.1163H10.1162L10.1162 10.6162Z" fill="#FFFF00" stroke="black" stroke-width="0.5"/>
<path d="M8.97277 10.4271L9.06272 10.4273V10.4927H9.12854V10.4258L9.22074 10.4261V10.4928H9.28668V10.4258L9.37895 10.426L9.3788 10.5768C9.3788 10.6004 9.36015 10.6157 9.33858 10.6157H9.01482C8.99312 10.6157 8.97295 10.5981 8.97288 10.5763L8.97266 10.4272H8.97272L8.97277 10.4271Z" fill="#FFFF00" stroke="black" stroke-width="0.5"/>
<path d="M9.76842 10.4271L9.85838 10.4273V10.4927H9.92419V10.4258L10.0164 10.4261V10.4928H10.0823V10.4258L10.1746 10.426L10.1745 10.5768C10.1745 10.6004 10.1558 10.6157 10.1342 10.6157H9.81047C9.78878 10.6157 9.7686 10.5981 9.76854 10.5763L9.76831 10.4272H9.76838L9.76842 10.4271Z" fill="#FFFF00" stroke="black" stroke-width="0.5"/>
<path d="M9.54252 10.5443C9.54054 10.4972 9.60827 10.4967 9.60748 10.5443V10.6595H9.54253V10.5443" fill="black"/>
<path d="M9.14282 10.7112C9.1426 10.6657 9.20559 10.6648 9.2048 10.7112V10.8002H9.14285V10.7112" fill="black"/>
<path d="M9.94092 10.7112C9.94069 10.6657 10.0037 10.6648 10.0029 10.7112V10.8002H9.94094V10.7112" fill="black"/>
<path d="M9.26416 15.0546C9.27428 14.6405 9.56809 14.5425 9.5702 14.541C9.57232 14.5396 9.88756 14.6466 9.8865 15.0584L9.26417 15.0546" fill="#FFFF00"/>
<path d="M9.01085 14.5489L8.95972 15.0247L9.27026 15.0254C9.27324 14.6317 9.5683 14.5662 9.57544 14.5677C9.58213 14.5673 9.87461 14.6547 9.88241 15.0254H10.1937L10.1375 14.5459L9.01087 14.5487V14.5489L9.01085 14.5489Z" fill="#FFFF00" stroke="black" stroke-width="0.5"/>
<path d="M8.93882 15.0264H10.2098C10.2366 15.0264 10.2584 15.0528 10.2584 15.0852C10.2584 15.1174 10.2366 15.1438 10.2098 15.1438H8.93882C8.91203 15.1438 8.89014 15.1174 8.89014 15.0852C8.89014 15.0528 8.91203 15.0264 8.93882 15.0264Z" fill="#FFFF00" stroke="black" stroke-width="0.5"/>
<path d="M9.40088 15.0247C9.40227 14.7762 9.57054 14.7059 9.5714 14.7061C9.57147 14.7061 9.74707 14.7786 9.74847 15.0247H9.40089" fill="#FFFF00"/>
<path d="M9.40088 15.0247C9.40227 14.7762 9.57054 14.7059 9.5714 14.7061C9.57147 14.7061 9.74707 14.7786 9.74847 15.0247H9.40089" stroke="black" stroke-width="0.5"/>
<path d="M8.96589 14.3516H10.1843C10.2099 14.3516 10.231 14.3754 10.231 14.4044C10.231 14.4335 10.2099 14.4573 10.1843 14.4573H8.96589C8.94022 14.4573 8.91919 14.4336 8.91919 14.4044C8.91919 14.3754 8.94022 14.3516 8.96589 14.3516Z" fill="#FFFF00" stroke="black" stroke-width="0.5"/>
<path d="M8.99118 14.457H10.1565C10.1811 14.457 10.2012 14.4808 10.2012 14.5098C10.2012 14.5389 10.1811 14.5627 10.1565 14.5627H8.99118C8.96664 14.5627 8.94653 14.5389 8.94653 14.5098C8.94653 14.4808 8.96664 14.457 8.99118 14.457Z" fill="#FFFF00" stroke="black" stroke-width="0.5"/>
<path d="M9.36779 13.6634L9.45979 13.6636V13.7289H9.52693V13.6621L9.62118 13.6624V13.729H9.68851V13.6621H9.78283L9.78268 13.813C9.78268 13.8367 9.76364 13.852 9.74154 13.852H9.4107C9.38847 13.852 9.36797 13.8343 9.3679 13.8126L9.36768 13.6635H9.36774L9.36779 13.6634Z" fill="#FFFF00" stroke="black" stroke-width="0.5"/>
<path d="M9.7143 13.8655L9.73506 14.3494L9.41235 14.3482L9.43372 13.8643L9.71429 13.8655" fill="#FFFF00"/>
<path d="M9.7143 13.8655L9.73506 14.3494L9.41235 14.3482L9.43372 13.8643L9.71429 13.8655" stroke="black" stroke-width="0.5"/>
<path d="M9.3208 14.0889L9.33066 14.3497L9.02124 14.3498L9.02997 14.0889H9.32087H9.3208L9.3208 14.0889Z" fill="#FFFF00" stroke="black" stroke-width="0.5"/>
<path d="M10.1162 14.0889L10.1261 14.3497L9.81665 14.3498L9.82538 14.0889H10.1163H10.1162L10.1162 14.0889Z" fill="#FFFF00" stroke="black" stroke-width="0.5"/>
<path d="M8.97277 13.8997L9.06272 13.9V13.9654H9.12854V13.8984L9.22074 13.8987V13.9654H9.28668V13.8985L9.37895 13.8986L9.3788 14.0495C9.3788 14.073 9.36015 14.0884 9.33858 14.0884H9.01482C8.99312 14.0884 8.97295 14.0707 8.97288 14.049L8.97266 13.8998H8.97272L8.97277 13.8997Z" fill="#FFFF00" stroke="black" stroke-width="0.5"/>
<path d="M9.76842 13.8997L9.85838 13.9V13.9654H9.92419V13.8984L10.0164 13.8987V13.9654H10.0823V13.8985L10.1746 13.8986L10.1745 14.0495C10.1745 14.073 10.1558 14.0884 10.1342 14.0884H9.81047C9.78878 14.0884 9.7686 14.0707 9.76854 14.049L9.76831 13.8998H9.76838L9.76842 13.8997Z" fill="#FFFF00" stroke="black" stroke-width="0.5"/>
<path d="M9.54252 14.0179C9.54054 13.9709 9.60827 13.9703 9.60748 14.0179V14.1331H9.54253V14.0179" fill="black"/>
<path d="M9.14282 14.1848C9.1426 14.1394 9.20559 14.1385 9.2048 14.1848V14.2739H9.14285V14.1848" fill="black"/>
<path d="M9.94092 14.1848C9.94069 14.1394 10.0037 14.1385 10.0029 14.1848V14.2739H9.94094V14.1848" fill="black"/>
<path d="M10.6193 18.6714C10.3326 18.3725 10.4701 18.0949 10.4705 18.0924C10.471 18.0899 10.7691 17.9416 11.0605 18.2325L10.6193 18.6714" fill="#FFFF00"/>
<path d="M10.0818 18.4951L10.3835 18.8667L10.6028 18.6468C10.3255 18.3673 10.4869 18.1118 10.493 18.1077C10.4974 18.1027 10.7656 17.9568 11.0341 18.2124L11.2535 17.9915L10.8736 17.6935L10.0818 18.495L10.0819 18.4951L10.0818 18.4951Z" fill="#FFFF00" stroke="black" stroke-width="0.5"/>
<path d="M10.3702 18.8824L11.2658 17.9806C11.2846 17.9616 11.3188 17.9647 11.3418 17.9875C11.3647 18.0102 11.3679 18.0443 11.3491 18.0633L10.4536 18.9652C10.4347 18.9842 10.4006 18.9812 10.3777 18.9584C10.3547 18.9356 10.3514 18.9015 10.3702 18.8824Z" fill="#FFFF00" stroke="black" stroke-width="0.5"/>
<path d="M10.6941 18.5536C10.5188 18.3776 10.5875 18.2086 10.5882 18.2081C10.5882 18.2081 10.7634 18.1345 10.939 18.307L10.6941 18.5536" fill="#FFFF00"/>
<path d="M10.6941 18.5536C10.5188 18.3776 10.5875 18.2086 10.5882 18.2081C10.5882 18.2081 10.7634 18.1345 10.939 18.307L10.6941 18.5536" stroke="black" stroke-width="0.5"/>
<path d="M9.90961 18.3887L10.7681 17.5242C10.7862 17.506 10.8179 17.5079 10.8385 17.5283C10.8591 17.5487 10.8612 17.5805 10.8431 17.5987L9.98462 18.4632C9.96653 18.4814 9.93491 18.4797 9.91421 18.4591C9.89365 18.4387 9.89153 18.4069 9.90961 18.3887Z" fill="#FFFF00" stroke="black" stroke-width="0.5"/>
<path d="M10.0031 18.4439L10.8243 17.617C10.8415 17.5996 10.8726 17.602 10.8932 17.6225C10.9138 17.643 10.9165 17.674 10.8992 17.6914L10.0781 18.5183C10.0608 18.5357 10.0298 18.5333 10.0091 18.5128C9.98853 18.4923 9.98585 18.4613 10.0031 18.4439Z" fill="#FFFF00" stroke="black" stroke-width="0.5"/>
<path d="M9.70487 17.618L9.7698 17.5528L9.81617 17.5989L9.86347 17.5513L9.81607 17.5042L9.88269 17.4375L9.92991 17.4844L9.97735 17.4366L9.92995 17.3895L9.99641 17.3226L10.1034 17.429C10.1202 17.4457 10.1176 17.47 10.1021 17.4857L9.86895 17.7205C9.85329 17.7363 9.82622 17.7383 9.81078 17.723L9.70482 17.6181L9.70487 17.6181L9.70487 17.618Z" fill="#FFFF00" stroke="black" stroke-width="0.5"/>
<path d="M10.0923 17.5142L10.4503 17.8404L10.2221 18.0685L9.89372 17.7124L10.0923 17.5142" fill="#FFFF00"/>
<path d="M10.0923 17.5142L10.4503 17.8404L10.2221 18.0685L9.89372 17.7124L10.0923 17.5142" stroke="black" stroke-width="0.5"/>
<path d="M9.97377 17.9515L10.1658 18.1283L9.94787 18.3479L9.76886 18.1579L9.97382 17.9515L9.97378 17.9515L9.97377 17.9515Z" fill="#FFFF00" stroke="black" stroke-width="0.5"/>
<path d="M10.5343 17.387L10.7263 17.5638L10.5084 17.7835L10.3294 17.5934L10.5344 17.387L10.5343 17.3871L10.5343 17.387Z" fill="#FFFF00" stroke="black" stroke-width="0.5"/>
<path d="M9.5945 18.0653L9.65805 18.0016L9.70447 18.0477L9.75084 18.001L9.70334 17.9538L9.76852 17.8886L9.81583 17.9356L9.8623 17.8888L9.8148 17.8416L9.87991 17.7763L9.98687 17.8827C10.0036 17.8993 10.0013 17.9233 9.98613 17.9386L9.758 18.1684C9.74272 18.1838 9.71597 18.1856 9.70048 18.1704L9.59448 18.0654L9.59453 18.0654L9.5945 18.0653Z" fill="#FFFF00" stroke="black" stroke-width="0.5"/>
<path d="M10.1553 17.5008L10.2188 17.4372L10.2653 17.4833L10.3116 17.4366L10.2641 17.3894L10.3293 17.3242L10.3766 17.3712L10.4231 17.3244L10.3756 17.2772L10.4407 17.2118L10.5477 17.3182C10.5644 17.3348 10.5621 17.3589 10.5469 17.3742L10.3188 17.6039C10.3035 17.6193 10.2768 17.6212 10.2613 17.6059L10.1553 17.501L10.1553 17.5009L10.1553 17.5008Z" fill="#FFFF00" stroke="black" stroke-width="0.5"/>
<path d="M10.0796 17.7437C10.0449 17.712 10.0922 17.6635 10.1254 17.6976L10.2072 17.7788L10.1614 17.8249L10.0797 17.7437" fill="black"/>
<path d="M9.91677 18.1454C9.88436 18.1135 9.92809 18.0681 9.96043 18.1014L10.0236 18.1641L9.97996 18.2081L9.91679 18.1453" fill="black"/>
<path d="M10.479 17.578C10.4466 17.5461 10.4903 17.5008 10.5227 17.534L10.5859 17.5967L10.5422 17.6407L10.479 17.578" fill="black"/>
<path d="M12.6929 11.5819C12.703 11.1679 12.9968 11.0698 12.9989 11.0684C13.001 11.067 13.3163 11.1739 13.3152 11.5858L12.6929 11.5819" fill="#FFFF00"/>
<path d="M12.4396 11.0762L12.3884 11.5521L12.699 11.5527C12.7019 11.159 12.997 11.0935 13.0042 11.095C13.0108 11.0946 13.3033 11.182 13.3111 11.5527H13.6225L13.5662 11.0732L12.4396 11.0761V11.0762L12.4396 11.0762Z" fill="#FFFF00" stroke="black" stroke-width="0.5"/>
<path d="M12.3675 11.5547H13.6385C13.6653 11.5547 13.6872 11.5811 13.6872 11.6135C13.6872 11.6458 13.6653 11.6721 13.6385 11.6721H12.3675C12.3407 11.6721 12.3188 11.6458 12.3188 11.6135C12.3188 11.5811 12.3407 11.5547 12.3675 11.5547Z" fill="#FFFF00" stroke="black" stroke-width="0.5"/>
<path d="M12.8293 11.552C12.8307 11.3036 12.999 11.2333 12.9999 11.2334C12.9999 11.2334 13.1755 11.3059 13.1769 11.552H12.8294" fill="#FFFF00"/>
<path d="M12.8293 11.552C12.8307 11.3036 12.999 11.2333 12.9999 11.2334C12.9999 11.2334 13.1755 11.3059 13.1769 11.552H12.8294" stroke="black" stroke-width="0.5"/>
<path d="M12.3946 10.8789H13.613C13.6386 10.8789 13.6597 10.9028 13.6597 10.9318C13.6597 10.9608 13.6386 10.9846 13.613 10.9846H12.3946C12.3689 10.9846 12.3479 10.9609 12.3479 10.9318C12.3479 10.9028 12.3689 10.8789 12.3946 10.8789Z" fill="#FFFF00" stroke="black" stroke-width="0.5"/>
<path d="M12.4196 10.9844H13.585C13.6095 10.9844 13.6296 11.0081 13.6296 11.0372C13.6296 11.0663 13.6095 11.09 13.585 11.09H12.4196C12.3951 11.09 12.375 11.0663 12.375 11.0372C12.375 11.0081 12.3951 10.9844 12.4196 10.9844Z" fill="#FFFF00" stroke="black" stroke-width="0.5"/>
<path d="M12.7963 10.1908L12.8883 10.1909V10.2563H12.9554V10.1895L13.0496 10.1898V10.2563H13.117V10.1895H13.2113L13.2112 10.3404C13.2112 10.364 13.1921 10.3794 13.17 10.3794H12.8392C12.8169 10.3794 12.7964 10.3616 12.7964 10.3399L12.7961 10.1908H12.7962L12.7963 10.1908Z" fill="#FFFF00" stroke="black" stroke-width="0.5"/>
<path d="M13.143 10.3929L13.1638 10.8767L12.8411 10.8755L12.8624 10.3916L13.143 10.3929" fill="#FFFF00"/>
<path d="M13.143 10.3929L13.1638 10.8767L12.8411 10.8755L12.8624 10.3916L13.143 10.3929" stroke="black" stroke-width="0.5"/>
<path d="M12.7493 10.6172L12.7591 10.878L12.4497 10.8782L12.4584 10.6172H12.7493H12.7493L12.7493 10.6172Z" fill="#FFFF00" stroke="black" stroke-width="0.5"/>
<path d="M13.5449 10.6172L13.5548 10.878L13.2454 10.8782L13.2541 10.6172H13.545H13.5449L13.5449 10.6172Z" fill="#FFFF00" stroke="black" stroke-width="0.5"/>
<path d="M12.401 10.4281L12.4909 10.4283V10.4937H12.5568V10.4268L12.649 10.4271V10.4937H12.7149V10.4268L12.8072 10.4269L12.807 10.5778C12.807 10.6014 12.7884 10.6167 12.7668 10.6167H12.443C12.4213 10.6167 12.4012 10.5991 12.4011 10.5773L12.4009 10.4281H12.4009L12.401 10.4281Z" fill="#FFFF00" stroke="black" stroke-width="0.5"/>
<path d="M13.1969 10.4281L13.2868 10.4283V10.4937H13.3527V10.4268L13.4449 10.4271V10.4937H13.5108V10.4268L13.6031 10.4269L13.6029 10.5778C13.6029 10.6014 13.5843 10.6167 13.5627 10.6167H13.2389C13.2172 10.6167 13.1971 10.5991 13.197 10.5773L13.1968 10.4281H13.1968L13.1969 10.4281Z" fill="#FFFF00" stroke="black" stroke-width="0.5"/>
<path d="M12.971 10.5452C12.969 10.4982 13.0367 10.4977 13.0359 10.5452V10.6605H12.971V10.5453" fill="black"/>
<path d="M12.5715 10.7122C12.5713 10.6667 12.6343 10.6658 12.6335 10.7122V10.8012H12.5716V10.7122" fill="black"/>
<path d="M13.3696 10.7122C13.3694 10.6667 13.4324 10.6658 13.4316 10.7122V10.8012H13.3697V10.7122" fill="black"/>
<path d="M16.7209 11.581C16.7108 11.1669 16.417 11.0689 16.4149 11.0674C16.4128 11.066 16.0975 11.173 16.0986 11.5848L16.7209 11.581" fill="#FFFF00"/>
<path d="M16.9743 11.0752L17.0254 11.5511L16.7148 11.5518C16.7119 11.1581 16.4168 11.0926 16.4097 11.094C16.403 11.0936 16.1105 11.1811 16.1027 11.5518H15.7914L15.8476 11.0723L16.9742 11.0751V11.0753L16.9743 11.0752Z" fill="#FFFF00" stroke="black" stroke-width="0.5"/>
<path d="M17.0463 11.5537H15.7753C15.7486 11.5537 15.7267 11.5802 15.7267 11.6125C15.7267 11.6448 15.7486 11.6711 15.7753 11.6711H17.0463C17.0731 11.6711 17.095 11.6448 17.095 11.6125C17.095 11.5802 17.0731 11.5537 17.0463 11.5537Z" fill="#FFFF00" stroke="black" stroke-width="0.5"/>
<path d="M16.5845 11.551C16.5831 11.3026 16.4148 11.2323 16.414 11.2324C16.4139 11.2324 16.2383 11.3049 16.2369 11.551H16.5845" fill="#FFFF00"/>
<path d="M16.5845 11.551C16.5831 11.3026 16.4148 11.2323 16.414 11.2324C16.4139 11.2324 16.2383 11.3049 16.2369 11.551H16.5845" stroke="black" stroke-width="0.5"/>
<path d="M17.0192 10.8779H15.8008C15.7752 10.8779 15.7541 10.9018 15.7541 10.9308C15.7541 10.9598 15.7752 10.9836 15.8008 10.9836H17.0192C17.0449 10.9836 17.0659 10.96 17.0659 10.9308C17.0659 10.9018 17.0449 10.8779 17.0192 10.8779Z" fill="#FFFF00" stroke="black" stroke-width="0.5"/>
<path d="M16.9942 10.9834H15.8288C15.8043 10.9834 15.7842 11.0071 15.7842 11.0362C15.7842 11.0653 15.8043 11.089 15.8288 11.089H16.9942C17.0187 11.089 17.0388 11.0653 17.0388 11.0362C17.0388 11.0071 17.0187 10.9834 16.9942 10.9834Z" fill="#FFFF00" stroke="black" stroke-width="0.5"/>
<path d="M16.6176 10.1898L16.5256 10.1899V10.2553H16.4584V10.1885L16.3642 10.1888V10.2553H16.2968V10.1885H16.2025L16.2027 10.3394C16.2027 10.3631 16.2217 10.3784 16.2438 10.3784H16.5747C16.5969 10.3784 16.6174 10.3606 16.6175 10.3389L16.6177 10.1898H16.6176L16.6176 10.1898Z" fill="#FFFF00" stroke="black" stroke-width="0.5"/>
<path d="M16.2708 10.3919L16.25 10.8757L16.5728 10.8745L16.5514 10.3906L16.2708 10.3919" fill="#FFFF00"/>
<path d="M16.2708 10.3919L16.25 10.8757L16.5728 10.8745L16.5514 10.3906L16.2708 10.3919" stroke="black" stroke-width="0.5"/>
<path d="M16.6645 10.6162L16.6547 10.877L16.9641 10.8772L16.9554 10.6162H16.6645H16.6646L16.6645 10.6162Z" fill="#FFFF00" stroke="black" stroke-width="0.5"/>
<path d="M15.8689 10.6162L15.859 10.877L16.1685 10.8772L16.1597 10.6162H15.8688H15.8689L15.8689 10.6162Z" fill="#FFFF00" stroke="black" stroke-width="0.5"/>
<path d="M17.0128 10.4271L16.9229 10.4273V10.4927H16.8571V10.4258L16.7649 10.4261V10.4928H16.6989V10.4258L16.6066 10.426L16.6068 10.5768C16.6068 10.6004 16.6254 10.6157 16.647 10.6157H16.9708C16.9925 10.6157 17.0126 10.5981 17.0127 10.5763L17.0129 10.4272H17.0129L17.0128 10.4271Z" fill="#FFFF00" stroke="black" stroke-width="0.5"/>
<path d="M16.2169 10.4271L16.127 10.4273V10.4927H16.0612V10.4258L15.969 10.4261V10.4928H15.903V10.4258L15.8107 10.426L15.8109 10.5768C15.8109 10.6004 15.8296 10.6157 15.8511 10.6157H16.1749C16.1966 10.6157 16.2167 10.5981 16.2168 10.5763L16.217 10.4272H16.217L16.2169 10.4271Z" fill="#FFFF00" stroke="black" stroke-width="0.5"/>
<path d="M16.4428 10.5443C16.4448 10.4972 16.3771 10.4967 16.3779 10.5443V10.6595H16.4428V10.5443" fill="black"/>
<path d="M16.8423 10.7112C16.8425 10.6657 16.7795 10.6648 16.7803 10.7112V10.8002H16.8423V10.7112" fill="black"/>
<path d="M16.0442 10.7112C16.0444 10.6657 15.9814 10.6648 15.9822 10.7112V10.8002H16.0442V10.7112" fill="black"/>
<path d="M16.7212 15.0546C16.7111 14.6405 16.4173 14.5425 16.4151 14.541C16.413 14.5396 16.0978 14.6466 16.0988 15.0584L16.7212 15.0546" fill="#FFFF00"/>
<path d="M16.9745 14.5489L17.0256 15.0247L16.7151 15.0254C16.7121 14.6317 16.417 14.5662 16.4099 14.5677C16.4032 14.5673 16.1107 14.6547 16.1029 15.0254H15.7916L15.8478 14.5459L16.9745 14.5487V14.5489L16.9745 14.5489Z" fill="#FFFF00" stroke="black" stroke-width="0.5"/>
<path d="M17.0465 15.0264H15.7756C15.7488 15.0264 15.7269 15.0528 15.7269 15.0852C15.7269 15.1174 15.7488 15.1438 15.7756 15.1438H17.0465C17.0733 15.1438 17.0952 15.1174 17.0952 15.0852C17.0952 15.0528 17.0733 15.0264 17.0465 15.0264Z" fill="#FFFF00" stroke="black" stroke-width="0.5"/>
<path d="M16.5845 15.0247C16.5831 14.7762 16.4148 14.7059 16.414 14.7061C16.4139 14.7061 16.2383 14.7786 16.2369 15.0247H16.5845" fill="#FFFF00"/>
<path d="M16.5845 15.0247C16.5831 14.7762 16.4148 14.7059 16.414 14.7061C16.4139 14.7061 16.2383 14.7786 16.2369 15.0247H16.5845" stroke="black" stroke-width="0.5"/>
<path d="M17.0195 14.3516H15.8011C15.7754 14.3516 15.7544 14.3754 15.7544 14.4044C15.7544 14.4335 15.7754 14.4573 15.8011 14.4573H17.0195C17.0451 14.4573 17.0662 14.4336 17.0662 14.4044C17.0662 14.3754 17.0451 14.3516 17.0195 14.3516Z" fill="#FFFF00" stroke="black" stroke-width="0.5"/>
<path d="M16.9942 14.457H15.8288C15.8043 14.457 15.7842 14.4808 15.7842 14.5098C15.7842 14.5389 15.8043 14.5627 15.8288 14.5627H16.9942C17.0187 14.5627 17.0388 14.5389 17.0388 14.5098C17.0388 14.4808 17.0187 14.457 16.9942 14.457Z" fill="#FFFF00" stroke="black" stroke-width="0.5"/>
<path d="M16.6176 13.6634L16.5256 13.6636V13.7289H16.4584V13.6621L16.3642 13.6624V13.729H16.2968V13.6621H16.2025L16.2027 13.813C16.2027 13.8367 16.2217 13.852 16.2438 13.852H16.5747C16.5969 13.852 16.6174 13.8343 16.6175 13.8126L16.6177 13.6635H16.6176L16.6176 13.6634Z" fill="#FFFF00" stroke="black" stroke-width="0.5"/>
<path d="M16.2711 13.8655L16.2503 14.3494L16.573 14.3482L16.5516 13.8643L16.2711 13.8655" fill="#FFFF00"/>
<path d="M16.2711 13.8655L16.2503 14.3494L16.573 14.3482L16.5516 13.8643L16.2711 13.8655" stroke="black" stroke-width="0.5"/>
<path d="M16.6645 14.0889L16.6547 14.3497L16.9641 14.3498L16.9554 14.0889H16.6645H16.6646L16.6645 14.0889Z" fill="#FFFF00" stroke="black" stroke-width="0.5"/>
<path d="M15.8691 14.0889L15.8593 14.3497L16.1687 14.3498L16.16 14.0889H15.8691H15.8691L15.8691 14.0889Z" fill="#FFFF00" stroke="black" stroke-width="0.5"/>
<path d="M17.0126 13.8997L16.9226 13.9V13.9654H16.8568V13.8984L16.7646 13.8987V13.9654H16.6987V13.8985L16.6064 13.8986L16.6066 14.0495C16.6066 14.073 16.6252 14.0884 16.6468 14.0884H16.9705C16.9922 14.0884 17.0124 14.0707 17.0125 14.049L17.0127 13.8998H17.0126L17.0126 13.8997Z" fill="#FFFF00" stroke="black" stroke-width="0.5"/>
<path d="M16.2169 13.8997L16.127 13.9V13.9654H16.0612V13.8984L15.969 13.8987V13.9654H15.903V13.8985L15.8107 13.8986L15.8109 14.0495C15.8109 14.073 15.8296 14.0884 15.8511 14.0884H16.1749C16.1966 14.0884 16.2167 14.0707 16.2168 14.049L16.217 13.8998H16.217L16.2169 13.8997Z" fill="#FFFF00" stroke="black" stroke-width="0.5"/>
<path d="M16.4428 14.0179C16.4448 13.9709 16.3771 13.9703 16.3779 14.0179V14.1331H16.4428V14.0179" fill="black"/>
<path d="M16.8425 14.1848C16.8428 14.1394 16.7798 14.1385 16.7806 14.1848V14.2739H16.8425V14.1848" fill="black"/>
<path d="M16.0444 14.1848C16.0447 14.1394 15.9817 14.1385 15.9825 14.1848V14.2739H16.0444V14.1848" fill="black"/>
<path d="M15.366 18.6714C15.6527 18.3725 15.5153 18.0949 15.5148 18.0924C15.5143 18.0899 15.2163 17.9416 14.9248 18.2325L15.366 18.6714" fill="#FFFF00"/>
<path d="M15.9035 18.4951L15.6019 18.8667L15.3826 18.6468C15.6599 18.3673 15.4984 18.1118 15.4924 18.1077C15.4879 18.1027 15.2198 17.9568 14.9513 18.2124L14.7319 17.9915L15.1118 17.6935L15.9036 18.495L15.9035 18.4951L15.9035 18.4951Z" fill="#FFFF00" stroke="black" stroke-width="0.5"/>
<path d="M15.6151 18.8834L14.7196 17.9816C14.7007 17.9626 14.6665 17.9657 14.6436 17.9885C14.6207 18.0112 14.6174 18.0453 14.6363 18.0643L15.5318 18.9662C15.5507 18.9852 15.5848 18.9821 15.6077 18.9594C15.6306 18.9366 15.634 18.9024 15.6151 18.8834Z" fill="#FFFF00" stroke="black" stroke-width="0.5"/>
<path d="M15.2912 18.5546C15.4666 18.3785 15.3979 18.2096 15.3972 18.2091C15.3971 18.209 15.222 18.1355 15.0463 18.3079L15.2912 18.5546" fill="#FFFF00"/>
<path d="M15.2912 18.5546C15.4666 18.3785 15.3979 18.2096 15.3972 18.2091C15.3971 18.209 15.222 18.1355 15.0463 18.3079L15.2912 18.5546" stroke="black" stroke-width="0.5"/>
<path d="M16.0755 18.3887L15.217 17.5242C15.1989 17.506 15.1672 17.5079 15.1466 17.5283C15.126 17.5487 15.1239 17.5805 15.142 17.5987L16.0005 18.4632C16.0186 18.4814 16.0502 18.4797 16.0709 18.4591C16.0915 18.4387 16.0936 18.4069 16.0755 18.3887Z" fill="#FFFF00" stroke="black" stroke-width="0.5"/>
<path d="M15.9822 18.4449L15.1611 17.618C15.1438 17.6005 15.1128 17.603 15.0922 17.6235C15.0715 17.644 15.0688 17.675 15.0861 17.6924L15.9073 18.5193C15.9245 18.5367 15.9556 18.5343 15.9762 18.5138C15.9968 18.4933 15.9995 18.4623 15.9822 18.4449Z" fill="#FFFF00" stroke="black" stroke-width="0.5"/>
<path d="M16.2805 17.618L16.2156 17.5528L16.1692 17.5989L16.1219 17.5513L16.1693 17.5042L16.1027 17.4375L16.0554 17.4844L16.008 17.4366L16.0554 17.3895L15.9889 17.3226L15.882 17.429C15.8652 17.4457 15.8677 17.47 15.8833 17.4857L16.1164 17.7205C16.1321 17.7363 16.1591 17.7383 16.1746 17.723L16.2805 17.6181L16.2805 17.6181L16.2805 17.618Z" fill="#FFFF00" stroke="black" stroke-width="0.5"/>
<path d="M15.893 17.5151L15.5351 17.8413L15.7633 18.0695L16.0916 17.7134L15.893 17.5151" fill="#FFFF00"/>
<path d="M15.893 17.5151L15.5351 17.8413L15.7633 18.0695L16.0916 17.7134L15.893 17.5151" stroke="black" stroke-width="0.5"/>
<path d="M16.0116 17.9515L15.8196 18.1283L16.0375 18.3479L16.2165 18.1579L16.0115 17.9515L16.0116 17.9515L16.0116 17.9515Z" fill="#FFFF00" stroke="black" stroke-width="0.5"/>
<path d="M15.451 17.387L15.259 17.5638L15.4769 17.7835L15.6559 17.5934L15.451 17.387L15.451 17.3871L15.451 17.387Z" fill="#FFFF00" stroke="black" stroke-width="0.5"/>
<path d="M16.3908 18.0663L16.3273 18.0026L16.2809 18.0487L16.2345 18.002L16.282 17.9548L16.2168 17.8896L16.1695 17.9366L16.1231 17.8898L16.1706 17.8426L16.1054 17.7773L15.9985 17.8837C15.9818 17.9003 15.984 17.9243 15.9992 17.9396L16.2273 18.1694C16.2426 18.1848 16.2694 18.1866 16.2849 18.1713L16.3909 18.0664L16.3908 18.0664L16.3908 18.0663Z" fill="#FFFF00" stroke="black" stroke-width="0.5"/>
<path d="M15.8301 17.5008L15.7665 17.4372L15.7201 17.4833L15.6737 17.4366L15.7212 17.3894L15.656 17.3242L15.6087 17.3712L15.5623 17.3244L15.6098 17.2772L15.5446 17.2118L15.4377 17.3182C15.421 17.3348 15.4232 17.3589 15.4384 17.3742L15.6666 17.6039C15.6818 17.6193 15.7086 17.6212 15.7241 17.6059L15.8301 17.501L15.83 17.5009L15.8301 17.5008Z" fill="#FFFF00" stroke="black" stroke-width="0.5"/>
<path d="M15.9057 17.7437C15.9405 17.712 15.8931 17.6635 15.8599 17.6976L15.7782 17.7788L15.8239 17.8249L15.9057 17.7437" fill="black"/>
<path d="M16.0686 18.1454C16.101 18.1135 16.0573 18.0681 16.0249 18.1014L15.9617 18.1641L16.0054 18.2081L16.0686 18.1453" fill="black"/>
<path d="M15.5063 17.5789C15.5387 17.5471 15.495 17.5017 15.4627 17.535L15.3995 17.5977L15.4431 17.6417L15.5063 17.5789" fill="black"/>
<path d="M12.448 15.1805V15.1809C12.448 15.3468 12.5117 15.498 12.6139 15.6076C12.7163 15.7176 12.8573 15.7859 13.0116 15.7859C13.1666 15.7859 13.3074 15.7181 13.4093 15.6085C13.5111 15.4991 13.5744 15.3481 13.5744 15.1816V14.374L12.45 14.373L12.448 15.1805" fill="#003399"/>
<path d="M12.7059 14.7913C12.7675 14.7913 12.8174 14.7414 12.8174 14.6798C12.8174 14.6183 12.7675 14.5684 12.7059 14.5684C12.6444 14.5684 12.5945 14.6183 12.5945 14.6798C12.5945 14.7414 12.6444 14.7913 12.7059 14.7913Z" fill="white"/>
<path d="M13.33 14.7932C13.3915 14.7932 13.4414 14.7433 13.4414 14.6818C13.4414 14.6202 13.3915 14.5703 13.33 14.5703C13.2684 14.5703 13.2185 14.6202 13.2185 14.6818C13.2185 14.7433 13.2684 14.7932 13.33 14.7932Z" fill="white"/>
<path d="M13.0172 15.092C13.0788 15.092 13.1287 15.0421 13.1287 14.9806C13.1287 14.919 13.0788 14.8691 13.0172 14.8691C12.9557 14.8691 12.9058 14.919 12.9058 14.9806C12.9058 15.0421 12.9557 15.092 13.0172 15.092Z" fill="white"/>
<path d="M12.7059 15.4045C12.7675 15.4045 12.8174 15.3546 12.8174 15.2931C12.8174 15.2315 12.7675 15.1816 12.7059 15.1816C12.6444 15.1816 12.5945 15.2315 12.5945 15.2931C12.5945 15.3546 12.6444 15.4045 12.7059 15.4045Z" fill="white"/>
<path d="M13.3292 15.4036C13.3908 15.4036 13.4407 15.3537 13.4407 15.2921C13.4407 15.2306 13.3908 15.1807 13.3292 15.1807C13.2677 15.1807 13.2178 15.2306 13.2178 15.2921C13.2178 15.3537 13.2677 15.4036 13.3292 15.4036Z" fill="white"/>
<path d="M12.448 13.2294V13.2297C12.448 13.3956 12.5117 13.5468 12.6139 13.6564C12.7163 13.7665 12.8573 13.8348 13.0116 13.8348C13.1666 13.8348 13.3074 13.7669 13.4093 13.6574C13.5111 13.548 13.5744 13.397 13.5744 13.2304V12.4228L12.45 12.4219L12.448 13.2293" fill="#003399"/>
<path d="M12.7059 12.8401C12.7675 12.8401 12.8174 12.7902 12.8174 12.7286C12.8174 12.6671 12.7675 12.6172 12.7059 12.6172C12.6444 12.6172 12.5945 12.6671 12.5945 12.7286C12.5945 12.7902 12.6444 12.8401 12.7059 12.8401Z" fill="white"/>
<path d="M13.33 12.8411C13.3915 12.8411 13.4414 12.7912 13.4414 12.7296C13.4414 12.6681 13.3915 12.6182 13.33 12.6182C13.2684 12.6182 13.2185 12.6681 13.2185 12.7296C13.2185 12.7912 13.2684 12.8411 13.33 12.8411Z" fill="white"/>
<path d="M13.0172 13.1409C13.0788 13.1409 13.1287 13.091 13.1287 13.0294C13.1287 12.9679 13.0788 12.918 13.0172 12.918C12.9557 12.918 12.9058 12.9679 12.9058 13.0294C12.9058 13.091 12.9557 13.1409 13.0172 13.1409Z" fill="white"/>
<path d="M12.7059 13.4534C12.7675 13.4534 12.8174 13.4035 12.8174 13.3419C12.8174 13.2804 12.7675 13.2305 12.7059 13.2305C12.6444 13.2305 12.5945 13.2804 12.5945 13.3419C12.5945 13.4035 12.6444 13.4534 12.7059 13.4534Z" fill="white"/>
<path d="M13.3292 13.4524C13.3908 13.4524 13.4407 13.4025 13.4407 13.3409C13.4407 13.2794 13.3908 13.2295 13.3292 13.2295C13.2677 13.2295 13.2178 13.2794 13.2178 13.3409C13.2178 13.4025 13.2677 13.4524 13.3292 13.4524Z" fill="white"/>
<path d="M10.888 15.1805V15.1809C10.888 15.3468 10.9517 15.498 11.0539 15.6076C11.1563 15.7176 11.2973 15.7859 11.4515 15.7859C11.6066 15.7859 11.7473 15.7181 11.8492 15.6085C11.9511 15.4991 12.0144 15.3481 12.0144 15.1816V14.374L10.89 14.373L10.8879 15.1805" fill="#003399"/>
<path d="M11.1459 14.7913C11.2074 14.7913 11.2573 14.7414 11.2573 14.6798C11.2573 14.6183 11.2074 14.5684 11.1459 14.5684C11.0843 14.5684 11.0344 14.6183 11.0344 14.6798C11.0344 14.7414 11.0843 14.7913 11.1459 14.7913Z" fill="white"/>
<path d="M11.7699 14.7932C11.8314 14.7932 11.8813 14.7433 11.8813 14.6818C11.8813 14.6202 11.8314 14.5703 11.7699 14.5703C11.7083 14.5703 11.6584 14.6202 11.6584 14.6818C11.6584 14.7433 11.7083 14.7932 11.7699 14.7932Z" fill="white"/>
<path d="M11.4572 15.092C11.5187 15.092 11.5686 15.0421 11.5686 14.9806C11.5686 14.919 11.5187 14.8691 11.4572 14.8691C11.3956 14.8691 11.3457 14.919 11.3457 14.9806C11.3457 15.0421 11.3956 15.092 11.4572 15.092Z" fill="white"/>
<path d="M11.1459 15.4045C11.2074 15.4045 11.2573 15.3546 11.2573 15.2931C11.2573 15.2315 11.2074 15.1816 11.1459 15.1816C11.0843 15.1816 11.0344 15.2315 11.0344 15.2931C11.0344 15.3546 11.0843 15.4045 11.1459 15.4045Z" fill="white"/>
<path d="M11.7692 15.4036C11.8307 15.4036 11.8806 15.3537 11.8806 15.2921C11.8806 15.2306 11.8307 15.1807 11.7692 15.1807C11.7076 15.1807 11.6577 15.2306 11.6577 15.2921C11.6577 15.3537 11.7076 15.4036 11.7692 15.4036Z" fill="white"/>
<path d="M14.0039 15.1805V15.1809C14.0039 15.3468 14.0676 15.498 14.1698 15.6076C14.2722 15.7176 14.4132 15.7859 14.5675 15.7859C14.7225 15.7859 14.8633 15.7181 14.9652 15.6085C15.0671 15.4991 15.1304 15.3481 15.1304 15.1816V14.374L14.006 14.373L14.0039 15.1805" fill="#003399"/>
<path d="M14.2618 14.7913C14.3234 14.7913 14.3733 14.7414 14.3733 14.6798C14.3733 14.6183 14.3234 14.5684 14.2618 14.5684C14.2003 14.5684 14.1504 14.6183 14.1504 14.6798C14.1504 14.7414 14.2003 14.7913 14.2618 14.7913Z" fill="white"/>
<path d="M14.8859 14.7932C14.9474 14.7932 14.9973 14.7433 14.9973 14.6818C14.9973 14.6202 14.9474 14.5703 14.8859 14.5703C14.8243 14.5703 14.7744 14.6202 14.7744 14.6818C14.7744 14.7433 14.8243 14.7932 14.8859 14.7932Z" fill="white"/>
<path d="M14.5731 15.092C14.6347 15.092 14.6846 15.0421 14.6846 14.9806C14.6846 14.919 14.6347 14.8691 14.5731 14.8691C14.5116 14.8691 14.4617 14.919 14.4617 14.9806C14.4617 15.0421 14.5116 15.092 14.5731 15.092Z" fill="white"/>
<path d="M14.2618 15.4045C14.3234 15.4045 14.3733 15.3546 14.3733 15.2931C14.3733 15.2315 14.3234 15.1816 14.2618 15.1816C14.2003 15.1816 14.1504 15.2315 14.1504 15.2931C14.1504 15.3546 14.2003 15.4045 14.2618 15.4045Z" fill="white"/>
<path d="M14.8849 15.4036C14.9464 15.4036 14.9963 15.3537 14.9963 15.2921C14.9963 15.2306 14.9464 15.1807 14.8849 15.1807C14.8233 15.1807 14.7734 15.2306 14.7734 15.2921C14.7734 15.3537 14.8233 15.4036 14.8849 15.4036Z" fill="white"/>
<path d="M12.448 17.1151V17.1155C12.448 17.2814 12.5117 17.4325 12.6139 17.5422C12.7163 17.6522 12.8573 17.7205 13.0116 17.7205C13.1666 17.7205 13.3074 17.6527 13.4093 17.5431C13.5111 17.4337 13.5744 17.2827 13.5744 17.1161V16.3085L12.45 16.3076L12.448 17.1151" fill="#003399"/>
<path d="M12.7059 16.7268C12.7675 16.7268 12.8174 16.6769 12.8174 16.6154C12.8174 16.5538 12.7675 16.5039 12.7059 16.5039C12.6444 16.5039 12.5945 16.5538 12.5945 16.6154C12.5945 16.6769 12.6444 16.7268 12.7059 16.7268Z" fill="white"/>
<path d="M13.33 16.7278C13.3915 16.7278 13.4414 16.6779 13.4414 16.6163C13.4414 16.5548 13.3915 16.5049 13.33 16.5049C13.2684 16.5049 13.2185 16.5548 13.2185 16.6163C13.2185 16.6779 13.2684 16.7278 13.33 16.7278Z" fill="white"/>
<path d="M13.0172 17.0266C13.0788 17.0266 13.1287 16.9767 13.1287 16.9152C13.1287 16.8536 13.0788 16.8037 13.0172 16.8037C12.9557 16.8037 12.9058 16.8536 12.9058 16.9152C12.9058 16.9767 12.9557 17.0266 13.0172 17.0266Z" fill="white"/>
<path d="M12.7059 17.3391C12.7675 17.3391 12.8174 17.2892 12.8174 17.2277C12.8174 17.1661 12.7675 17.1162 12.7059 17.1162C12.6444 17.1162 12.5945 17.1661 12.5945 17.2277C12.5945 17.2892 12.6444 17.3391 12.7059 17.3391Z" fill="white"/>
<path d="M13.3292 17.3381C13.3908 17.3381 13.4407 17.2882 13.4407 17.2267C13.4407 17.1651 13.3908 17.1152 13.3292 17.1152C13.2677 17.1152 13.2178 17.1651 13.2178 17.2267C13.2178 17.2882 13.2677 17.3381 13.3292 17.3381Z" fill="white"/>
</g>
</svg>
