<svg width="16" height="16" viewBox="0 0 16 16" fill="none" xmlns="http://www.w3.org/2000/svg">
<path d="M5.50016 0.708252C2.8538 0.708252 0.708496 2.85355 0.708496 5.49992V11.4223C0.708496 11.7675 0.988318 12.0473 1.3335 12.0473C1.67867 12.0473 1.9585 11.7675 1.9585 11.4223V5.49992C1.9585 3.54391 3.54415 1.95825 5.50016 1.95825H11.3442C11.6894 1.95825 11.9692 1.67843 11.9692 1.33325C11.9692 0.988074 11.6894 0.708252 11.3442 0.708252H5.50016Z" fill="black"/>
<path fill-rule="evenodd" clip-rule="evenodd" d="M13.3356 3.66097C10.6348 3.35911 7.86552 3.35911 5.16473 3.66097C4.39533 3.74696 3.77705 4.35246 3.68637 5.12782C3.36605 7.86655 3.36605 10.6333 3.68637 13.372C3.77705 14.1474 4.39533 14.7529 5.16473 14.8389C7.86552 15.1407 10.6348 15.1407 13.3356 14.8389C14.105 14.7529 14.7233 14.1474 14.814 13.372C15.1343 10.6333 15.1343 7.86655 14.814 5.12782C14.7233 4.35246 14.105 3.74696 13.3356 3.66097ZM5.30357 4.90323C7.91209 4.61169 10.5883 4.61169 13.1968 4.90323C13.3946 4.92534 13.5501 5.08176 13.5724 5.27303C13.8815 7.91528 13.8815 10.5846 13.5724 13.2268C13.5501 13.4181 13.3946 13.5745 13.1968 13.5966C10.5883 13.8881 7.91209 13.8881 5.30357 13.5966C5.10578 13.5745 4.95027 13.4181 4.9279 13.2268C4.61887 10.5846 4.61887 7.91528 4.9279 5.27303C4.95027 5.08176 5.10578 4.92534 5.30357 4.90323Z" fill="black"/>
</svg>
