<svg width="23" height="22" viewBox="0 0 23 22" fill="none" xmlns="http://www.w3.org/2000/svg">
<path fill-rule="evenodd" clip-rule="evenodd" d="M15.2466 1.17164C12.9173 0.657957 10.504 0.657957 8.17464 1.17164L7.68684 1.279C4.43781 1.99172 1.87242 4.48252 1.06418 7.70911C0.477753 10.0604 0.477753 12.5197 1.06418 14.8709C1.87306 18.0969 4.43826 20.5871 7.68684 21.2999L8.17347 21.4072C10.5039 21.9207 12.9184 21.9207 15.2478 21.4072L15.7344 21.2999C18.9834 20.5871 21.5488 18.0963 22.3571 14.8697C22.9436 12.5185 22.9436 10.0592 22.3571 7.70794C21.5484 4.4818 18.9831 1.99153 15.7344 1.279L15.2478 1.17164H15.2466ZM18.646 8.73139C19.0845 8.65677 19.5297 8.62938 19.9741 8.6497C20.4595 8.67304 20.8411 9.05231 20.9077 9.53194C21.0652 10.6989 21.0652 11.8811 20.9077 13.0469C20.8509 13.5279 20.4576 13.8991 19.9741 13.928C19.5298 13.9487 19.0846 13.9217 18.646 13.8475L18.5597 13.8335C17.4137 13.6386 16.5291 12.8649 16.2292 11.8916C16.108 11.4993 16.108 11.0796 16.2292 10.6873C16.5291 9.71283 17.4137 8.94028 18.5597 8.74539L18.646 8.73139ZM6.27945 7.76279C6.27945 7.37185 6.5957 7.05676 6.98781 7.05676H11.7106C12.1016 7.05676 12.419 7.37185 12.419 7.76162C12.4187 7.94918 12.3439 8.12894 12.211 8.26134C12.0782 8.39375 11.8982 8.46796 11.7106 8.46765H6.98781C6.80025 8.46796 6.62025 8.39375 6.48741 8.26134C6.35456 8.12894 6.27976 7.94918 6.27945 7.76162V7.76279Z" fill="#F69D69"/>
</svg>
