<svg width="19" height="19" viewBox="0 0 19 19" fill="none" xmlns="http://www.w3.org/2000/svg">
<path d="M10.707 0.293001C10.6143 0.199958 10.5041 0.126171 10.3828 0.0758854C10.2614 0.0256001 10.1313 -0.000189449 10 1.04767e-06H1C0.734784 1.04767e-06 0.48043 0.105358 0.292893 0.292894C0.105357 0.480431 0 0.734785 0 1V10C0 10.266 0.105 10.52 0.293 10.707L8.293 18.707C8.38565 18.8002 8.49581 18.8741 8.61715 18.9246C8.73848 18.9751 8.86859 19.001 9 19.001C9.13141 19.001 9.26152 18.9751 9.38285 18.9246C9.50419 18.8741 9.61435 18.8002 9.707 18.707L18.707 9.707C18.7999 9.61421 18.8737 9.50401 18.924 9.38269C18.9743 9.26138 19.0002 9.13133 19.0002 9C19.0002 8.86867 18.9743 8.73862 18.924 8.61731C18.8737 8.49599 18.7999 8.38579 18.707 8.293L10.707 0.293001ZM9 16.586L2 9.586V2H9.586L16.586 9L9 16.586Z"/>
</svg>
