<svg width="80" height="80" viewBox="0 0 80 80" fill="none" xmlns="http://www.w3.org/2000/svg">
<path d="M12.5 75C11.837 75 11.2011 74.7366 10.7322 74.2678C10.2634 73.7989 10 73.163 10 72.5C10 71.837 10.2634 71.2011 10.7322 70.7322C11.2011 70.2634 11.837 70 12.5 70H17.5V65C17.499 60.7548 18.6989 56.596 20.9612 53.0039C23.2236 49.4118 26.456 46.533 30.285 44.7C31.735 44.005 32.5 42.815 32.5 41.75V38.25C32.5 37.185 31.73 35.995 30.285 35.3C26.456 33.467 23.2236 30.5882 20.9612 26.9961C18.6989 23.404 17.499 19.2452 17.5 15V10H12.5C11.837 10 11.2011 9.73661 10.7322 9.26777C10.2634 8.79893 10 8.16304 10 7.5C10 6.83696 10.2634 6.20107 10.7322 5.73223C11.2011 5.26339 11.837 5 12.5 5H67.5C68.163 5 68.7989 5.26339 69.2678 5.73223C69.7366 6.20107 70 6.83696 70 7.5C70 8.16304 69.7366 8.79893 69.2678 9.26777C68.7989 9.73661 68.163 10 67.5 10H62.5V15C62.501 19.2452 61.3011 23.404 59.0388 26.9961C56.7764 30.5882 53.544 33.467 49.715 35.3C48.265 35.995 47.5 37.185 47.5 38.25V41.75C47.5 42.815 48.27 44.005 49.715 44.7C53.544 46.533 56.7764 49.4118 59.0388 53.0039C61.3011 56.596 62.501 60.7548 62.5 65V70H67.5C68.163 70 68.7989 70.2634 69.2678 70.7322C69.7366 71.2011 70 71.837 70 72.5C70 73.163 69.7366 73.7989 69.2678 74.2678C68.7989 74.7366 68.163 75 67.5 75H12.5ZM22.5 10V15C22.5 17.685 23.1 20.225 24.185 22.5H55.815C56.895 20.225 57.5 17.685 57.5 15V10H22.5ZM37.5 41.75C37.5 45.255 35.11 47.93 32.445 49.21C29.4665 50.6356 26.9521 52.8747 25.1923 55.6688C23.4325 58.4629 22.4991 61.6979 22.5 65C22.5 65 26.83 58.505 37.5 57.6V41.75ZM42.5 41.75V57.6C53.17 58.505 57.5 65 57.5 65C57.5009 61.6979 56.5675 58.4629 54.8077 55.6688C53.0479 52.8747 50.5335 50.6356 47.555 49.21C44.89 47.93 42.5 45.26 42.5 41.755V41.75Z" fill="#11CABE"/>
</svg>
