<svg width="28" height="28" viewBox="0 0 28 28" fill="none" xmlns="http://www.w3.org/2000/svg">
<path fill-rule="evenodd" clip-rule="evenodd" d="M14.8126 5.60359C14.7702 5.2914 14.5026 5.05078 14.1788 5.05078C13.8256 5.05078 13.5393 5.33714 13.5393 5.69037V14.3857C13.2144 14.3919 12.8929 14.4033 12.5796 14.4198L12.018 14.4556C10.6426 14.5594 9.50181 14.7707 9.0685 15.0928L8.99113 15.159C8.48002 15.6708 8.91653 17.1295 9.74125 18.6957L9.9552 19.089C10.0659 19.2863 10.1819 19.4842 10.3022 19.681L10.5481 20.0728C10.5899 20.1377 10.6321 20.2023 10.6747 20.2667L10.9339 20.6488L11.1996 21.0208L11.4698 21.3798C12.4665 22.6686 13.5152 23.6363 14.1851 23.6363C14.6945 23.6363 15.4303 23.054 16.1955 22.1916L16.4665 21.876C16.6928 21.6042 16.9196 21.3112 17.142 21.0047L17.4064 20.631L17.6645 20.2473L17.9146 19.8566C18.0372 19.6599 18.1561 19.4618 18.2701 19.2637L18.4913 18.8683L18.6977 18.4762C19.4578 16.9833 19.8475 15.6281 19.3791 15.159C19.0314 14.8113 17.8389 14.578 16.3755 14.4631L15.8151 14.4255C15.6248 14.4149 15.4314 14.4061 15.2361 14.3992L14.8184 14.3885V5.69037L14.8126 5.60359Z" fill="#31CBD1"/>
</svg>
