<svg width="16" height="14" viewBox="0 0 16 14" fill="none" xmlns="http://www.w3.org/2000/svg">
<path fill-rule="evenodd" clip-rule="evenodd" d="M11.869 4.47979C12.0505 4.33369 12.3161 4.36239 12.4622 4.54389C12.595 4.70888 12.5834 4.94336 12.4438 5.0944L12.3981 5.13705L9.27463 7.65133C8.56462 8.20892 7.57803 8.23316 6.84168 7.72224L6.74287 7.64925L3.59703 5.13814C3.41493 4.99278 3.38515 4.72733 3.5305 4.54524C3.66264 4.37969 3.89404 4.34003 4.07183 4.44339L4.1234 4.47871L7.26662 6.98775C7.67573 7.30903 8.24105 7.32912 8.66641 7.05059L8.74953 6.99091L11.869 4.47979ZM11.4421 0.320094L4.5432 0.320068C2.22052 0.320068 0.546978 2.19206 0.546978 4.61318V9.38678C0.546978 11.8079 2.22052 13.6799 4.5432 13.6799H11.4374C12.5535 13.6668 13.6103 13.1974 14.365 12.3819C15.1215 11.5644 15.5119 10.4737 15.4461 9.36185L15.4468 4.61318C15.5119 3.52623 15.1215 2.43559 14.3649 1.61809C13.6079 0.801411 12.5521 0.332337 11.4421 0.320094Z"/>
</svg>
