<svg width="17" height="15" viewBox="0 0 17 15" fill="none" xmlns="http://www.w3.org/2000/svg">
<path fill-rule="evenodd" clip-rule="evenodd" d="M15.2336 1.06694C15.4777 0.822864 15.4777 0.427136 15.2336 0.183058C14.9895 -0.0610194 14.5938 -0.0610194 14.3497 0.183058L1.01639 13.5164C0.772314 13.7605 0.772314 14.1562 1.01639 14.4003C1.26047 14.6444 1.6562 14.6444 1.90028 14.4003L4.27269 12.0279C5.41128 12.5638 6.72266 12.9167 8.125 12.9167C10.3617 12.9167 12.367 12.0191 13.8088 10.9125C14.5311 10.3581 15.1277 9.73963 15.5491 9.13238C15.9589 8.5419 16.25 7.89392 16.25 7.29167C16.25 6.68942 15.9589 6.04143 15.5491 5.45095C15.1277 4.8437 14.5311 4.22523 13.8088 3.67086C13.5904 3.50321 13.359 3.34035 13.1159 3.18469L15.2336 1.06694ZM12.2079 4.09261L10.7323 5.5683C11.0595 6.06232 11.25 6.65474 11.25 7.29167C11.25 9.01756 9.85089 10.4167 8.125 10.4167C7.48807 10.4167 6.89565 10.2261 6.40163 9.89892L5.22103 11.0795C6.10897 11.4413 7.09343 11.6667 8.125 11.6667C10.0305 11.6667 11.7752 10.8976 13.0478 9.92086C13.6827 9.43357 14.1845 8.9062 14.5221 8.4197C14.8714 7.91643 15 7.52275 15 7.29167C15 7.06058 14.8714 6.6669 14.5221 6.16363C14.1845 5.67713 13.6827 5.14976 13.0478 4.66247C12.7868 4.46217 12.506 4.2706 12.2079 4.09261ZM7.31662 8.98393C7.56139 9.10107 7.83553 9.16667 8.125 9.16667C9.16053 9.16667 10 8.3272 10 7.29167C10 7.0022 9.9344 6.72805 9.81727 6.48328L7.31662 8.98393Z" fill="#8E8E93"/>
<path d="M8.125 1.66667C8.96129 1.66667 9.76523 1.79215 10.5195 2.00712C10.6983 2.05808 10.7515 2.28132 10.62 2.4128L9.99719 3.0356C9.93533 3.09746 9.84573 3.12218 9.76042 3.10283C9.23457 2.98352 8.68677 2.91667 8.125 2.91667C6.21954 2.91667 4.47482 3.68577 3.20223 4.66247C2.56731 5.14976 2.06548 5.67713 1.72785 6.16363C1.37859 6.6669 1.25 7.06058 1.25 7.29167C1.25 7.52275 1.37859 7.91643 1.72785 8.4197C2.01589 8.83475 2.42345 9.27954 2.93119 9.70382C3.0465 9.80017 3.05754 9.97525 2.95129 10.0815L2.42033 10.6125C2.33002 10.7028 2.18591 10.7108 2.08837 10.6283C1.52357 10.1508 1.05162 9.63772 0.700919 9.13238C0.291142 8.5419 0 7.89392 0 7.29167C0 6.68942 0.291142 6.04143 0.700919 5.45095C1.12234 4.8437 1.71885 4.22523 2.44117 3.67086C3.88304 2.56423 5.88832 1.66667 8.125 1.66667Z" fill="#8E8E93"/>
<path d="M8.125 4.16667C8.19786 4.16667 8.27015 4.16916 8.34177 4.17407C8.53901 4.18758 8.61059 4.4222 8.47079 4.562L7.51449 5.5183C6.97006 5.70569 6.53903 6.13673 6.35164 6.68115L5.39534 7.63746C5.25554 7.77725 5.02091 7.70568 5.0074 7.50843C5.00249 7.43681 5 7.36453 5 7.29167C5 5.56578 6.39911 4.16667 8.125 4.16667Z" fill="#8E8E93"/>
</svg>
