<svg width="25" height="24" viewBox="0 0 25 24" fill="none" xmlns="http://www.w3.org/2000/svg">
<path d="M20.86 12.73C20.49 12.73 20.18 12.45 20.14 12.08C19.9 9.88001 18.72 7.90001 16.9 6.64001C16.57 6.41001 16.49 5.96001 16.72 5.63001C16.95 5.30001 17.4 5.22001 17.73 5.45001C19.9 6.96001 21.3 9.32001 21.59 11.93C21.63 12.33 21.34 12.69 20.94 12.73C20.91 12.73 20.89 12.73 20.86 12.73Z" fill="#2873FF"/>
<path d="M4.24004 12.78C4.22004 12.78 4.19004 12.78 4.17004 12.78C3.77004 12.74 3.48004 12.38 3.52004 11.98C3.79004 9.37002 5.17004 7.01002 7.32004 5.49002C7.64004 5.26002 8.10004 5.34002 8.33004 5.66002C8.56004 5.99002 8.48004 6.44002 8.16004 6.67002C6.36004 7.95002 5.19004 9.93002 4.97004 12.12C4.93004 12.5 4.61004 12.78 4.24004 12.78Z" fill="#2873FF"/>
<path d="M16.49 21.1C15.26 21.69 13.94 21.99 12.56 21.99C11.12 21.99 9.74998 21.67 8.46998 21.02C8.10998 20.85 7.96998 20.41 8.14998 20.05C8.31998 19.69 8.75998 19.55 9.11998 19.72C9.74998 20.04 10.42 20.26 11.1 20.39C12.02 20.57 12.96 20.58 13.88 20.42C14.56 20.3 15.23 20.09 15.85 19.79C16.22 19.62 16.66 19.76 16.82 20.13C17 20.49 16.86 20.93 16.49 21.1Z" fill="#2873FF"/>
<path d="M12.55 2.01001C11 2.01001 9.72998 3.27001 9.72998 4.83001C9.72998 6.39001 10.99 7.65001 12.55 7.65001C14.11 7.65001 15.37 6.39001 15.37 4.83001C15.37 3.27001 14.11 2.01001 12.55 2.01001Z" fill="#2873FF"/>
<path d="M5.54998 13.87C3.99998 13.87 2.72998 15.13 2.72998 16.69C2.72998 18.25 3.98998 19.51 5.54998 19.51C7.10998 19.51 8.36998 18.25 8.36998 16.69C8.36998 15.13 7.09998 13.87 5.54998 13.87Z" fill="#2873FF"/>
<path d="M19.45 13.87C17.9 13.87 16.63 15.13 16.63 16.69C16.63 18.25 17.89 19.51 19.45 19.51C21.01 19.51 22.27 18.25 22.27 16.69C22.27 15.13 21.01 13.87 19.45 13.87Z" fill="#2873FF"/>
</svg>
