<svg width="20" height="20" viewBox="0 0 20 20" fill="none" xmlns="http://www.w3.org/2000/svg">
<path d="M18.3333 8.12499C17.9916 8.12499 17.7083 7.84166 17.7083 7.49999V5.83332C17.7083 3.68332 16.3166 2.29166 14.1666 2.29166H5.83329C3.68329 2.29166 2.29163 3.68332 2.29163 5.83332V7.49999C2.29163 7.84166 2.00829 8.12499 1.66663 8.12499C1.32496 8.12499 1.04163 7.84166 1.04163 7.49999V5.83332C1.04163 2.96666 2.96663 1.04166 5.83329 1.04166H14.1666C17.0333 1.04166 18.9583 2.96666 18.9583 5.83332V7.49999C18.9583 7.84166 18.675 8.12499 18.3333 8.12499Z" fill="#0C0507"/>
<path d="M14.1666 18.9583H5.83329C2.96663 18.9583 1.04163 17.0333 1.04163 14.1667V12.5C1.04163 12.1583 1.32496 11.875 1.66663 11.875C2.00829 11.875 2.29163 12.1583 2.29163 12.5V14.1667C2.29163 16.3167 3.68329 17.7083 5.83329 17.7083H14.1666C16.3166 17.7083 17.7083 16.3167 17.7083 14.1667V12.5C17.7083 12.1583 17.9916 11.875 18.3333 11.875C18.675 11.875 18.9583 12.1583 18.9583 12.5V14.1667C18.9583 17.0333 17.0333 18.9583 14.1666 18.9583Z" fill="#0C0507"/>
<path d="M18.3333 10.625H1.66663C1.32496 10.625 1.04163 10.3417 1.04163 10C1.04163 9.65833 1.32496 9.375 1.66663 9.375H18.3333C18.675 9.375 18.9583 9.65833 18.9583 10C18.9583 10.3417 18.675 10.625 18.3333 10.625Z" fill="#0C0507"/>
<path d="M13.75 7.49999H6.25004C6.01671 7.49999 5.83337 7.31666 5.83337 7.08332V5.41666C5.83337 4.72499 6.39171 4.16666 7.08337 4.16666H12.9167C13.6084 4.16666 14.1667 4.72499 14.1667 5.41666V7.08332C14.1667 7.31666 13.9834 7.49999 13.75 7.49999Z" fill="#0C0507"/>
<path d="M13.75 12.5H6.25004C6.01671 12.5 5.83337 12.6833 5.83337 12.9167V14.5833C5.83337 15.275 6.39171 15.8333 7.08337 15.8333H12.9167C13.6 15.8333 14.1667 15.275 14.1667 14.5833V12.9167C14.1667 12.6833 13.9834 12.5 13.75 12.5Z" fill="#0C0507"/>
</svg>
