<svg width="22" height="24" viewBox="0 0 22 24" fill="none" xmlns="http://www.w3.org/2000/svg">
<path d="M10.7374 0.957691L3.87846 4.91769L2.07846 1.8L0 3L11.16 22.3297C11.622 23.1299 12.6537 23.4072 13.4528 22.9458L20.9374 18.6246C21.7366 18.1632 22.0137 17.1289 21.5523 16.3297L13.0329 1.57365C12.5697 0.771368 11.5366 0.496291 10.7374 0.957691ZM12.1177 16.7885C11.3996 17.2031 10.5505 17.0739 10.2187 16.4992C9.88685 15.9245 10.1996 15.1246 10.9177 14.71C11.6358 14.2954 12.4849 14.4245 12.8167 14.9992C13.1485 15.5739 12.8358 16.3739 12.1177 16.7885ZM14.6167 18.1169C14.9485 18.6916 14.6358 19.4915 13.9177 19.9061C13.1996 20.3207 12.3505 20.1916 12.0187 19.6169C11.6869 19.0422 11.9996 18.2423 12.7177 17.8277C13.4358 17.4131 14.2849 17.5422 14.6167 18.1169ZM8.67846 13.2315L5.07846 6.99615L11.3138 3.39615L14.9138 9.63154L8.67846 13.2315ZM16.2746 14.3885C15.5565 14.8031 14.7074 14.6739 14.3756 14.0992C14.0438 13.5245 14.3565 12.7246 15.0746 12.31C15.7927 11.8954 16.6419 12.0245 16.9737 12.5992C17.3055 13.1739 16.9927 13.9739 16.2746 14.3885ZM18.7737 15.7169C19.1055 16.2916 18.7927 17.0915 18.0746 17.5061C17.3565 17.9207 16.5074 17.7916 16.1756 17.2169C15.8438 16.6422 16.1565 15.8423 16.8746 15.4277C17.5927 15.0131 18.4419 15.1422 18.7737 15.7169Z" fill="white"/>
</svg>
