<svg width="40" height="40" viewBox="0 0 40 40" fill="none" xmlns="http://www.w3.org/2000/svg">
<rect width="40" height="40" rx="20" fill="#F8FAFC"/>
<path d="M18 13C18 12.4696 18.2107 11.9609 18.5858 11.5858C18.9609 11.2107 19.4696 11 20 11C20.5304 11 21.0391 11.2107 21.4142 11.5858C21.7893 11.9609 22 12.4696 22 13C23.1484 13.543 24.1274 14.3883 24.8321 15.4453C25.5367 16.5023 25.9404 17.7311 26 19V22C26.0753 22.6217 26.2954 23.2171 26.6428 23.7381C26.9902 24.2592 27.4551 24.6914 28 25H12C12.5449 24.6914 13.0098 24.2592 13.3572 23.7381C13.7046 23.2171 13.9247 22.6217 14 22V19C14.0596 17.7311 14.4633 16.5023 15.1679 15.4453C15.8726 14.3883 16.8516 13.543 18 13" stroke="#10192D" stroke-width="2" stroke-linecap="round" stroke-linejoin="round"/>
<path d="M17 25V26C17 26.7956 17.3161 27.5587 17.8787 28.1213C18.4413 28.6839 19.2044 29 20 29C20.7956 29 21.5587 28.6839 22.1213 28.1213C22.6839 27.5587 23 26.7956 23 26V25" stroke="#10192D" stroke-width="2" stroke-linecap="round" stroke-linejoin="round"/>
</svg>
