<svg width="30" height="30" viewBox="0 0 30 30" fill="none" xmlns="http://www.w3.org/2000/svg">
<circle cx="15" cy="15" r="15" fill="#1EA1F1"/>
<path d="M24.4261 8.7971C23.7336 9.09753 23.0013 9.29614 22.2518 9.38674C23.0425 8.9144 23.635 8.17133 23.9194 7.29537C23.1764 7.73766 22.3631 8.04927 21.5148 8.21668C20.9478 7.60177 20.1927 7.19246 19.368 7.05293C18.5433 6.9134 17.6956 7.05156 16.9578 7.44572C16.2201 7.83988 15.634 8.46776 15.2916 9.23089C14.9492 9.99401 14.8697 10.8492 15.0657 11.6624C13.5634 11.5864 12.0939 11.1952 10.7527 10.5143C9.41148 9.83336 8.2285 8.87789 7.28062 7.70996C6.94815 8.29054 6.77345 8.94803 6.7739 9.61706C6.77272 10.2384 6.92519 10.8503 7.21774 11.3985C7.51029 11.9466 7.93384 12.4139 8.45068 12.7587C7.84996 12.7424 7.26208 12.5812 6.73705 12.2889V12.3349C6.74155 13.2055 7.0466 14.0477 7.6006 14.7192C8.1546 15.3907 8.92354 15.8503 9.77736 16.0201C9.44869 16.1202 9.10745 16.1729 8.76392 16.1768C8.52612 16.174 8.28891 16.1524 8.05451 16.1123C8.29766 16.8611 8.76818 17.5156 9.40061 17.9845C10.033 18.4535 10.7959 18.7136 11.5831 18.7288C10.2539 19.7747 8.61272 20.3455 6.92131 20.3503C6.61335 20.3513 6.30563 20.3328 6 20.295C7.72692 21.41 9.73941 22.0019 11.795 21.9994C13.2135 22.0142 14.6208 21.7461 15.9346 21.2109C17.2483 20.6756 18.4423 19.884 19.4467 18.8822C20.451 17.8804 21.2457 16.6885 21.7843 15.3761C22.3229 14.0637 22.5946 12.6571 22.5835 11.2386C22.5835 11.0819 22.5835 10.9161 22.5835 10.7503C23.3065 10.2111 23.93 9.5502 24.4261 8.7971Z" fill="white"/>
</svg>
