<svg width="48" height="48" viewBox="0 0 48 48" fill="none" xmlns="http://www.w3.org/2000/svg">
<circle cx="24" cy="24" r="24" fill="#F7931A"/>
<path fill-rule="evenodd" clip-rule="evenodd" d="M34.7836 21.03C35.2546 17.886 32.8591 16.1955 29.5861 15.0675L30.6481 10.8075L28.0561 10.1625L27.0211 14.31C26.3543 14.1426 25.6702 13.9866 24.9871 13.8309L24.9871 13.8309L24.9436 13.821L25.9861 9.6465L23.3941 9L22.3321 13.2585L22.2187 13.2326C21.6937 13.1126 21.1771 12.9944 20.6761 12.8685L20.6791 12.855L17.1031 11.9625L16.4131 14.7315C16.4131 14.7315 18.3376 15.1725 18.2971 15.1995C19.3471 15.462 19.5361 16.1565 19.5046 16.7085L18.2956 21.561C18.3676 21.579 18.4606 21.606 18.5656 21.6465L18.2911 21.579L16.5961 28.377C16.4671 28.695 16.1416 29.1735 15.4066 28.992C15.4336 29.0295 13.5226 28.5225 13.5226 28.5225L12.2356 31.4895L15.6106 32.331C15.9728 32.422 16.3311 32.5155 16.6856 32.608L16.6862 32.6082L16.6864 32.6082C16.9453 32.6758 17.2021 32.7428 17.4571 32.808L16.3846 37.116L18.9751 37.761L20.0371 33.501C20.7451 33.6915 21.4321 33.8685 22.1041 34.0365L21.0451 38.2785L23.6371 38.9235L24.7096 34.6245C29.1316 35.4615 32.4556 35.124 33.8551 31.125C34.9831 27.906 33.7996 26.0475 31.4731 24.837C33.1681 24.447 34.4431 23.3325 34.7836 21.03ZM28.8586 29.337C28.1252 32.2913 23.5014 31.07 21.3849 30.5109L21.3845 30.5108C21.194 30.4605 21.0238 30.4156 20.8786 30.3795L22.3036 24.672C22.4808 24.7163 22.6975 24.765 22.9429 24.8201C25.1321 25.3119 29.6126 26.3184 28.8586 29.337ZM23.3825 22.1707C25.1461 22.6415 28.9916 23.6682 29.6611 20.9835C30.3459 18.2375 26.6076 17.4106 24.7816 17.0066C24.5758 16.9611 24.3943 16.9209 24.2461 16.884L22.9561 22.059C23.0783 22.0895 23.2218 22.1278 23.3825 22.1707Z" fill="white"/>
</svg>
