<svg width="213" height="228" viewBox="0 0 213 228" fill="none" xmlns="http://www.w3.org/2000/svg">
<g clip-path="url(#clip0_1045_25691)">
<path d="M197.506 72.4388V211.828H0V70.2365C0 62.4582 3.16012 59.1548 8.25671 57.8071C13.3143 56.4594 20.285 57.0293 27.9841 57.0293H180.985C190.109 57.0293 197.505 63.9291 197.505 72.4395L197.506 72.4388Z" fill="#0C4496"/>
<path d="M159.992 36.9806C160.077 37.3435 160.133 37.7079 160.188 38.0724C160.24 38.3438 160.28 38.6214 160.313 38.8873C160.793 42.283 161.003 46.2323 160.457 50.7143C160.033 54.1068 159.212 57.9948 157.49 62.1783C156.952 63.4911 156.362 64.7985 155.68 66.1097C153.138 70.9996 149.55 75.7111 144.811 79.7636L144.792 79.7581C139.214 84.4813 131.709 89.4022 123.188 90.9174C122.841 90.9779 122.885 91.0012 121.264 91.2245C113.918 92.2504 105.742 91.5672 97.821 88.3507L97.7812 88.3391C91.5148 85.7794 85.299 81.6486 80.1853 75.6367C77.9985 73.0933 75.7071 69.8341 73.7379 65.6786C72.3029 62.6536 70.6308 58.07 69.8088 53.519C69.7472 53.1429 69.7308 53.2298 69.5062 51.6184C68.6 44.9559 69.638 37.3791 72.3263 29.9854C72.5385 29.3836 72.7693 28.7873 73.0189 28.1964L73.0126 28.184C77.3145 17.7521 85.9034 8.39109 97.4591 3.56401L97.4716 3.55781C100.064 2.49779 103.125 1.45483 106.988 0.753067C107.335 0.692583 107.29 0.66932 108.899 0.452198C111.694 0.0559517 114.924 -0.148763 118.811 0.128067L118.83 0.133495C126.538 0.739109 134.367 3.40583 141.128 8.0468C144.295 10.2064 147.233 12.8196 149.834 15.8329L149.84 15.8453C150.248 16.3354 150.676 16.8301 151.059 17.3334C155.228 22.6242 158.553 29.2495 159.992 36.9813V36.9806Z" fill="#EFBA0F"/>
<path d="M153.603 19.9147C153.89 20.3319 154.172 20.7568 154.447 21.1895C154.472 21.2283 154.497 21.2678 154.522 21.3074C157.402 25.8522 159.637 31.1624 160.747 37.1309C160.834 37.4946 160.888 37.859 160.943 38.2227C160.995 38.4941 161.035 38.7717 161.069 39.0377C161.549 42.4333 161.76 46.3818 161.213 50.8638C160.789 54.2571 159.968 58.1444 158.247 62.3278C157.707 63.6399 157.118 64.948 156.436 66.2593C153.894 71.1492 150.305 75.8607 145.567 79.9123L145.549 79.9069C139.971 84.6301 132.72 88.4871 124.198 90.0015C123.851 90.062 123.895 90.0853 122.275 90.3094C114.929 91.3353 106.732 90.6459 98.8107 87.4302L98.7919 87.4247C92.5255 84.8643 86.3106 80.7335 81.196 74.7224C80.4637 73.8702 79.7197 72.9381 78.9804 71.9192C78.9032 71.8137 78.8267 71.7067 78.7503 71.5989C78.521 71.2771 78.2933 70.9475 78.0655 70.6095C76.9129 68.8927 75.7867 66.9525 74.7495 64.7642C73.3145 61.7385 71.9512 58.0296 71.13 53.4786C71.0684 53.1025 71.052 53.1893 70.8274 51.578C69.9211 44.9147 70.3953 37.5279 73.0836 30.1341C73.295 29.5324 73.5258 28.9361 73.7761 28.3452L73.7699 28.3328C78.0726 17.9009 86.6607 8.53987 98.2164 3.7128L98.2289 3.70659C100.821 2.64657 103.882 1.60362 107.745 0.901848C108.093 0.84214 108.048 0.818101 109.657 0.60098C112.451 0.204733 115.68 -0.000756606 119.569 0.276849L119.588 0.282277C127.296 0.88789 135.124 3.55461 141.886 8.19558C145.052 10.3544 147.99 12.9676 150.592 15.9817L150.598 15.9941C151.006 16.4834 151.433 16.9789 151.816 17.4814C152.431 18.263 153.029 19.0734 153.604 19.9132L153.603 19.9147Z" fill="#FFE61D"/>
<path d="M146.861 25.5577C147.102 25.9222 147.336 26.2921 147.564 26.6674C147.668 26.8364 147.769 27.007 147.87 27.1807C148.029 27.4521 148.185 27.7274 148.337 28.0042C148.44 28.1903 148.54 28.3772 148.639 28.5657C149.387 29.9839 150.045 31.4619 150.603 32.9949C151.367 35.0894 151.945 37.2831 152.315 39.5629C155.512 59.2224 142.076 77.7359 122.304 80.9152C109.406 82.9887 96.9982 78.0244 89.0417 68.8649C88.8389 68.6315 88.6393 68.3958 88.4428 68.157C88.2104 67.8755 87.9818 67.5894 87.7572 67.3009C87.6442 67.1543 87.5318 67.007 87.4211 66.8589C87.2277 66.6015 87.0382 66.3425 86.8526 66.0788C84.789 63.1671 83.1387 59.9203 82.0016 56.4084C81.9736 56.3223 81.9455 56.2331 81.9182 56.1463C81.4011 54.5101 80.9979 52.8166 80.714 51.0742C77.518 31.4146 90.954 12.9003 110.727 9.72184C121.147 8.04691 131.246 10.9641 138.937 16.9776C142.006 19.3768 144.692 22.2684 146.861 25.5577Z" fill="#F9D608"/>
<path d="M153.603 19.9147C153.89 20.3319 154.172 20.7568 154.447 21.1895C154.472 21.2283 154.497 21.2678 154.522 21.3074C154.089 21.8921 153.645 22.4798 153.187 23.0699C151.768 24.9023 150.252 26.7362 148.639 28.5654C148.54 28.377 148.439 28.1901 148.337 28.004C148.185 27.7272 148.029 27.4519 147.87 27.1805C147.769 27.0076 147.668 26.8362 147.564 26.6672C147.336 26.2919 147.102 25.9228 146.861 25.5575C144.692 22.2681 142.006 19.3766 138.937 16.9774C131.246 10.9647 121.147 8.04669 110.727 9.72163C90.954 12.9001 77.518 31.4144 80.714 51.074C80.9979 52.8164 81.4019 54.5099 81.9182 56.1461C81.9455 56.2329 81.9736 56.3213 82.0016 56.4082C83.1387 59.9201 84.789 63.1669 86.8526 66.0786C87.039 66.3422 87.2277 66.6012 87.4211 66.8587C87.5319 67.0068 87.6442 67.1541 87.7572 67.3007C87.9819 67.5891 88.2104 67.8753 88.4428 68.1568C88.6393 68.3956 88.839 68.6313 89.0417 68.8647C87.2074 69.5223 85.3575 70.1264 83.4967 70.6707C82.8143 70.8677 82.8915 70.8909 79.7267 71.7245C79.4787 71.7905 79.2291 71.8548 78.9796 71.9192C78.9024 71.8137 78.8259 71.7067 78.7495 71.5989C78.5202 71.2771 78.2925 70.9475 78.0648 70.6095C76.9121 68.8927 75.7859 66.9525 74.7487 64.7642C73.3137 61.7385 71.9504 58.0296 71.1292 53.4786C71.0676 53.1025 71.0512 53.1893 70.8266 51.578C69.9203 44.9147 70.3945 37.5279 73.0828 30.1341C73.2942 29.5324 73.525 28.9361 73.7754 28.3452L73.7691 28.3328C78.0718 17.9009 86.6599 8.53987 98.2156 3.7128L98.2281 3.70659C100.82 2.64657 103.881 1.60362 107.744 0.901848C108.092 0.84214 108.048 0.818101 109.656 0.60098C112.45 0.204733 115.68 -0.000756606 119.568 0.276849L119.587 0.282277C127.295 0.88789 135.123 3.55461 141.885 8.19558C145.051 10.3544 147.989 12.9676 150.591 15.9817L150.597 15.9941C151.006 16.4834 151.432 16.9789 151.815 17.4814C152.431 18.263 153.029 19.0734 153.603 19.9132V19.9147Z" fill="#FFE61D"/>
<path d="M145.566 21.2399C142.809 17.9583 139.533 15.183 135.831 12.9932C132.098 10.7855 128.055 9.24631 123.812 8.41582C119.422 7.55664 114.936 7.48453 110.479 8.20103C107.663 8.65388 104.908 9.41768 102.288 10.4723C99.7395 11.4982 97.2992 12.8071 95.0352 14.3626C89.2367 18.3468 84.6767 23.8532 81.848 30.2869C78.9422 36.8952 78.0211 44.1687 79.1839 51.3198C79.4912 53.2103 79.9435 55.0806 80.5261 56.8804C83.2667 65.3489 88.9887 72.6031 96.6387 77.3061C100.426 79.6348 104.548 81.2663 108.89 82.1557C113.385 83.0761 117.981 83.1707 122.551 82.4356C125.367 81.9828 128.122 81.219 130.742 80.1644C133.29 79.1385 135.731 77.8295 137.995 76.274C143.792 72.2914 148.352 66.785 151.181 60.3505C154.087 53.7415 155.008 46.4687 153.845 39.3176C153.465 36.9781 152.864 34.6743 152.06 32.4705C150.567 28.3716 148.381 24.5929 145.566 21.2407V21.2399ZM150.603 32.9947C151.367 35.0884 151.945 37.2829 152.315 39.5627C154.623 53.7516 148.264 67.3457 137.113 75.0062C132.815 77.9598 127.805 80.0302 122.303 80.915C104.377 83.7965 87.3977 73.0847 82.0009 56.4082C81.444 54.6906 81.012 52.9102 80.7133 51.0748C78.4064 36.8859 84.7648 23.2925 95.9149 15.632C100.214 12.6784 105.224 10.6072 110.726 9.7232C128.206 6.91303 144.785 17.0293 150.603 32.9955V32.9947Z" fill="#FFF596"/>
<path d="M110.727 9.72252C100.616 11.3478 92.1707 16.9883 86.7496 24.7357C92.1839 17.5141 100.487 12.642 110.148 11.0888C129.921 7.91033 147.771 21.1671 150.969 40.8267C152.531 50.4336 150.722 59.5154 145.542 66.9193C151.229 59.3627 153.951 49.6155 152.316 39.5628C149.119 19.9032 130.498 6.54324 110.727 9.72252Z" fill="#EFBA0F"/>
<path d="M111.992 62.8869C111.971 63.2591 111.919 63.6243 111.868 63.9888C111.84 64.2633 111.798 64.5409 111.754 64.8053C111.24 68.1963 110.309 72.0416 108.5 76.1817C107.12 79.3129 105.218 82.807 102.369 86.3282C101.476 87.4332 100.536 88.5204 99.5056 89.5827C95.6669 93.5491 90.8761 97.047 85.1719 99.5881L85.1556 99.5773C78.4547 102.523 69.8494 105.112 61.2472 104.147C60.897 104.107 60.9329 104.141 59.3154 103.896C51.9805 102.797 44.3399 99.8231 37.6703 94.4951L37.636 94.4726C32.3639 90.2418 27.5918 84.5207 24.4137 77.3084C23.0466 74.2508 21.7863 70.4776 21.0906 65.9359C20.5829 62.6294 20.2943 57.762 20.8122 53.1668C20.8613 52.7884 20.8208 52.8675 21.0672 51.2592C22.1099 44.6161 25.2778 37.648 29.9751 31.3244C30.351 30.8079 30.7433 30.3016 31.152 29.8069L31.1489 29.7929C38.2646 21.0142 49.1815 14.4765 61.6411 13.1273L61.6543 13.1242C64.4432 12.8435 67.6759 12.7116 71.58 13.1343C71.9302 13.1746 71.8943 13.1397 73.4985 13.3878C76.2905 13.8004 79.4452 14.52 83.092 15.8878L83.1083 15.8987C90.3231 18.6646 97.0614 23.4405 102.211 29.8061C104.627 32.7737 106.693 36.1111 108.321 39.7378L108.325 39.751C108.575 40.3365 108.842 40.932 109.066 41.5229C111.544 47.776 112.831 55.0689 111.992 62.8876L111.992 62.8869Z" fill="#EFBA0F"/>
<path d="M110.764 44.2006C110.919 44.6821 111.067 45.1691 111.208 45.6615C111.221 45.7057 111.233 45.7507 111.246 45.7956C112.703 50.9686 113.322 56.6913 112.674 62.7272C112.653 63.1002 112.601 63.4647 112.549 63.8291C112.522 64.1036 112.481 64.3812 112.435 64.6457C111.922 68.0366 110.991 71.8812 109.182 76.0213C107.801 79.1532 105.901 82.6466 103.051 86.1686C102.157 87.2736 101.217 88.36 100.187 89.4231C96.3486 93.3894 91.5569 96.8874 85.8536 99.4277L85.8372 99.4176C79.1364 102.363 71.0801 104.004 62.4779 103.04C62.1277 102.999 62.1628 103.034 60.5461 102.789C53.2112 101.69 45.5511 98.7043 38.8823 93.3755L38.8659 93.3654C33.5938 89.1346 28.8217 83.4135 25.6436 76.2012C25.1858 75.1768 24.7405 74.0718 24.3241 72.8862C24.2804 72.7637 24.2375 72.6388 24.1954 72.514C24.0675 72.141 23.9435 71.7603 23.8226 71.371C23.2096 69.3991 22.6871 67.2193 22.3205 64.8287C21.8128 61.5222 21.5703 57.5799 22.0889 52.9855C22.1372 52.607 22.0975 52.6861 22.3439 51.0779C23.3866 44.4348 25.9603 37.4892 30.6575 31.1648C31.0335 30.6475 31.425 30.142 31.8344 29.6465L31.8313 29.6325C38.947 20.8538 49.8639 14.3169 62.3235 12.9669L62.3375 12.9638C65.1264 12.6831 68.3583 12.5512 72.2632 12.9739C72.6134 13.015 72.5783 12.9793 74.1817 13.2282C76.9737 13.6407 80.1284 14.3596 83.7752 15.7282L83.7915 15.7391C91.0063 18.505 97.7446 23.2809 102.894 29.6465C105.31 32.6133 107.376 35.9515 109.005 39.5774L109.009 39.5914C109.26 40.1761 109.527 40.7724 109.75 41.3625C110.116 42.286 110.457 43.2321 110.766 44.2006H110.764Z" fill="#FFE61D"/>
<path d="M102.682 47.697C102.809 48.115 102.927 48.536 103.038 48.9602C103.088 49.1517 103.137 49.344 103.184 49.5387C103.258 49.8434 103.329 50.1513 103.395 50.4599C103.44 50.6677 103.483 50.8747 103.524 51.0841C103.835 52.6559 104.041 54.2587 104.137 55.8864C104.268 58.1103 104.192 60.3769 103.894 62.6668C101.32 82.4163 83.131 96.3508 63.2679 93.7919C50.3108 92.1216 39.8423 83.8454 34.8432 72.8102C34.7161 72.5295 34.5921 72.2465 34.472 71.9619C34.33 71.6269 34.1928 71.2873 34.061 70.9468C33.9947 70.7739 33.9292 70.601 33.866 70.4281C33.7545 70.1264 33.6476 69.8248 33.5447 69.5193C32.4014 66.1438 31.7509 62.5636 31.669 58.8749C31.6667 58.7842 31.6659 58.6911 31.6644 58.6004C31.6386 56.8859 31.7369 55.1482 31.9646 53.3972C34.5398 33.6477 52.7285 19.7124 72.5915 22.2721C83.0592 23.6213 91.9024 29.2812 97.5496 37.2256C99.8035 40.3948 101.548 43.9284 102.684 47.6962L102.682 47.697Z" fill="#F9D608"/>
<path d="M110.764 44.2006C110.919 44.6821 111.067 45.1691 111.208 45.6615C111.221 45.7057 111.233 45.7507 111.246 45.7956C110.663 46.2338 110.069 46.6711 109.461 47.1069C107.576 48.4608 105.596 49.7883 103.526 51.0849C103.485 50.8755 103.442 50.6685 103.396 50.4606C103.33 50.152 103.259 49.8442 103.185 49.5394C103.138 49.3448 103.09 49.1525 103.039 48.961C102.928 48.5368 102.81 48.1165 102.684 47.6978C101.549 43.9299 99.8035 40.3963 97.5496 37.2271C91.9024 29.2828 83.06 23.6229 72.5915 22.2736C52.7284 19.7139 34.5398 33.6485 31.9646 53.3988C31.7369 55.1497 31.6378 56.8874 31.6644 58.6019C31.6659 58.6926 31.6667 58.7857 31.669 58.8764C31.7509 62.5652 32.4014 66.1453 33.5447 69.5208C33.6476 69.8263 33.7545 70.128 33.866 70.4296C33.9299 70.6033 33.9955 70.7762 34.061 70.9484C34.1935 71.2888 34.33 71.6277 34.472 71.9634C34.5921 72.248 34.7161 72.531 34.8432 72.8117C32.8966 72.9219 30.95 72.9761 29.0104 72.9699C28.2991 72.9653 28.367 73.0095 25.0946 72.911C24.838 72.904 24.5798 72.8947 24.3225 72.8862C24.2788 72.7637 24.2359 72.6388 24.1938 72.514C24.0659 72.141 23.9419 71.7603 23.821 71.371C23.208 69.3991 22.6855 67.2193 22.3189 64.8287C21.8112 61.5222 21.5687 57.5799 22.0873 52.9855C22.1356 52.607 22.0959 52.6861 22.3423 51.0779C23.385 44.4348 25.9587 37.4892 30.656 31.1648C31.0319 30.6475 31.4234 30.142 31.8328 29.6465L31.8297 29.6325C38.9454 20.8538 49.8623 14.3169 62.3219 12.9669L62.3359 12.9638C65.1248 12.6831 68.3567 12.5512 72.2616 12.9739C72.6118 13.015 72.5767 12.9793 74.1801 13.2282C76.9721 13.6407 80.1268 14.3596 83.7736 15.7282L83.79 15.7391C91.0047 18.505 97.743 23.2809 102.893 29.6465C105.309 32.6133 107.375 35.9515 109.004 39.5774L109.007 39.5914C109.258 40.1761 109.526 40.7724 109.749 41.3625C110.114 42.286 110.455 43.2321 110.765 44.2006H110.764Z" fill="#FFE61D"/>
<path d="M102.681 43.1917C100.98 39.2641 98.636 35.6762 95.7145 32.5272C92.7704 29.3533 89.3366 26.7308 85.5081 24.7325C81.5462 22.6644 77.267 21.3229 72.7896 20.746C69.9617 20.3816 67.1011 20.3327 64.288 20.601C61.5506 20.8616 58.8366 21.4245 56.22 22.2728C49.52 24.4472 43.5702 28.4321 39.0133 33.7966C34.3324 39.3068 31.3634 46.0166 30.4267 53.2002C30.1795 55.0993 30.0757 57.0208 30.1186 58.9105C30.3167 67.804 33.7202 76.3795 39.7035 83.0568C42.6655 86.3624 46.1485 89.0951 50.055 91.1786C54.0995 93.3359 58.4778 94.7294 63.0683 95.321C65.8969 95.6855 68.7568 95.7343 71.5699 95.466C74.3073 95.2055 77.0213 94.6425 79.6378 93.7934C86.3371 91.6199 92.2869 87.6349 96.8438 82.2697C101.525 76.7595 104.493 70.0496 105.43 62.8652C105.736 60.5149 105.821 58.1367 105.683 55.7964C105.427 51.4439 104.417 47.203 102.679 43.1917H102.681ZM104.137 55.8871C104.268 58.1103 104.193 60.3777 103.895 62.6675C102.037 76.9215 92.0436 88.1483 79.159 92.3286C74.1911 93.94 68.7958 94.5053 63.2687 93.7926C45.2602 91.4718 32.0582 76.3904 31.6691 58.8756C31.6285 57.072 31.7244 55.242 31.9646 53.398C33.8231 39.144 43.8166 27.9188 56.7012 23.7376C61.6684 22.1255 67.0644 21.561 72.5915 22.2736C90.1516 24.5363 103.141 38.9338 104.137 55.8871Z" fill="#FFF596"/>
<path d="M72.5907 22.2736C62.4342 20.9646 52.7207 23.9764 45.3039 29.8651C52.5842 24.4843 61.939 22.1689 71.6447 23.4197C91.5078 25.9794 104.815 43.7484 102.241 63.4972C100.983 73.1482 96.6434 81.3399 89.5541 86.9672C97.1721 81.3368 102.578 72.7667 103.893 62.6675C106.468 42.9179 92.4522 24.8333 72.59 22.2736H72.5907Z" fill="#EFBA0F"/>
<path d="M56.7449 32.1348L49.1308 64.3533L49.775 65.3412L70.8141 69.2943L83.9046 52.6969L83.8376 51.3624L56.7449 32.1348Z" fill="#EFBA0F"/>
<path d="M55.6531 29.251L49.2517 63.7012L49.1308 64.3533L70.0553 68.2708L70.4554 68.3452L83.8376 51.3625L55.6531 29.251Z" fill="#FFF596"/>
<path d="M56.1093 30.4575L49.9099 63.8221L70.1793 67.6163L63.9324 51.1182L56.1093 30.4575Z" fill="#FFF596"/>
<path d="M56.1093 30.4575L82.8993 51.4741L70.1793 67.6163L56.1093 30.4575Z" fill="#FFE61D"/>
<path d="M63.9324 51.1182L49.9099 63.8221L70.1793 67.6163L63.9324 51.1182Z" fill="#F9D816"/>
<path d="M63.9293 51.1096L82.8993 51.4741L70.1793 67.6163L63.9293 51.1096Z" fill="#F4CB1E"/>
<path d="M72.7943 74.524L51.7232 68.6097L52.3097 70.1877L77.5485 87.2837L84.7383 58.3236L84.7118 56.2617L72.7943 74.524Z" fill="#EFBA0F"/>
<path d="M51.7232 68.6096L71.9918 72.4046L77.0143 85.6684L51.7232 68.6096Z" fill="#FFF596"/>
<path d="M72.3958 72.466L83.9366 57.8196L76.9519 84.5007L72.3958 72.466Z" fill="#FFE61D"/>
<path d="M76.8903 83.3329L72.799 72.528L83.1614 59.3774L76.8903 83.3329ZM84.7118 56.2617L71.9918 72.4047L77.0143 85.6685L84.7118 56.2617Z" fill="#FFF596"/>
<path d="M173.927 83.5632C173.66 83.8245 173.375 84.0602 173.09 84.2952C172.883 84.4797 172.665 84.6581 172.454 84.824C169.782 86.9914 166.493 89.2161 162.355 91.0732C159.216 92.4698 155.446 93.7865 150.956 94.489C149.547 94.7108 148.117 94.8868 146.636 94.9853C141.113 95.3567 135.2 94.7457 129.259 92.8156L129.255 92.797C122.302 90.5002 114.18 86.6665 108.462 80.204C108.23 79.9396 108.233 79.99 107.201 78.7276C102.513 73.0118 98.8645 65.7042 97.5277 57.3016L97.5176 57.262C96.4733 50.6065 96.8071 43.1809 99.3293 35.7166C100.384 32.5389 102.001 28.9028 104.556 25.0745C106.415 22.2868 109.492 18.4903 112.981 15.4336C113.273 15.1862 113.19 15.218 114.459 14.1921C119.721 9.96986 126.778 6.92783 134.53 5.38317C135.158 5.25134 135.791 5.13891 136.428 5.04585L136.435 5.03422C147.638 3.28872 160.141 5.74374 170.279 13.07L170.291 13.077C172.545 14.7326 175.029 16.7952 177.633 19.7178C177.865 19.9823 177.863 19.9319 178.882 21.1873C180.67 23.3585 182.52 25.9996 184.296 29.4488L184.301 29.4674C187.773 36.3369 189.535 44.3766 189.045 52.5311C188.828 56.3431 188.102 60.1947 186.856 63.9687L186.849 63.9804C186.64 64.5813 186.435 65.2009 186.201 65.7879C183.809 72.0743 179.831 78.3336 173.925 83.5624L173.927 83.5632Z" fill="#EFBA0F"/>
<path d="M185.649 68.906C185.439 69.3666 185.219 69.8257 184.99 70.284C184.97 70.3258 184.948 70.3669 184.928 70.4088C182.51 75.2126 179.1 79.8644 174.54 83.9006C174.273 84.1627 173.988 84.3976 173.703 84.6326C173.497 84.8179 173.279 84.9955 173.066 85.1614C170.395 87.3295 167.106 89.5535 162.968 91.4106C159.829 92.8072 156.059 94.1239 151.569 94.8272C150.16 95.0482 148.73 95.2242 147.248 95.3235C141.725 95.6949 135.813 95.0831 129.872 93.153L129.867 93.1344C122.914 90.8376 115.84 86.6689 110.121 80.2064C109.889 79.9427 109.892 79.9916 108.86 78.73C104.172 73.0143 100.519 65.6849 99.1819 57.2823L99.1764 57.2636C98.1329 50.6073 98.466 43.1825 100.988 35.7182C101.342 34.6536 101.759 33.5377 102.252 32.3815C102.303 32.2613 102.355 32.1404 102.408 32.0202C102.566 31.6588 102.731 31.2936 102.905 30.9253C103.784 29.0557 104.87 27.0923 106.215 25.0769C108.074 22.2893 110.559 19.2085 114.048 16.1525C114.34 15.9051 114.256 15.9361 115.526 14.9102C120.789 10.688 127.389 7.26446 135.143 5.72057C135.77 5.58875 136.402 5.47631 137.04 5.38326L137.047 5.37162C148.25 3.62612 160.753 6.08114 170.891 13.4074L170.903 13.4144C173.158 15.07 175.64 17.1326 178.246 20.0545C178.477 20.3189 178.475 20.2693 179.494 21.5247C181.283 23.6959 183.132 26.3363 184.908 29.7869L184.913 29.8063C188.385 36.6759 190.147 44.7148 189.657 52.8693C189.44 56.6805 188.714 60.5336 187.469 64.3069L187.462 64.3185C187.253 64.9195 187.047 65.5391 186.814 66.1253C186.46 67.0535 186.073 67.9817 185.648 68.906H185.649Z" fill="#FFE61D"/>
<path d="M177.301 66.0943C177.113 66.4882 176.916 66.879 176.711 67.2675C176.619 67.4428 176.524 67.6188 176.428 67.7933C176.276 68.0686 176.121 68.3438 175.961 68.6168C175.855 68.8006 175.746 68.9828 175.635 69.165C174.802 70.536 173.872 71.8612 172.843 73.1298C171.436 74.8645 169.849 76.4921 168.08 77.9887C152.824 90.8919 129.936 89.0557 116.959 73.8874C108.493 63.9921 106.336 50.8679 110.093 39.3566C110.189 39.0635 110.288 38.7711 110.392 38.4803C110.514 38.1376 110.642 37.7941 110.773 37.4537C110.841 37.2815 110.91 37.1101 110.979 36.9388C111.1 36.641 111.226 36.3456 111.356 36.0509C112.792 32.7871 114.73 29.7017 117.162 26.9155C117.222 26.8465 117.284 26.7775 117.344 26.7093C118.483 25.422 119.731 24.2015 121.084 23.0577C136.341 10.1545 159.228 11.9908 172.205 27.1598C179.044 35.1537 181.767 45.2545 180.578 54.9102C180.105 58.7634 179.008 62.5459 177.302 66.0943H177.301Z" fill="#F9D608"/>
<path d="M185.649 68.906C185.439 69.3666 185.219 69.8256 184.99 70.2839C184.97 70.3258 184.948 70.3669 184.928 70.4088C184.2 70.3436 183.465 70.27 182.72 70.187C180.409 69.9295 178.046 69.5907 175.636 69.1657C175.747 68.9835 175.855 68.8013 175.962 68.6175C176.122 68.3446 176.277 68.0693 176.429 67.794C176.525 67.6187 176.62 67.4435 176.712 67.2682C176.916 66.8805 177.113 66.4897 177.302 66.095C179.008 62.5466 180.104 58.7641 180.578 54.9109C181.767 45.2545 179.045 35.1544 172.205 27.1605C159.228 11.9915 136.341 10.1552 121.084 23.0584C119.731 24.2022 118.483 25.4235 117.344 26.71C117.284 26.7782 117.222 26.848 117.162 26.9162C114.73 29.7024 112.792 32.7878 111.356 36.0516C111.226 36.3463 111.101 36.6417 110.979 36.9395C110.909 37.1109 110.84 37.2822 110.773 37.4544C110.642 37.7948 110.514 38.1375 110.392 38.481C110.289 38.7718 110.189 39.0642 110.093 39.3573C108.577 38.1375 107.099 36.8774 105.667 35.577C105.144 35.0986 105.164 35.1761 102.808 32.9165C102.622 32.7397 102.438 32.5606 102.253 32.3823C102.304 32.2621 102.356 32.1411 102.409 32.0209C102.567 31.6596 102.732 31.2943 102.906 30.926C103.785 29.0564 104.871 27.093 106.216 25.0777C108.075 22.29 110.56 19.2092 114.049 16.1532C114.341 15.9058 114.257 15.9369 115.527 14.911C120.79 10.6887 127.39 7.26519 135.143 5.7213C135.771 5.58948 136.403 5.47704 137.041 5.38399L137.048 5.37236C148.251 3.62686 160.754 6.08188 170.892 13.4082L170.904 13.4152C173.158 15.0707 175.641 17.1334 178.247 20.0552C178.478 20.3196 178.476 20.27 179.495 21.5254C181.283 23.6966 183.133 26.337 184.909 29.7877L184.914 29.807C188.386 36.6766 190.148 44.7155 189.658 52.87C189.441 56.6813 188.715 60.5344 187.469 64.3076L187.462 64.3193C187.253 64.9202 187.048 65.5398 186.814 66.126C186.461 67.0542 186.073 67.9824 185.648 68.9067L185.649 68.906Z" fill="#FFE61D"/>
<path d="M180.345 62.7568C181.74 58.7121 182.431 54.4891 182.396 50.2048C182.362 45.8872 181.591 41.6503 180.108 37.6126C178.572 33.433 176.311 29.5806 173.385 26.1617C171.538 24.0022 169.452 22.0543 167.188 20.3731C164.985 18.737 162.595 17.3396 160.084 16.2199C153.653 13.3524 146.554 12.3265 139.554 13.2539C132.363 14.2061 125.63 17.1908 120.08 21.8837C118.613 23.1244 117.238 24.4783 115.992 25.9059C110.126 32.6234 106.851 41.2486 106.767 50.1909C106.726 54.6178 107.458 58.9688 108.942 63.122C110.479 67.4218 112.779 71.3796 115.778 74.8853C117.626 77.0449 119.711 78.9928 121.975 80.674C124.178 82.3101 126.569 83.7075 129.08 84.8272C135.51 87.6947 142.609 88.7199 149.61 87.7924C156.8 86.8402 163.535 83.8556 169.084 79.1619C170.899 77.6257 172.57 75.9221 174.049 74.0967C176.801 70.7034 178.92 66.8875 180.345 62.756V62.7568ZM172.843 73.1305C171.437 74.8644 169.849 76.4928 168.08 77.9886C157.069 87.3016 142.081 88.9362 129.714 83.4221C124.946 81.2959 120.57 78.1088 116.958 73.8874C105.192 60.1343 105.611 40.1451 117.162 26.9155C118.35 25.5523 119.659 24.2619 121.083 23.0569C132.094 13.744 147.082 12.1101 159.449 17.6242C164.216 19.7505 168.594 22.9383 172.205 27.159C183.678 40.5693 183.564 59.9102 172.843 73.1298V73.1305Z" fill="#FFF596"/>
<path d="M172.205 27.1606C165.569 19.4039 156.341 15.1429 146.868 14.5474C155.896 15.4283 164.389 19.9645 170.73 27.3769C183.707 42.5459 181.551 64.5962 166.295 77.4994C158.84 83.8052 150.089 86.9705 141.036 86.4006C150.483 87.3226 160.279 84.5876 168.08 77.9902C183.336 65.087 185.183 42.3296 172.205 27.1613L172.205 27.1606Z" fill="#EFBA0F"/>
<path d="M158.139 64.5876C158.916 62.3226 157.714 59.7644 156.776 57.5925C155.784 55.2987 153.984 53.4617 151.379 52.0814L151.421 51.9752C153.835 52.2016 157.232 52.038 159.231 51.0253C161.232 50.0126 162.628 48.4757 163.422 46.413C164.518 43.568 164.213 40.9237 162.509 38.4803C161.118 36.4867 157.675 34.5318 154.559 33.0763L153.227 25.4096L151.259 26.3215L149.444 31.0346L149.114 30.909L146.986 30.0964L148.8 25.3856L145.621 22.5142L143.654 23.4261L141.841 28.1322L141.512 28.0066L135.887 24.1953L133.919 25.1072L131.48 31.4386L135.891 33.1182L128.518 52.2598L126.027 58.7285L123.585 56.1377L121.617 57.0497L119.179 63.3803L126.777 66.2696L127.106 66.3952L125.297 71.0943L130.443 73.0538L132.411 72.1419L132.253 68.3531L134.383 69.1627L134.712 69.2883L132.901 73.9898L138.048 75.9493L140.015 75.0374L139.875 71.2036C143.622 72.3885 148.079 72.8383 151.005 71.8721C154.318 70.7779 156.648 68.4803 157.997 64.9769C158.047 64.8474 158.094 64.7179 158.139 64.5884L158.139 64.5876ZM144.542 36.451L147.787 37.6871C149.462 38.3245 150.72 39.0573 151.559 39.8846C152.836 41.1416 153.147 42.6173 152.494 44.3116C151.913 45.8229 150.94 46.8139 149.58 47.2846C149.271 47.3916 148.951 47.4684 148.62 47.5157C147.494 47.6778 146.24 47.4948 144.858 46.969L141.049 45.519L144.541 36.451H144.542ZM147.67 61.3688C147.04 62.7933 146.029 63.7354 144.637 64.1945C143.86 64.4512 143.013 64.5372 142.097 64.4527C141.255 64.3759 140.355 64.155 139.395 63.7897L134.701 62.0023L136.757 56.6643L138.584 51.9209L143.332 53.7285C144.272 54.0859 145.076 54.5024 145.747 54.9777C146.506 55.5158 147.094 56.1292 147.509 56.8178C148.291 58.1151 148.388 59.5279 147.8 61.0563C147.758 61.1633 147.715 61.268 147.67 61.3696V61.3688Z" fill="#EFBA0F"/>
<path d="M135.328 72.8724L137.139 68.171L136.478 67.919L134.016 66.983L132.206 71.6837L127.724 69.977L129.533 65.2778L128.872 65.0258L121.606 62.2629L123.79 56.593L128.2 58.2726L138.318 32.0016L133.907 30.3221L136.091 24.6521L144.013 27.6778L145.826 22.9709L150.308 24.6777L148.494 29.3884L150.954 30.3275L151.616 30.5803L153.431 25.8664L157.913 27.5731L156.075 32.3452L156.374 32.4847C159.418 33.9061 161.645 35.6074 162.993 37.5398C163.808 38.7076 164.294 39.9374 164.439 41.1944C164.584 42.4529 164.392 43.782 163.867 45.1445C163.109 47.1125 161.756 48.6014 159.846 49.5675C158.27 50.3655 156.535 50.7702 154.69 50.7702C154.276 50.7702 153.848 50.7501 153.421 50.7098L153.152 50.6842L152.902 51.3332L153.179 51.4805C155.7 52.8151 157.462 54.6117 158.416 56.8186C159.315 58.8976 159.393 61.0517 158.65 63.2191C158.607 63.3439 158.561 63.4703 158.513 63.5951C157.859 65.291 156.959 66.7132 155.835 67.8213C154.714 68.9263 153.337 69.7536 151.74 70.2809C150.468 70.7012 149.096 70.9137 147.661 70.9137C145.891 70.9137 143.969 70.5896 141.95 69.9514L141.63 69.8506L139.81 74.5776L135.327 72.8709L135.328 72.8724ZM136.21 61.2944L141.236 63.2082C142.222 63.5835 143.163 63.8138 144.033 63.8937C144.269 63.9154 144.505 63.9263 144.734 63.9263C145.433 63.9263 146.099 63.8223 146.718 63.6184C148.203 63.1283 149.295 62.1133 149.964 60.5996C150.01 60.4965 150.056 60.3856 150.1 60.2701C150.727 58.6424 150.62 57.1125 149.783 55.7229C149.344 54.9956 148.718 54.3411 147.921 53.7766C147.229 53.2865 146.39 52.8523 145.427 52.4855L140.347 50.5516L136.21 61.2944ZM142.558 44.811L146.699 46.3875C147.792 46.8039 148.827 47.0148 149.773 47.0148C150.068 47.0148 150.359 46.9947 150.639 46.9543C150.992 46.9039 151.337 46.821 151.665 46.707C153.124 46.2022 154.177 45.1321 154.795 43.5261C155.5 41.6969 155.158 40.0801 153.778 38.7216C152.909 37.8639 151.598 37.0978 149.883 36.4449L146.304 35.0824L142.558 44.811Z" fill="#FFE61D"/>
<path d="M149.849 24.8816L148.035 29.5915L151.821 31.0377L153.636 26.3239L157.454 27.7778L155.861 31.9124L155.625 32.5266L156.223 32.8057C159.209 34.1999 161.388 35.8609 162.701 37.7421C163.482 38.8611 163.947 40.0366 164.085 41.2355C164.223 42.4374 164.038 43.7099 163.535 45.0188C163.171 45.9633 162.663 46.7969 162.028 47.4971C161.391 48.1981 160.603 48.789 159.685 49.2534C158.16 50.0258 156.479 50.4181 154.69 50.4181C154.287 50.4181 153.871 50.398 153.455 50.3592L152.916 50.3088L152.457 51.5007L153.012 51.7945C154.243 52.4467 155.296 53.2144 156.14 54.0766C156.974 54.9288 157.63 55.8989 158.089 56.9605C158.521 57.9608 158.76 58.9828 158.797 59.9994C158.834 61.0168 158.671 62.0628 158.313 63.1073C158.272 63.2283 158.227 63.3501 158.181 63.471C157.546 65.1196 156.672 66.4999 155.584 67.5723C154.503 68.6385 153.172 69.4372 151.629 69.9474C150.393 70.3553 149.058 70.5624 147.661 70.5624C145.929 70.5624 144.043 70.2444 142.058 69.6171L141.418 69.4147L141.177 70.0382L139.604 74.1232L135.787 72.6692L137.343 68.6284L137.597 67.9678L136.933 67.715L136.603 67.5893L134.474 66.7798L133.809 66.527L133.555 67.1877L131.999 71.2277L128.181 69.7737L129.736 65.7361L129.991 65.0754L129.326 64.8226L128.997 64.697L122.065 62.0605L123.994 57.0512L127.74 58.4772L128.404 58.73L128.659 58.0693L138.522 32.4591L138.776 31.7984L138.112 31.5456L134.366 30.1196L136.295 25.1103L143.223 27.7561L143.552 27.8817L144.217 28.1361L144.472 27.4746L146.031 23.4292L149.848 24.8831L149.849 24.8816ZM150.69 47.304C151.065 47.2505 151.433 47.1613 151.782 47.0404C153.344 46.4999 154.469 45.36 155.127 43.6517C155.876 41.7069 155.496 39.9149 154.029 38.4695C153.123 37.577 151.771 36.7845 150.01 36.1137L146.765 34.8777L146.1 34.6249L145.846 35.2856L142.354 44.3535L142.099 45.0141L142.764 45.2669L146.573 46.717C147.707 47.1489 148.784 47.3676 149.774 47.3676L150.691 47.3032L150.69 47.304ZM146.829 63.9541C148.451 63.5633 149.578 62.3505 150.29 60.7423C150.338 60.6337 150.386 60.5166 150.432 60.3964C151.1 58.6626 150.985 57.0287 150.088 55.5407C149.624 54.7714 148.965 54.0813 148.128 53.4881C147.411 52.981 146.545 52.532 145.555 52.1543L140.807 50.3468L140.143 50.094L139.888 50.7547L138.061 55.498L136.005 60.8361L135.751 61.4968L136.415 61.7496L141.11 63.5369C142.126 63.9239 143.099 64.1619 144 64.2441C144.248 64.2674 144.495 64.2938 144.735 64.2782C145.263 64.2449 146.315 64.0766 146.83 63.9526L146.829 63.9541ZM145.621 22.5142L143.809 27.2203L143.48 27.0946L135.887 24.1953L133.448 30.5267L137.858 32.2063L127.995 57.8166L123.585 56.137L121.147 62.4676L128.744 65.3569L129.074 65.4825L127.264 70.1816L132.411 72.1411L134.221 67.4405L136.351 68.25L136.68 68.3756L134.869 73.0771L140.015 75.0366L141.843 70.291C143.907 70.9439 145.847 71.2696 147.661 71.2696C149.142 71.2696 150.538 71.0524 151.853 70.619C155.166 69.5248 157.497 67.2272 158.846 63.7238C158.896 63.5943 158.943 63.4648 158.987 63.3353C159.764 61.0703 159.681 58.8518 158.743 56.6805C157.751 54.3868 155.951 52.5498 153.346 51.1695L153.387 51.0633C153.828 51.1044 154.262 51.1253 154.69 51.1253C156.601 51.1253 158.373 50.7113 160.008 49.8839C162.008 48.8712 163.405 47.3342 164.199 45.2716C165.295 42.4265 164.99 39.7823 163.286 37.3389C161.894 35.3453 159.641 33.6199 156.526 32.1652L158.373 27.3699L153.226 25.4104L151.41 30.1235L151.081 29.9979L148.953 29.1852L150.767 24.4745L145.62 22.5149L145.621 22.5142ZM149.773 46.6604C148.866 46.6604 147.884 46.4588 146.827 46.0563L143.018 44.6063L146.51 35.5383L149.755 36.7744C151.431 37.4118 152.689 38.1446 153.528 38.972C154.804 40.2289 155.116 41.7046 154.463 43.3989C153.881 44.9102 152.909 45.9012 151.548 46.3719C151.24 46.4789 150.658 46.6426 149.773 46.6604H149.773ZM144.734 63.5718C144.515 63.5718 144.292 63.561 144.065 63.54C143.224 63.4633 142.323 63.2423 141.364 62.877L136.67 61.0897L138.725 55.7516L140.553 51.0082L145.301 52.8158C146.241 53.1733 147.045 53.5897 147.715 54.065C148.475 54.6032 149.062 55.2165 149.478 55.9051C150.259 57.2024 150.357 58.6152 149.768 60.1436C149.727 60.2506 149.684 60.3553 149.638 60.4569C149.008 61.8814 147.998 62.8235 146.605 63.2826C146.021 63.4757 145.397 63.5726 144.734 63.5726V63.5718Z" fill="#FFF596"/>
<path d="M209.123 85.2069V208.3C209.123 210.449 208.775 212.52 208.132 214.454C207.846 215.354 207.474 216.225 207.063 217.065C206.041 219.105 204.661 220.946 203.036 222.508C202.958 222.578 202.881 222.655 202.804 222.716C201.387 224.034 199.775 225.134 198.017 225.989C195.391 227.283 192.433 227.999 189.311 227.999H11.4316C5.11141 228 0 222.917 0 216.641V76.8664C0 75.2876 0.325215 73.7863 0.905454 72.4231C1.25485 71.6221 1.68768 70.8599 2.20709 70.1674C4.10457 67.5868 7.07127 65.8312 10.4638 65.5536C10.7812 65.5233 11.1064 65.5078 11.4316 65.5078H189.311C200.255 65.5078 209.123 74.3253 209.123 85.2069Z" fill="#1564C0"/>
<path d="M22.8407 125.453H0V91.1902C1.4077 94.271 3.04859 97.517 4.96089 100.886C5.36799 101.602 5.78601 102.324 6.21729 103.05C6.80845 104.046 7.42378 105.052 8.0633 106.065C8.51485 106.783 8.97967 107.505 9.45774 108.23C10.1253 109.245 10.8179 110.268 11.5369 111.298C12.0392 112.018 12.5547 112.743 13.0835 113.469C15.9418 117.399 19.1775 121.412 22.8399 125.453H22.8407Z" fill="#0E47A1"/>
<path d="M29.281 132.136H0V127.542H24.7709C26.2106 129.072 27.7134 130.604 29.281 132.136Z" fill="#0E47A1"/>
<path d="M36.5543 138.819H0V134.224H31.4593C33.09 135.76 34.7878 137.292 36.5543 138.819Z" fill="#0E47A1"/>
<path d="M44.7845 145.502H0V140.907H39.0164C40.8663 142.447 42.788 143.979 44.7845 145.502Z" fill="#0E47A1"/>
<path d="M28.6945 152.184H0V147.59H47.5788C54.555 152.701 62.3968 157.684 71.2134 162.418H30.6942L22.5022 154.273H28.6945C28.6189 153.937 28.5791 153.587 28.5791 153.229C28.5791 152.871 28.6189 152.52 28.6945 152.184Z" fill="#0E47A1"/>
<path d="M209.124 198.173V208.3C209.124 210.449 208.775 212.521 208.132 214.454C207.847 215.354 207.475 216.225 207.064 217.065C206.042 219.105 204.662 220.945 203.037 222.508C202.959 222.578 202.881 222.655 202.804 222.716C201.387 224.034 199.775 225.135 198.017 225.989C195.392 227.283 192.433 227.999 189.311 227.999H11.4324C5.11219 227.999 0 222.916 0 216.641V154.272H19.5324L29.8238 164.506H75.1979C106.606 180.571 149.782 193.46 209.124 198.173Z" fill="#0E47A1"/>
<path d="M98.0222 219.913H103.447C104.089 219.913 104.609 219.396 104.609 218.758C104.609 218.12 104.089 217.602 103.447 217.602H98.0222C97.3804 217.602 96.8602 218.12 96.8602 218.758C96.8602 219.396 97.3804 219.913 98.0222 219.913Z" fill="#F9D608"/>
<path d="M90.1235 72.0525H84.6993C84.0576 72.0525 83.5373 72.5696 83.5373 73.2075C83.5373 73.8454 84.0576 74.3625 84.6993 74.3625H90.1235C90.7652 74.3625 91.2855 73.8454 91.2855 73.2075C91.2855 72.5696 90.7652 72.0525 90.1235 72.0525Z" fill="#F9D608"/>
<path d="M82.525 219.913H87.9499C88.5918 219.913 89.1119 219.396 89.1119 218.758C89.1119 218.12 88.5918 217.602 87.9499 217.602H82.525C81.8831 217.602 81.3629 218.12 81.3629 218.758C81.3629 219.396 81.8831 219.913 82.525 219.913Z" fill="#F9D608"/>
<path d="M129.017 219.913H134.442C135.083 219.913 135.604 219.396 135.604 218.758C135.604 218.12 135.083 217.602 134.442 217.602H129.017C128.375 217.602 127.855 218.12 127.855 218.758C127.855 219.396 128.375 219.913 129.017 219.913Z" fill="#F9D608"/>
<path d="M105.621 72.0525H100.197C99.5547 72.0525 99.0345 72.5696 99.0345 73.2075C99.0345 73.8454 99.5547 74.3625 100.197 74.3625H105.621C106.262 74.3625 106.783 73.8454 106.783 73.2075C106.783 72.5696 106.262 72.0525 105.621 72.0525Z" fill="#F9D608"/>
<path d="M74.627 72.0525H69.2021C68.5603 72.0525 68.0401 72.5696 68.0401 73.2075C68.0401 73.8454 68.5603 74.3625 69.2021 74.3625H74.627C75.2688 74.3625 75.7891 73.8454 75.7891 73.2075C75.7891 72.5696 75.2688 72.0525 74.627 72.0525Z" fill="#F9D608"/>
<path d="M121.118 72.0525H115.693C115.051 72.0525 114.531 72.5696 114.531 73.2075C114.531 73.8454 115.051 74.3625 115.693 74.3625H121.118C121.76 74.3625 122.28 73.8454 122.28 73.2075C122.28 72.5696 121.76 72.0525 121.118 72.0525Z" fill="#F9D608"/>
<path d="M136.614 72.0525H131.19C130.548 72.0525 130.028 72.5696 130.028 73.2075C130.028 73.8454 130.548 74.3625 131.19 74.3625H136.614C137.256 74.3625 137.776 73.8454 137.776 73.2075C137.776 72.5696 137.256 72.0525 136.614 72.0525Z" fill="#F9D608"/>
<path d="M67.0278 219.913H72.4527C73.0945 219.913 73.6147 219.396 73.6147 218.758C73.6147 218.12 73.0945 217.602 72.4527 217.602H67.0278C66.3859 217.602 65.8657 218.12 65.8657 218.758C65.8657 219.396 66.3859 219.913 67.0278 219.913Z" fill="#F9D608"/>
<path d="M36.0341 219.913H41.459C42.1009 219.913 42.6211 219.396 42.6211 218.758C42.6211 218.12 42.1009 217.602 41.459 217.602H36.0341C35.3923 217.602 34.8721 218.12 34.8721 218.758C34.8721 219.396 35.3923 219.913 36.0341 219.913Z" fill="#F9D608"/>
<path d="M20.1844 218.736C20.1758 219.379 20.6936 219.904 21.3402 219.906C22.8017 219.909 25.2817 219.911 26.7378 219.912C27.3796 219.912 27.8991 219.396 27.8991 218.758C27.8991 218.119 27.3804 217.602 26.7394 217.602C25.2817 217.601 22.7962 217.599 21.3448 217.597C20.7085 217.596 20.1937 218.104 20.1852 218.736H20.1844Z" fill="#F9D608"/>
<path d="M28.1361 72.0525H22.7112C22.0694 72.0525 21.5492 72.5696 21.5492 73.2075C21.5492 73.8454 22.0694 74.3625 22.7112 74.3625H28.1361C28.7779 74.3625 29.2982 73.8454 29.2982 73.2075C29.2982 72.5696 28.7779 72.0525 28.1361 72.0525Z" fill="#F9D608"/>
<path d="M59.1298 72.0525H53.7056C53.0639 72.0525 52.5436 72.5696 52.5436 73.2075C52.5436 73.8454 53.0639 74.3625 53.7056 74.3625H59.1298C59.7716 74.3625 60.2918 73.8454 60.2918 73.2075C60.2918 72.5696 59.7716 72.0525 59.1298 72.0525Z" fill="#F9D608"/>
<path d="M51.5313 219.913H56.9562C57.5981 219.913 58.1183 219.396 58.1183 218.758C58.1183 218.12 57.5981 217.602 56.9562 217.602H51.5313C50.8895 217.602 50.3693 218.12 50.3693 218.758C50.3693 219.396 50.8895 219.913 51.5313 219.913Z" fill="#F9D608"/>
<path d="M43.6326 72.0525H38.2084C37.5667 72.0525 37.0464 72.5696 37.0464 73.2075C37.0464 73.8454 37.5667 74.3625 38.2084 74.3625H43.6326C44.2743 74.3625 44.7946 73.8454 44.7946 73.2075C44.7946 72.5696 44.2743 72.0525 43.6326 72.0525Z" fill="#F9D608"/>
<path d="M113.519 219.913H118.944C119.586 219.913 120.106 219.396 120.106 218.758C120.106 218.12 119.586 217.602 118.944 217.602H113.519C112.877 217.602 112.357 218.12 112.357 218.758C112.357 219.396 112.877 219.913 113.519 219.913Z" fill="#F9D608"/>
<path d="M201.769 152.488H199.445V160.191H201.769V152.488Z" fill="#F9D608"/>
<path d="M200.608 167.892C199.966 167.892 199.445 168.41 199.445 169.048V174.446C199.445 175.084 199.966 175.602 200.608 175.602C201.249 175.602 201.77 175.084 201.77 174.446V169.048C201.77 168.41 201.249 167.892 200.608 167.892Z" fill="#F9D608"/>
<path d="M201.769 137.079H199.445V144.783H201.769V137.079Z" fill="#F9D608"/>
<path d="M199.445 201.113C199.445 202.415 199.29 203.704 198.982 204.958C198.839 205.544 199.181 206.139 199.76 206.32C200.405 206.523 201.086 206.136 201.245 205.482C201.593 204.057 201.769 202.592 201.769 201.113V199.867C201.769 199.229 201.249 198.713 200.608 198.713C199.966 198.713 199.446 199.23 199.446 199.867V201.113H199.445Z" fill="#F9D608"/>
<path d="M201.769 184.459C201.769 183.821 201.249 183.303 200.607 183.303C199.966 183.303 199.445 183.821 199.445 184.459V189.853C199.445 190.491 199.966 191.008 200.607 191.008C201.249 191.008 201.769 190.491 201.769 189.853V184.459Z" fill="#F9D608"/>
<path d="M201.769 121.67H199.445V129.374H201.769V121.67Z" fill="#F9D608"/>
<path d="M199.445 91.9788V97.4021C199.445 98.0403 199.966 98.5575 200.608 98.5575C201.249 98.5575 201.77 98.0403 201.77 97.4021V91.9788C201.77 91.3289 201.231 90.8071 200.578 90.8241C199.949 90.8404 199.446 91.353 199.446 91.9788H199.445Z" fill="#F9D608"/>
<path d="M201.769 107.417C201.769 106.779 201.249 106.261 200.607 106.261C199.966 106.261 199.445 106.779 199.445 107.417V112.81C199.445 113.448 199.966 113.965 200.607 113.965C201.249 113.965 201.769 113.448 201.769 112.81V107.417Z" fill="#F9D608"/>
<path d="M189.633 217.291C189.894 217.909 190.629 218.176 191.232 217.876C192.944 217.023 194.535 215.913 195.92 214.604C196.409 214.142 196.404 213.365 195.909 212.911C195.464 212.503 194.776 212.498 194.338 212.913C193.108 214.079 191.693 215.067 190.169 215.823C189.627 216.091 189.398 216.738 189.633 217.291V217.291Z" fill="#F9D608"/>
<path d="M194.117 77.372C193.732 77.8357 193.766 78.5204 194.207 78.9314C195.453 80.093 196.522 81.443 197.353 82.9086C197.649 83.4312 198.309 83.6259 198.854 83.3661C199.462 83.0753 199.695 82.3317 199.362 81.7478C198.422 80.0969 197.218 78.5762 195.817 77.2665C195.325 76.8075 194.545 76.8548 194.116 77.372H194.117Z" fill="#F9D608"/>
<path d="M152.112 72.0525H146.687C146.046 72.0525 145.525 72.5696 145.525 73.2075C145.525 73.8454 146.046 74.3625 146.687 74.3625H152.112C152.753 74.3625 153.274 73.8454 153.274 73.2075C153.274 72.5696 152.753 72.0525 152.112 72.0525Z" fill="#F9D608"/>
<path d="M168.464 72.0525H162.185C161.543 72.0525 161.023 72.5696 161.023 73.2075C161.023 73.8454 161.543 74.3625 162.185 74.3625H168.464C169.106 74.3625 169.626 73.8454 169.626 73.2075C169.626 72.5696 169.106 72.0525 168.464 72.0525Z" fill="#F9D608"/>
<path d="M160.01 219.913H165.435C166.077 219.913 166.597 219.396 166.597 218.758C166.597 218.12 166.077 217.602 165.435 217.602H160.01C159.368 217.602 158.848 218.12 158.848 218.758C158.848 219.396 159.368 219.913 160.01 219.913Z" fill="#F9D608"/>
<path d="M144.513 219.913H149.938C150.58 219.913 151.1 219.396 151.1 218.758C151.1 218.12 150.58 217.602 149.938 217.602H144.513C143.871 217.602 143.351 218.12 143.351 218.758C143.351 219.396 143.871 219.913 144.513 219.913Z" fill="#F9D608"/>
<path d="M178.146 73.2072C178.146 73.8461 178.666 74.3625 179.307 74.3625H182.494C183.665 74.3625 184.829 74.4789 185.965 74.7084C186.559 74.8286 187.14 74.4587 187.297 73.8771C187.473 73.2265 187.054 72.5697 186.389 72.4364C185.112 72.1813 183.807 72.0518 182.493 72.0518H179.306C178.665 72.0518 178.145 72.569 178.145 73.2064L178.146 73.2072Z" fill="#F9D608"/>
<path d="M175.507 219.913H180.932C181.574 219.913 182.094 219.396 182.094 218.758C182.094 218.12 181.574 217.602 180.932 217.602H175.507C174.866 217.602 174.345 218.12 174.345 218.758C174.345 219.396 174.866 219.913 175.507 219.913Z" fill="#F9D608"/>
<path d="M209.128 123.587V162.863H157.621C152.168 162.863 147.227 160.66 143.657 157.11C140.086 153.56 137.871 148.647 137.871 143.225C137.871 132.382 146.715 123.587 157.621 123.587H209.128Z" fill="#0E47A1"/>
<path d="M157.621 160.552H209.703C211.524 160.552 213.001 159.084 213.001 157.273V124.555C213.001 122.745 211.524 121.276 209.703 121.276H157.621C146.714 121.276 137.871 130.068 137.871 140.914C137.871 151.76 146.713 160.552 157.621 160.552Z" fill="#1D89E4"/>
<path d="M209.703 121.277H157.621C146.714 121.277 137.871 130.069 137.871 140.915C137.871 141.173 137.88 141.429 137.89 141.685C138.297 131.197 146.973 122.817 157.621 122.817H209.703C211.524 122.817 213.001 124.285 213.001 126.096V124.556C213.001 122.745 211.524 121.277 209.703 121.277Z" fill="#42A5F6"/>
<path d="M175.823 140.914V140.945C175.807 148.585 169.572 154.777 161.881 154.777C154.191 154.777 147.94 148.569 147.94 140.915V140.761C147.956 139.321 148.196 137.926 148.622 136.625C149.009 135.447 149.543 134.345 150.217 133.329C150.248 133.282 150.279 133.229 150.31 133.182C152.812 129.486 157.064 127.052 161.881 127.052C166.699 127.052 170.68 129.34 173.212 132.836C173.329 132.998 173.445 133.159 173.545 133.329C174.126 134.199 174.599 135.139 174.97 136.124C175.52 137.619 175.822 139.228 175.822 140.914H175.823Z" fill="#EFBA0F"/>
<path d="M173.825 140.908V140.934C173.811 147.445 168.497 152.723 161.941 152.723C155.386 152.723 150.058 147.432 150.058 140.908V140.777C150.071 139.549 150.276 138.361 150.639 137.252C150.969 136.247 151.424 135.308 151.999 134.442C152.026 134.403 152.052 134.357 152.079 134.317C154.211 131.167 157.835 129.093 161.941 129.093C166.047 129.093 169.441 131.042 171.599 134.022C171.699 134.16 171.798 134.298 171.883 134.442C172.379 135.184 172.781 135.985 173.098 136.825C173.567 138.098 173.825 139.47 173.825 140.908Z" fill="#F9D608"/>
<path d="M24.7709 127.542H0V125.453H22.8407C23.4716 126.148 24.1142 126.845 24.7709 127.542Z" fill="#2094E2"/>
<path d="M106.395 116.89V118.979H36.155L27.5434 127.542H24.7709C24.1142 126.845 23.4716 126.148 22.8407 125.453H26.6738L35.2854 116.89H106.395Z" fill="#42A5F6"/>
<path d="M31.4593 134.224H0V132.136H29.281C29.9938 132.833 30.7191 133.529 31.4593 134.224Z" fill="#2094E2"/>
<path d="M43.2816 132.136V134.224H31.4592C30.7191 133.529 29.9938 132.833 29.281 132.136H43.2816Z" fill="#42A5F6"/>
<path d="M39.0164 140.907H0V138.819H36.5543C37.3607 139.517 38.1811 140.213 39.0164 140.907Z" fill="#2094E2"/>
<path d="M73.5274 129.212V131.3H62.8304L53.1683 140.907H39.0164C38.1811 140.213 37.3607 139.517 36.5543 138.819H52.298L61.96 129.212H73.5274Z" fill="#42A5F6"/>
<path d="M47.5788 147.59H0V145.501H44.7845C45.7001 146.2 46.6313 146.896 47.5788 147.59Z" fill="#2094E2"/>
<path d="M63.6415 145.501V147.59H47.5788C46.6313 146.896 45.7001 146.2 44.7845 145.501H63.6415Z" fill="#42A5F6"/>
<path d="M71.2134 162.418H30.6942L22.5022 154.273H30.259V152.184H0V154.273H19.5324L29.8238 164.506H75.1979C73.8479 163.816 72.5198 163.119 71.2134 162.418Z" fill="#2094E2"/>
<path d="M84.8116 162.418V164.506H75.1979C73.8479 163.816 72.5198 163.119 71.2134 162.418H84.8116Z" fill="#42A5F6"/>
<path d="M110.168 113.651C107.784 113.651 105.845 115.579 105.845 117.95C105.845 120.32 107.784 122.249 110.168 122.249C112.552 122.249 114.492 120.32 114.492 117.95C114.492 115.579 112.552 113.651 110.168 113.651ZM110.168 120.38C108.821 120.38 107.724 119.29 107.724 117.95C107.724 116.61 108.821 115.519 110.168 115.519C111.516 115.519 112.612 116.61 112.612 117.95C112.612 119.29 111.516 120.38 110.168 120.38Z" fill="#42A5F6"/>
<path d="M47.0797 128.855C44.6956 128.855 42.756 130.784 42.756 133.154C42.756 135.525 44.6956 137.453 47.0797 137.453C49.4638 137.453 51.4034 135.525 51.4034 133.154C51.4034 130.784 49.4638 128.855 47.0797 128.855ZM47.0797 135.584C45.732 135.584 44.6355 134.494 44.6355 133.154C44.6355 131.814 45.732 130.724 47.0797 130.724C48.4274 130.724 49.5239 131.814 49.5239 133.154C49.5239 134.494 48.4274 135.584 47.0797 135.584Z" fill="#42A5F6"/>
<path d="M77.4175 125.87C75.0333 125.87 73.0938 127.798 73.0938 130.169C73.0938 132.539 75.0333 134.468 77.4175 134.468C79.8016 134.468 81.7412 132.539 81.7412 130.169C81.7412 127.798 79.8016 125.87 77.4175 125.87ZM77.4175 132.599C76.0698 132.599 74.9733 131.509 74.9733 130.169C74.9733 128.829 76.0698 127.739 77.4175 127.739C78.7651 127.739 79.8616 128.829 79.8616 130.169C79.8616 131.509 78.7651 132.599 77.4175 132.599Z" fill="#42A5F6"/>
<path d="M67.576 142.242C65.1919 142.242 63.2523 144.171 63.2523 146.541C63.2523 148.912 65.1919 150.84 67.576 150.84C69.9601 150.84 71.8997 148.912 71.8997 146.541C71.8997 144.171 69.9601 142.242 67.576 142.242ZM67.576 148.972C66.2284 148.972 65.1318 147.881 65.1318 146.541C65.1318 145.201 66.2284 144.111 67.576 144.111C68.9237 144.111 70.0202 145.201 70.0202 146.541C70.0202 147.881 68.9237 148.972 67.576 148.972Z" fill="#42A5F6"/>
<path d="M88.7563 159.189C86.3722 159.189 84.4326 161.117 84.4326 163.488C84.4326 165.858 86.3722 167.787 88.7563 167.787C91.1404 167.787 93.08 165.858 93.08 163.488C93.08 161.117 91.1404 159.189 88.7563 159.189ZM88.7563 165.918C87.4087 165.918 86.3121 164.828 86.3121 163.488C86.3121 162.148 87.4087 161.058 88.7563 161.058C90.104 161.058 91.2005 162.148 91.2005 163.488C91.2005 164.828 90.104 165.918 88.7563 165.918Z" fill="#42A5F6"/>
<path d="M34.1202 148.89C31.7361 148.89 29.7965 150.819 29.7965 153.189C29.7965 155.56 31.7361 157.488 34.1202 157.488C36.5044 157.488 38.4439 155.56 38.4439 153.189C38.4439 150.819 36.5044 148.89 34.1202 148.89ZM34.1202 155.619C32.7726 155.619 31.676 154.529 31.676 153.189C31.676 151.849 32.7726 150.759 34.1202 150.759C35.4679 150.759 36.5644 151.849 36.5644 153.189C36.5644 154.529 35.4679 155.619 34.1202 155.619Z" fill="#2094E2"/>
</g>
<defs>
<clipPath id="clip0_1045_25691">
<rect width="213" height="228" fill="white"/>
</clipPath>
</defs>
</svg>
