<svg width="16" height="16" viewBox="0 0 16 16" fill="none" xmlns="http://www.w3.org/2000/svg">
<path d="M6.33325 9.16667C6.33325 9.81333 6.83326 10.3333 7.44659 10.3333H8.69991C9.23324 10.3333 9.66659 9.88 9.66659 9.31333C9.66659 8.70667 9.39992 8.48667 9.00659 8.34667L6.99992 7.64667C6.60659 7.50667 6.33993 7.29334 6.33993 6.68C6.33993 6.12 6.77325 5.66 7.30658 5.66H8.55992C9.17325 5.66 9.67326 6.18 9.67326 6.82667" stroke="#2873FF" stroke-width="1.5" stroke-linecap="round" stroke-linejoin="round"/>
<path d="M8 5V11" stroke="#2873FF" stroke-width="1.5" stroke-linecap="round" stroke-linejoin="round"/>
<path d="M14.6666 8.00001C14.6666 11.68 11.6799 14.6667 7.99992 14.6667C4.31992 14.6667 1.33325 11.68 1.33325 8.00001C1.33325 4.32001 4.31992 1.33334 7.99992 1.33334" stroke="#2873FF" stroke-width="1.5" stroke-linecap="round" stroke-linejoin="round"/>
<path d="M14.6667 4.00001V1.33334H12" stroke="#2873FF" stroke-width="1.5" stroke-linecap="round" stroke-linejoin="round"/>
<path d="M11.3333 4.66668L14.6666 1.33334" stroke="#2873FF" stroke-width="1.5" stroke-linecap="round" stroke-linejoin="round"/>
</svg>
