<svg width="16" height="16" viewBox="0 0 16 16" fill="none" xmlns="http://www.w3.org/2000/svg">
<path d="M13.7268 7.03327V4.7466C13.7268 3.9266 13.1001 3.01994 12.3334 2.73327L9.00677 1.4866C8.45344 1.27994 7.54677 1.27994 6.99344 1.4866L3.66677 2.73994C2.9001 3.0266 2.27344 3.93327 2.27344 4.7466V9.69994C2.27344 10.4866 2.79344 11.5199 3.42677 11.9933L6.29344 14.1333C6.7601 14.4933 7.3801 14.6666 8.0001 14.6666" stroke="#2873FF" stroke-width="1.5" stroke-linecap="round" stroke-linejoin="round"/>
<path d="M10.6667 13.3333C12.1394 13.3333 13.3333 12.1394 13.3333 10.6666C13.3333 9.19385 12.1394 7.99994 10.6667 7.99994C9.19391 7.99994 8 9.19385 8 10.6666C8 12.1394 9.19391 13.3333 10.6667 13.3333Z" stroke="#2873FF" stroke-width="1.5" stroke-linecap="round" stroke-linejoin="round"/>
<path d="M13.9971 13.9999H14.0031" stroke="#2873FF" stroke-width="2" stroke-linecap="round" stroke-linejoin="round"/>
</svg>
